<svg xmlns="http://www.w3.org/2000/svg" version="1.1" width="3300" height="2000"><g id="Notes"><style>
    text {
      font-family: monospace;
      text-anchor: middle;
    }
    text.emphasis {
      font-weight:bold;
    }
    text.lanchor {
      text-anchor: start;
    }
  </style><rect height="2200" id="artboard" fill="white" width="3300" x="0" y="0"/><line id="" style="fill:none;stroke:black;stroke-width:0.5;" x1="263" x2="3036" y1="292" y2="292"/><text class="lanchor emphasis" transform="matrix(1 0 0 1 263 322)">Weight/Scale Variations</text><text transform="matrix(1 0 0 1 559.711 322)">Ultralight</text><text transform="matrix(1 0 0 1 856.422 322)">Thin</text><text transform="matrix(1 0 0 1 1153.13 322)">Light</text><text transform="matrix(1 0 0 1 1449.84 322)">Regular</text><text transform="matrix(1 0 0 1 1746.56 322)">Medium</text><text transform="matrix(1 0 0 1 2043.27 322)">Semibold</text><text transform="matrix(1 0 0 1 2339.98 322)">Bold</text><text transform="matrix(1 0 0 1 2636.69 322)">Heavy</text><text transform="matrix(1 0 0 1 2933.4 322)">Black</text><text id="template-version" style="text-anchor: end;" transform="matrix(1 0 0 1 3036 1933)">Template v.1.0</text><text class="lanchor" transform="matrix(1 0 0 1 263 726)">Small</text><text class="lanchor" transform="matrix(1 0 0 1 263 1156)">Medium</text><text class="lanchor" transform="matrix(1 0 0 1 263 1586)">Large</text></g><g id="Guides"><g id="H-reference" style="fill:#27AAE1;stroke:none;" transform="matrix(1 0 0 1 339 696)"><path d="M 54.9316 0 L 57.666 0 L 30.5664 -70.459 L 28.0762 -70.459 L 0.976562 0 L 3.66211 0 L 12.9395 -24.4629 L 45.7031 -24.4629 Z M 29.1992 -67.0898 L 29.4434 -67.0898 L 44.8242 -26.709 L 13.8184 -26.709 Z"/></g><line id="Baseline-S" style="fill:none;stroke:#27AAE1;opacity:1;stroke-width:0.577;" x1="263" x2="3036" y1="696" y2="696"/><line id="Capline-S" style="fill:none;stroke:#27AAE1;opacity:1;stroke-width:0.577;" x1="263" x2="3036" y1="625.541" y2="625.541"/><g id="H-reference" style="fill:#27AAE1;stroke:none;" transform="matrix(1 0 0 1 339 1126)"><path d="M 54.9316 0 L 57.666 0 L 30.5664 -70.459 L 28.0762 -70.459 L 0.976562 0 L 3.66211 0 L 12.9395 -24.4629 L 45.7031 -24.4629 Z M 29.1992 -67.0898 L 29.4434 -67.0898 L 44.8242 -26.709 L 13.8184 -26.709 Z"/></g><line id="Baseline-M" style="fill:none;stroke:#27AAE1;opacity:1;stroke-width:0.577;" x1="263" x2="3036" y1="1126" y2="1126"/><line id="Capline-M" style="fill:none;stroke:#27AAE1;opacity:1;stroke-width:0.577;" x1="263" x2="3036" y1="1055.54" y2="1055.54"/><g id="H-reference" style="fill:#27AAE1;stroke:none;" transform="matrix(1 0 0 1 339 1556)"><path d="M 54.9316 0 L 57.666 0 L 30.5664 -70.459 L 28.0762 -70.459 L 0.976562 0 L 3.66211 0 L 12.9395 -24.4629 L 45.7031 -24.4629 Z M 29.1992 -67.0898 L 29.4434 -67.0898 L 44.8242 -26.709 L 13.8184 -26.709 Z"/></g><line id="Baseline-L" style="fill:none;stroke:#27AAE1;opacity:1;stroke-width:0.577;" x1="263" x2="3036" y1="1556" y2="1556"/><line id="Capline-L" style="fill:none;stroke:#27AAE1;opacity:1;stroke-width:0.577;" x1="263" x2="3036" y1="1485.54" y2="1485.54"/><rect height="119.336" id="left-margin" style="fill:darkred;stroke:none;opacity:0.4;" width="12.4512" x="1394.06" y="1030.79"/><rect height="119.336" id="right-margin" style="fill:darkgreen;stroke:none;opacity:0.4;" width="12.4512" x="1502.5112" y="1030.79"/><rect x="1406.5112" y="1045" width="96" height="96" fill="none" stroke="blue" stroke-dasharray="5"/><rect x="1394.06" y="1030.79" width="120.9024" height="119.336" fill="none" stroke="blue"/></g><g id="Symbols"><g id="Bold-L" transform="matrix(1 0 0 1 2266 1556)"><path d="M42.73125 37.493750000000006  61.11375 -56.19249999999998  47.89125 -50.38749999999999 V-28.618749999999977 H34.34625 V-59.578749999999985 L67.72500000000001 -73.12374999999999 Q70.305 -74.09124999999997 73.04625 -74.33312499999998 Q75.78750000000001 -74.57499999999999 78.52875 -74.09124999999997 Q81.43125 -73.44624999999999 83.769375 -71.99499999999998 Q86.1075 -70.54374999999999 87.55875 -68.28624999999998 L94.65375 -57.64374999999998 Q99.33 -50.38749999999999 106.828125 -46.11437499999998 Q114.32625 -41.84124999999999 123.19500000000001 -41.84124999999999 V-28.618749999999977 Q112.06875000000001 -28.779999999999987 103.03875000000001 -32.73062499999999 Q94.00875 -36.68124999999998 86.91375000000001 -45.38874999999999 L81.915 -25.55499999999998 L96.42750000000001 -12.332499999999982 V37.493750000000006 H83.205 V0.0837500000000091 L68.53125 -14.751249999999985 L56.115 37.493750000000006 H42.73125 Z M88.52625 -81.18624999999999 Q82.88250000000001 -81.18624999999999 78.931875 -85.21749999999999 Q74.98125 -89.24874999999999 74.98125 -94.89249999999998 Q74.98125 -100.69749999999999 78.931875 -104.648125 Q82.88250000000001 -108.59874999999998 88.52625 -108.59874999999998 Q94.17 -108.59874999999998 98.20125 -104.648125 Q102.2325 -100.69749999999999 102.2325 -94.89249999999998 Q102.2325 -89.24874999999999 98.20125 -85.21749999999999 Q94.17 -81.18624999999999 88.52625 -81.18624999999999 Z"/></g><g id="Semibold-L" transform="matrix(1 0 0 1 1970.27 1556)"><path d="M43.642635 36.72297500000002  62.16526125000001 -57.314154999999985  47.610836250000006 -51.01847124999999 V-29.389847499999988 H35.678174999999996 V-59.01792249999998 L68.00541375 -72.35265249999998 Q70.4452875 -73.32015249999998 73.08124125 -73.56202749999999 Q75.71735625000001 -73.80390249999999 78.31848000000001 -73.32015249999998 Q81.15083625000001 -72.74513499999998 83.34867375 -71.36402874999999 Q85.54667250000001 -69.98292249999997 86.92777875 -67.86554874999999 L93.88265249999999 -57.22304874999999 Q98.69902875 -49.75652874999999 106.19715375 -45.413259999999994 Q113.69527875 -41.07015249999998 122.4239025 -41.07015249999998 V-29.389847499999988 Q111.22750875000001 -29.621241249999983 102.3727875 -33.85227999999998 Q93.51806625 -38.08331874999999 86.49304875 -47.14137624999999 L81.00361500000001 -25.27458624999997 L95.6564025 -11.981942499999988 V36.72297500000002 H83.97609750000001 V-1.248174999999975 L68.11054875 -16.50387624999999 L55.5541725 36.72297500000002 H43.642635 Z M87.89527875 -80.41515249999998 Q82.60208625 -80.41515249999998 78.86173125 -84.20097999999999 Q75.1215375 -87.98680749999998 75.1215375 -93.28016124999999 Q75.1215375 -98.66445999999999 78.86173125 -102.40481499999999 Q82.60208625 -106.14516999999998 87.89527875 -106.14516999999998 Q93.18847125 -106.14516999999998 96.97446000000001 -102.40481499999999 Q100.7602875 -98.66445999999999 100.7602875 -93.28016124999999 Q100.7602875 -87.98680749999998 96.97446000000001 -84.20097999999999 Q93.18847125 -80.41515249999998 87.89527875 -80.41515249999998 Z"/></g><g id="Medium-L" transform="matrix(1 0 0 1 1674.31 1556)"><path d="M44.32617375 36.14408750000001  62.954096250000006 -58.155557499999986  47.40056625 -51.49173999999998 V-29.968412499999985 H36.677279999999996 V-58.59722124999999 L68.21568375 -71.77408749999998 Q70.5504225 -72.74158749999998 73.107525 -72.98346249999997 Q75.66478875 -73.22533749999998 78.16061625 -72.74158749999998 Q80.94056625 -72.21929874999998 83.03326874999999 -70.89075999999997 Q85.12597125 -69.56222125 86.45451000000001 -67.55014374999999 L93.30408750000001 -56.90764374999998 Q98.22576000000001 -49.283259999999984 105.72388500000001 -44.88742374999998 Q113.22201000000001 -40.49158749999998 121.8453375 -40.49158749999998 V-29.968412499999985 Q110.59653750000001 -30.252212499999985 101.87323500000001 -34.69368249999998 Q93.1499325 -39.134991249999985 86.17764374999999 -48.45604749999998 L80.32007625 -25.064316249999976 L95.0778375 -11.719104999999985 V36.14408750000001 H84.5546625 V-2.2472799999999893 L67.79514375000001 -17.818547499999994 L55.13347125000001 36.14408750000001 H44.32617375 Z M87.42201000000001 -79.83658749999998 Q82.39181625 -79.83658749999998 78.80916375 -83.43842874999999 Q75.2266725 -87.04026999999999 75.2266725 -92.07062499999998 Q75.2266725 -97.13951874999998 78.80916375 -100.72200999999998 Q82.39181625 -104.30466249999998 87.42201000000001 -104.30466249999998 Q92.452365 -104.30466249999998 96.05420625 -100.72200999999998 Q99.65604750000001 -97.13951874999998 99.65604750000001 -92.07062499999998 Q99.65604750000001 -87.04026999999999 96.05420625 -83.43842874999999 Q92.452365 -79.83658749999998 87.42201000000001 -79.83658749999998 Z"/></g><g id="Regular-L" transform="matrix(1 0 0 1 1378.56 1556)"><path d="M44.8275 35.72000000000003  63.5325 -58.77249999999998  47.24625 -51.838749999999976 V-30.392499999999984 H37.410000000000004 V-58.28874999999998 L68.37 -71.34999999999998 Q70.6275 -72.31749999999998 73.126875 -72.55937499999999 Q75.62625 -72.80124999999998 78.045 -72.31749999999998 Q80.78625 -71.83374999999998 82.801875 -70.54374999999999 Q84.8175 -69.25374999999998 86.1075 -67.31874999999998 L92.88 -56.67624999999998 Q97.87875 -48.93624999999999 105.376875 -44.501874999999984 Q112.875 -40.06749999999998 121.42125 -40.06749999999998 V-30.392499999999984 Q110.13375 -30.71499999999999 101.50687500000001 -35.31062499999999 Q92.88 -39.906249999999986 85.94625 -49.41999999999999 L79.81875000000001 -24.909999999999982 L94.65375 -11.526249999999976 V35.72000000000003 H84.97875 V-2.9799999999999756 L67.56375 -18.782499999999985 L54.825 35.72000000000003 H44.8275 Z M87.075 -79.4125 Q82.2375 -79.4125 78.770625 -82.87937499999998 Q75.30375000000001 -86.34624999999998 75.30375000000001 -91.18374999999997 Q75.30375000000001 -96.02124999999998 78.770625 -99.48812499999998 Q82.2375 -102.95499999999998 87.075 -102.95499999999998 Q91.91250000000001 -102.95499999999998 95.379375 -99.48812499999998 Q98.84625 -96.02124999999998 98.84625 -91.18374999999997 Q98.84625 -86.34624999999998 95.379375 -82.87937499999998 Q91.91250000000001 -79.4125 87.075 -79.4125 Z"/></g><g id="Light-L" transform="matrix(1 0 0 1 1082.77 1556)"><path d="M46.99840875 34.107500000000016  66.01349250000001 -60.57124374999998  47.24625 -52.64499999999998 V-31.632996249999977 H39.828911250000004 V-57.60650124999998 L69.23833125 -69.9855025 Q71.43375 -70.95300249999998 73.7160825 -71.22583749999998 Q75.998415 -71.4986725 78.16900125000001 -71.07700374999999 Q80.53808625 -70.65533499999998 82.33666875 -69.48933624999998 Q84.13525125000001 -68.32333749999998 85.36317000000001 -66.51249999999999 L91.01933625000001 -57.54458124999998 Q96.45217125 -48.99833124999998 103.9814175 -44.19179124999998 Q111.5105025 -39.38525124999998 120.1186725 -39.013086249999986 V-31.695077499999982 Q109.07933625000001 -32.38958124999998 100.5764625 -37.48153374999998 Q92.07375 -42.57332499999998 85.45008375 -52.583241249999986 L78.95041875 -24.47575374999998 L93.59933625000001 -10.34783499999999 V34.107500000000016 H86.2813275 V-3.4142462499999766 L67.68775125 -20.891327499999974 L54.51491625 34.107500000000016 H46.99840875 Z M87.075 -79.78466499999999 Q82.48566375 -79.78466499999999 79.23583125 -83.03449749999999 Q75.98599875000001 -86.28416874999999 75.98599875000001 -90.87366624999999 Q75.98599875000001 -95.46300249999999 79.23583125 -98.71283499999998 Q82.48566375 -101.96266749999998 87.075 -101.96266749999998 Q91.66433625 -101.96266749999998 94.91416875 -98.71283499999998 Q98.16400125 -95.46300249999999 98.16400125 -90.87366624999999 Q98.16400125 -86.28416874999999 94.91416875 -83.03449749999999 Q91.66433625 -79.78466499999999 87.075 -79.78466499999999 Z"/></g><g id="Thin-L" transform="matrix(1 0 0 1 787.282 1556)"><path d="M49.168833750000005 32.49500000000003  68.49400125 -62.36966499999998  47.24625 -53.45124999999999 V-32.87333124999998 H42.2475 V-56.924413749999985 L70.10650125000001 -68.62116624999999 Q72.24000000000001 -69.58866624999999 74.30529 -69.89262249999999 Q76.37041875 -70.19641749999998 78.2930025 -69.83666874999999 Q80.29008375000001 -69.47708124999998 81.87162375 -68.43508374999999 Q83.45316375 -67.39324749999997 84.61900125 -65.70624999999998 L89.15883375 -58.412751249999985 Q95.025915 -49.06025124999998 102.58596 -43.881707499999976 Q110.14616625000001 -38.70316374999999 118.8164175 -37.95883374999998 V-32.997332499999985 Q108.02508375000001 -34.06400124999999 99.6463725 -39.65195874999998 Q91.2675 -45.23991624999998 84.9539175 -55.745998749999984 L78.08224875 -24.041668749999985 L92.54508375 -9.169581249999979 V32.49500000000003 H87.5835825 V-3.848331249999987 L67.8117525 -22.999832499999982 L54.2048325 32.49500000000003 H49.168833750000005 Z M87.075 -80.15666875 Q82.73366625 -80.15666875 79.70087625000001 -83.18945874999999 Q76.66808625 -86.22224874999998 76.66808625 -90.56358249999998 Q76.66808625 -94.90491624999999 79.70087625000001 -97.93770624999999 Q82.73366625 -100.97033499999998 87.075 -100.97033499999998 Q91.41633375 -100.97033499999998 94.44912375 -97.93770624999999 Q97.48191375 -94.90491624999999 97.48191375 -90.56358249999998 Q97.48191375 -86.22224874999998 94.44912375 -83.18945874999999 Q91.41633375 -80.15666875 87.075 -80.15666875 Z"/></g><g id="Ultralight-L" transform="matrix(1 0 0 1 491.205 1556)"><path d="M50.471250000000005 31.527500000000032  69.9825 -63.44874999999999  47.24625 -53.93499999999999 V-33.61749999999998 H43.698750000000004 V-56.514999999999986 L70.6275 -67.80249999999998 Q72.72375 -68.76999999999998 74.65875 -69.09249999999999 Q76.59375 -69.41499999999999 78.3675 -69.09249999999999 Q80.14125 -68.76999999999998 81.5925 -67.80249999999998 Q83.04375 -66.83499999999998 84.1725 -65.22249999999998 L88.0425 -58.93374999999999 Q94.17 -49.09749999999998 101.74875 -43.69562499999998 Q109.3275 -38.29374999999999 118.035 -37.32624999999999 V-33.77874999999999 Q107.3925 -35.06874999999998 99.088125 -40.954374999999985 Q90.78375 -46.83999999999999 84.65625 -57.64374999999998 L77.56125 -23.781249999999986 L91.91250000000001 -8.462499999999977 V31.527500000000032 H88.36500000000001 V-4.108749999999986 L67.88625 -24.264999999999986 L54.018750000000004 31.527500000000032 H50.471250000000005 Z M87.075 -80.37999999999998 Q82.88250000000001 -80.37999999999998 79.98 -83.28249999999998 Q77.0775 -86.18499999999997 77.0775 -90.37749999999998 Q77.0775 -94.57 79.98 -97.47249999999998 Q82.88250000000001 -100.37499999999999 87.075 -100.37499999999999 Q91.2675 -100.37499999999999 94.17 -97.47249999999998 Q97.0725 -94.57 97.0725 -90.37749999999998 Q97.0725 -86.18499999999997 94.17 -83.28249999999998 Q91.2675 -80.37999999999998 87.075 -80.37999999999998 Z"/></g><g id="Bold-M" transform="matrix(1 0 0 1 2281.8 1126)"><path d="M32.75 21.64500000000001  46.5 -48.10499999999999  40.625 -45.72999999999999 V-28.35499999999999 H26.75 V-55.10499999999999 L54.5 -66.22999999999999 Q56.625 -67.10499999999999 58.8125 -67.16749999999999 Q61.0 -67.22999999999999 63.125 -66.60499999999999 Q65.25 -65.97999999999999 67.0 -64.60499999999999 Q68.75 -63.22999999999999 70.0 -61.22999999999999 L75.25 -53.22999999999999 Q78.25 -48.47999999999999 83.75 -45.29249999999999 Q89.25 -42.10499999999999 96.875 -42.10499999999999 V-28.35499999999999 Q88.25 -28.35499999999999 81.0 -31.22999999999999 Q73.75 -34.10499999999999 68.625 -38.85499999999999 L66.625 -28.35499999999999 L76.875 -18.47999999999999 V21.64500000000001 H63.125 V-9.47999999999999 L55.5 -16.60499999999999 L46.875 21.64500000000001 H32.75 Z M69.0 -69.60499999999999 Q64.0 -69.60499999999999 60.5625 -73.10499999999999 Q57.125 -76.60499999999999 57.125 -81.60499999999999 Q57.125 -86.60499999999999 60.5625 -90.04249999999999 Q64.0 -93.47999999999999 69.0 -93.47999999999999 Q74.0 -93.47999999999999 77.5 -90.04249999999999 Q81.0 -86.60499999999999 81.0 -81.60499999999999 Q81.0 -76.60499999999999 77.5 -73.10499999999999 Q74.0 -69.60499999999999 69.0 -69.60499999999999 Z"/></g><g id="Semibold-M" transform="matrix(1 0 0 1 1985.97 1126)"><path d="M33.72825 20.830000000000013  47.586875 -49.24624999999999  40.35325 -46.38212499999999 V-29.170124999999985 H28.163 V-54.50724999999999 L54.826125 -65.46912499999999 Q56.788 -66.289875 58.866875 -66.3795 Q60.945625 -66.46912499999999 62.907625 -65.84412499999999 Q64.869625 -65.21912499999999 66.538125 -63.95287499999999 Q68.2065 -62.68649999999999 69.347875 -60.79524999999999 L74.489125 -52.79524999999999 Q77.597875 -47.82787499999999 83.125 -44.558874999999986 Q88.65225 -41.289874999999995 96.059875 -41.289874999999995 V-29.170124999999985 Q87.3805 -29.170124999999985 80.2935 -32.37124999999999 Q73.2065 -35.57225 68.19025 -40.702749999999995 L65.701125 -28.083249999999992 L76.059875 -18.153874999999985 V20.830000000000013 H63.940125 V-10.892999999999986 L55.06525 -18.398374999999987 L46.27725 20.830000000000013 H33.72825 Z M68.347875 -68.789875 Q63.72825 -68.789875 60.508125 -72.04524999999998 Q57.288 -75.30075 57.288 -79.92037499999999 Q57.288 -84.539875 60.508125 -87.75999999999999 Q63.72825 -90.98012499999999 68.347875 -90.98012499999999 Q72.9675 -90.98012499999999 76.222875 -87.75999999999999 Q79.478375 -84.539875 79.478375 -79.92037499999999 Q79.478375 -75.30075 76.222875 -72.04524999999998 Q72.9675 -68.789875 68.347875 -68.789875 Z"/></g><g id="Medium-M" transform="matrix(1 0 0 1 1689.91 1126)"><path d="M34.462 20.218750000000014  48.402125 -50.10224999999999  40.1495 -46.87124999999999 V-29.78162499999999 H29.22275 V-54.05874999999999 L55.070625 -64.89849999999998 Q56.910375 -65.67837499999999 58.907625 -65.78837499999999 Q60.904875 -65.89849999999998 62.744625 -65.27349999999998 Q64.58425 -64.64849999999998 66.191625 -63.46374999999999 Q67.798875 -62.27887499999999 68.85875 -60.46912499999999 L73.9185 -52.46912499999999 Q77.10875 -47.33874999999999 82.65625 -44.00849999999999 Q88.20375 -40.67837499999999 95.448375 -40.67837499999999 V-29.78162499999999 Q86.72825 -29.78162499999999 79.763625 -33.227249999999984 Q72.798875 -36.67287499999999 67.864125 -42.08862499999999 L65.008125 -27.879499999999993 L75.448375 -17.909374999999983 V20.218750000000014 H64.551625 V-11.952749999999995 L54.739125 -19.743624999999994 L45.82875 20.218750000000014 H34.462 Z M67.85875 -68.17837499999999 Q63.5245 -68.17837499999999 60.467375 -71.25037499999999 Q57.410375 -74.322375 57.410375 -78.65662499999999 Q57.410375 -82.99087499999999 60.467375 -86.04799999999999 Q63.5245 -89.10499999999999 67.85875 -89.10499999999999 Q72.193 -89.10499999999999 75.265 -86.04799999999999 Q78.337 -82.99087499999999 78.337 -78.65662499999999 Q78.337 -74.322375 75.265 -71.25037499999999 Q72.193 -68.17837499999999 67.85875 -68.17837499999999 Z"/></g><g id="Regular-M" transform="matrix(1 0 0 1 1394.06 1126)"><path d="M35.0 19.77000000000001  49.0 -50.72999999999999  40.0 -47.22999999999999 V-30.22999999999999 H30.0 V-53.72999999999999 L55.25 -64.47999999999999 Q57.0 -65.22999999999999 58.9375 -65.35499999999999 Q60.875 -65.47999999999999 62.625 -64.85499999999999 Q64.375 -64.22999999999999 65.9375 -63.10499999999999 Q67.5 -61.97999999999999 68.5 -60.22999999999999 L73.5 -52.22999999999999 Q76.75 -46.97999999999999 82.3125 -43.60499999999999 Q87.875 -40.22999999999999 95.0 -40.22999999999999 V-30.22999999999999 Q86.25 -30.22999999999999 79.375 -33.85499999999999 Q72.5 -37.47999999999999 67.625 -43.10499999999999 L64.5 -27.72999999999999 L75.0 -17.72999999999999 V19.77000000000001 H65.0 V-12.72999999999999 L54.5 -20.72999999999999 L45.5 19.77000000000001 H35.0 Z M67.5 -67.72999999999999 Q63.375 -67.72999999999999 60.4375 -70.66749999999999 Q57.5 -73.60499999999999 57.5 -77.72999999999999 Q57.5 -81.85499999999999 60.4375 -84.79249999999999 Q63.375 -87.72999999999999 67.5 -87.72999999999999 Q71.625 -87.72999999999999 74.5625 -84.79249999999999 Q77.5 -81.85499999999999 77.5 -77.72999999999999 Q77.5 -73.60499999999999 74.5625 -70.66749999999999 Q71.625 -67.72999999999999 67.5 -67.72999999999999 Z"/></g><g id="Light-M" transform="matrix(1 0 0 1 1098.18 1126)"><path d="M36.63475 18.52000000000001  50.97125 -52.84549999999999  39.0865 -48.09549999999999 V-31.52812499999999 H31.586625 V-53.00874999999999 L55.298125 -63.08562499999999 Q57.048125 -63.83562499999999 58.79325 -63.98474999999999 Q60.538375 -64.13374999999999 62.14425 -63.65299999999999 Q63.75 -63.17224999999999 65.120125 -62.16737499999999 Q66.49025 -61.16262499999999 67.44225 -59.55687499999999 L71.673 -52.80699999999999 Q75.40375 -46.73962499999999 81.062375 -43.05212499999999 Q86.721125 -39.36449999999999 93.749875 -39.07612499999999 V-31.576249999999987 Q85.19225 -31.960874999999987 78.4855 -35.922499999999985 Q71.77875 -39.883999999999986 66.951875 -46.37449999999999 L63.105625 -27.24924999999999 L73.749875 -16.57612499999999 V18.52000000000001 H66.250125 V-12.393374999999992 L54.01925 -22.845499999999987 L44.44225 18.52000000000001 H36.63475 Z M67.5 -68.49924999999999 Q63.6635 -68.49924999999999 60.966375 -71.19637499999999 Q58.26925 -73.89349999999999 58.26925 -77.72999999999999 Q58.26925 -81.56649999999999 60.966375 -84.26362499999999 Q63.6635 -86.96074999999999 67.5 -86.96074999999999 Q71.3365 -86.96074999999999 74.033625 -84.26362499999999 Q76.73075 -81.56649999999999 76.73075 -77.72999999999999 Q76.73075 -73.89349999999999 74.033625 -71.19637499999999 Q71.3365 -68.49924999999999 67.5 -68.49924999999999 Z"/></g><g id="Thin-M" transform="matrix(1 0 0 1 802.565 1126)"><path d="M38.26925 17.27000000000001  52.94225 -54.96074999999999  38.173125 -48.96074999999999 V-32.82612499999999 H33.173 V-52.28774999999999 L55.346125 -61.69149999999999 Q57.096125 -62.44149999999999 58.649 -62.61462499999999 Q60.201875 -62.78774999999999 61.6635 -62.45112499999999 Q63.125 -62.11462499999999 64.302875 -61.22999999999999 Q65.48075 -60.34537499999999 66.384625 -58.88387499999999 L69.846125 -53.38387499999999 Q74.05775 -46.49924999999999 79.8125 -42.49924999999999 Q85.567375 -38.49924999999999 92.5 -37.92237499999999 V-32.92224999999999 Q84.134625 -33.69149999999999 77.596125 -37.98962499999999 Q71.05775 -42.28762499999999 66.278875 -49.64337499999999 L61.7115 -26.76849999999999 L72.5 -15.422374999999988 V17.27000000000001 H67.5 V-12.056874999999991 L53.5385 -24.96074999999999 L43.384625 17.27000000000001 H38.26925 Z M67.5 -69.26849999999999 Q63.951875 -69.26849999999999 61.495125 -71.72512499999999 Q59.0385 -74.18187499999999 59.0385 -77.72999999999999 Q59.0385 -81.27812499999999 61.495125 -83.73487499999999 Q63.951875 -86.19149999999999 67.5 -86.19149999999999 Q71.048125 -86.19149999999999 73.504875 -83.73487499999999 Q75.9615 -81.27812499999999 75.9615 -77.72999999999999 Q75.9615 -74.18187499999999 73.504875 -71.72512499999999 Q71.048125 -69.26849999999999 67.5 -69.26849999999999 Z"/></g><g id="Ultralight-M" transform="matrix(1 0 0 1 506.415 1126)"><path d="M39.25 16.52000000000001  54.125 -56.22999999999999  37.625 -49.47999999999999 V-33.60499999999999 H34.125 V-51.85499999999999 L55.375 -60.85499999999999 Q57.125 -61.60499999999999 58.5625 -61.79249999999999 Q60.0 -61.97999999999999 61.375 -61.72999999999999 Q62.75 -61.47999999999999 63.8125 -60.66749999999999 Q64.875 -59.85499999999999 65.75 -58.47999999999999 L68.75 -53.72999999999999 Q73.25 -46.35499999999999 79.0625 -42.16749999999999 Q84.875 -37.97999999999999 91.75 -37.22999999999999 V-33.72999999999999 Q83.5 -34.72999999999999 77.0625 -39.22999999999999 Q70.625 -43.72999999999999 65.875 -51.60499999999999 L60.875 -26.47999999999999 L71.75 -14.72999999999999 V16.52000000000001 H68.25 V-11.85499999999999 L53.25 -26.22999999999999 L42.75 16.52000000000001 H39.25 Z M67.5 -69.72999999999999 Q64.125 -69.72999999999999 61.8125 -72.04249999999999 Q59.5 -74.35499999999999 59.5 -77.72999999999999 Q59.5 -81.10499999999999 61.8125 -83.41749999999999 Q64.125 -85.72999999999999 67.5 -85.72999999999999 Q70.875 -85.72999999999999 73.1875 -83.41749999999999 Q75.5 -81.10499999999999 75.5 -77.72999999999999 Q75.5 -74.35499999999999 73.1875 -72.04249999999999 Q70.875 -69.72999999999999 67.5 -69.72999999999999 Z"/></g><g id="Bold-S" transform="matrix(1 0 0 1 2294.23 696)"><path d="M27.615000000000002 4.1213750000000005  36.589875 -42.232375  31.264125 -39.766749999999995 V-29.01662499999999 H21.10575 V-46.769124999999995 L41.323875 -54.757749999999994 Q42.606 -55.25087499999999 43.740187500000005 -55.3988125 Q44.874375 -55.546749999999996 46.057875 -55.546749999999996 Q48.918 -55.546749999999996 51.0384375 -54.215312499999996 Q53.158875 -52.883874999999996 54.736875000000005 -50.714124999999996 L55.82175 -49.431999999999995 Q57.892875000000004 -46.374624999999995 60.654375 -42.7255 Q63.415875 -39.07637499999999 72.48937500000001 -39.07637499999999 V-29.01662499999999 Q66.177375 -29.01662499999999 60.900937500000005 -30.791874999999997 Q55.624500000000005 -32.567125 52.764375 -36.01899999999999 L51.580875 -28.622124999999997 L58.287375000000004 -21.816999999999993 V4.1213750000000005 H48.227625 V-15.998124999999987 L43.296375000000005 -20.830749999999995 L37.4775 4.1213750000000005 H27.615000000000002 Z M53.2575 -58.012375 Q49.11525 -58.012375 46.3044375 -60.872499999999995 Q43.493625 -63.732625 43.493625 -67.874875 Q43.493625 -72.017125 46.3044375 -74.82793749999999 Q49.11525 -77.63875 53.2575 -77.63875 Q57.399750000000004 -77.63875 60.259875 -74.82793749999999 Q63.120000000000005 -72.017125 63.120000000000005 -67.874875 Q63.120000000000005 -63.732625 60.259875 -60.872499999999995 Q57.399750000000004 -58.012375 53.2575 -58.012375 Z"/></g><g id="Semibold-S" transform="matrix(1 0 0 1 1998.1 696)"><path d="M28.386839250000005 3.4782413750000103  37.447419375 -43.13282124999999  31.049714250000005 -40.28127662499999 V-29.659758624999988 H22.220607 V-46.29750025 L41.581187625 -54.157419624999996 Q42.734607 -54.607741374999996 43.783089375 -54.7770805 Q44.831473125 -54.946419625 45.886366125 -54.946419625 Q48.617884125 -54.946419625 50.674018124999996 -53.700785874999994 Q52.730053500000004 -52.45505349999999 54.222348375 -50.371107249999994 L55.221419625 -49.088982249999994 Q57.378348375 -45.860098375 60.16125 -42.14666987499999 Q62.944250249999996 -38.433241375 71.846241375 -38.433241375 V-29.659758624999988 Q65.4913395 -29.659758624999988 60.343509 -31.692321249999992 Q55.19567850000001 -33.72478525 52.42135725000001 -37.47687475 L50.851937625000005 -28.407714249999998 L57.64424137500001 -21.559687374999996 V3.4782413750000103 H48.870758625 V-17.112981999999988 L42.95335725 -22.245722875 L37.00587525 3.4782413750000103 H28.386839250000005 Z M52.742973375000005 -57.369241374999994 Q48.900839250000004 -57.369241374999994 46.261535625 -60.036357249999995 Q43.622232 -62.703571749999995 43.622232 -66.545705875 Q43.622232 -70.38774137499999 46.261535625 -73.027045 Q48.900839250000004 -75.666348625 52.742973375000005 -75.666348625 Q56.58510750000001 -75.666348625 59.25222337500001 -73.027045 Q61.919437875 -70.38774137499999 61.919437875 -66.545705875 Q61.919437875 -62.703571749999995 59.25222337500001 -60.036357249999995 Q56.58510750000001 -57.369241374999994 52.742973375000005 -57.369241374999994 Z"/></g><g id="Medium-S" transform="matrix(1 0 0 1 1701.85 696)"><path d="M28.965768000000004 2.9957678750000127  38.090651625 -43.80820524999999  30.888955500000005 -40.667196249999996 V-30.142232124999992 H23.05674975 V-45.94363375 L41.774098125 -53.707196499999995 Q42.831160875 -54.12526787499999 43.81524112500001 -54.31068287499999 Q44.799321375 -54.496196499999996 45.757759125 -54.496196499999996 Q48.39272325 -54.496196499999996 50.400629625 -53.314866249999994 Q52.408437375 -52.133437375 53.83642875 -50.113794625 L54.771196499999995 -48.831669624999996 Q56.99242875 -45.47417874999999 59.79140625 -41.712424 Q62.59038375 -37.95076787499999 71.36376787500001 -37.95076787499999 V-30.142232124999992 Q64.97671425 -30.142232124999992 59.92543762500001 -32.367705249999986 Q54.874062375 -34.593178374999994 52.164044625 -38.570330125 L50.305160625 -28.2469555 L57.161767875 -21.366776874999985 V2.9957678750000127 H49.353232125000005 V-17.949124749999996 L42.696044625000006 -23.307125125 L36.65200875 2.9957678750000127 H28.965768000000004 Z M52.357053750000006 -56.886767875 Q48.740080500000005 -56.886767875 46.229383874999996 -59.409200874999996 Q43.718785875 -61.93163387499999 43.718785875 -65.54860712499999 Q43.718785875 -69.16558037499999 46.229383874999996 -71.676277 Q48.740080500000005 -74.186875 52.357053750000006 -74.186875 Q55.974027 -74.186875 58.496460000000006 -71.676277 Q61.018893000000006 -69.16558037499999 61.018893000000006 -65.54860712499999 Q61.018893000000006 -61.93163387499999 58.496460000000006 -59.409200874999996 Q55.974027 -56.886767875 52.357053750000006 -56.886767875 Z"/></g><g id="Regular-S" transform="matrix(1 0 0 1 1405.73 696)"><path d="M29.39025 2.64200000000001  38.562375 -44.30349999999999  30.771 -40.95025 V-30.495999999999995 H23.67 V-45.68424999999999 L41.915625 -53.376999999999995 Q42.901875000000004 -53.771499999999996 43.8388125 -53.96874999999999 Q44.77575 -54.166 45.663375 -54.166 Q48.227625 -54.166 50.200125 -53.031812499999994 Q52.172625000000004 -51.897625 53.553375 -49.925124999999994 L54.441 -48.642999999999994 Q56.709375 -45.19112499999999 59.520187500000006 -41.3940625 Q62.331 -37.596999999999994 71.01 -37.596999999999994 V-30.495999999999995 Q64.59937500000001 -30.495999999999995 59.618812500000004 -32.86299999999999 Q54.63825 -35.23 51.975375 -39.372249999999994 L49.904250000000005 -28.12899999999999 L56.808 -21.22524999999999 V2.64200000000001 H49.707 V-18.56237499999999 L42.507375 -24.085375 L36.392625 2.64200000000001 H29.39025 Z M52.074000000000005 -56.532999999999994 Q48.622125000000004 -56.532999999999994 46.2058125 -58.9493125 Q43.789500000000004 -61.365624999999994 43.789500000000004 -64.8175 Q43.789500000000004 -68.269375 46.2058125 -70.6856875 Q48.622125000000004 -73.102 52.074000000000005 -73.102 Q55.525875 -73.102 57.9421875 -70.6856875 Q60.3585 -68.269375 60.3585 -64.8175 Q60.3585 -61.365624999999994 57.9421875 -58.9493125 Q55.525875 -56.532999999999994 52.074000000000005 -56.532999999999994 Z"/></g><g id="Light-S" transform="matrix(1 0 0 1 1109.75 696)"><path d="M30.68006775 1.655651375000005  40.11769125 -45.97262949999999  30.050248500000002 -41.633129499999995 V-31.520220624999993 H24.921847125000003 V-45.11518375 L41.953595625 -52.276838125 Q42.939845625000004 -52.671338125 43.72499925 -52.88762275 Q44.510152875 -53.10380875 45.28406325 -53.217622 Q47.734500000000004 -53.33143525 49.555216125 -52.292026375 Q51.375932250000005 -51.252716125 52.718810250000004 -49.394029374999995 L52.999497000000005 -49.09825299999999 Q55.64718375 -45.00146912499999 58.53383887500001 -40.957844124999994 Q61.420592625000005 -36.914120499999996 70.023651375 -36.686592624999996 V-31.558191249999993 Q63.764810250000004 -31.861660374999992 58.916997 -34.49425749999999 Q54.06918375000001 -37.12675599999999 51.444279375 -41.951885499999996 L48.80408812500001 -27.74968824999999 L55.821651375 -20.314842624999997 V1.655651375000005 H50.693348625 V-18.29677787499999 L42.128063250000004 -25.754504499999996 L35.558060250000004 1.655651375000005 H30.68006775 Z M52.074000000000005 -57.13993824999999 Q48.8497515 -57.13993824999999 46.623094875 -59.366594875 Q44.39643825 -61.593251499999994 44.39643825 -64.8175 Q44.39643825 -68.0417485 46.623094875 -70.268405125 Q48.8497515 -72.49506174999999 52.074000000000005 -72.49506174999999 Q55.2982485 -72.49506174999999 57.524905125000004 -70.268405125 Q59.75156175 -68.0417485 59.75156175 -64.8175 Q59.75156175 -61.593251499999994 57.524905125000004 -59.366594875 Q55.2982485 -57.13993824999999 52.074000000000005 -57.13993824999999 Z"/></g><g id="Thin-S" transform="matrix(1 0 0 1 814.015 696)"><path d="M31.96968825 0.6695000000000135  41.672810250000005 -47.641561749999994  29.329595625 -42.315811749999995 V-32.54434262499999 H26.173497 V-44.54631474999999 L41.991467625000006 -51.17687349999999 Q42.977717625000004 -51.57137349999999 43.611186000000004 -51.806594125 Q44.244654375 -52.04181474999999 44.9047515 -52.26934262499999 Q47.241375000000005 -52.49696912499999 48.910405875 -51.552437499999996 Q50.57943675 -50.60790587499999 51.884344125000005 -48.863032374999996 L51.558092625 -49.55340737499999 Q54.58518975 -44.81181324999999 57.5476875 -40.52162574999999 Q60.510283875 -36.23143825 69.03750000000001 -35.77628387499999 V-32.62018525 Q62.930344125000005 -33.2271235 58.215280125 -36.125219124999994 Q53.50031475 -39.023216125 50.913282375 -44.531027875 L47.7041235 -27.370376499999992 L54.8355 -19.404533875 V0.6695000000000135 H51.679500000000004 V-18.031279374999997 L41.748751500000004 -27.423436749999993 L34.723594125 0.6695000000000135 H31.96968825 Z M52.074000000000005 -57.74687649999999 Q49.077279375 -57.74687649999999 47.040278625000006 -59.783778625 Q45.0033765 -61.820779375 45.0033765 -64.8175 Q45.0033765 -67.81422062499999 47.040278625000006 -69.851221375 Q49.077279375 -71.88812349999999 52.074000000000005 -71.88812349999999 Q55.070720625 -71.88812349999999 57.107721375000004 -69.851221375 Q59.1446235 -67.81422062499999 59.1446235 -64.8175 Q59.1446235 -61.820779375 57.107721375000004 -59.783778625 Q55.070720625 -57.74687649999999 52.074000000000005 -57.74687649999999 Z"/></g><g id="Ultralight-S" transform="matrix(1 0 0 1 517.792 696)"><path d="M32.743500000000004 0.07775000000000887  42.606 -48.642999999999994  28.897125000000003 -42.7255 V-33.158874999999995 H26.924625000000002 V-44.204874999999994 L42.014250000000004 -50.51687499999999 Q43.0005 -50.91137499999999 43.5429375 -51.157937499999996 Q44.085375 -51.40449999999999 44.677125000000004 -51.700374999999994 Q46.9455 -51.996249999999996 48.523500000000006 -51.108624999999996 Q50.1015 -50.221 51.383625 -48.544374999999995 L50.69325 -49.826499999999996 Q53.947875 -44.69799999999999 56.955937500000005 -40.259874999999994 Q59.964000000000006 -35.821749999999994 68.44575 -35.23 V-33.25749999999999 Q62.429625 -34.046499999999995 57.794250000000005 -37.103874999999995 Q53.158875 -40.161249999999995 50.594625 -46.07874999999999 L47.044125 -27.142749999999992 L54.243750000000006 -18.858249999999998 V0.07775000000000887 H52.27125 V-17.872 L41.521125000000005 -28.424874999999993 L34.222875 0.07775000000000887 H32.743500000000004 Z M52.074000000000005 -58.111 Q49.213875 -58.111 47.290687500000004 -60.034187499999994 Q45.3675 -61.957375 45.3675 -64.8175 Q45.3675 -67.67762499999999 47.290687500000004 -69.60081249999999 Q49.213875 -71.524 52.074000000000005 -71.524 Q54.934125 -71.524 56.8573125 -69.60081249999999 Q58.7805 -67.67762499999999 58.7805 -64.8175 Q58.7805 -61.957375 56.8573125 -60.034187499999994 Q54.934125 -58.111 52.074000000000005 -58.111 Z"/></g></g></svg>