<svg xmlns="http://www.w3.org/2000/svg" version="1.1" width="3300" height="2000"><g id="Notes"><style>
    text {
      font-family: monospace;
      text-anchor: middle;
    }
    text.emphasis {
      font-weight:bold;
    }
    text.lanchor {
      text-anchor: start;
    }
  </style><rect height="2200" id="artboard" fill="white" width="3300" x="0" y="0"/><line id="" style="fill:none;stroke:black;stroke-width:0.5;" x1="263" x2="3036" y1="292" y2="292"/><text class="lanchor emphasis" transform="matrix(1 0 0 1 263 322)">Weight/Scale Variations</text><text transform="matrix(1 0 0 1 559.711 322)">Ultralight</text><text transform="matrix(1 0 0 1 856.422 322)">Thin</text><text transform="matrix(1 0 0 1 1153.13 322)">Light</text><text transform="matrix(1 0 0 1 1449.84 322)">Regular</text><text transform="matrix(1 0 0 1 1746.56 322)">Medium</text><text transform="matrix(1 0 0 1 2043.27 322)">Semibold</text><text transform="matrix(1 0 0 1 2339.98 322)">Bold</text><text transform="matrix(1 0 0 1 2636.69 322)">Heavy</text><text transform="matrix(1 0 0 1 2933.4 322)">Black</text><text id="template-version" style="text-anchor: end;" transform="matrix(1 0 0 1 3036 1933)">Template v.1.0</text><text class="lanchor" transform="matrix(1 0 0 1 263 726)">Small</text><text class="lanchor" transform="matrix(1 0 0 1 263 1156)">Medium</text><text class="lanchor" transform="matrix(1 0 0 1 263 1586)">Large</text></g><g id="Guides"><g id="H-reference" style="fill:#27AAE1;stroke:none;" transform="matrix(1 0 0 1 339 696)"><path d="M 54.9316 0 L 57.666 0 L 30.5664 -70.459 L 28.0762 -70.459 L 0.976562 0 L 3.66211 0 L 12.9395 -24.4629 L 45.7031 -24.4629 Z M 29.1992 -67.0898 L 29.4434 -67.0898 L 44.8242 -26.709 L 13.8184 -26.709 Z"/></g><line id="Baseline-S" style="fill:none;stroke:#27AAE1;opacity:1;stroke-width:0.577;" x1="263" x2="3036" y1="696" y2="696"/><line id="Capline-S" style="fill:none;stroke:#27AAE1;opacity:1;stroke-width:0.577;" x1="263" x2="3036" y1="625.541" y2="625.541"/><g id="H-reference" style="fill:#27AAE1;stroke:none;" transform="matrix(1 0 0 1 339 1126)"><path d="M 54.9316 0 L 57.666 0 L 30.5664 -70.459 L 28.0762 -70.459 L 0.976562 0 L 3.66211 0 L 12.9395 -24.4629 L 45.7031 -24.4629 Z M 29.1992 -67.0898 L 29.4434 -67.0898 L 44.8242 -26.709 L 13.8184 -26.709 Z"/></g><line id="Baseline-M" style="fill:none;stroke:#27AAE1;opacity:1;stroke-width:0.577;" x1="263" x2="3036" y1="1126" y2="1126"/><line id="Capline-M" style="fill:none;stroke:#27AAE1;opacity:1;stroke-width:0.577;" x1="263" x2="3036" y1="1055.54" y2="1055.54"/><g id="H-reference" style="fill:#27AAE1;stroke:none;" transform="matrix(1 0 0 1 339 1556)"><path d="M 54.9316 0 L 57.666 0 L 30.5664 -70.459 L 28.0762 -70.459 L 0.976562 0 L 3.66211 0 L 12.9395 -24.4629 L 45.7031 -24.4629 Z M 29.1992 -67.0898 L 29.4434 -67.0898 L 44.8242 -26.709 L 13.8184 -26.709 Z"/></g><line id="Baseline-L" style="fill:none;stroke:#27AAE1;opacity:1;stroke-width:0.577;" x1="263" x2="3036" y1="1556" y2="1556"/><line id="Capline-L" style="fill:none;stroke:#27AAE1;opacity:1;stroke-width:0.577;" x1="263" x2="3036" y1="1485.54" y2="1485.54"/><rect height="119.336" id="left-margin" style="fill:darkred;stroke:none;opacity:0.4;" width="12.4512" x="1394.06" y="1030.79"/><rect height="119.336" id="right-margin" style="fill:darkgreen;stroke:none;opacity:0.4;" width="12.4512" x="1502.5112" y="1030.79"/><rect x="1406.5112" y="1045" width="96" height="96" fill="none" stroke="blue" stroke-dasharray="5"/><rect x="1394.06" y="1030.79" width="120.9024" height="119.336" fill="none" stroke="blue"/></g><g id="Symbols"><g id="Bold-L" transform="matrix(1 0 0 1 2266 1556)"><path d="M100.94250000000001 18.305000000000007 H51.11625 Q44.8678125 18.305000000000007 40.413281250000004 13.850468750000005 Q35.95875 9.39593750000003 35.95875 3.147500000000008 V-69.41499999999999 H49.3425 V4.921250000000015 Q49.3425 4.921250000000015 49.3425 4.921250000000015 Q49.3425 4.921250000000015 49.3425 4.921250000000015 H100.94250000000001 V18.305000000000007 Z M73.85895000000001 -73.60749999999999 Q67.56375 -73.60749999999999 63.21 -77.90610249999999 Q58.85625 -82.20486624999998 58.85625 -88.40250999999998 Q58.85625 -94.66674999999998 63.21403125 -99.05274999999999 Q67.57181250000001 -103.43874999999998 73.8525 -103.43874999999998 Q80.1976875 -103.43874999999998 84.44259375 -99.11289624999998 Q88.6875 -94.78688125 88.6875 -88.55102124999999 Q88.6875 -82.31499999999998 84.420825 -77.96124999999998 Q80.15415 -73.60749999999999 73.85895000000001 -73.60749999999999 Z M107.3925 29.27000000000001 V-1.528749999999988 H67.88625 Q62.89749750000001 -1.528749999999988 59.34499875 -5.0338412499999805 Q55.792500000000004 -8.539093749999992 55.792500000000004 -13.461249999999978 V-48.12999999999998 Q55.792500000000004 -55.344324999999984 61.069728749999996 -60.60591249999999 Q66.34711874999999 -65.86749999999998 73.83427875 -65.86749999999998 Q81.10875 -65.86749999999998 86.43 -60.60591249999999 Q91.75125 -55.344324999999984 91.75125 -48.12999999999998 V-19.42749999999998 H106.7475 Q111.7362525 -19.42749999999998 115.28875125000002 -15.922408749999988 Q118.84125 -12.417156249999977 118.84125 -7.494999999999976 V29.27000000000001 H107.3925 Z"/></g><g id="Semibold-L" transform="matrix(1 0 0 1 1970.27 1556)"><path d="M100.52179875 16.692661250000015 H49.92445125 Q44.657542500000005 16.692661250000015 40.903965 12.939083750000009 Q37.15054875 9.185667500000022 37.15054875 3.9185975000000326 V-69.41499999999999 H48.92179875000001 V4.921250000000015 Q48.92179875000001 4.921250000000015 48.92179875000001 4.921250000000015 Q48.92179875000001 4.921250000000015 48.92179875000001 4.921250000000015 H100.52179875 V16.692661250000015 Z M72.45397875 -73.60749999999999 Q66.51223875 -73.60749999999999 62.40375 -77.68470624999999 Q58.2954225 -81.76207374999998 58.2954225 -87.64882749999998 Q58.2954225 -93.57315249999999 62.4060075 -97.69970124999998 Q66.51675375 -101.82641124999998 72.45043125000001 -101.82641124999998 Q78.42055125 -101.82641124999998 82.4674425 -97.73372499999999 Q86.51433375 -93.64103874999998 86.51433375 -87.7326775 Q86.51433375 -81.82431624999998 82.45502625 -77.71582749999999 Q78.39588 -73.60749999999999 72.45397875 -73.60749999999999 Z M106.97179874999999 29.27000000000001 V-1.528749999999988 H67.46554875000001 Q62.476957500000005 -1.528749999999988 58.92445875 -5.0338412499999805 Q55.37179875 -8.539093749999992 55.37179875 -13.461249999999978 V-49.04138499999998 Q55.37179875 -55.975296249999985 60.344910000000006 -60.92131749999999 Q65.31786 -65.86749999999998 72.43221 -65.86749999999998 Q79.4262675 -65.86749999999998 84.43195125000001 -60.92131749999999 Q89.43779625 -55.975296249999985 89.43779625 -49.04138499999998 V-18.65640249999997 H105.55570125000001 Q110.54445375 -18.65640249999997 114.0969525 -15.151149999999987 Q117.64945125000001 -11.646058749999995 117.64945125000001 -6.72390249999998 V29.27000000000001 H106.97179874999999 Z"/></g><g id="Medium-L" transform="matrix(1 0 0 1 1674.31 1556)"><path d="M100.20639374999999 15.48312500000003 H49.03048125 Q44.49967875 15.48312500000003 41.27209875 12.255545000000012 Q38.04451875 9.027803750000004 38.04451875 4.49716250000003 V-69.41499999999999 H48.60639375 V4.921250000000015 Q48.60639375 4.921250000000015 48.60639375 4.921250000000015 Q48.60639375 4.921250000000015 48.60639375 4.921250000000015 H100.20639374999999 V15.48312500000003 Z M71.40021 -73.60749999999999 Q65.72340375 -73.60749999999999 61.799062500000005 -77.51861874999997 Q57.87472125 -81.42989874999998 57.87472125 -87.08332374999998 Q57.87472125 -92.75287374999999 61.80003 -96.68479374999998 Q65.72533875 -100.616875 71.39875875 -100.616875 Q77.0874975 -100.616875 80.9858775 -96.69914499999999 Q84.88409625 -92.78157624999999 84.88409625 -87.11879874999998 Q84.88409625 -81.45618249999998 80.98055625 -77.53184124999999 Q77.07701625 -73.60749999999999 71.40021 -73.60749999999999 Z M106.65639374999999 29.27000000000001 V-1.528749999999988 H67.15014375 Q62.16139125 -1.528749999999988 58.6088925 -5.0338412499999805 Q55.056393750000005 -8.539093749999992 55.056393750000005 -13.461249999999978 V-49.72492374999999 Q55.056393750000005 -56.44856499999999 59.801175 -61.158032499999976 Q64.54595625 -65.86749999999998 71.3805375 -65.86749999999998 Q78.16416375 -65.86749999999998 82.93329375 -61.158032499999976 Q87.70242375 -56.44856499999999 87.70242375 -49.72492374999999 V-18.077837499999987 H104.66173125000002 Q109.65048375 -18.077837499999987 113.2029825 -14.57274624999998 Q116.75548125000002 -11.067654999999974 116.75548125000002 -6.145337499999982 V29.27000000000001 H106.65639374999999 Z"/></g><g id="Regular-L" transform="matrix(1 0 0 1 1378.56 1556)"><path d="M99.97500000000001 14.596250000000026 H48.375 Q44.3840625 14.596250000000026 41.54203125 11.754218750000007 Q38.7 8.912187500000016 38.7 4.921250000000015 V-69.41499999999999 H48.375 V4.921250000000015 Q48.375 4.921250000000015 48.375 4.921250000000015 Q48.375 4.921250000000015 48.375 4.921250000000015 H99.97500000000001 V14.596250000000026 Z M70.6275 -73.60749999999999 Q65.145 -73.60749999999999 61.355625 -77.396875 Q57.566250000000004 -81.18624999999999 57.566250000000004 -86.66874999999999 Q57.566250000000004 -92.15124999999998 61.355625 -95.94062499999998 Q65.145 -99.72999999999999 70.6275 -99.72999999999999 Q76.11 -99.72999999999999 79.899375 -95.94062499999998 Q83.68875 -92.15124999999998 83.68875 -86.66874999999999 Q83.68875 -81.18624999999999 79.899375 -77.396875 Q76.11 -73.60749999999999 70.6275 -73.60749999999999 Z M106.425 29.27000000000001 V-1.528749999999988 H66.91875 Q61.929997500000006 -1.528749999999988 58.37749875 -5.0338412499999805 Q54.825 -8.539093749999992 54.825 -13.461249999999978 V-50.22624999999998 Q54.825 -56.795574999999985 59.402403750000005 -61.33153749999998 Q63.97996875 -65.86749999999998 70.60927875 -65.86749999999998 Q77.23875 -65.86749999999998 81.83437500000001 -61.33153749999998 Q86.43 -56.795574999999985 86.43 -50.22624999999998 V-17.653749999999988 H104.00625000000001 Q108.9950025 -17.653749999999988 112.54750125000001 -14.148658749999981 Q116.10000000000001 -10.643406249999984 116.10000000000001 -5.7212499999999835 V29.27000000000001 H106.425 Z"/></g><g id="Light-L" transform="matrix(1 0 0 1 1082.77 1556)"><path d="M98.30041875 11.867255000000029 H50.42174625 Q46.55497125000001 11.867255000000029 43.83694125 9.14922500000003 Q41.118911250000004 6.431195000000031 41.118911250000004 2.5644200000000126 V-68.91883374999998 H48.43708125 V2.5644200000000126 Q48.43708125 3.3085887500000126 49.05724875 3.9289175000000114 Q49.6775775 4.549085000000019 50.42174625 4.549085000000019 H98.30041875 V11.867255000000029 Z M69.13900125 -72.05691999999999 Q64.09058625 -72.05691999999999 60.611295000000005 -75.52702 Q57.13200375 -78.99711999999998 57.13200375 -84.09471624999998 Q57.13200375 -89.19231249999999 60.611295000000005 -92.66241249999999 Q64.09058625 -96.13267374999998 69.13900125 -96.13267374999998 Q74.24933625 -96.13267374999998 77.72846625 -92.66241249999999 Q81.2077575 -89.19231249999999 81.2077575 -84.09471624999998 Q81.2077575 -78.99711999999998 77.72846625 -75.52702 Q74.24933625 -72.05691999999999 69.13900125 -72.05691999999999 Z M106.36291875 27.657338750000036 V-1.9009149999999835 H65.6161725 Q61.18582875 -1.9009149999999835 58.036455000000004 -5.0338412499999805 Q54.88708125 -8.166928749999983 54.88708125 -12.53083749999999 V-49.79200374999999 Q54.88708125 -55.74116124999999 58.993635 -59.84303874999999 Q63.10018875 -63.94475499999999 69.14609625 -63.94475499999999 Q75.19200375 -63.94475499999999 79.3224225 -59.84303874999999 Q83.45284125 -55.74116124999999 83.45284125 -49.79200374999999 V-15.66892374999999 H103.0139175 Q107.38234125000001 -15.66892374999999 110.53171499999999 -12.566957499999972 Q113.68108875 -9.464991249999983 113.68108875 -5.1010824999999755 V27.657338750000036 H106.36291875 Z"/></g><g id="Thin-L" transform="matrix(1 0 0 1 787.282 1556)"><path d="M96.62599875000001 9.138582500000012 H52.46817 Q48.72539625 9.138582500000012 46.1313675 6.544715000000025 Q43.5375 3.950686250000018 43.5375 0.20775125000002959 V-68.42266749999999 H48.49900125 V0.20775125000002959 Q48.49900125 1.6962500000000205 49.73933625 2.936585000000008 Q50.9798325 4.177081250000015 52.46817 4.177081250000015 H96.62599875000001 V9.138582500000012 Z M67.65066375 -70.50650124999999 Q63.036333750000004 -70.50650124999999 59.867126250000005 -73.65748749999997 Q56.69791875 -76.80847374999999 56.69791875 -81.52116625 Q56.69791875 -86.23385874999998 59.867126250000005 -89.38484499999998 Q63.036333750000004 -92.53583124999997 67.65066375 -92.53583124999997 Q72.38883375 -92.53583124999997 75.55804125 -89.38484499999998 Q78.72724875 -86.23385874999998 78.72724875 -81.52116625 Q78.72724875 -76.80847374999999 75.55804125 -73.65748749999997 Q72.38883375 -70.50650124999999 67.65066375 -70.50650124999999 Z M106.30099875 26.045000000000016 V-2.272918749999988 H64.3139175 Q60.44166 -2.272918749999988 57.69541125 -5.0338412499999805 Q54.94900125 -7.794924999999978 54.94900125 -11.600747499999983 V-49.35791874999998 Q54.94900125 -54.686908749999986 58.584866250000005 -58.35470124999998 Q62.22073125 -62.022332499999976 67.683075 -62.022332499999976 Q73.14558 -62.022332499999976 76.8107925 -58.35470124999998 Q80.47616625 -54.686908749999986 80.47616625 -49.35791874999998 V-13.68458124999998 H102.021585 Q105.7700025 -13.68458124999998 108.51625125000001 -10.985578749999988 Q111.2625 -8.286737499999973 111.2625 -4.480914999999982 V26.045000000000016 H106.30099875 Z"/></g><g id="Ultralight-L" transform="matrix(1 0 0 1 491.205 1556)"><path d="M95.62125 7.501250000000027 H53.69625 Q50.0278125 7.501250000000027 47.50828125 4.981718750000027 Q44.98875 2.4621875000000273 44.98875 -1.206249999999983 V-68.12499999999999 H48.53625 V-1.206249999999983 Q48.53625 0.7287500000000193 50.14875 2.3412500000000307 Q51.761250000000004 3.9537500000000136 53.69625 3.9537500000000136 H95.62125 V7.501250000000027 Z M66.75750000000001 -69.57624999999999 Q62.40375 -69.57624999999999 59.420625 -72.53567124999998 Q56.4375 -75.49509249999998 56.4375 -79.97687499999998 Q56.4375 -84.45865749999999 59.420625 -87.41807874999998 Q62.40375 -90.37749999999998 66.75750000000001 -90.37749999999998 Q71.27250000000001 -90.37749999999998 74.25562500000001 -87.41807874999998 Q77.23875 -84.45865749999999 77.23875 -79.97687499999998 Q77.23875 -75.49509249999998 74.25562500000001 -72.53567124999998 Q71.27250000000001 -69.57624999999999 66.75750000000001 -69.57624999999999 Z M106.26375 25.077500000000015 V-2.496249999999975 H63.5325 Q59.994997500000004 -2.496249999999975 57.490623750000005 -5.0338412499999805 Q54.98625 -7.571593749999991 54.98625 -11.042499999999976 V-49.09749999999998 Q54.98625 -54.05432499999999 58.339605 -57.46153749999998 Q61.69296 -60.86874999999998 66.80523 -60.86874999999998 Q71.9175 -60.86874999999998 75.30375000000001 -57.46153749999998 Q78.69 -54.05432499999999 78.69 -49.09749999999998 V-12.493749999999977 H101.42625 Q104.8025025 -12.493749999999977 107.30687625000002 -10.036783749999984 Q109.81125 -7.579656249999985 109.81125 -4.108749999999986 V25.077500000000015 H106.26375 Z"/></g><g id="Bold-M" transform="matrix(1 0 0 1 2281.8 1126)"><path d="M76.0 8.64500000000001 H42.875 Q36.25 8.64500000000001 31.6875 4.08250000000001 Q27.125 -0.47999999999998977 27.125 -7.10499999999999 V-60.22999999999999 H41.0 V-5.22999999999999 Q41.0 -5.22999999999999 41.0 -5.22999999999999 Q41.0 -5.22999999999999 41.0 -5.22999999999999 H76.0 V8.64500000000001 Z M60.8125 -65.22999999999999 Q55.875 -65.22999999999999 52.375 -68.71824999999998 Q48.875 -72.20649999999999 48.875 -77.10499999999999 Q48.875 -82.05499999999999 52.36325 -85.57999999999998 Q55.8515 -89.10499999999999 60.75 -89.10499999999999 Q65.75 -89.10499999999999 69.1875 -85.59562499999998 Q72.625 -82.08624999999999 72.625 -77.15812499999998 Q72.625 -72.22999999999999 69.1875 -68.72999999999999 Q65.75 -65.22999999999999 60.8125 -65.22999999999999 Z M81.0 14.77000000000001 V-10.22999999999999 H56.0 Q51.875 -10.22999999999999 48.9375 -13.16749999999999 Q46.0 -16.10499999999999 46.0 -20.22999999999999 V-45.47999999999999 Q46.0 -51.60499999999999 50.3125 -55.91749999999999 Q54.625 -60.22999999999999 60.75 -60.22999999999999 Q66.875 -60.22999999999999 71.1875 -55.91749999999999 Q75.5 -51.60499999999999 75.5 -45.47999999999999 V-27.10499999999999 H82.875 Q87.0 -27.10499999999999 89.9375 -24.16749999999999 Q92.875 -21.22999999999999 92.875 -17.10499999999999 V14.77000000000001 H81.0 Z"/></g><g id="Semibold-M" transform="matrix(1 0 0 1 1985.97 1126)"><path d="M75.56525 6.960375000000013 H41.625125 Q36.087 6.960375000000013 32.231 3.1042500000000075 Q28.374875 -0.751749999999987 28.374875 -6.289874999999995 V-60.22999999999999 H40.56525 V-5.22999999999999 Q40.56525 -5.22999999999999 40.56525 -5.22999999999999 Q40.56525 -5.22999999999999 40.56525 -5.22999999999999 H75.56525 V6.960375000000013 Z M59.372375 -65.22999999999999 Q54.788125 -65.22999999999999 51.532625 -68.47887499999999 Q48.27725 -71.72762499999999 48.27725 -76.289875 Q48.27725 -80.881125 51.526 -84.15074999999999 Q54.774875 -87.42037499999999 59.337 -87.42037499999999 Q63.956625 -87.42037499999999 67.17675 -84.15962499999999 Q70.396875 -80.89874999999999 70.396875 -76.319875 Q70.396875 -71.74087499999999 67.17675 -68.48549999999999 Q63.956625 -65.22999999999999 59.372375 -65.22999999999999 Z M80.56525 14.77000000000001 V-10.22999999999999 H55.56525 Q51.44025 -10.22999999999999 48.50275 -13.16749999999999 Q45.56525 -16.10499999999999 45.56525 -20.22999999999999 V-46.45824999999999 Q45.56525 -52.20274999999999 49.578875 -56.21637499999999 Q53.5925 -60.22999999999999 59.337 -60.22999999999999 Q65.081625 -60.22999999999999 69.09525 -56.21637499999999 Q73.108875 -52.20274999999999 73.108875 -46.45824999999999 V-26.289874999999995 H81.625125 Q85.750125 -26.289874999999995 88.687625 -23.352374999999995 Q91.625125 -20.414874999999995 91.625125 -16.289874999999995 V14.77000000000001 H80.56525 Z"/></g><g id="Medium-M" transform="matrix(1 0 0 1 1689.91 1126)"><path d="M75.239125 5.696625000000012 H40.6875 Q35.964625 5.696625000000012 32.638625 2.370500000000007 Q29.3125 -0.9554999999999865 29.3125 -5.678374999999988 V-60.22999999999999 H40.239125 V-5.22999999999999 Q40.239125 -5.22999999999999 40.239125 -5.22999999999999 Q40.239125 -5.22999999999999 40.239125 -5.22999999999999 H75.239125 V5.696625000000012 Z M58.292125 -65.22999999999999 Q53.972875 -65.22999999999999 50.900875 -68.29924999999999 Q47.82875 -71.36837499999999 47.82875 -75.67837499999999 Q47.82875 -80.00062499999999 50.898 -83.07862499999999 Q53.96725 -86.15662499999999 58.27725 -86.15662499999999 Q62.611375 -86.15662499999999 65.6685 -83.08237499999998 Q68.725625 -80.00812499999999 68.725625 -75.69112499999999 Q68.725625 -71.374 65.6685 -68.30199999999999 Q62.611375 -65.22999999999999 58.292125 -65.22999999999999 Z M80.239125 14.77000000000001 V-10.22999999999999 H55.239125 Q51.114125 -10.22999999999999 48.176625 -13.16749999999999 Q45.239125 -16.10499999999999 45.239125 -20.22999999999999 V-47.19199999999999 Q45.239125 -52.65124999999999 49.0285 -56.44062499999999 Q52.818 -60.22999999999999 58.27725 -60.22999999999999 Q63.736375 -60.22999999999999 67.525875 -56.44062499999999 Q71.31525 -52.65124999999999 71.31525 -47.19199999999999 V-25.67837499999999 H80.6875 Q84.8125 -25.67837499999999 87.75 -22.74087499999999 Q90.6875 -19.80337499999999 90.6875 -15.678374999999988 V14.77000000000001 H80.239125 Z"/></g><g id="Regular-M" transform="matrix(1 0 0 1 1394.06 1126)"><path d="M75.0 4.77000000000001 H40.0 Q35.875 4.77000000000001 32.9375 1.8325000000000102 Q30.0 -1.1049999999999898 30.0 -5.22999999999999 V-60.22999999999999 H40.0 V-5.22999999999999 Q40.0 -5.22999999999999 40.0 -5.22999999999999 Q40.0 -5.22999999999999 40.0 -5.22999999999999 H75.0 V4.77000000000001 Z M57.5 -65.22999999999999 Q53.375 -65.22999999999999 50.4375 -68.16749999999999 Q47.5 -71.10499999999999 47.5 -75.22999999999999 Q47.5 -79.35499999999999 50.4375 -82.29249999999999 Q53.375 -85.22999999999999 57.5 -85.22999999999999 Q61.625 -85.22999999999999 64.5625 -82.29249999999999 Q67.5 -79.35499999999999 67.5 -75.22999999999999 Q67.5 -71.10499999999999 64.5625 -68.16749999999999 Q61.625 -65.22999999999999 57.5 -65.22999999999999 Z M80.0 14.77000000000001 V-10.22999999999999 H55.0 Q50.875 -10.22999999999999 47.9375 -13.16749999999999 Q45.0 -16.10499999999999 45.0 -20.22999999999999 V-47.72999999999999 Q45.0 -52.97999999999999 48.625 -56.60499999999999 Q52.25 -60.22999999999999 57.5 -60.22999999999999 Q62.75 -60.22999999999999 66.375 -56.60499999999999 Q70.0 -52.97999999999999 70.0 -47.72999999999999 V-25.22999999999999 H80.0 Q84.125 -25.22999999999999 87.0625 -22.29249999999999 Q90.0 -19.35499999999999 90.0 -15.22999999999999 V14.77000000000001 H80.0 Z"/></g><g id="Light-M" transform="matrix(1 0 0 1 1098.18 1126)"><path d="M74.375 2.269875000000013 H40.9135 Q37.125125 2.269875000000013 34.500125 -0.3551249999999868 Q31.875125 -2.980124999999987 31.875125 -6.768624999999986 V-60.22999999999999 H39.375 V-6.768624999999986 Q39.375 -6.191624999999988 39.85575 -5.71074999999999 Q40.336625 -5.22999999999999 40.9135 -5.22999999999999 H74.375 V2.269875000000013 Z M55.624875 -63.97987499999999 Q51.788375 -63.97987499999999 49.09125 -66.67699999999999 Q46.394125 -69.37412499999999 46.394125 -73.210625 Q46.394125 -77.047125 49.09125 -79.74425 Q51.788375 -82.441375 55.624875 -82.441375 Q59.461375 -82.441375 62.1585 -79.74425 Q64.855625 -77.047125 64.855625 -73.210625 Q64.855625 -69.37412499999999 62.1585 -66.67699999999999 Q59.461375 -63.97987499999999 55.624875 -63.97987499999999 Z M80.625 13.519875000000013 V-10.22999999999999 H53.124875 Q49.480625 -10.22999999999999 46.92775 -12.78287499999999 Q44.375 -15.33574999999999 44.375 -18.979874999999993 V-47.15299999999999 Q44.375 -51.92224999999999 47.61525 -55.16262499999999 Q50.855625 -58.40299999999999 55.624875 -58.40299999999999 Q60.394 -58.40299999999999 63.634375 -55.16262499999999 Q66.87475 -51.92224999999999 66.87475 -47.15299999999999 V-22.729874999999993 H79.375 Q83.019125 -22.729874999999993 85.572 -20.176999999999992 Q88.124875 -17.624124999999992 88.124875 -13.979874999999993 V13.519875000000013 H80.625 Z"/></g><g id="Thin-M" transform="matrix(1 0 0 1 802.565 1126)"><path d="M73.75 -0.22999999999998977 H41.826875 Q38.375 -0.22999999999998977 36.0625 -2.5424999999999898 Q33.75 -4.85499999999999 33.75 -8.306874999999991 V-60.22999999999999 H38.75 V-8.306874999999991 Q38.75 -7.153124999999989 39.7115 -6.191499999999991 Q40.673125 -5.22999999999999 41.826875 -5.22999999999999 H73.75 V-0.22999999999998977 Z M53.75 -62.72999999999999 Q50.202 -62.72999999999999 47.74525 -65.18674999999999 Q45.2885 -67.64349999999999 45.2885 -71.19162499999999 Q45.2885 -74.73962499999999 47.74525 -77.19637499999999 Q50.202 -79.65312499999999 53.75 -79.65312499999999 Q57.298125 -79.65312499999999 59.754875 -77.19637499999999 Q62.211625 -74.73962499999999 62.211625 -71.19162499999999 Q62.211625 -67.64349999999999 59.754875 -65.18674999999999 Q57.298125 -62.72999999999999 53.75 -62.72999999999999 Z M81.25 12.27000000000001 V-10.22999999999999 H51.25 Q48.0865 -10.22999999999999 45.91825 -12.39824999999999 Q43.75 -14.56649999999999 43.75 -17.72999999999999 V-46.57612499999999 Q43.75 -50.86462499999999 46.60575 -53.72037499999999 Q49.4615 -56.57612499999999 53.75 -56.57612499999999 Q58.0385 -56.57612499999999 60.89425 -53.72037499999999 Q63.75 -50.86462499999999 63.75 -46.57612499999999 V-20.22999999999999 H78.75 Q81.9135 -20.22999999999999 84.08175 -18.06174999999999 Q86.25 -15.893499999999989 86.25 -12.72999999999999 V12.27000000000001 H81.25 Z"/></g><g id="Ultralight-M" transform="matrix(1 0 0 1 506.415 1126)"><path d="M73.375 -1.7299999999999898 H42.375 Q39.125 -1.7299999999999898 37.0 -3.8549999999999898 Q34.875 -5.97999999999999 34.875 -9.22999999999999 V-60.22999999999999 H38.375 V-9.22999999999999 Q38.375 -7.72999999999999 39.625 -6.47999999999999 Q40.875 -5.22999999999999 42.375 -5.22999999999999 H73.375 V-1.7299999999999898 Z M52.625 -61.97999999999999 Q49.25 -61.97999999999999 46.9375 -64.29249999999999 Q44.625 -66.60499999999999 44.625 -69.97999999999999 Q44.625 -73.35499999999999 46.9375 -75.66749999999999 Q49.25 -77.97999999999999 52.625 -77.97999999999999 Q56.0 -77.97999999999999 58.3125 -75.66749999999999 Q60.625 -73.35499999999999 60.625 -69.97999999999999 Q60.625 -66.60499999999999 58.3125 -64.29249999999999 Q56.0 -61.97999999999999 52.625 -61.97999999999999 Z M81.625 11.52000000000001 V-10.22999999999999 H50.125 Q47.25 -10.22999999999999 45.3125 -12.16749999999999 Q43.375 -14.10499999999999 43.375 -16.97999999999999 V-46.22999999999999 Q43.375 -50.22999999999999 46.0 -52.85499999999999 Q48.625 -55.47999999999999 52.625 -55.47999999999999 Q56.625 -55.47999999999999 59.25 -52.85499999999999 Q61.875 -50.22999999999999 61.875 -46.22999999999999 V-18.72999999999999 H78.375 Q81.25 -18.72999999999999 83.1875 -16.79249999999999 Q85.125 -14.85499999999999 85.125 -11.97999999999999 V11.52000000000001 H81.625 Z"/></g><g id="Bold-S" transform="matrix(1 0 0 1 2294.23 696)"><path d="M57.597 -3.768624999999986 H33.039375 Q28.20675 -3.768624999999986 24.8041875 -7.171187499999988 Q21.401625 -10.57374999999999 21.401625 -15.406374999999997 V-54.166 H31.560000000000002 V-13.926999999999992 Q31.560000000000002 -13.926999999999992 31.560000000000002 -13.926999999999992 Q31.560000000000002 -13.926999999999992 31.560000000000002 -13.926999999999992 H57.597 V-3.768624999999986 Z M46.378603500000004 -56.532999999999994 Q42.310125 -56.532999999999994 39.45 -59.40831324999999 Q36.589875 -62.2836265 36.589875 -66.321334 Q36.589875 -70.399675 39.465188250000004 -73.27952499999999 Q42.3405015 -76.159375 46.378209 -76.159375 Q50.496 -76.159375 53.3068125 -73.267394125 Q56.117625000000004 -70.37541325 56.117625000000004 -66.314331625 Q56.117625000000004 -62.253249999999994 53.2823535 -59.393125 Q50.447082 -56.532999999999994 46.378603500000004 -56.532999999999994 Z M62.331 -2.0919999999999987 V-18.660999999999987 H45.762 Q41.85645 -18.660999999999987 39.075225 -21.442224999999993 Q36.294000000000004 -24.223449999999985 36.294000000000004 -28.12899999999999 V-44.106249999999996 Q36.294000000000004 -48.27611499999999 39.233320875000004 -51.22105749999999 Q42.172641750000004 -54.166 46.334320875 -54.166 Q50.496 -54.166 53.454750000000004 -51.01 Q56.4135 -47.85399999999999 56.4135 -43.613125 V-29.608374999999995 H63.810375 Q66.769125 -29.608374999999995 68.93887500000001 -27.53725 Q71.108625 -25.46612499999999 70.911375 -22.507374999999996 V-2.0919999999999987 H62.331 Z"/></g><g id="Semibold-S" transform="matrix(1 0 0 1 1998.1 696)"><path d="M57.25398225000001 -5.097794124999993 H32.053223625 Q28.078143000000004 -5.097794124999993 25.233009000000003 -7.943026750000001 Q22.387776375 -10.788160749999989 22.387776375 -14.763241374999993 V-54.166 H31.21698225 V-13.926999999999992 Q31.21698225 -13.926999999999992 31.21698225 -13.926999999999992 Q31.21698225 -13.926999999999992 31.21698225 -13.926999999999992 H57.25398225000001 V-5.097794124999993 Z M45.242344875 -56.532999999999994 Q41.452580625 -56.532999999999994 38.785366125 -59.21934775 Q36.11825025 -61.90579412499999 36.11825025 -65.67820037499999 Q36.11825025 -69.47348762499999 38.804598000000006 -72.15184675 Q41.491044375 -74.83020587499999 45.263352000000005 -74.83020587499999 Q49.081027125000006 -74.83020587499999 51.72033075 -72.134390125 Q54.359634375 -69.438574375 54.359634375 -65.652952375 Q54.359634375 -61.867330374999995 51.69587175000001 -59.200214499999994 Q49.032207750000005 -56.532999999999994 45.242344875 -56.532999999999994 Z M61.98798225000001 -2.0919999999999987 V-18.660999999999987 H45.41898225 Q41.51343225 -18.660999999999987 38.73220725 -21.442224999999993 Q35.95098225 -24.223449999999985 35.95098225 -28.12899999999999 V-44.878089249999995 Q35.95098225 -48.747739749999994 38.65449075 -51.456869874999995 Q41.357900625000006 -54.166 45.219463875 -54.166 Q49.081027125000006 -54.166 51.80396475 -51.245812375 Q54.526902375 -48.325624749999996 54.526902375 -44.384964249999996 V-28.965241374999998 H62.824223625 Q65.782973625 -28.965241374999998 67.952723625 -26.894116374999996 Q70.122473625 -24.822991375 69.925223625 -21.86424137499999 V-2.0919999999999987 H61.98798225000001 Z"/></g><g id="Medium-S" transform="matrix(1 0 0 1 1701.85 696)"><path d="M56.996669625 -6.094892874999985 H31.313437500000003 Q27.981589125 -6.094892874999985 25.554625124999998 -8.52195549999999 Q23.1275625 -10.948919499999988 23.1275625 -14.280767874999995 V-54.166 H30.959669625000004 V-13.926999999999992 Q30.959669625000004 -13.926999999999992 30.959669625000004 -13.926999999999992 Q30.959669625000004 -13.926999999999992 30.959669625000004 -13.926999999999992 H56.996669625 V-6.094892874999985 Z M44.390027625 -56.532999999999994 Q40.809348375000006 -56.532999999999994 38.286915375 -59.07772225 Q35.76438375 -61.62234587499999 35.76438375 -65.19572687499999 Q35.76438375 -68.77877312499999 38.309106 -71.30594012499999 Q40.853729625 -73.833107125 44.427110625 -73.833107125 Q48.019624875000005 -73.833107125 50.5303215 -71.284439875 Q53.041018125 -68.735772625 53.041018125 -65.15686862499999 Q53.041018125 -61.57786599999999 50.505862500000006 -59.055433 Q47.970805500000004 -56.532999999999994 44.390027625 -56.532999999999994 Z M61.730669625000004 -2.0919999999999987 V-18.660999999999987 H45.161669625 Q41.256119625000004 -18.660999999999987 38.474894625000005 -21.442224999999993 Q35.693669625000005 -24.223449999999985 35.693669625000005 -28.12899999999999 V-45.457018 Q35.693669625000005 -49.101606249999996 38.220244875 -51.63380312499999 Q40.746820125 -54.166 44.3832225 -54.166 Q48.019624875000005 -54.166 50.565727875 -51.422745625 Q53.11173225000001 -48.67949125 53.11173225000001 -44.963893 V-28.482767874999993 H62.0844375 Q65.0431875 -28.482767874999993 67.21293750000001 -26.411642875 Q69.3826875 -24.34051787499999 69.1854375 -21.381767874999994 V-2.0919999999999987 H61.730669625000004 Z"/></g><g id="Regular-S" transform="matrix(1 0 0 1 1405.73 696)"><path d="M56.808 -6.825999999999993 H30.771 Q27.910875 -6.825999999999993 25.7904375 -8.946437499999988 Q23.67 -11.066874999999996 23.67 -13.926999999999992 V-54.166 H30.771 V-13.926999999999992 Q30.771 -13.926999999999992 30.771 -13.926999999999992 Q30.771 -13.926999999999992 30.771 -13.926999999999992 H56.808 V-6.825999999999993 Z M43.765041000000004 -56.532999999999994 Q40.337625 -56.532999999999994 37.9213125 -58.97377149999999 Q35.505 -61.414542999999995 35.505 -64.841959 Q35.505 -68.269375 37.9457715 -70.6856875 Q40.386543 -73.102 43.813959000000004 -73.102 Q47.241375000000005 -73.102 49.6576875 -70.66122849999999 Q52.074000000000005 -68.220457 52.074000000000005 -64.79304099999999 Q52.074000000000005 -61.365624999999994 49.6332285 -58.9493125 Q47.192457000000005 -56.532999999999994 43.765041000000004 -56.532999999999994 Z M61.542 -2.0919999999999987 V-18.660999999999987 H44.973 Q41.06745 -18.660999999999987 38.286225 -21.442224999999993 Q35.505 -24.223449999999985 35.505 -28.12899999999999 V-45.881499999999996 Q35.505 -49.360989999999994 37.901883375000004 -51.76349499999999 Q40.29876675 -54.166 43.770070875 -54.166 Q47.241375000000005 -54.166 49.6576875 -51.552437499999996 Q52.074000000000005 -48.938874999999996 52.074000000000005 -45.388374999999996 V-28.12899999999999 H61.542 Q64.50075 -28.12899999999999 66.6705 -26.057874999999996 Q68.84025 -23.98675 68.643 -21.02799999999999 V-2.0919999999999987 H61.542 Z"/></g><g id="Light-S" transform="matrix(1 0 0 1 1109.75 696)"><path d="M56.314875 -8.798598624999997 H31.4917515 Q28.897223625 -8.798598624999997 27.023348625 -10.672473624999995 Q25.149473625000002 -12.546348624999993 25.149473625000002 -15.140975124999997 V-54.166 H30.277875 V-15.140975124999997 Q30.277875 -14.685722124999998 30.65718675 -14.306311749999992 Q31.036597125 -13.926999999999992 31.4917515 -13.926999999999992 H56.314875 V-8.798598624999997 Z M42.285567375 -55.546651374999996 Q39.085777875000005 -55.546651374999996 36.85912125 -57.79776699999999 Q34.632464625000004 -60.048784 34.632464625000004 -63.248672125 Q34.632464625000004 -66.448461625 36.88358025 -68.67511825 Q39.134597250000006 -70.901774875 42.334485375 -70.901774875 Q45.534274875 -70.901774875 47.7609315 -68.65065924999999 Q49.987588125 -66.39964225 49.987588125 -63.199754125 Q49.987588125 -59.999964625 47.7364725 -57.773308 Q45.485356875 -55.546651374999996 42.285567375 -55.546651374999996 Z M62.035125 -3.0783486249999896 V-18.660999999999987 H43.493526375 Q39.967288125 -18.660999999999987 37.48953225 -21.138755875 Q35.011875 -23.616511749999987 35.011875 -27.142651375 V-45.426247 Q35.011875 -48.526425249999996 37.105190625000006 -50.625461124999994 Q39.198604875 -52.724497 42.290597250000005 -52.724497 Q45.382491 -52.724497 47.495334375 -50.414403625 Q49.60817775 -48.10431025 49.60817775 -44.933122 V-26.156401375 H61.048875 Q63.628214625000005 -26.156401375 65.4944955 -24.3887455 Q67.360776375 -22.621089624999996 67.163526375 -20.041651375 V-3.0783486249999896 H62.035125 Z"/></g><g id="Thin-S" transform="matrix(1 0 0 1 814.015 696)"><path d="M55.82175 -10.770999999999987 H32.212404375000006 Q29.883375 -10.770999999999987 28.256062500000002 -12.398312499999989 Q26.62875 -14.025624999999991 26.62875 -16.354654374999996 V-54.166 H29.784750000000003 V-16.354654374999996 Q29.784750000000003 -15.444345624999997 30.5433735 -14.685623499999991 Q31.302095625 -13.926999999999992 32.212404375000006 -13.926999999999992 H55.82175 V-10.770999999999987 Z M40.806291 -54.5605 Q37.834128 -54.5605 35.79712725 -56.621959749999995 Q33.7601265 -58.68332087499999 33.7601265 -61.655582499999994 Q33.7601265 -64.627844125 35.821487625 -66.664844875 Q37.882947375 -68.70184562499999 40.855209 -68.70184562499999 Q43.827470625000004 -68.70184562499999 45.864471375 -66.64038587499999 Q47.901472125 -64.57902475 47.901472125 -61.60676312499999 Q47.901472125 -58.63450149999999 45.840012375 -56.597500749999995 Q43.778552625 -54.5605 40.806291 -54.5605 Z M62.52825 -4.064499999999995 V-18.660999999999987 H42.014250000000004 Q38.8673235 -18.660999999999987 36.69303675 -20.835286749999995 Q34.518750000000004 -23.009573499999988 34.518750000000004 -26.156499999999994 V-44.971092625 Q34.518750000000004 -47.691959125 36.308695125 -49.487525874999996 Q38.09864025 -51.283092624999995 40.811320875 -51.283092624999995 Q43.524001500000004 -51.283092624999995 45.33337575 -49.27646837499999 Q47.14275 -47.26984412499999 47.14275 -44.477967625 V-24.183999999999997 H60.55575 Q62.7558765 -24.183999999999997 64.31868825000001 -22.719813249999987 Q65.8815 -21.25562649999999 65.68425 -19.055499999999995 V-4.064499999999995 H62.52825 Z"/></g><g id="Ultralight-S" transform="matrix(1 0 0 1 517.792 696)"><path d="M55.525875 -11.954499999999996 H32.644875 Q30.475125000000002 -11.954499999999996 28.99575 -13.433874999999986 Q27.516375 -14.91324999999999 27.516375 -17.083 V-54.166 H29.488875 V-17.083 Q29.488875 -15.899499999999989 30.475125000000002 -14.91324999999999 Q31.461375 -13.926999999999992 32.644875 -13.926999999999992 H55.525875 V-11.954499999999996 Z M39.918666 -53.96874999999999 Q37.083 -53.96874999999999 35.1598125 -55.9163965 Q33.236625000000004 -57.864042999999995 33.236625000000004 -60.699709 Q33.236625000000004 -63.535374999999995 35.1842715 -65.4585625 Q37.131918 -67.38175 39.967584 -67.38175 Q42.80325 -67.38175 44.7264375 -65.43410349999999 Q46.649625 -63.486457 46.649625 -60.650791 Q46.649625 -57.815124999999995 44.7019785 -55.8919375 Q42.754332000000005 -53.96874999999999 39.918666 -53.96874999999999 Z M62.824125 -4.656249999999986 V-18.660999999999987 H41.126625000000004 Q38.207325 -18.660999999999987 36.2151 -20.653224999999992 Q34.222875 -22.645449999999997 34.222875 -25.56474999999999 V-44.69799999999999 Q34.222875 -47.19123999999999 35.830758375 -48.804745 Q37.43864175 -50.41824999999999 39.923695875 -50.41824999999999 Q42.408750000000005 -50.41824999999999 44.0360625 -48.593687499999994 Q45.663375 -46.769124999999995 45.663375 -44.204874999999994 V-23.000499999999988 H60.259875 Q62.232375000000005 -23.000499999999988 63.613125000000004 -21.718374999999995 Q64.993875 -20.436249999999987 64.796625 -18.46374999999999 V-4.656249999999986 H62.824125 Z"/></g></g></svg>