<svg xmlns="http://www.w3.org/2000/svg" version="1.1" width="3300" height="2000"><g id="Notes"><style>
    text {
      font-family: monospace;
      text-anchor: middle;
    }
    text.emphasis {
      font-weight:bold;
    }
    text.lanchor {
      text-anchor: start;
    }
  </style><rect height="2200" id="artboard" fill="white" width="3300" x="0" y="0"/><line id="" style="fill:none;stroke:black;stroke-width:0.5;" x1="263" x2="3036" y1="292" y2="292"/><text class="lanchor emphasis" transform="matrix(1 0 0 1 263 322)">Weight/Scale Variations</text><text transform="matrix(1 0 0 1 559.711 322)">Ultralight</text><text transform="matrix(1 0 0 1 856.422 322)">Thin</text><text transform="matrix(1 0 0 1 1153.13 322)">Light</text><text transform="matrix(1 0 0 1 1449.84 322)">Regular</text><text transform="matrix(1 0 0 1 1746.56 322)">Medium</text><text transform="matrix(1 0 0 1 2043.27 322)">Semibold</text><text transform="matrix(1 0 0 1 2339.98 322)">Bold</text><text transform="matrix(1 0 0 1 2636.69 322)">Heavy</text><text transform="matrix(1 0 0 1 2933.4 322)">Black</text><text id="template-version" style="text-anchor: end;" transform="matrix(1 0 0 1 3036 1933)">Template v.1.0</text><text class="lanchor" transform="matrix(1 0 0 1 263 726)">Small</text><text class="lanchor" transform="matrix(1 0 0 1 263 1156)">Medium</text><text class="lanchor" transform="matrix(1 0 0 1 263 1586)">Large</text></g><g id="Guides"><g id="H-reference" style="fill:#27AAE1;stroke:none;" transform="matrix(1 0 0 1 339 696)"><path d="M 54.9316 0 L 57.666 0 L 30.5664 -70.459 L 28.0762 -70.459 L 0.976562 0 L 3.66211 0 L 12.9395 -24.4629 L 45.7031 -24.4629 Z M 29.1992 -67.0898 L 29.4434 -67.0898 L 44.8242 -26.709 L 13.8184 -26.709 Z"/></g><line id="Baseline-S" style="fill:none;stroke:#27AAE1;opacity:1;stroke-width:0.577;" x1="263" x2="3036" y1="696" y2="696"/><line id="Capline-S" style="fill:none;stroke:#27AAE1;opacity:1;stroke-width:0.577;" x1="263" x2="3036" y1="625.541" y2="625.541"/><g id="H-reference" style="fill:#27AAE1;stroke:none;" transform="matrix(1 0 0 1 339 1126)"><path d="M 54.9316 0 L 57.666 0 L 30.5664 -70.459 L 28.0762 -70.459 L 0.976562 0 L 3.66211 0 L 12.9395 -24.4629 L 45.7031 -24.4629 Z M 29.1992 -67.0898 L 29.4434 -67.0898 L 44.8242 -26.709 L 13.8184 -26.709 Z"/></g><line id="Baseline-M" style="fill:none;stroke:#27AAE1;opacity:1;stroke-width:0.577;" x1="263" x2="3036" y1="1126" y2="1126"/><line id="Capline-M" style="fill:none;stroke:#27AAE1;opacity:1;stroke-width:0.577;" x1="263" x2="3036" y1="1055.54" y2="1055.54"/><g id="H-reference" style="fill:#27AAE1;stroke:none;" transform="matrix(1 0 0 1 339 1556)"><path d="M 54.9316 0 L 57.666 0 L 30.5664 -70.459 L 28.0762 -70.459 L 0.976562 0 L 3.66211 0 L 12.9395 -24.4629 L 45.7031 -24.4629 Z M 29.1992 -67.0898 L 29.4434 -67.0898 L 44.8242 -26.709 L 13.8184 -26.709 Z"/></g><line id="Baseline-L" style="fill:none;stroke:#27AAE1;opacity:1;stroke-width:0.577;" x1="263" x2="3036" y1="1556" y2="1556"/><line id="Capline-L" style="fill:none;stroke:#27AAE1;opacity:1;stroke-width:0.577;" x1="263" x2="3036" y1="1485.54" y2="1485.54"/><rect height="119.336" id="left-margin" style="fill:darkred;stroke:none;opacity:0.4;" width="12.4512" x="1394.06" y="1030.79"/><rect height="119.336" id="right-margin" style="fill:darkgreen;stroke:none;opacity:0.4;" width="12.4512" x="1502.5112" y="1030.79"/><rect x="1406.5112" y="1045" width="96" height="96" fill="none" stroke="blue" stroke-dasharray="5"/><rect x="1394.06" y="1030.79" width="120.9024" height="119.336" fill="none" stroke="blue"/></g><g id="Symbols"><g id="Bold-L" transform="matrix(1 0 0 1 2266 1556)"><path d="M86.91375000000001 30.721250000000026  77.4 21.046250000000015  100.2975 -1.851249999999979  44.02125 -58.12749999999998  21.12375 -35.22999999999999  11.44875 -44.74374999999998  20.47875 -53.77374999999998  11.44875 -62.80374999999998  25.4775 -76.83249999999998  18.705000000000002 -83.28249999999998  29.3475 -93.92499999999998  35.95875 -87.31374999999998  49.82625 -101.18124999999998  58.85625 -92.15124999999998  67.88625 -101.18124999999998  77.56125 -91.66749999999999  54.66375 -68.76999999999998  110.94 -12.493749999999977  133.8375 -35.391249999999985  143.35125 -25.716249999999988  134.32125 -16.686249999999987  143.35125 -7.656249999999986  129.16125 6.533750000000026  135.93375 12.983750000000015  125.29125 23.626250000000027  118.84125 16.85375000000002  104.97375000000001 30.721250000000026  95.94375000000001 21.691250000000025  86.91375000000001 30.721250000000026 Z"/></g><g id="Semibold-L" transform="matrix(1 0 0 1 1970.27 1556)"><path d="M87.6848475 29.809865000000002  79.36289625 21.396807500000023  102.26039625 -1.5006924999999853  43.6706925 -60.09039624999998  20.7731925 -37.19289624999999  12.360135 -45.51484749999999  21.390134999999997 -54.685134999999974  12.360135 -63.715134999999975  26.248597500000002 -77.60359749999998  19.4760975 -84.19388499999998  28.436115000000004 -93.15390249999999  35.1876525 -86.54265249999999  48.914865000000006 -100.26986499999998  57.94486500000001 -91.23986499999998  67.11515250000001 -100.26986499999998  75.52821 -91.94791374999998  52.63071 -69.05041374999999  111.22041375 -10.460709999999992  134.11791375 -33.358209999999985  142.439865 -24.945152499999978  133.409865 -15.774864999999977  142.439865 -6.744864999999976  128.3901525 7.304847500000022  135.1626525 13.895135000000039  126.20263500000001 22.855152500000003  119.61234750000001 16.082652500000023  105.885135 29.809865000000002  96.855135 20.779865  87.6848475 29.809865000000002 Z"/></g><g id="Medium-L" transform="matrix(1 0 0 1 1674.31 1556)"><path d="M88.2634125 29.126326250000034  80.83527 21.659645000000012  103.73277 -1.237854999999982  43.407855000000005 -61.562769999999986  20.510355 -38.66526999999998  13.043673750000002 -46.093412499999985  22.073673749999998 -55.368673749999985  13.043673750000002 -64.39867374999999  26.8271625 -78.18216249999998  20.054662500000003 -84.87742374999999  27.75257625 -92.57533749999999  34.6090875 -85.96408749999998  48.231326249999995 -99.58632624999998  57.261326249999996 -90.55632624999998  66.5365875 -99.58632624999998  74.00326875 -92.15818374999998  51.10576875 -69.26068374999998  111.43068375 -8.93576874999998  134.32818375 -31.833268749999974  141.75632625 -24.36658749999998  132.72632625 -15.091326249999995  141.75632625 -6.061326249999993  127.8115875 7.88341250000002  134.5840875 14.578673750000007  126.88617375 22.276587500000005  120.19091250000001 15.504087500000026  106.56867375 29.126326250000034  97.53867375 20.096326250000033  88.2634125 29.126326250000034 Z"/></g><g id="Regular-L" transform="matrix(1 0 0 1 1378.56 1556)"><path d="M88.6875 28.62500000000003  81.915 21.85250000000002  104.8125 -1.0449999999999875  43.215 -62.642499999999984  20.3175 -39.744999999999976  13.545 -46.517499999999984  22.575 -55.869999999999976  13.545 -64.89999999999998  27.251250000000002 -78.60624999999999  20.47875 -85.37874999999998  27.251250000000002 -92.15124999999998  34.185 -85.53999999999999  47.730000000000004 -99.08499999999998  56.760000000000005 -90.05499999999998  66.1125 -99.08499999999998  72.885 -92.31249999999999  49.987500000000004 -69.41499999999999  111.58500000000001 -7.817499999999981  134.48250000000002 -30.71499999999999  141.255 -23.94249999999998  132.225 -14.589999999999975  141.255 -5.559999999999988  127.3875 8.307500000000005  134.16 15.080000000000013  127.3875 21.85250000000002  120.61500000000001 15.080000000000013  107.07000000000001 28.62500000000003  98.04 19.595000000000027  88.6875 28.62500000000003 Z"/></g><g id="Light-L" transform="matrix(1 0 0 1 1082.77 1556)"><path d="M88.6875 27.012338750000026  82.9073325 21.232332500000012  105.8048325 -1.6651674999999813  43.835167500000004 -63.63483249999999  20.9376675 -40.73733249999998  15.15766125 -46.517499999999984  24.3116625 -55.869999999999976  16.89432375 -63.28733874999999  30.5384925 -76.99358874999999  23.207745000000003 -84.32433624999999  28.305663749999997 -89.484175  35.797661250000004 -82.19067624999998  49.34266125 -95.73567624999998  56.760000000000005 -88.31833749999998  66.1125 -97.47233874999998  71.8926675 -91.69233249999999  48.9951675 -68.79483249999998  110.9648325 -6.825167499999978  133.8623325 -29.722667499999986  139.64233875000002 -23.94249999999998  130.4883375 -14.589999999999975  137.90567625 -7.172661249999976  124.10025750000001 6.632918750000016  131.492925 13.963505000000026  126.33308625000001 19.123505000000023  119.00233875 11.730676250000016  105.45733875 25.275676250000032  98.04 17.858337500000033  88.6875 27.012338750000026 Z"/></g><g id="Thin-L" transform="matrix(1 0 0 1 787.282 1556)"><path d="M88.6875 25.400000000000006  83.899665 20.612165000000005  106.797165 -2.2853349999999892  44.455335000000005 -64.62716499999999  21.557835 -41.72966499999998  16.77 -46.517499999999984  26.048002500000003 -55.869999999999976  20.2430025 -61.67499999999998  33.82525125 -75.38125  25.9364175 -83.27008374999998  29.35991625 -86.81758374999998  37.410000000000004 -78.84199749999999  50.955 -92.38699749999998  56.760000000000005 -86.58199749999999  66.1125 -95.85999999999999  70.900335 -91.07216499999998  48.002835000000005 -68.17466499999998  110.344665 -5.832834999999989  133.242165 -28.730334999999982  138.03 -23.94249999999998  128.75199750000002 -14.589999999999975  134.5569975 -8.784999999999982  120.81349875000001 4.958498750000018  128.82633375 12.847332500000022  125.27883375 16.394832500000007  117.39 8.381997500000011  103.845 21.926997500000027  98.04 16.12199750000002  88.6875 25.400000000000006 Z"/></g><g id="Ultralight-L" transform="matrix(1 0 0 1 491.205 1556)"><path d="M88.6875 24.432500000000033  84.495 20.24000000000001  107.3925 -2.6574999999999847  44.8275 -65.22249999999998  21.93 -42.32499999999999  17.7375 -46.517499999999984  27.09 -55.869999999999976  22.2525 -60.70749999999998  35.7975 -74.41375  27.57375 -82.63749999999999  29.9925 -85.21749999999999  38.3775 -76.83249999999998  51.9225 -90.37749999999998  56.760000000000005 -85.53999999999999  66.1125 -94.89249999999998  70.305 -90.69999999999999  47.4075 -67.80249999999998  109.9725 -5.237499999999983  132.87 -28.134999999999977  137.0625 -23.94249999999998  127.71000000000001 -14.589999999999975  132.5475 -9.752499999999984  118.84125 3.9537500000000136  127.22625000000001 12.177500000000009  124.64625000000001 14.757500000000022  116.4225 6.372500000000031  102.8775 19.917500000000018  98.04 15.080000000000013  88.6875 24.432500000000033 Z"/></g><g id="Bold-M" transform="matrix(1 0 0 1 2281.8 1126)"><path d="M65.125 16.39500000000001  55.25 6.52000000000001  73.0 -11.22999999999999  36.0 -48.22999999999999  18.25 -30.47999999999999  8.375 -40.35499999999999  15.375 -47.35499999999999  8.375 -54.35499999999999  19.125 -65.10499999999999  12.125 -72.10499999999999  23.125 -83.10499999999999  30.125 -76.10499999999999  40.875 -86.85499999999999  47.875 -79.85499999999999  54.875 -86.85499999999999  64.75 -76.97999999999999  47.0 -59.22999999999999  84.0 -22.22999999999999  101.75 -39.97999999999999  111.625 -30.10499999999999  104.625 -23.10499999999999  111.625 -16.10499999999999  100.875 -5.35499999999999  107.875 1.6450000000000102  96.875 12.64500000000001  89.875 5.64500000000001  79.125 16.39500000000001  72.125 9.39500000000001  65.125 16.39500000000001 Z"/></g><g id="Semibold-M" transform="matrix(1 0 0 1 1985.97 1126)"><path d="M65.940125 15.471125000000015  57.315125 6.846125000000015  75.065125 -10.903874999999985  35.673875 -50.29512499999999  17.923875 -32.545124999999985  9.298875 -41.170124999999985  16.298875 -48.27887499999999  9.298875 -55.27887499999999  19.940125 -65.92012499999998  12.940125 -73.028875  22.201125 -82.289875  29.309875 -75.289875  39.951125 -85.931125  46.951125 -78.931125  54.059875 -85.931125  62.684875 -77.306125  44.934875 -59.55612499999999  84.326125 -20.164874999999995  102.076125 -37.914874999999995  110.701125 -29.289874999999995  103.701125 -22.181124999999994  110.701125 -15.181124999999994  100.059875 -4.539874999999995  107.059875 2.5688750000000056  97.798875 11.829875000000015  90.690125 4.8298750000000155  80.048875 15.471125000000015  73.048875 8.471125000000015  65.940125 15.471125000000015 Z"/></g><g id="Medium-M" transform="matrix(1 0 0 1 1689.91 1126)"><path d="M66.551625 14.778125000000017  58.864125 7.090625000000017  76.614125 -10.659374999999983  35.429375 -51.84412499999999  17.679375 -34.09412499999999  9.991875 -41.78162499999999  16.991875 -48.97187499999999  9.991875 -55.97187499999999  20.551625 -66.53162499999999  13.551625 -73.72187499999998  21.508125 -81.67837499999999  28.698375 -74.67837499999999  39.258125 -85.238125  46.258125 -78.238125  53.448375 -85.238125  61.135875 -77.550625  43.385875 -59.80062499999999  84.570625 -18.61587499999999  102.320625 -36.36587499999999  110.008125 -28.67837499999999  103.008125 -21.488124999999997  110.008125 -14.488124999999997  99.448375 -3.9283749999999884  106.448375 3.2618750000000034  98.491875 11.218375000000009  91.301625 4.218375000000009  80.741875 14.778125000000017  73.741875 7.778125000000017  66.551625 14.778125000000017 Z"/></g><g id="Regular-M" transform="matrix(1 0 0 1 1394.06 1126)"><path d="M67.0 14.27000000000001  60.0 7.27000000000001  77.75 -10.47999999999999  35.25 -52.97999999999999  17.5 -35.22999999999999  10.5 -42.22999999999999  17.5 -49.47999999999999  10.5 -56.47999999999999  21.0 -66.97999999999999  14.0 -74.22999999999999  21.0 -81.22999999999999  28.25 -74.22999999999999  38.75 -84.72999999999999  45.75 -77.72999999999999  53.0 -84.72999999999999  60.0 -77.72999999999999  42.25 -59.97999999999999  84.75 -17.47999999999999  102.5 -35.22999999999999  109.5 -28.22999999999999  102.5 -20.97999999999999  109.5 -13.97999999999999  99.0 -3.4799999999999898  106.0 3.7700000000000102  99.0 10.77000000000001  91.75 3.7700000000000102  81.25 14.27000000000001  74.25 7.27000000000001  67.0 14.27000000000001 Z"/></g><g id="Light-M" transform="matrix(1 0 0 1 1098.18 1126)"><path d="M67.48075 13.019875000000013  61.730875 7.27000000000001  79.480875 -10.47999999999999  35.25 -54.71087499999999  17.5 -36.96087499999999  11.750125 -42.71074999999999  18.84625 -49.96074999999999  13.096375 -55.71074999999999  23.596375 -66.21074999999999  16.596375 -73.36449999999999  21.8655 -78.633625  29.01925 -71.633625  39.51925 -82.133625  45.26925 -76.38374999999999  52.51925 -83.47987499999999  58.269125 -77.72999999999999  40.519125 -59.97999999999999  84.75 -15.749124999999992  102.5 -33.49912499999999  108.249875 -27.74924999999999  101.15375 -20.49924999999999  106.903625 -14.74924999999999  96.403625 -4.249249999999989  103.403625 2.904500000000013  98.1345 8.173625000000015  90.98075 1.1736250000000155  80.48075 11.673625000000015  74.73075 5.9237500000000125  67.48075 13.019875000000013 Z"/></g><g id="Thin-M" transform="matrix(1 0 0 1 802.565 1126)"><path d="M67.9615 11.77000000000001  63.4615 7.27000000000001  81.2115 -10.47999999999999  35.25 -56.44149999999999  17.5 -38.69149999999999  13.0 -43.19149999999999  20.19225 -50.44149999999999  15.69225 -54.94149999999999  26.19225 -65.44149999999999  19.19225 -72.49924999999999  22.73075 -76.03774999999999  29.7885 -69.03774999999999  40.2885 -79.53774999999999  44.7885 -75.03774999999999  52.0385 -82.22999999999999  56.5385 -77.72999999999999  38.7885 -59.97999999999999  84.75 -14.018499999999989  102.5 -31.76849999999999  107.0 -27.26849999999999  99.80775 -20.01849999999999  104.30775 -15.518499999999989  93.80775 -5.018499999999989  100.80775 2.0392500000000098  97.26925 5.577750000000009  90.2115 -1.4222499999999911  79.7115 9.077750000000009  75.2115 4.577750000000009  67.9615 11.77000000000001 Z"/></g><g id="Ultralight-M" transform="matrix(1 0 0 1 506.415 1126)"><path d="M68.25 11.02000000000001  64.5 7.27000000000001  82.25 -10.47999999999999  35.25 -57.47999999999999  17.5 -39.72999999999999  13.75 -43.47999999999999  21.0 -50.72999999999999  17.25 -54.47999999999999  27.75 -64.97999999999999  20.75 -71.97999999999999  23.25 -74.47999999999999  30.25 -67.47999999999999  40.75 -77.97999999999999  44.5 -74.22999999999999  51.75 -81.47999999999999  55.5 -77.72999999999999  37.75 -59.97999999999999  84.75 -12.97999999999999  102.5 -30.72999999999999  106.25 -26.97999999999999  99.0 -19.72999999999999  102.75 -15.97999999999999  92.25 -5.47999999999999  99.25 1.5200000000000102  96.75 4.02000000000001  89.75 -2.9799999999999898  79.25 7.52000000000001  75.5 3.7700000000000102  68.25 11.02000000000001 Z"/></g><g id="Bold-S" transform="matrix(1 0 0 1 2294.23 696)"><path d="M50.8905 4.3186250000000115  43.59225 -2.9796249999999986  57.498375 -16.885749999999987  28.99575 -45.388374999999996  15.089625 -31.482249999999993  7.791375 -38.780499999999996  12.821250000000001 -43.613125  7.791375 -48.642999999999994  16.864875 -57.716499999999996  10.257 -64.22574999999999  18.344250000000002 -72.31299999999999  24.8535 -65.705125  33.927 -74.77862499999999  38.956875000000004 -69.74875  43.789500000000004 -74.77862499999999  51.08775 -67.480375  37.181625000000004 -53.57424999999999  65.68425 -25.071624999999997  79.59037500000001 -38.97774999999999  86.888625 -31.679499999999997  81.85875 -26.846874999999997  86.888625 -21.816999999999993  77.81512500000001 -12.743499999999997  84.423 -6.234249999999989  76.33575 1.8530000000000086  69.82650000000001 -4.754874999999998  60.753 4.3186250000000115  55.723125 -0.7112499999999926  50.8905 4.3186250000000115 Z"/></g><g id="Semibold-S" transform="matrix(1 0 0 1 1998.1 696)"><path d="M51.533633625 3.5896876250000105  45.221633625 -2.722312374999987  59.127758625 -16.62843737499999  28.738437375000004 -47.017758625  14.832312374999999 -33.11163362499999  8.520312375000001 -39.423633624999994  13.550187375 -44.342062375  8.520312375000001 -49.371937374999995  17.508008625 -58.359633624999994  10.900133625 -64.95468737499999  17.615312625 -71.669866375  24.210366375000003 -65.06199137499999  33.198062625 -74.04968762499999  38.227937625 -69.019812625  43.146366375 -74.04968762499999  49.458366375000004 -67.73768762499999  35.552241375 -53.831562625  65.941562625 -23.442241374999995  79.847687625 -37.348366375  86.159687625 -31.036366375  81.12981262500001 -26.117937624999996  86.159687625 -21.088062624999992  77.171991375 -12.100366374999993  83.77986637500001 -5.505312625000002  77.064687375 1.2098663750000185  70.469633625 -5.398008624999989  61.481937375 3.5896876250000105  56.452062375 -1.4401873749999936  51.533633625 3.5896876250000105 Z"/></g><g id="Medium-S" transform="matrix(1 0 0 1 1701.85 696)"><path d="M52.016107125000005 3.042910625000019  46.443794625 -2.5294018749999907  60.349919625000005 -16.435526874999994  28.545526875 -48.239919625  14.639401875 -34.333794624999996  9.067089375 -39.906107125  14.096964375 -44.888839374999996  9.067089375 -49.91871437499999  17.990482125000003 -58.842107125  11.382607125 -65.501464375  17.068535625 -71.187392875  23.727892875 -64.579517875  32.651285625 -73.502910625  37.681160625000004 -68.473035625  42.663892875 -73.502910625  48.236205375000004 -67.93059812499999  34.330080375 -54.02447312499999  66.13447312500001 -22.220080374999995  80.040598125 -36.12620537499999  85.61291062500001 -30.553892874999995  80.58303562500001 -25.571160625000005  85.61291062500001 -20.541285625  76.689517875 -11.617892874999995  83.297392875 -4.958535624999996  77.611464375 0.7273928750000067  70.952107125 -5.880482125  62.028714375 3.042910625000019  56.998839374999996 -1.9869643749999852  52.016107125000005 3.042910625000019 Z"/></g><g id="Regular-S" transform="matrix(1 0 0 1 1405.73 696)"><path d="M52.369875 2.64200000000001  47.34 -2.387874999999994  61.246125 -16.293999999999997  28.404 -49.13612499999999  14.497875 -35.23  9.468 -40.259874999999994  14.497875 -45.28975  9.468 -50.319624999999995  18.344250000000002 -59.195874999999994  11.736375 -65.90237499999999  16.667625 -70.833625  23.374125 -64.22574999999999  32.250375 -73.102  37.28025 -68.072125  42.310125 -73.102  47.34 -68.072125  33.433875 -54.166  66.276 -21.323874999999987  80.182125 -35.23  85.212 -30.200124999999993  80.182125 -25.170249999999996  85.212 -20.14037499999999  76.33575 -11.264124999999993  82.943625 -4.557624999999987  78.012375 0.3736250000000041  71.305875 -6.234249999999989  62.429625 2.64200000000001  57.399750000000004 -2.387874999999994  52.369875 2.64200000000001 Z"/></g><g id="Light-S" transform="matrix(1 0 0 1 1109.75 696)"><path d="M52.74918675 1.655651375000005  48.705660375 -2.387874999999994  62.611785375000004 -16.293999999999997  28.404 -50.50178537499999  14.497875 -36.595660374999994  10.454348625000002 -40.63918674999999  15.560066250000002 -45.66906175  11.516539875000001 -49.712686749999996  20.392789875 -58.588936749999995  13.784914875 -65.2194955  17.350504500000003 -68.785085125  23.981063250000002 -62.177210124999995  32.857313250000004 -71.053460125  36.90093825 -67.00993374999999  41.93081325 -72.115651375  45.974339625000006 -68.072125  32.068214625 -54.166  66.276 -19.958214624999997  80.182125 -33.864339625  84.22565137500001 -29.820813249999993  79.11993375 -24.790938249999996  83.16346012500001 -20.74731324999999  74.287210125 -11.871063249999992  80.89508512500001 -5.240504499999986  77.32949550000001 -1.6749148749999847  70.69893675 -8.282789874999992  61.82268675 0.5934601250000071  57.779061750000004 -3.450066249999992  52.74918675 1.655651375000005 Z"/></g><g id="Thin-S" transform="matrix(1 0 0 1 814.015 696)"><path d="M53.128498500000006 0.6695000000000135  50.071123500000006 -2.387874999999994  63.9772485 -16.293999999999997  28.404 -51.867248499999995  14.497875 -37.96112349999999  11.4405 -41.01849849999999  16.62206025 -46.0483735  13.564685250000002 -49.1057485  22.440935250000003 -57.981998499999996  15.833060250000003 -64.53681325  18.033186750000002 -66.73693974999999  24.5880015 -60.12906475  33.4642515 -69.00531475  36.5216265 -65.94793974999999  41.5515015 -71.1295  44.6088765 -68.072125  30.7027515 -54.166  66.276 -18.59275149999999  80.182125 -32.498876499999994  83.2395 -29.441501499999994  78.05793975 -24.411626499999997  81.11531475 -21.35425149999999  72.23906475 -12.47800149999999  78.84693975 -5.923186749999999  76.64681325000001 -3.723060249999989  70.0919985 -10.330935249999996  61.215748500000004 -1.4546852499999972  58.1583735 -4.5120602499999904  53.128498500000006 0.6695000000000135 Z"/></g><g id="Ultralight-S" transform="matrix(1 0 0 1 517.792 696)"><path d="M53.356125000000006 0.07775000000000887  50.8905 -2.387874999999994  64.796625 -16.293999999999997  28.404 -52.68662499999999  14.497875 -38.780499999999996  12.032250000000001 -41.24612499999999  17.259375000000002 -46.275999999999996  14.793750000000001 -48.74162499999999  23.67 -57.617875  17.062125 -64.12712499999999  18.442875 -65.507875  24.952125000000002 -58.9  33.828375 -67.77624999999999  36.294000000000004 -65.31062499999999  41.323875 -70.53774999999999  43.789500000000004 -68.072125  29.883375 -54.166  66.276 -17.773374999999987  80.182125 -31.679499999999997  82.64775 -29.213874999999994  77.420625 -24.183999999999997  79.88625 -21.718374999999995  71.01 -12.842124999999996  77.617875 -6.332874999999987  76.237125 -4.952124999999995  69.727875 -11.559999999999988  60.851625000000006 -2.683749999999989  58.386 -5.149374999999992  53.356125000000006 0.07775000000000887 Z"/></g></g></svg>