<svg xmlns="http://www.w3.org/2000/svg" version="1.1" width="3300" height="2000"><g id="Notes"><style>
    text {
      font-family: monospace;
      text-anchor: middle;
    }
    text.emphasis {
      font-weight:bold;
    }
    text.lanchor {
      text-anchor: start;
    }
  </style><rect height="2200" id="artboard" fill="white" width="3300" x="0" y="0"/><line id="" style="fill:none;stroke:black;stroke-width:0.5;" x1="263" x2="3036" y1="292" y2="292"/><text class="lanchor emphasis" transform="matrix(1 0 0 1 263 322)">Weight/Scale Variations</text><text transform="matrix(1 0 0 1 559.711 322)">Ultralight</text><text transform="matrix(1 0 0 1 856.422 322)">Thin</text><text transform="matrix(1 0 0 1 1153.13 322)">Light</text><text transform="matrix(1 0 0 1 1449.84 322)">Regular</text><text transform="matrix(1 0 0 1 1746.56 322)">Medium</text><text transform="matrix(1 0 0 1 2043.27 322)">Semibold</text><text transform="matrix(1 0 0 1 2339.98 322)">Bold</text><text transform="matrix(1 0 0 1 2636.69 322)">Heavy</text><text transform="matrix(1 0 0 1 2933.4 322)">Black</text><text id="template-version" style="text-anchor: end;" transform="matrix(1 0 0 1 3036 1933)">Template v.1.0</text><text class="lanchor" transform="matrix(1 0 0 1 263 726)">Small</text><text class="lanchor" transform="matrix(1 0 0 1 263 1156)">Medium</text><text class="lanchor" transform="matrix(1 0 0 1 263 1586)">Large</text></g><g id="Guides"><g id="H-reference" style="fill:#27AAE1;stroke:none;" transform="matrix(1 0 0 1 339 696)"><path d="M 54.9316 0 L 57.666 0 L 30.5664 -70.459 L 28.0762 -70.459 L 0.976562 0 L 3.66211 0 L 12.9395 -24.4629 L 45.7031 -24.4629 Z M 29.1992 -67.0898 L 29.4434 -67.0898 L 44.8242 -26.709 L 13.8184 -26.709 Z"/></g><line id="Baseline-S" style="fill:none;stroke:#27AAE1;opacity:1;stroke-width:0.577;" x1="263" x2="3036" y1="696" y2="696"/><line id="Capline-S" style="fill:none;stroke:#27AAE1;opacity:1;stroke-width:0.577;" x1="263" x2="3036" y1="625.541" y2="625.541"/><g id="H-reference" style="fill:#27AAE1;stroke:none;" transform="matrix(1 0 0 1 339 1126)"><path d="M 54.9316 0 L 57.666 0 L 30.5664 -70.459 L 28.0762 -70.459 L 0.976562 0 L 3.66211 0 L 12.9395 -24.4629 L 45.7031 -24.4629 Z M 29.1992 -67.0898 L 29.4434 -67.0898 L 44.8242 -26.709 L 13.8184 -26.709 Z"/></g><line id="Baseline-M" style="fill:none;stroke:#27AAE1;opacity:1;stroke-width:0.577;" x1="263" x2="3036" y1="1126" y2="1126"/><line id="Capline-M" style="fill:none;stroke:#27AAE1;opacity:1;stroke-width:0.577;" x1="263" x2="3036" y1="1055.54" y2="1055.54"/><g id="H-reference" style="fill:#27AAE1;stroke:none;" transform="matrix(1 0 0 1 339 1556)"><path d="M 54.9316 0 L 57.666 0 L 30.5664 -70.459 L 28.0762 -70.459 L 0.976562 0 L 3.66211 0 L 12.9395 -24.4629 L 45.7031 -24.4629 Z M 29.1992 -67.0898 L 29.4434 -67.0898 L 44.8242 -26.709 L 13.8184 -26.709 Z"/></g><line id="Baseline-L" style="fill:none;stroke:#27AAE1;opacity:1;stroke-width:0.577;" x1="263" x2="3036" y1="1556" y2="1556"/><line id="Capline-L" style="fill:none;stroke:#27AAE1;opacity:1;stroke-width:0.577;" x1="263" x2="3036" y1="1485.54" y2="1485.54"/><rect height="119.336" id="left-margin" style="fill:darkred;stroke:none;opacity:0.4;" width="12.4512" x="1394.06" y="1030.79"/><rect height="119.336" id="right-margin" style="fill:darkgreen;stroke:none;opacity:0.4;" width="12.4512" x="1502.5112" y="1030.79"/><rect x="1406.5112" y="1045" width="96" height="96" fill="none" stroke="blue" stroke-dasharray="5"/><rect x="1394.06" y="1030.79" width="120.9024" height="119.336" fill="none" stroke="blue"/></g><g id="Symbols"><g id="Bold-L" transform="matrix(1 0 0 1 2266 1556)"><path d="M77.480625 -35.22999999999999 Q85.62375 -35.22999999999999 91.025625 -40.63187499999998 Q96.42750000000001 -46.03374999999998 96.42750000000001 -54.17687499999998 Q96.42750000000001 -62.31999999999998 91.025625 -67.80249999999998 Q85.62375 -73.28499999999998 77.480625 -73.28499999999998 Q69.3375 -73.28499999999998 63.855000000000004 -67.80249999999998 Q58.3725 -62.31999999999998 58.3725 -54.17687499999998 Q58.3725 -46.03374999999998 63.855000000000004 -40.63187499999998 Q69.3375 -35.22999999999999 77.480625 -35.22999999999999 Z M67.24125000000001 -51.032499999999985 Q65.95125 -51.032499999999985 64.98375 -51.999999999999986 Q64.01625 -52.96749999999999 64.01625 -54.25749999999998 Q64.01625 -55.547499999999985 64.98375 -56.514999999999986 Q65.95125 -57.48249999999999 67.24125000000001 -57.48249999999999 Q68.53125 -57.48249999999999 69.49875 -56.514999999999986 Q70.46625 -55.547499999999985 70.46625 -54.25749999999998 Q70.46625 -52.96749999999999 69.49875 -51.999999999999986 Q68.53125 -51.032499999999985 67.24125000000001 -51.032499999999985 Z M77.4 -51.032499999999985 Q76.11 -51.032499999999985 75.1425 -51.999999999999986 Q74.175 -52.96749999999999 74.175 -54.25749999999998 Q74.175 -55.547499999999985 75.1425 -56.514999999999986 Q76.11 -57.48249999999999 77.4 -57.48249999999999 Q78.69 -57.48249999999999 79.6575 -56.514999999999986 Q80.625 -55.547499999999985 80.625 -54.25749999999998 Q80.625 -52.96749999999999 79.6575 -51.999999999999986 Q78.69 -51.032499999999985 77.4 -51.032499999999985 Z M87.55875 -51.032499999999985 Q86.26875 -51.032499999999985 85.30125 -51.999999999999986 Q84.33375000000001 -52.96749999999999 84.33375000000001 -54.25749999999998 Q84.33375000000001 -55.547499999999985 85.30125 -56.514999999999986 Q86.26875 -57.48249999999999 87.55875 -57.48249999999999 Q88.84875 -57.48249999999999 89.81625 -56.514999999999986 Q90.78375 -55.547499999999985 90.78375 -54.25749999999998 Q90.78375 -52.96749999999999 89.81625 -51.999999999999986 Q88.84875 -51.032499999999985 87.55875 -51.032499999999985 Z M30.47625 26.85125000000002 Q24.1794375 26.85125000000002 19.74909375 22.42090625 Q15.31875 17.99056250000001 15.31875 11.693750000000023 V-82.15374999999997 Q15.31875 -88.51715875 19.74909375 -92.99474874999999 Q24.1794375 -97.47249999999998 30.47625 -97.47249999999998 H124.32375 Q130.68715875 -97.47249999999998 135.16474875 -92.99474874999999 Q139.6425 -88.51715875 139.6425 -82.15374999999997 V11.693750000000023 Q139.6425 17.99056250000001 135.16474875 22.42090625 Q130.68715875 26.85125000000002 124.32375 26.85125000000002 H30.47625 Z M30.47625 11.693750000000023 H124.32375 Q124.32375 11.693750000000023 124.32375 11.693750000000023 Q124.32375 11.693750000000023 124.32375 11.693750000000023 V-82.15374999999997 Q124.32375 -82.15374999999997 124.32375 -82.15374999999997 Q124.32375 -82.15374999999997 124.32375 -82.15374999999997 H30.47625 Q30.47625 -82.15374999999997 30.47625 -82.15374999999997 Q30.47625 -82.15374999999997 30.47625 -82.15374999999997 V11.693750000000023 Q30.47625 11.693750000000023 30.47625 11.693750000000023 Q30.47625 11.693750000000023 30.47625 11.693750000000023 Z"/></g><g id="Semibold-L" transform="matrix(1 0 0 1 1970.27 1556)"><path d="M77.480625 -35.86097124999999 Q85.62375 -35.86097124999999 91.025625 -41.26284624999998 Q96.42750000000001 -46.664721249999985 96.42750000000001 -54.80784624999998 Q96.42750000000001 -62.95097124999998 91.025625 -68.43347124999998 Q85.62375 -73.91597124999998 77.480625 -73.91597124999998 Q69.3375 -73.91597124999998 63.855000000000004 -68.43347124999998 Q58.3725 -62.95097124999998 58.3725 -54.80784624999998 Q58.3725 -46.664721249999985 63.855000000000004 -41.26284624999998 Q69.3375 -35.86097124999999 77.480625 -35.86097124999999 Z M67.24125000000001 -51.663471249999986 Q65.95125 -51.663471249999986 64.98375 -52.63097124999999 Q64.01625 -53.59847124999999 64.01625 -54.88847124999998 Q64.01625 -56.17847124999999 64.98375 -57.14597124999999 Q65.95125 -58.11347124999999 67.24125000000001 -58.11347124999999 Q68.53125 -58.11347124999999 69.49875 -57.14597124999999 Q70.46625 -56.17847124999999 70.46625 -54.88847124999998 Q70.46625 -53.59847124999999 69.49875 -52.63097124999999 Q68.53125 -51.663471249999986 67.24125000000001 -51.663471249999986 Z M77.4 -51.663471249999986 Q76.11 -51.663471249999986 75.1425 -52.63097124999999 Q74.175 -53.59847124999999 74.175 -54.88847124999998 Q74.175 -56.17847124999999 75.1425 -57.14597124999999 Q76.11 -58.11347124999999 77.4 -58.11347124999999 Q78.69 -58.11347124999999 79.6575 -57.14597124999999 Q80.625 -56.17847124999999 80.625 -54.88847124999998 Q80.625 -53.59847124999999 79.6575 -52.63097124999999 Q78.69 -51.663471249999986 77.4 -51.663471249999986 Z M87.55875 -51.663471249999986 Q86.26875 -51.663471249999986 85.30125 -52.63097124999999 Q84.33375000000001 -53.59847124999999 84.33375000000001 -54.88847124999998 Q84.33375000000001 -56.17847124999999 85.30125 -57.14597124999999 Q86.26875 -58.11347124999999 87.55875 -58.11347124999999 Q88.84875 -58.11347124999999 89.81625 -57.14597124999999 Q90.78375 -56.17847124999999 90.78375 -54.88847124999998 Q90.78375 -53.59847124999999 89.81625 -52.63097124999999 Q88.84875 -51.663471249999986 87.55875 -51.663471249999986 Z M29.84527875 25.09862375 Q24.603525 25.09862375 20.83753125 21.332468750000004 Q17.07137625 17.566475000000025 17.07137625 12.32472125000001 V-82.78472124999999 Q17.07137625 -88.06404624999999 20.83753125 -91.85696875 Q24.603525 -95.64972999999998 29.84527875 -95.64972999999998 H124.95472125 Q130.23404625 -95.64972999999998 134.02696875 -91.85696875 Q137.81973000000002 -88.06404624999999 137.81973000000002 -82.78472124999999 V12.32472125000001 Q137.81973000000002 17.566475000000025 134.02696875 21.332468750000004 Q130.23404625 25.09862375 124.95472125 25.09862375 H29.84527875 Z M29.84527875 12.32472125000001 H124.95472125 Q124.95472125 12.32472125000001 124.95472125 12.32472125000001 Q124.95472125 12.32472125000001 124.95472125 12.32472125000001 V-82.78472124999999 Q124.95472125 -82.78472124999999 124.95472125 -82.78472124999999 Q124.95472125 -82.78472124999999 124.95472125 -82.78472124999999 H29.84527875 Q29.84527875 -82.78472124999999 29.84527875 -82.78472124999999 Q29.84527875 -82.78472124999999 29.84527875 -82.78472124999999 V12.32472125000001 Q29.84527875 12.32472125000001 29.84527875 12.32472125000001 Q29.84527875 12.32472125000001 29.84527875 12.32472125000001 Z"/></g><g id="Medium-L" transform="matrix(1 0 0 1 1674.31 1556)"><path d="M77.480625 -36.33423999999998 Q85.62375 -36.33423999999998 91.025625 -41.73611499999997 Q96.42750000000001 -47.13798999999999 96.42750000000001 -55.281114999999986 Q96.42750000000001 -63.42423999999998 91.025625 -68.90673999999999 Q85.62375 -74.38923999999999 77.480625 -74.38923999999999 Q69.3375 -74.38923999999999 63.855000000000004 -68.90673999999999 Q58.3725 -63.42423999999998 58.3725 -55.281114999999986 Q58.3725 -47.13798999999999 63.855000000000004 -41.73611499999997 Q69.3375 -36.33423999999998 77.480625 -36.33423999999998 Z M67.24125000000001 -52.13673999999999 Q65.95125 -52.13673999999999 64.98375 -53.10423999999999 Q64.01625 -54.07173999999999 64.01625 -55.36173999999998 Q64.01625 -56.65173999999999 64.98375 -57.61923999999999 Q65.95125 -58.58673999999999 67.24125000000001 -58.58673999999999 Q68.53125 -58.58673999999999 69.49875 -57.61923999999999 Q70.46625 -56.65173999999999 70.46625 -55.36173999999998 Q70.46625 -54.07173999999999 69.49875 -53.10423999999999 Q68.53125 -52.13673999999999 67.24125000000001 -52.13673999999999 Z M77.4 -52.13673999999999 Q76.11 -52.13673999999999 75.1425 -53.10423999999999 Q74.175 -54.07173999999999 74.175 -55.36173999999998 Q74.175 -56.65173999999999 75.1425 -57.61923999999999 Q76.11 -58.58673999999999 77.4 -58.58673999999999 Q78.69 -58.58673999999999 79.6575 -57.61923999999999 Q80.625 -56.65173999999999 80.625 -55.36173999999998 Q80.625 -54.07173999999999 79.6575 -53.10423999999999 Q78.69 -52.13673999999999 77.4 -52.13673999999999 Z M87.55875 -52.13673999999999 Q86.26875 -52.13673999999999 85.30125 -53.10423999999999 Q84.33375000000001 -54.07173999999999 84.33375000000001 -55.36173999999998 Q84.33375000000001 -56.65173999999999 85.30125 -57.61923999999999 Q86.26875 -58.58673999999999 87.55875 -58.58673999999999 Q88.84875 -58.58673999999999 89.81625 -57.61923999999999 Q90.78375 -56.65173999999999 90.78375 -55.36173999999998 Q90.78375 -54.07173999999999 89.81625 -53.10423999999999 Q88.84875 -52.13673999999999 87.55875 -52.13673999999999 Z M29.37201 23.783952499999998 Q24.92167125 23.783952499999998 21.65377875 20.51622125 Q18.3860475 17.248328750000013 18.3860475 12.797989999999999 V-83.25798999999998 Q18.3860475 -87.72413124999999 21.65377875 -91.00331124999998 Q24.92167125 -94.28265249999998 29.37201 -94.28265249999998 H125.42799 Q129.89413125 -94.28265249999998 133.17331125 -91.00331124999998 Q136.4526525 -87.72413124999999 136.4526525 -83.25798999999998 V12.797989999999999 Q136.4526525 17.248328750000013 133.17331125 20.51622125 Q129.89413125 23.783952499999998 125.42799 23.783952499999998 H29.37201 Z M29.37201 12.797989999999999 H125.42799 Q125.42799 12.797989999999999 125.42799 12.797989999999999 Q125.42799 12.797989999999999 125.42799 12.797989999999999 V-83.25798999999998 Q125.42799 -83.25798999999998 125.42799 -83.25798999999998 Q125.42799 -83.25798999999998 125.42799 -83.25798999999998 H29.37201 Q29.37201 -83.25798999999998 29.37201 -83.25798999999998 Q29.37201 -83.25798999999998 29.37201 -83.25798999999998 V12.797989999999999 Q29.37201 12.797989999999999 29.37201 12.797989999999999 Q29.37201 12.797989999999999 29.37201 12.797989999999999 Z"/></g><g id="Regular-L" transform="matrix(1 0 0 1 1378.56 1556)"><path d="M77.480625 -36.68124999999998 Q85.62375 -36.68124999999998 91.025625 -42.08312499999998 Q96.42750000000001 -47.484999999999985 96.42750000000001 -55.62812499999998 Q96.42750000000001 -63.77124999999998 91.025625 -69.25374999999998 Q85.62375 -74.73624999999998 77.480625 -74.73624999999998 Q69.3375 -74.73624999999998 63.855000000000004 -69.25374999999998 Q58.3725 -63.77124999999998 58.3725 -55.62812499999998 Q58.3725 -47.484999999999985 63.855000000000004 -42.08312499999998 Q69.3375 -36.68124999999998 77.480625 -36.68124999999998 Z M67.24125000000001 -52.483749999999986 Q65.95125 -52.483749999999986 64.98375 -53.45124999999999 Q64.01625 -54.41874999999999 64.01625 -55.70874999999998 Q64.01625 -56.99874999999999 64.98375 -57.96624999999999 Q65.95125 -58.93374999999999 67.24125000000001 -58.93374999999999 Q68.53125 -58.93374999999999 69.49875 -57.96624999999999 Q70.46625 -56.99874999999999 70.46625 -55.70874999999998 Q70.46625 -54.41874999999999 69.49875 -53.45124999999999 Q68.53125 -52.483749999999986 67.24125000000001 -52.483749999999986 Z M77.4 -52.483749999999986 Q76.11 -52.483749999999986 75.1425 -53.45124999999999 Q74.175 -54.41874999999999 74.175 -55.70874999999998 Q74.175 -56.99874999999999 75.1425 -57.96624999999999 Q76.11 -58.93374999999999 77.4 -58.93374999999999 Q78.69 -58.93374999999999 79.6575 -57.96624999999999 Q80.625 -56.99874999999999 80.625 -55.70874999999998 Q80.625 -54.41874999999999 79.6575 -53.45124999999999 Q78.69 -52.483749999999986 77.4 -52.483749999999986 Z M87.55875 -52.483749999999986 Q86.26875 -52.483749999999986 85.30125 -53.45124999999999 Q84.33375000000001 -54.41874999999999 84.33375000000001 -55.70874999999998 Q84.33375000000001 -56.99874999999999 85.30125 -57.96624999999999 Q86.26875 -58.93374999999999 87.55875 -58.93374999999999 Q88.84875 -58.93374999999999 89.81625 -57.96624999999999 Q90.78375 -56.99874999999999 90.78375 -55.70874999999998 Q90.78375 -54.41874999999999 89.81625 -53.45124999999999 Q88.84875 -52.483749999999986 87.55875 -52.483749999999986 Z M29.025000000000002 22.82000000000002 Q25.155 22.82000000000002 22.2525 19.917500000000018 Q19.35 17.015000000000015 19.35 13.14500000000001 V-83.60499999999999 Q19.35 -87.475 22.2525 -90.37749999999998 Q25.155 -93.27999999999999 29.025000000000002 -93.27999999999999 H125.775 Q129.645 -93.27999999999999 132.5475 -90.37749999999998 Q135.45000000000002 -87.475 135.45000000000002 -83.60499999999999 V13.14500000000001 Q135.45000000000002 17.015000000000015 132.5475 19.917500000000018 Q129.645 22.82000000000002 125.775 22.82000000000002 H29.025000000000002 Z M29.025000000000002 13.14500000000001 H125.775 Q125.775 13.14500000000001 125.775 13.14500000000001 Q125.775 13.14500000000001 125.775 13.14500000000001 V-83.60499999999999 Q125.775 -83.60499999999999 125.775 -83.60499999999999 Q125.775 -83.60499999999999 125.775 -83.60499999999999 H29.025000000000002 Q29.025000000000002 -83.60499999999999 29.025000000000002 -83.60499999999999 Q29.025000000000002 -83.60499999999999 29.025000000000002 -83.60499999999999 V13.14500000000001 Q29.025000000000002 13.14500000000001 29.025000000000002 13.14500000000001 Q29.025000000000002 13.14500000000001 29.025000000000002 13.14500000000001 Z"/></g><g id="Light-L" transform="matrix(1 0 0 1 1082.77 1556)"><path d="M77.480625 -37.549581249999974 Q85.06550250000001 -37.549581249999974 90.15729375000001 -42.641372499999974 Q95.24908500000001 -47.733163749999974 95.24908500000001 -55.349001249999986 Q95.24908500000001 -62.96499999999999 90.15729375000001 -68.13725499999998 Q85.06550250000001 -73.30967124999998 77.449665 -73.30967124999998 Q69.83366625000001 -73.30967124999998 64.69237125 -68.13725499999998 Q59.550915 -62.96499999999999 59.550915 -55.349001249999986 Q59.550915 -47.733163749999974 64.67947125 -42.641372499999974 Q69.80786625 -37.549581249999974 77.480625 -37.549581249999974 Z M67.36525125 -52.17366624999998 Q66.07525125000001 -52.17366624999998 65.10775125 -53.14116624999998 Q64.14025125 -54.108666249999985 64.14025125 -55.39866624999998 Q64.14025125 -56.68866624999998 65.10775125 -57.656166249999984 Q66.07525125000001 -58.623666249999985 67.36525125 -58.623666249999985 Q68.65525125 -58.623666249999985 69.62275125000001 -57.656166249999984 Q70.59025125000001 -56.68866624999998 70.59025125000001 -55.39866624999998 Q70.59025125000001 -54.108666249999985 69.62275125000001 -53.14116624999998 Q68.65525125 -52.17366624999998 67.36525125 -52.17366624999998 Z M77.4 -52.17366624999998 Q76.11 -52.17366624999998 75.1425 -53.14116624999998 Q74.175 -54.108666249999985 74.175 -55.39866624999998 Q74.175 -56.68866624999998 75.1425 -57.656166249999984 Q76.11 -58.623666249999985 77.4 -58.623666249999985 Q78.69 -58.623666249999985 79.6575 -57.656166249999984 Q80.625 -56.68866624999998 80.625 -55.39866624999998 Q80.625 -54.108666249999985 79.6575 -53.14116624999998 Q78.69 -52.17366624999998 77.4 -52.17366624999998 Z M87.43474875 -52.17366624999998 Q86.14474875 -52.17366624999998 85.17724875 -53.14116624999998 Q84.20974875 -54.108666249999985 84.20974875 -55.39866624999998 Q84.20974875 -56.68866624999998 85.17724875 -57.656166249999984 Q86.14474875 -58.623666249999985 87.43474875 -58.623666249999985 Q88.72474875 -58.623666249999985 89.69224875 -57.656166249999984 Q90.65974875 -56.68866624999998 90.65974875 -55.39866624999998 Q90.65974875 -54.108666249999985 89.69224875 -53.14116624999998 Q88.72474875 -52.17366624999998 87.43474875 -52.17366624999998 Z M31.8781575 19.594838750000036 Q28.084106249999998 19.594838750000036 25.32963375 16.840366250000017 Q22.57516125 14.085893750000025 22.57516125 10.29184250000003 V-80.75184249999998 Q22.57516125 -84.54589374999998 25.32963375 -87.30036624999998 Q28.084106249999998 -90.05483874999999 31.8781575 -90.05483874999999 H122.92184250000001 Q126.71589375 -90.05483874999999 129.47036625 -87.30036624999998 Q132.22483875 -84.54589374999998 132.22483875 -80.75184249999998 V10.29184250000003 Q132.22483875 14.085893750000025 129.47036625 16.840366250000017 Q126.71589375 19.594838750000036 122.92184250000001 19.594838750000036 H31.8781575 Z M31.8781575 12.276668750000027 H122.92184250000001 Q123.6661725 12.276668750000027 124.28650125 11.65650125000002 Q124.90666875000001 11.03617250000002 124.90666875000001 10.29184250000003 V-80.75184249999998 Q124.90666875000001 -81.49617249999999 124.28650125 -82.11650124999998 Q123.6661725 -82.73666874999998 122.92184250000001 -82.73666874999998 H31.8781575 Q31.133827500000002 -82.73666874999998 30.51349875 -82.11650124999998 Q29.89333125 -81.49617249999999 29.89333125 -80.75184249999998 V10.29184250000003 Q29.89333125 11.03617250000002 30.51349875 11.65650125000002 Q31.133827500000002 12.276668750000027 31.8781575 12.276668750000027 Z"/></g><g id="Thin-L" transform="matrix(1 0 0 1 787.282 1556)"><path d="M77.480625 -38.41775124999998 Q84.50741625 -38.41775124999998 89.28912375 -43.19945874999998 Q94.07083125 -47.98116624999999 94.07083125 -55.06987749999999 Q94.07083125 -62.15874999999998 89.28912375 -67.02108249999998 Q84.50741625 -71.88341499999999 77.41854375 -71.88341499999999 Q70.3298325 -71.88341499999999 65.52958125 -67.02108249999998 Q60.72916875000001 -62.15874999999998 60.72916875000001 -55.06987749999999 Q60.72916875000001 -47.98116624999999 65.50362 -43.19945874999998 Q70.27807125000001 -38.41775124999998 77.480625 -38.41775124999998 Z M67.4892525 -51.86358249999998 Q66.1992525 -51.86358249999998 65.2317525 -52.83108249999998 Q64.2642525 -53.79858249999998 64.2642525 -55.08858249999999 Q64.2642525 -56.37858249999998 65.2317525 -57.34608249999998 Q66.1992525 -58.31358249999998 67.4892525 -58.31358249999998 Q68.7792525 -58.31358249999998 69.7467525 -57.34608249999998 Q70.7142525 -56.37858249999998 70.7142525 -55.08858249999999 Q70.7142525 -53.79858249999998 69.7467525 -52.83108249999998 Q68.7792525 -51.86358249999998 67.4892525 -51.86358249999998 Z M77.4 -51.86358249999998 Q76.11 -51.86358249999998 75.1425 -52.83108249999998 Q74.175 -53.79858249999998 74.175 -55.08858249999999 Q74.175 -56.37858249999998 75.1425 -57.34608249999998 Q76.11 -58.31358249999998 77.4 -58.31358249999998 Q78.69 -58.31358249999998 79.6575 -57.34608249999998 Q80.625 -56.37858249999998 80.625 -55.08858249999999 Q80.625 -53.79858249999998 79.6575 -52.83108249999998 Q78.69 -51.86358249999998 77.4 -51.86358249999998 Z M87.3107475 -51.86358249999998 Q86.0207475 -51.86358249999998 85.0532475 -52.83108249999998 Q84.0857475 -53.79858249999998 84.0857475 -55.08858249999999 Q84.0857475 -56.37858249999998 85.0532475 -57.34608249999998 Q86.0207475 -58.31358249999998 87.3107475 -58.31358249999998 Q88.6007475 -58.31358249999998 89.5682475 -57.34608249999998 Q90.5357475 -56.37858249999998 90.5357475 -55.08858249999999 Q90.5357475 -53.79858249999998 89.5682475 -52.83108249999998 Q88.6007475 -51.86358249999998 87.3107475 -51.86358249999998 Z M34.730669999999996 16.370000000000033 Q31.01272875 16.370000000000033 28.406283750000004 13.763716250000016 Q25.8 11.157271250000008 25.8 7.439330000000012 V-77.89932999999999 Q25.8 -81.61727124999999 28.406283750000004 -84.22371624999998 Q31.01272875 -86.82999999999998 34.730669999999996 -86.82999999999998 H120.06933000000001 Q123.78727125 -86.82999999999998 126.39371625 -84.22371624999998 Q129.0 -81.61727124999999 129.0 -77.89932999999999 V7.439330000000012 Q129.0 11.157271250000008 126.39371625 13.763716250000016 Q123.78727125 16.370000000000033 120.06933000000001 16.370000000000033 H34.730669999999996 Z M34.730669999999996 11.408498750000007 H120.06933000000001 Q121.55766750000001 11.408498750000007 122.79816375 10.16816375000002 Q124.03849875 8.927667500000013 124.03849875 7.439330000000012 V-77.89932999999999 Q124.03849875 -79.38766749999999 122.79816375 -80.62816374999998 Q121.55766750000001 -81.86849874999999 120.06933000000001 -81.86849874999999 H34.730669999999996 Q33.2423325 -81.86849874999999 32.001836250000004 -80.62816374999998 Q30.761501250000002 -79.38766749999999 30.761501250000002 -77.89932999999999 V7.439330000000012 Q30.761501250000002 8.927667500000013 32.001836250000004 10.16816375000002 Q33.2423325 11.408498750000007 34.730669999999996 11.408498750000007 Z"/></g><g id="Ultralight-L" transform="matrix(1 0 0 1 491.205 1556)"><path d="M77.480625 -38.938749999999985 Q84.1725 -38.938749999999985 88.768125 -43.53437499999998 Q93.36375 -48.12999999999998 93.36375 -54.90249999999999 Q93.36375 -61.67499999999998 88.768125 -66.35125 Q84.1725 -71.02749999999997 77.4 -71.02749999999997 Q70.6275 -71.02749999999997 66.031875 -66.35125 Q61.43625 -61.67499999999998 61.43625 -54.90249999999999 Q61.43625 -48.12999999999998 65.998335 -43.53437499999998 Q70.56025875 -38.938749999999985 77.480625 -38.938749999999985 Z M67.56375 -51.67749999999998 Q66.27375 -51.67749999999998 65.30625 -52.64499999999998 Q64.33875 -53.61249999999998 64.33875 -54.90249999999999 Q64.33875 -56.19249999999998 65.30625 -57.15999999999998 Q66.27375 -58.12749999999998 67.56375 -58.12749999999998 Q68.85375 -58.12749999999998 69.82125 -57.15999999999998 Q70.78875000000001 -56.19249999999998 70.78875000000001 -54.90249999999999 Q70.78875000000001 -53.61249999999998 69.82125 -52.64499999999998 Q68.85375 -51.67749999999998 67.56375 -51.67749999999998 Z M77.4 -51.67749999999998 Q76.11 -51.67749999999998 75.1425 -52.64499999999998 Q74.175 -53.61249999999998 74.175 -54.90249999999999 Q74.175 -56.19249999999998 75.1425 -57.15999999999998 Q76.11 -58.12749999999998 77.4 -58.12749999999998 Q78.69 -58.12749999999998 79.6575 -57.15999999999998 Q80.625 -56.19249999999998 80.625 -54.90249999999999 Q80.625 -53.61249999999998 79.6575 -52.64499999999998 Q78.69 -51.67749999999998 77.4 -51.67749999999998 Z M87.23625 -51.67749999999998 Q85.94625 -51.67749999999998 84.97875 -52.64499999999998 Q84.01125 -53.61249999999998 84.01125 -54.90249999999999 Q84.01125 -56.19249999999998 84.97875 -57.15999999999998 Q85.94625 -58.12749999999998 87.23625 -58.12749999999998 Q88.52625 -58.12749999999998 89.49375 -57.15999999999998 Q90.46125 -56.19249999999998 90.46125 -54.90249999999999 Q90.46125 -53.61249999999998 89.49375 -52.64499999999998 Q88.52625 -51.67749999999998 87.23625 -51.67749999999998 Z M36.4425 14.43500000000003 Q32.77003125 14.43500000000003 30.25259625 11.917565000000025 Q27.735 9.399968750000028 27.735 5.7275000000000205 V-76.18749999999999 Q27.735 -79.85996874999998 30.25259625 -82.37756499999998 Q32.77003125 -84.89499999999998 36.4425 -84.89499999999998 H118.3575 Q122.02996875 -84.89499999999998 124.547565 -82.37756499999998 Q127.065 -79.85996874999998 127.065 -76.18749999999999 V5.7275000000000205 Q127.065 9.399968750000028 124.547565 11.917565000000025 Q122.02996875 14.43500000000003 118.3575 14.43500000000003 H36.4425 Z M36.4425 10.887500000000017 H118.3575 Q120.2925 10.887500000000017 121.905 9.275000000000006 Q123.5175 7.662500000000023 123.5175 5.7275000000000205 V-76.18749999999999 Q123.5175 -78.12249999999997 121.905 -79.73499999999999 Q120.2925 -81.34749999999998 118.3575 -81.34749999999998 H36.4425 Q34.5075 -81.34749999999998 32.895 -79.73499999999999 Q31.282500000000002 -78.12249999999997 31.282500000000002 -76.18749999999999 V5.7275000000000205 Q31.282500000000002 7.662500000000023 32.895 9.275000000000006 Q34.5075 10.887500000000017 36.4425 10.887500000000017 Z"/></g><g id="Bold-M" transform="matrix(1 0 0 1 2281.8 1126)"><path d="M60.0 -33.72999999999999 Q66.25 -33.72999999999999 70.625 -38.10499999999999 Q75.0 -42.47999999999999 75.0 -48.72999999999999 Q75.0 -54.97999999999999 70.625 -59.35499999999999 Q66.25 -63.72999999999999 60.0 -63.72999999999999 Q53.75 -63.72999999999999 49.375 -59.35499999999999 Q45.0 -54.97999999999999 45.0 -48.72999999999999 Q45.0 -42.47999999999999 49.375 -38.10499999999999 Q53.75 -33.72999999999999 60.0 -33.72999999999999 Z M52.5 -46.22999999999999 Q51.5 -46.22999999999999 50.75 -46.97999999999999 Q50.0 -47.72999999999999 50.0 -48.72999999999999 Q50.0 -49.72999999999999 50.75 -50.47999999999999 Q51.5 -51.22999999999999 52.5 -51.22999999999999 Q53.5 -51.22999999999999 54.25 -50.47999999999999 Q55.0 -49.72999999999999 55.0 -48.72999999999999 Q55.0 -47.72999999999999 54.25 -46.97999999999999 Q53.5 -46.22999999999999 52.5 -46.22999999999999 Z M60.0 -46.22999999999999 Q59.0 -46.22999999999999 58.25 -46.97999999999999 Q57.5 -47.72999999999999 57.5 -48.72999999999999 Q57.5 -49.72999999999999 58.25 -50.47999999999999 Q59.0 -51.22999999999999 60.0 -51.22999999999999 Q61.0 -51.22999999999999 61.75 -50.47999999999999 Q62.5 -49.72999999999999 62.5 -48.72999999999999 Q62.5 -47.72999999999999 61.75 -46.97999999999999 Q61.0 -46.22999999999999 60.0 -46.22999999999999 Z M67.5 -46.22999999999999 Q66.5 -46.22999999999999 65.75 -46.97999999999999 Q65.0 -47.72999999999999 65.0 -48.72999999999999 Q65.0 -49.72999999999999 65.75 -50.47999999999999 Q66.5 -51.22999999999999 67.5 -51.22999999999999 Q68.5 -51.22999999999999 69.25 -50.47999999999999 Q70.0 -49.72999999999999 70.0 -48.72999999999999 Q70.0 -47.72999999999999 69.25 -46.97999999999999 Q68.5 -46.22999999999999 67.5 -46.22999999999999 Z M26.5 14.02000000000001 Q19.875 14.02000000000001 15.3125 9.45750000000001 Q10.75 4.89500000000001 10.75 -1.7299999999999898 V-68.72999999999999 Q10.75 -75.35499999999999 15.3125 -79.91749999999999 Q19.875 -84.47999999999999 26.5 -84.47999999999999 H93.5 Q100.125 -84.47999999999999 104.6875 -79.91749999999999 Q109.25 -75.35499999999999 109.25 -68.72999999999999 V-1.7299999999999898 Q109.25 4.89500000000001 104.6875 9.45750000000001 Q100.125 14.02000000000001 93.5 14.02000000000001 H26.5 Z M26.5 -1.7299999999999898 H93.5 Q93.5 -1.7299999999999898 93.5 -1.7299999999999898 Q93.5 -1.7299999999999898 93.5 -1.7299999999999898 V-68.72999999999999 Q93.5 -68.72999999999999 93.5 -68.72999999999999 Q93.5 -68.72999999999999 93.5 -68.72999999999999 H26.5 Q26.5 -68.72999999999999 26.5 -68.72999999999999 Q26.5 -68.72999999999999 26.5 -68.72999999999999 V-1.7299999999999898 Q26.5 -1.7299999999999898 26.5 -1.7299999999999898 Q26.5 -1.7299999999999898 26.5 -1.7299999999999898 Z"/></g><g id="Semibold-M" transform="matrix(1 0 0 1 1985.97 1126)"><path d="M60.0 -34.38212499999999 Q66.25 -34.38212499999999 70.625 -38.75712499999999 Q75.0 -43.13212499999999 75.0 -49.38212499999999 Q75.0 -55.63212499999999 70.625 -60.00712499999999 Q66.25 -64.38212499999999 60.0 -64.38212499999999 Q53.75 -64.38212499999999 49.375 -60.00712499999999 Q45.0 -55.63212499999999 45.0 -49.38212499999999 Q45.0 -43.13212499999999 49.375 -38.75712499999999 Q53.75 -34.38212499999999 60.0 -34.38212499999999 Z M52.5 -46.88212499999999 Q51.5 -46.88212499999999 50.75 -47.63212499999999 Q50.0 -48.38212499999999 50.0 -49.38212499999999 Q50.0 -50.38212499999999 50.75 -51.13212499999999 Q51.5 -51.88212499999999 52.5 -51.88212499999999 Q53.5 -51.88212499999999 54.25 -51.13212499999999 Q55.0 -50.38212499999999 55.0 -49.38212499999999 Q55.0 -48.38212499999999 54.25 -47.63212499999999 Q53.5 -46.88212499999999 52.5 -46.88212499999999 Z M60.0 -46.88212499999999 Q59.0 -46.88212499999999 58.25 -47.63212499999999 Q57.5 -48.38212499999999 57.5 -49.38212499999999 Q57.5 -50.38212499999999 58.25 -51.13212499999999 Q59.0 -51.88212499999999 60.0 -51.88212499999999 Q61.0 -51.88212499999999 61.75 -51.13212499999999 Q62.5 -50.38212499999999 62.5 -49.38212499999999 Q62.5 -48.38212499999999 61.75 -47.63212499999999 Q61.0 -46.88212499999999 60.0 -46.88212499999999 Z M67.5 -46.88212499999999 Q66.5 -46.88212499999999 65.75 -47.63212499999999 Q65.0 -48.38212499999999 65.0 -49.38212499999999 Q65.0 -50.38212499999999 65.75 -51.13212499999999 Q66.5 -51.88212499999999 67.5 -51.88212499999999 Q68.5 -51.88212499999999 69.25 -51.13212499999999 Q70.0 -50.38212499999999 70.0 -49.38212499999999 Q70.0 -48.38212499999999 69.25 -47.63212499999999 Q68.5 -46.88212499999999 67.5 -46.88212499999999 Z M25.847875 12.172250000000005 Q20.30975 12.172250000000005 16.45375 8.31625000000001 Q12.59775 4.460250000000016 12.59775 -1.0778749999999917 V-69.38212499999999 Q12.59775 -74.92024999999998 16.45375 -78.77624999999999 Q20.30975 -82.63224999999998 25.847875 -82.63224999999998 H94.152125 Q99.69025 -82.63224999999998 103.54625 -78.77624999999999 Q107.40225 -74.92024999999998 107.40225 -69.38212499999999 V-1.0778749999999917 Q107.40225 4.460250000000016 103.54625 8.31625000000001 Q99.69025 12.172250000000005 94.152125 12.172250000000005 H25.847875 Z M25.847875 -1.0778749999999917 H94.152125 Q94.152125 -1.0778749999999917 94.152125 -1.0778749999999917 Q94.152125 -1.0778749999999917 94.152125 -1.0778749999999917 V-69.38212499999999 Q94.152125 -69.38212499999999 94.152125 -69.38212499999999 Q94.152125 -69.38212499999999 94.152125 -69.38212499999999 H25.847875 Q25.847875 -69.38212499999999 25.847875 -69.38212499999999 Q25.847875 -69.38212499999999 25.847875 -69.38212499999999 V-1.0778749999999917 Q25.847875 -1.0778749999999917 25.847875 -1.0778749999999917 Q25.847875 -1.0778749999999917 25.847875 -1.0778749999999917 Z"/></g><g id="Medium-M" transform="matrix(1 0 0 1 1689.91 1126)"><path d="M60.0 -34.87124999999999 Q66.25 -34.87124999999999 70.625 -39.24624999999999 Q75.0 -43.62124999999999 75.0 -49.87124999999999 Q75.0 -56.12124999999999 70.625 -60.49624999999999 Q66.25 -64.87124999999999 60.0 -64.87124999999999 Q53.75 -64.87124999999999 49.375 -60.49624999999999 Q45.0 -56.12124999999999 45.0 -49.87124999999999 Q45.0 -43.62124999999999 49.375 -39.24624999999999 Q53.75 -34.87124999999999 60.0 -34.87124999999999 Z M52.5 -47.37124999999999 Q51.5 -47.37124999999999 50.75 -48.12124999999999 Q50.0 -48.87124999999999 50.0 -49.87124999999999 Q50.0 -50.87124999999999 50.75 -51.62124999999999 Q51.5 -52.37124999999999 52.5 -52.37124999999999 Q53.5 -52.37124999999999 54.25 -51.62124999999999 Q55.0 -50.87124999999999 55.0 -49.87124999999999 Q55.0 -48.87124999999999 54.25 -48.12124999999999 Q53.5 -47.37124999999999 52.5 -47.37124999999999 Z M60.0 -47.37124999999999 Q59.0 -47.37124999999999 58.25 -48.12124999999999 Q57.5 -48.87124999999999 57.5 -49.87124999999999 Q57.5 -50.87124999999999 58.25 -51.62124999999999 Q59.0 -52.37124999999999 60.0 -52.37124999999999 Q61.0 -52.37124999999999 61.75 -51.62124999999999 Q62.5 -50.87124999999999 62.5 -49.87124999999999 Q62.5 -48.87124999999999 61.75 -48.12124999999999 Q61.0 -47.37124999999999 60.0 -47.37124999999999 Z M67.5 -47.37124999999999 Q66.5 -47.37124999999999 65.75 -48.12124999999999 Q65.0 -48.87124999999999 65.0 -49.87124999999999 Q65.0 -50.87124999999999 65.75 -51.62124999999999 Q66.5 -52.37124999999999 67.5 -52.37124999999999 Q68.5 -52.37124999999999 69.25 -51.62124999999999 Q70.0 -50.87124999999999 70.0 -49.87124999999999 Q70.0 -48.87124999999999 69.25 -48.12124999999999 Q68.5 -47.37124999999999 67.5 -47.37124999999999 Z M25.35875 10.786375000000007 Q20.635875 10.786375000000007 17.30975 7.460250000000016 Q13.983625 4.134125000000012 13.983625 -0.5887499999999903 V-69.87124999999999 Q13.983625 -74.59412499999999 17.30975 -77.92024999999998 Q20.635875 -81.24637499999999 25.35875 -81.24637499999999 H94.64125 Q99.364125 -81.24637499999999 102.69025 -77.92024999999998 Q106.016375 -74.59412499999999 106.016375 -69.87124999999999 V-0.5887499999999903 Q106.016375 4.134125000000012 102.69025 7.460250000000016 Q99.364125 10.786375000000007 94.64125 10.786375000000007 H25.35875 Z M25.35875 -0.5887499999999903 H94.64125 Q94.64125 -0.5887499999999903 94.64125 -0.5887499999999903 Q94.64125 -0.5887499999999903 94.64125 -0.5887499999999903 V-69.87124999999999 Q94.64125 -69.87124999999999 94.64125 -69.87124999999999 Q94.64125 -69.87124999999999 94.64125 -69.87124999999999 H25.35875 Q25.35875 -69.87124999999999 25.35875 -69.87124999999999 Q25.35875 -69.87124999999999 25.35875 -69.87124999999999 V-0.5887499999999903 Q25.35875 -0.5887499999999903 25.35875 -0.5887499999999903 Q25.35875 -0.5887499999999903 25.35875 -0.5887499999999903 Z"/></g><g id="Regular-M" transform="matrix(1 0 0 1 1394.06 1126)"><path d="M60.0 -35.22999999999999 Q66.25 -35.22999999999999 70.625 -39.60499999999999 Q75.0 -43.97999999999999 75.0 -50.22999999999999 Q75.0 -56.47999999999999 70.625 -60.85499999999999 Q66.25 -65.22999999999999 60.0 -65.22999999999999 Q53.75 -65.22999999999999 49.375 -60.85499999999999 Q45.0 -56.47999999999999 45.0 -50.22999999999999 Q45.0 -43.97999999999999 49.375 -39.60499999999999 Q53.75 -35.22999999999999 60.0 -35.22999999999999 Z M52.5 -47.72999999999999 Q51.5 -47.72999999999999 50.75 -48.47999999999999 Q50.0 -49.22999999999999 50.0 -50.22999999999999 Q50.0 -51.22999999999999 50.75 -51.97999999999999 Q51.5 -52.72999999999999 52.5 -52.72999999999999 Q53.5 -52.72999999999999 54.25 -51.97999999999999 Q55.0 -51.22999999999999 55.0 -50.22999999999999 Q55.0 -49.22999999999999 54.25 -48.47999999999999 Q53.5 -47.72999999999999 52.5 -47.72999999999999 Z M60.0 -47.72999999999999 Q59.0 -47.72999999999999 58.25 -48.47999999999999 Q57.5 -49.22999999999999 57.5 -50.22999999999999 Q57.5 -51.22999999999999 58.25 -51.97999999999999 Q59.0 -52.72999999999999 60.0 -52.72999999999999 Q61.0 -52.72999999999999 61.75 -51.97999999999999 Q62.5 -51.22999999999999 62.5 -50.22999999999999 Q62.5 -49.22999999999999 61.75 -48.47999999999999 Q61.0 -47.72999999999999 60.0 -47.72999999999999 Z M67.5 -47.72999999999999 Q66.5 -47.72999999999999 65.75 -48.47999999999999 Q65.0 -49.22999999999999 65.0 -50.22999999999999 Q65.0 -51.22999999999999 65.75 -51.97999999999999 Q66.5 -52.72999999999999 67.5 -52.72999999999999 Q68.5 -52.72999999999999 69.25 -51.97999999999999 Q70.0 -51.22999999999999 70.0 -50.22999999999999 Q70.0 -49.22999999999999 69.25 -48.47999999999999 Q68.5 -47.72999999999999 67.5 -47.72999999999999 Z M25.0 9.77000000000001 Q20.875 9.77000000000001 17.9375 6.83250000000001 Q15.0 3.8950000000000102 15.0 -0.22999999999998977 V-70.22999999999999 Q15.0 -74.35499999999999 17.9375 -77.29249999999999 Q20.875 -80.22999999999999 25.0 -80.22999999999999 H95.0 Q99.125 -80.22999999999999 102.0625 -77.29249999999999 Q105.0 -74.35499999999999 105.0 -70.22999999999999 V-0.22999999999998977 Q105.0 3.8950000000000102 102.0625 6.83250000000001 Q99.125 9.77000000000001 95.0 9.77000000000001 H25.0 Z M25.0 -0.22999999999998977 H95.0 Q95.0 -0.22999999999998977 95.0 -0.22999999999998977 Q95.0 -0.22999999999998977 95.0 -0.22999999999998977 V-70.22999999999999 Q95.0 -70.22999999999999 95.0 -70.22999999999999 Q95.0 -70.22999999999999 95.0 -70.22999999999999 H25.0 Q25.0 -70.22999999999999 25.0 -70.22999999999999 Q25.0 -70.22999999999999 25.0 -70.22999999999999 V-0.22999999999998977 Q25.0 -0.22999999999998977 25.0 -0.22999999999998977 Q25.0 -0.22999999999998977 25.0 -0.22999999999998977 Z"/></g><g id="Light-M" transform="matrix(1 0 0 1 1098.18 1126)"><path d="M60.0 -36.19162499999999 Q65.865375 -36.19162499999999 69.951875 -40.27812499999999 Q74.038375 -44.36462499999999 74.038375 -50.22999999999999 Q74.038375 -56.09537499999999 69.951875 -60.18187499999999 Q65.865375 -64.26837499999999 60.0 -64.26837499999999 Q54.134625 -64.26837499999999 50.048125 -60.18187499999999 Q45.961625 -56.09537499999999 45.961625 -50.22999999999999 Q45.961625 -44.36462499999999 50.048125 -40.27812499999999 Q54.134625 -36.19162499999999 60.0 -36.19162499999999 Z M52.5 -47.72999999999999 Q51.5 -47.72999999999999 50.75 -48.47999999999999 Q50.0 -49.22999999999999 50.0 -50.22999999999999 Q50.0 -51.22999999999999 50.75 -51.97999999999999 Q51.5 -52.72999999999999 52.5 -52.72999999999999 Q53.5 -52.72999999999999 54.25 -51.97999999999999 Q55.0 -51.22999999999999 55.0 -50.22999999999999 Q55.0 -49.22999999999999 54.25 -48.47999999999999 Q53.5 -47.72999999999999 52.5 -47.72999999999999 Z M60.0 -47.72999999999999 Q59.0 -47.72999999999999 58.25 -48.47999999999999 Q57.5 -49.22999999999999 57.5 -50.22999999999999 Q57.5 -51.22999999999999 58.25 -51.97999999999999 Q59.0 -52.72999999999999 60.0 -52.72999999999999 Q61.0 -52.72999999999999 61.75 -51.97999999999999 Q62.5 -51.22999999999999 62.5 -50.22999999999999 Q62.5 -49.22999999999999 61.75 -48.47999999999999 Q61.0 -47.72999999999999 60.0 -47.72999999999999 Z M67.5 -47.72999999999999 Q66.5 -47.72999999999999 65.75 -48.47999999999999 Q65.0 -49.22999999999999 65.0 -50.22999999999999 Q65.0 -51.22999999999999 65.75 -51.97999999999999 Q66.5 -52.72999999999999 67.5 -52.72999999999999 Q68.5 -52.72999999999999 69.25 -51.97999999999999 Q70.0 -51.22999999999999 70.0 -50.22999999999999 Q70.0 -49.22999999999999 69.25 -48.47999999999999 Q68.5 -47.72999999999999 67.5 -47.72999999999999 Z M26.538625 7.269875000000013 Q22.750125 7.269875000000013 20.125125 4.644875000000013 Q17.500125 2.019875000000013 17.500125 -1.768624999999986 V-68.691375 Q17.500125 -72.47987499999999 20.125125 -75.10487499999999 Q22.750125 -77.72987499999999 26.538625 -77.72987499999999 H93.461375 Q97.249875 -77.72987499999999 99.874875 -75.10487499999999 Q102.499875 -72.47987499999999 102.499875 -68.691375 V-1.768624999999986 Q102.499875 2.019875000000013 99.874875 4.644875000000013 Q97.249875 7.269875000000013 93.461375 7.269875000000013 H26.538625 Z M26.538625 -0.22999999999998977 H93.461375 Q94.038375 -0.22999999999998977 94.51925 -0.7107499999999902 Q95.0 -1.1916249999999877 95.0 -1.768624999999986 V-68.691375 Q95.0 -69.26837499999999 94.51925 -69.74924999999999 Q94.038375 -70.22999999999999 93.461375 -70.22999999999999 H26.538625 Q25.961625 -70.22999999999999 25.48075 -69.74924999999999 Q25.0 -69.26837499999999 25.0 -68.691375 V-1.768624999999986 Q25.0 -1.1916249999999877 25.48075 -0.7107499999999902 Q25.961625 -0.22999999999998977 26.538625 -0.22999999999998977 Z"/></g><g id="Thin-M" transform="matrix(1 0 0 1 802.565 1126)"><path d="M60.0 -37.15312499999999 Q65.48075 -37.15312499999999 69.278875 -40.95112499999999 Q73.076875 -44.74924999999999 73.076875 -50.22999999999999 Q73.076875 -55.71074999999999 69.278875 -59.50887499999999 Q65.48075 -63.30687499999999 60.0 -63.30687499999999 Q54.51925 -63.30687499999999 50.721125 -59.50887499999999 Q46.923125 -55.71074999999999 46.923125 -50.22999999999999 Q46.923125 -44.74924999999999 50.721125 -40.95112499999999 Q54.51925 -37.15312499999999 60.0 -37.15312499999999 Z M52.5 -47.72999999999999 Q51.5 -47.72999999999999 50.75 -48.47999999999999 Q50.0 -49.22999999999999 50.0 -50.22999999999999 Q50.0 -51.22999999999999 50.75 -51.97999999999999 Q51.5 -52.72999999999999 52.5 -52.72999999999999 Q53.5 -52.72999999999999 54.25 -51.97999999999999 Q55.0 -51.22999999999999 55.0 -50.22999999999999 Q55.0 -49.22999999999999 54.25 -48.47999999999999 Q53.5 -47.72999999999999 52.5 -47.72999999999999 Z M60.0 -47.72999999999999 Q59.0 -47.72999999999999 58.25 -48.47999999999999 Q57.5 -49.22999999999999 57.5 -50.22999999999999 Q57.5 -51.22999999999999 58.25 -51.97999999999999 Q59.0 -52.72999999999999 60.0 -52.72999999999999 Q61.0 -52.72999999999999 61.75 -51.97999999999999 Q62.5 -51.22999999999999 62.5 -50.22999999999999 Q62.5 -49.22999999999999 61.75 -48.47999999999999 Q61.0 -47.72999999999999 60.0 -47.72999999999999 Z M67.5 -47.72999999999999 Q66.5 -47.72999999999999 65.75 -48.47999999999999 Q65.0 -49.22999999999999 65.0 -50.22999999999999 Q65.0 -51.22999999999999 65.75 -51.97999999999999 Q66.5 -52.72999999999999 67.5 -52.72999999999999 Q68.5 -52.72999999999999 69.25 -51.97999999999999 Q70.0 -51.22999999999999 70.0 -50.22999999999999 Q70.0 -49.22999999999999 69.25 -48.47999999999999 Q68.5 -47.72999999999999 67.5 -47.72999999999999 Z M28.076875 4.77000000000001 Q24.625 4.77000000000001 22.3125 2.4575000000000102 Q20.0 0.14500000000001023 20.0 -3.306874999999991 V-67.15312499999999 Q20.0 -70.60499999999999 22.3125 -72.91749999999999 Q24.625 -75.22999999999999 28.076875 -75.22999999999999 H91.923125 Q95.375 -75.22999999999999 97.6875 -72.91749999999999 Q100.0 -70.60499999999999 100.0 -67.15312499999999 V-3.306874999999991 Q100.0 0.14500000000001023 97.6875 2.4575000000000102 Q95.375 4.77000000000001 91.923125 4.77000000000001 H28.076875 Z M28.076875 -0.22999999999998977 H91.923125 Q93.076875 -0.22999999999998977 94.0385 -1.1914999999999907 Q95.0 -2.1531249999999886 95.0 -3.306874999999991 V-67.15312499999999 Q95.0 -68.30687499999999 94.0385 -69.26849999999999 Q93.076875 -70.22999999999999 91.923125 -70.22999999999999 H28.076875 Q26.923125 -70.22999999999999 25.9615 -69.26849999999999 Q25.0 -68.30687499999999 25.0 -67.15312499999999 V-3.306874999999991 Q25.0 -2.1531249999999886 25.9615 -1.1914999999999907 Q26.923125 -0.22999999999998977 28.076875 -0.22999999999998977 Z"/></g><g id="Ultralight-M" transform="matrix(1 0 0 1 506.415 1126)"><path d="M60.0 -37.72999999999999 Q65.25 -37.72999999999999 68.875 -41.35499999999999 Q72.5 -44.97999999999999 72.5 -50.22999999999999 Q72.5 -55.47999999999999 68.875 -59.10499999999999 Q65.25 -62.72999999999999 60.0 -62.72999999999999 Q54.75 -62.72999999999999 51.125 -59.10499999999999 Q47.5 -55.47999999999999 47.5 -50.22999999999999 Q47.5 -44.97999999999999 51.125 -41.35499999999999 Q54.75 -37.72999999999999 60.0 -37.72999999999999 Z M52.5 -47.72999999999999 Q51.5 -47.72999999999999 50.75 -48.47999999999999 Q50.0 -49.22999999999999 50.0 -50.22999999999999 Q50.0 -51.22999999999999 50.75 -51.97999999999999 Q51.5 -52.72999999999999 52.5 -52.72999999999999 Q53.5 -52.72999999999999 54.25 -51.97999999999999 Q55.0 -51.22999999999999 55.0 -50.22999999999999 Q55.0 -49.22999999999999 54.25 -48.47999999999999 Q53.5 -47.72999999999999 52.5 -47.72999999999999 Z M60.0 -47.72999999999999 Q59.0 -47.72999999999999 58.25 -48.47999999999999 Q57.5 -49.22999999999999 57.5 -50.22999999999999 Q57.5 -51.22999999999999 58.25 -51.97999999999999 Q59.0 -52.72999999999999 60.0 -52.72999999999999 Q61.0 -52.72999999999999 61.75 -51.97999999999999 Q62.5 -51.22999999999999 62.5 -50.22999999999999 Q62.5 -49.22999999999999 61.75 -48.47999999999999 Q61.0 -47.72999999999999 60.0 -47.72999999999999 Z M67.5 -47.72999999999999 Q66.5 -47.72999999999999 65.75 -48.47999999999999 Q65.0 -49.22999999999999 65.0 -50.22999999999999 Q65.0 -51.22999999999999 65.75 -51.97999999999999 Q66.5 -52.72999999999999 67.5 -52.72999999999999 Q68.5 -52.72999999999999 69.25 -51.97999999999999 Q70.0 -51.22999999999999 70.0 -50.22999999999999 Q70.0 -49.22999999999999 69.25 -48.47999999999999 Q68.5 -47.72999999999999 67.5 -47.72999999999999 Z M29.0 3.2700000000000102 Q25.75 3.2700000000000102 23.625 1.1450000000000102 Q21.5 -0.9799999999999898 21.5 -4.22999999999999 V-66.22999999999999 Q21.5 -69.47999999999999 23.625 -71.60499999999999 Q25.75 -73.72999999999999 29.0 -73.72999999999999 H91.0 Q94.25 -73.72999999999999 96.375 -71.60499999999999 Q98.5 -69.47999999999999 98.5 -66.22999999999999 V-4.22999999999999 Q98.5 -0.9799999999999898 96.375 1.1450000000000102 Q94.25 3.2700000000000102 91.0 3.2700000000000102 H29.0 Z M29.0 -0.22999999999998977 H91.0 Q92.5 -0.22999999999998977 93.75 -1.4799999999999898 Q95.0 -2.7299999999999898 95.0 -4.22999999999999 V-66.22999999999999 Q95.0 -67.72999999999999 93.75 -68.97999999999999 Q92.5 -70.22999999999999 91.0 -70.22999999999999 H29.0 Q27.5 -70.22999999999999 26.25 -68.97999999999999 Q25.0 -67.72999999999999 25.0 -66.22999999999999 V-4.22999999999999 Q25.0 -2.7299999999999898 26.25 -1.4799999999999898 Q27.5 -0.22999999999998977 29.0 -0.22999999999998977 Z"/></g><g id="Bold-S" transform="matrix(1 0 0 1 2294.23 696)"><path d="M47.34 -34.046499999999995 Q52.27125 -34.046499999999995 55.723125 -37.498374999999996 Q59.175000000000004 -40.95025 59.175000000000004 -45.881499999999996 Q59.175000000000004 -50.812749999999994 55.723125 -54.264624999999995 Q52.27125 -57.716499999999996 47.34 -57.716499999999996 Q42.408750000000005 -57.716499999999996 38.956875000000004 -54.264624999999995 Q35.505 -50.812749999999994 35.505 -45.881499999999996 Q35.505 -40.95025 38.956875000000004 -37.498374999999996 Q42.408750000000005 -34.046499999999995 47.34 -34.046499999999995 Z M40.83075 -44.106249999999996 Q40.04175 -44.106249999999996 39.548625 -44.599374999999995 Q39.0555 -45.092499999999994 39.0555 -45.881499999999996 Q39.0555 -46.6705 39.548625 -47.163624999999996 Q40.04175 -47.656749999999995 40.83075 -47.656749999999995 Q41.61975 -47.656749999999995 42.112875 -47.163624999999996 Q42.606 -46.6705 42.606 -45.881499999999996 Q42.606 -45.092499999999994 42.112875 -44.599374999999995 Q41.61975 -44.106249999999996 40.83075 -44.106249999999996 Z M47.34 -44.106249999999996 Q46.551 -44.106249999999996 46.057875 -44.599374999999995 Q45.564750000000004 -45.092499999999994 45.564750000000004 -45.881499999999996 Q45.564750000000004 -46.6705 46.057875 -47.163624999999996 Q46.551 -47.656749999999995 47.34 -47.656749999999995 Q48.129000000000005 -47.656749999999995 48.622125000000004 -47.163624999999996 Q49.11525 -46.6705 49.11525 -45.881499999999996 Q49.11525 -45.092499999999994 48.622125000000004 -44.599374999999995 Q48.129000000000005 -44.106249999999996 47.34 -44.106249999999996 Z M53.849250000000005 -44.106249999999996 Q53.06025 -44.106249999999996 52.567125000000004 -44.599374999999995 Q52.074000000000005 -45.092499999999994 52.074000000000005 -45.881499999999996 Q52.074000000000005 -46.6705 52.567125000000004 -47.163624999999996 Q53.06025 -47.656749999999995 53.849250000000005 -47.656749999999995 Q54.63825 -47.656749999999995 55.131375000000006 -47.163624999999996 Q55.624500000000005 -46.6705 55.624500000000005 -45.881499999999996 Q55.624500000000005 -45.092499999999994 55.131375000000006 -44.599374999999995 Q54.63825 -44.106249999999996 53.849250000000005 -44.106249999999996 Z M22.4865 1.261250000000004 Q17.584837500000003 1.261250000000004 14.21679375 -2.1067937499999942 Q10.84875 -5.4748374999999925 10.84875 -10.376499999999993 V-60.083499999999994 Q10.84875 -64.9851625 14.21679375 -68.35320625 Q17.584837500000003 -71.72125 22.4865 -71.72125 H72.1935 Q77.09516250000001 -71.72125 80.46320625 -68.35320625 Q83.83125 -64.9851625 83.83125 -60.083499999999994 V-10.376499999999993 Q83.83125 -5.4748374999999925 80.46320625 -2.1067937499999942 Q77.09516250000001 1.261250000000004 72.1935 1.261250000000004 H22.4865 Z M22.4865 -10.376499999999993 H72.1935 Q72.1935 -10.376499999999993 72.1935 -10.376499999999993 Q72.1935 -10.376499999999993 72.1935 -10.376499999999993 V-60.083499999999994 Q72.1935 -60.083499999999994 72.1935 -60.083499999999994 Q72.1935 -60.083499999999994 72.1935 -60.083499999999994 H22.4865 Q22.4865 -60.083499999999994 22.4865 -60.083499999999994 Q22.4865 -60.083499999999994 22.4865 -60.083499999999994 V-10.376499999999993 Q22.4865 -10.376499999999993 22.4865 -10.376499999999993 Q22.4865 -10.376499999999993 22.4865 -10.376499999999993 Z"/></g><g id="Semibold-S" transform="matrix(1 0 0 1 1998.1 696)"><path d="M47.34 -34.56102662499999 Q52.27125 -34.56102662499999 55.723125 -38.01290162499999 Q59.175000000000004 -41.46477662499999 59.175000000000004 -46.39602662499999 Q59.175000000000004 -51.327276624999996 55.723125 -54.77915162499999 Q52.27125 -58.23102662499999 47.34 -58.23102662499999 Q42.408750000000005 -58.23102662499999 38.956875000000004 -54.77915162499999 Q35.505 -51.327276624999996 35.505 -46.39602662499999 Q35.505 -41.46477662499999 38.956875000000004 -38.01290162499999 Q42.408750000000005 -34.56102662499999 47.34 -34.56102662499999 Z M40.83075 -44.62077662499999 Q40.04175 -44.62077662499999 39.548625 -45.11390162499999 Q39.0555 -45.607026624999996 39.0555 -46.39602662499999 Q39.0555 -47.18502662499999 39.548625 -47.67815162499999 Q40.04175 -48.17127662499999 40.83075 -48.17127662499999 Q41.61975 -48.17127662499999 42.112875 -47.67815162499999 Q42.606 -47.18502662499999 42.606 -46.39602662499999 Q42.606 -45.607026624999996 42.112875 -45.11390162499999 Q41.61975 -44.62077662499999 40.83075 -44.62077662499999 Z M47.34 -44.62077662499999 Q46.551 -44.62077662499999 46.057875 -45.11390162499999 Q45.564750000000004 -45.607026624999996 45.564750000000004 -46.39602662499999 Q45.564750000000004 -47.18502662499999 46.057875 -47.67815162499999 Q46.551 -48.17127662499999 47.34 -48.17127662499999 Q48.129000000000005 -48.17127662499999 48.622125000000004 -47.67815162499999 Q49.11525 -47.18502662499999 49.11525 -46.39602662499999 Q49.11525 -45.607026624999996 48.622125000000004 -45.11390162499999 Q48.129000000000005 -44.62077662499999 47.34 -44.62077662499999 Z M53.849250000000005 -44.62077662499999 Q53.06025 -44.62077662499999 52.567125000000004 -45.11390162499999 Q52.074000000000005 -45.607026624999996 52.074000000000005 -46.39602662499999 Q52.074000000000005 -47.18502662499999 52.567125000000004 -47.67815162499999 Q53.06025 -48.17127662499999 53.849250000000005 -48.17127662499999 Q54.63825 -48.17127662499999 55.131375000000006 -47.67815162499999 Q55.624500000000005 -47.18502662499999 55.624500000000005 -46.39602662499999 Q55.624500000000005 -45.607026624999996 55.131375000000006 -45.11390162499999 Q54.63825 -44.62077662499999 53.849250000000005 -44.62077662499999 Z M21.971973375 -0.19662474999999802 Q17.92785525 -0.19662474999999802 15.11724 -3.007239999999996 Q12.306624750000001 -5.817855249999994 12.306624750000001 -9.861973374999991 V-60.59802662499999 Q12.306624750000001 -64.64214475 15.11724 -67.45276 Q17.92785525 -70.26337525 21.971973375 -70.26337525 H72.708026625 Q76.75214475 -70.26337525 79.56276000000001 -67.45276 Q82.37337525 -64.64214475 82.37337525 -60.59802662499999 V-9.861973374999991 Q82.37337525 -5.817855249999994 79.56276000000001 -3.007239999999996 Q76.75214475 -0.19662474999999802 72.708026625 -0.19662474999999802 H21.971973375 Z M21.971973375 -9.861973374999991 H72.708026625 Q72.708026625 -9.861973374999991 72.708026625 -9.861973374999991 Q72.708026625 -9.861973374999991 72.708026625 -9.861973374999991 V-60.59802662499999 Q72.708026625 -60.59802662499999 72.708026625 -60.59802662499999 Q72.708026625 -60.59802662499999 72.708026625 -60.59802662499999 H21.971973375 Q21.971973375 -60.59802662499999 21.971973375 -60.59802662499999 Q21.971973375 -60.59802662499999 21.971973375 -60.59802662499999 V-9.861973374999991 Q21.971973375 -9.861973374999991 21.971973375 -9.861973374999991 Q21.971973375 -9.861973374999991 21.971973375 -9.861973374999991 Z"/></g><g id="Medium-S" transform="matrix(1 0 0 1 1701.85 696)"><path d="M47.34 -34.946946249999996 Q52.27125 -34.946946249999996 55.723125 -38.39882124999999 Q59.175000000000004 -41.85069624999999 59.175000000000004 -46.78194625 Q59.175000000000004 -51.713196249999996 55.723125 -55.16507125 Q52.27125 -58.61694625 47.34 -58.61694625 Q42.408750000000005 -58.61694625 38.956875000000004 -55.16507125 Q35.505 -51.713196249999996 35.505 -46.78194625 Q35.505 -41.85069624999999 38.956875000000004 -38.39882124999999 Q42.408750000000005 -34.946946249999996 47.34 -34.946946249999996 Z M40.83075 -45.00669625 Q40.04175 -45.00669625 39.548625 -45.49982125 Q39.0555 -45.992946249999996 39.0555 -46.78194625 Q39.0555 -47.57094624999999 39.548625 -48.06407125 Q40.04175 -48.55719625 40.83075 -48.55719625 Q41.61975 -48.55719625 42.112875 -48.06407125 Q42.606 -47.57094624999999 42.606 -46.78194625 Q42.606 -45.992946249999996 42.112875 -45.49982125 Q41.61975 -45.00669625 40.83075 -45.00669625 Z M47.34 -45.00669625 Q46.551 -45.00669625 46.057875 -45.49982125 Q45.564750000000004 -45.992946249999996 45.564750000000004 -46.78194625 Q45.564750000000004 -47.57094624999999 46.057875 -48.06407125 Q46.551 -48.55719625 47.34 -48.55719625 Q48.129000000000005 -48.55719625 48.622125000000004 -48.06407125 Q49.11525 -47.57094624999999 49.11525 -46.78194625 Q49.11525 -45.992946249999996 48.622125000000004 -45.49982125 Q48.129000000000005 -45.00669625 47.34 -45.00669625 Z M53.849250000000005 -45.00669625 Q53.06025 -45.00669625 52.567125000000004 -45.49982125 Q52.074000000000005 -45.992946249999996 52.074000000000005 -46.78194625 Q52.074000000000005 -47.57094624999999 52.567125000000004 -48.06407125 Q53.06025 -48.55719625 53.849250000000005 -48.55719625 Q54.63825 -48.55719625 55.131375000000006 -48.06407125 Q55.624500000000005 -47.57094624999999 55.624500000000005 -46.78194625 Q55.624500000000005 -45.992946249999996 55.131375000000006 -45.49982125 Q54.63825 -45.00669625 53.849250000000005 -45.00669625 Z M21.58605375 -1.2900801249999887 Q18.185167875 -1.2900801249999887 15.792624 -3.682624000000004 Q13.400080125 -6.075167874999991 13.400080125 -9.476053749999991 V-60.983946249999995 Q13.400080125 -64.384832125 15.792624 -66.777376 Q18.185167875 -69.16991987499999 21.58605375 -69.16991987499999 H73.09394625 Q76.494832125 -69.16991987499999 78.887376 -66.777376 Q81.279919875 -64.384832125 81.279919875 -60.983946249999995 V-9.476053749999991 Q81.279919875 -6.075167874999991 78.887376 -3.682624000000004 Q76.494832125 -1.2900801249999887 73.09394625 -1.2900801249999887 H21.58605375 Z M21.58605375 -9.476053749999991 H73.09394625 Q73.09394625 -9.476053749999991 73.09394625 -9.476053749999991 Q73.09394625 -9.476053749999991 73.09394625 -9.476053749999991 V-60.983946249999995 Q73.09394625 -60.983946249999995 73.09394625 -60.983946249999995 Q73.09394625 -60.983946249999995 73.09394625 -60.983946249999995 H21.58605375 Q21.58605375 -60.983946249999995 21.58605375 -60.983946249999995 Q21.58605375 -60.983946249999995 21.58605375 -60.983946249999995 V-9.476053749999991 Q21.58605375 -9.476053749999991 21.58605375 -9.476053749999991 Q21.58605375 -9.476053749999991 21.58605375 -9.476053749999991 Z"/></g><g id="Regular-S" transform="matrix(1 0 0 1 1405.73 696)"><path d="M47.34 -35.23 Q52.27125 -35.23 55.723125 -38.68187499999999 Q59.175000000000004 -42.13374999999999 59.175000000000004 -47.065 Q59.175000000000004 -51.996249999999996 55.723125 -55.448125 Q52.27125 -58.9 47.34 -58.9 Q42.408750000000005 -58.9 38.956875000000004 -55.448125 Q35.505 -51.996249999999996 35.505 -47.065 Q35.505 -42.13374999999999 38.956875000000004 -38.68187499999999 Q42.408750000000005 -35.23 47.34 -35.23 Z M40.83075 -45.28975 Q40.04175 -45.28975 39.548625 -45.782875 Q39.0555 -46.275999999999996 39.0555 -47.065 Q39.0555 -47.85399999999999 39.548625 -48.34712499999999 Q40.04175 -48.84025 40.83075 -48.84025 Q41.61975 -48.84025 42.112875 -48.34712499999999 Q42.606 -47.85399999999999 42.606 -47.065 Q42.606 -46.275999999999996 42.112875 -45.782875 Q41.61975 -45.28975 40.83075 -45.28975 Z M47.34 -45.28975 Q46.551 -45.28975 46.057875 -45.782875 Q45.564750000000004 -46.275999999999996 45.564750000000004 -47.065 Q45.564750000000004 -47.85399999999999 46.057875 -48.34712499999999 Q46.551 -48.84025 47.34 -48.84025 Q48.129000000000005 -48.84025 48.622125000000004 -48.34712499999999 Q49.11525 -47.85399999999999 49.11525 -47.065 Q49.11525 -46.275999999999996 48.622125000000004 -45.782875 Q48.129000000000005 -45.28975 47.34 -45.28975 Z M53.849250000000005 -45.28975 Q53.06025 -45.28975 52.567125000000004 -45.782875 Q52.074000000000005 -46.275999999999996 52.074000000000005 -47.065 Q52.074000000000005 -47.85399999999999 52.567125000000004 -48.34712499999999 Q53.06025 -48.84025 53.849250000000005 -48.84025 Q54.63825 -48.84025 55.131375000000006 -48.34712499999999 Q55.624500000000005 -47.85399999999999 55.624500000000005 -47.065 Q55.624500000000005 -46.275999999999996 55.131375000000006 -45.782875 Q54.63825 -45.28975 53.849250000000005 -45.28975 Z M21.303 -2.0919999999999987 Q18.3738375 -2.0919999999999987 16.287918750000003 -4.177918749999989 Q14.202 -6.263837499999994 14.202 -9.192999999999998 V-61.266999999999996 Q14.202 -64.19616249999999 16.287918750000003 -66.28208125 Q18.3738375 -68.368 21.303 -68.368 H73.37700000000001 Q76.30616250000001 -68.368 78.39208125 -66.28208125 Q80.47800000000001 -64.19616249999999 80.47800000000001 -61.266999999999996 V-9.192999999999998 Q80.47800000000001 -6.263837499999994 78.39208125 -4.177918749999989 Q76.30616250000001 -2.0919999999999987 73.37700000000001 -2.0919999999999987 H21.303 Z M21.303 -9.192999999999998 H73.37700000000001 Q73.37700000000001 -9.192999999999998 73.37700000000001 -9.192999999999998 Q73.37700000000001 -9.192999999999998 73.37700000000001 -9.192999999999998 V-61.266999999999996 Q73.37700000000001 -61.266999999999996 73.37700000000001 -61.266999999999996 Q73.37700000000001 -61.266999999999996 73.37700000000001 -61.266999999999996 H21.303 Q21.303 -61.266999999999996 21.303 -61.266999999999996 Q21.303 -61.266999999999996 21.303 -61.266999999999996 V-9.192999999999998 Q21.303 -9.192999999999998 21.303 -9.192999999999998 Q21.303 -9.192999999999998 21.303 -9.192999999999998 Z"/></g><g id="Light-S" transform="matrix(1 0 0 1 1109.75 696)"><path d="M47.34 -35.988722124999995 Q51.967780875 -35.988722124999995 55.192029375000004 -39.212970625 Q58.416277875000006 -42.43721912499999 58.416277875000006 -47.065 Q58.416277875000006 -51.692780875 55.192029375000004 -54.917029375 Q51.967780875 -58.141277875 47.34 -58.141277875 Q42.712219125000004 -58.141277875 39.487970625 -54.917029375 Q36.263722125 -51.692780875 36.263722125 -47.065 Q36.263722125 -42.43721912499999 39.487970625 -39.212970625 Q42.712219125000004 -35.988722124999995 47.34 -35.988722124999995 Z M40.83075 -45.28975 Q40.04175 -45.28975 39.548625 -45.782875 Q39.0555 -46.275999999999996 39.0555 -47.065 Q39.0555 -47.85399999999999 39.548625 -48.34712499999999 Q40.04175 -48.84025 40.83075 -48.84025 Q41.61975 -48.84025 42.112875 -48.34712499999999 Q42.606 -47.85399999999999 42.606 -47.065 Q42.606 -46.275999999999996 42.112875 -45.782875 Q41.61975 -45.28975 40.83075 -45.28975 Z M47.34 -45.28975 Q46.551 -45.28975 46.057875 -45.782875 Q45.564750000000004 -46.275999999999996 45.564750000000004 -47.065 Q45.564750000000004 -47.85399999999999 46.057875 -48.34712499999999 Q46.551 -48.84025 47.34 -48.84025 Q48.129000000000005 -48.84025 48.622125000000004 -48.34712499999999 Q49.11525 -47.85399999999999 49.11525 -47.065 Q49.11525 -46.275999999999996 48.622125000000004 -45.782875 Q48.129000000000005 -45.28975 47.34 -45.28975 Z M53.849250000000005 -45.28975 Q53.06025 -45.28975 52.567125000000004 -45.782875 Q52.074000000000005 -46.275999999999996 52.074000000000005 -47.065 Q52.074000000000005 -47.85399999999999 52.567125000000004 -48.34712499999999 Q53.06025 -48.84025 53.849250000000005 -48.84025 Q54.63825 -48.84025 55.131375000000006 -48.34712499999999 Q55.624500000000005 -47.85399999999999 55.624500000000005 -47.065 Q55.624500000000005 -46.275999999999996 55.131375000000006 -45.782875 Q54.63825 -45.28975 53.849250000000005 -45.28975 Z M22.516975125000002 -4.064598624999988 Q19.853311125 -4.064598624999988 18.013954875000003 -5.903954874999982 Q16.174598625 -7.743311124999991 16.174598625 -10.406975124999988 V-60.05302487499999 Q16.174598625 -62.716688874999996 18.013954875000003 -64.556045125 Q19.853311125 -66.395401375 22.516975125000002 -66.395401375 H72.163024875 Q74.826688875 -66.395401375 76.66604512500001 -64.556045125 Q78.505401375 -62.716688874999996 78.505401375 -60.05302487499999 V-10.406975124999988 Q78.505401375 -7.743311124999991 76.66604512500001 -5.903954874999982 Q74.826688875 -4.064598624999988 72.163024875 -4.064598624999988 H22.516975125000002 Z M22.516975125000002 -9.192999999999998 H72.163024875 Q72.618277875 -9.192999999999998 72.99768825 -9.572311749999997 Q73.37700000000001 -9.95172212499999 73.37700000000001 -10.406975124999988 V-60.05302487499999 Q73.37700000000001 -60.508277875 72.99768825 -60.88768825 Q72.618277875 -61.266999999999996 72.163024875 -61.266999999999996 H22.516975125000002 Q22.061722125000003 -61.266999999999996 21.68231175 -60.88768825 Q21.303 -60.508277875 21.303 -60.05302487499999 V-10.406975124999988 Q21.303 -9.95172212499999 21.68231175 -9.572311749999997 Q22.061722125000003 -9.192999999999998 22.516975125000002 -9.192999999999998 Z"/></g><g id="Thin-S" transform="matrix(1 0 0 1 814.015 696)"><path d="M47.34 -36.747345624999994 Q51.66431175 -36.747345624999994 54.661032375000005 -39.743967624999996 Q57.657654375 -42.74068824999999 57.657654375 -47.065 Q57.657654375 -51.38931175 54.661032375000005 -54.38603237499999 Q51.66431175 -57.382654374999994 47.34 -57.382654374999994 Q43.015688250000004 -57.382654374999994 40.018967625 -54.38603237499999 Q37.022345625 -51.38931175 37.022345625 -47.065 Q37.022345625 -42.74068824999999 40.018967625 -39.743967624999996 Q43.015688250000004 -36.747345624999994 47.34 -36.747345624999994 Z M40.83075 -45.28975 Q40.04175 -45.28975 39.548625 -45.782875 Q39.0555 -46.275999999999996 39.0555 -47.065 Q39.0555 -47.85399999999999 39.548625 -48.34712499999999 Q40.04175 -48.84025 40.83075 -48.84025 Q41.61975 -48.84025 42.112875 -48.34712499999999 Q42.606 -47.85399999999999 42.606 -47.065 Q42.606 -46.275999999999996 42.112875 -45.782875 Q41.61975 -45.28975 40.83075 -45.28975 Z M47.34 -45.28975 Q46.551 -45.28975 46.057875 -45.782875 Q45.564750000000004 -46.275999999999996 45.564750000000004 -47.065 Q45.564750000000004 -47.85399999999999 46.057875 -48.34712499999999 Q46.551 -48.84025 47.34 -48.84025 Q48.129000000000005 -48.84025 48.622125000000004 -48.34712499999999 Q49.11525 -47.85399999999999 49.11525 -47.065 Q49.11525 -46.275999999999996 48.622125000000004 -45.782875 Q48.129000000000005 -45.28975 47.34 -45.28975 Z M53.849250000000005 -45.28975 Q53.06025 -45.28975 52.567125000000004 -45.782875 Q52.074000000000005 -46.275999999999996 52.074000000000005 -47.065 Q52.074000000000005 -47.85399999999999 52.567125000000004 -48.34712499999999 Q53.06025 -48.84025 53.849250000000005 -48.84025 Q54.63825 -48.84025 55.131375000000006 -48.34712499999999 Q55.624500000000005 -47.85399999999999 55.624500000000005 -47.065 Q55.624500000000005 -46.275999999999996 55.131375000000006 -45.782875 Q54.63825 -45.28975 53.849250000000005 -45.28975 Z M23.730654375 -6.036999999999992 Q21.332587500000002 -6.036999999999992 19.73979375 -7.62979374999999 Q18.147000000000002 -9.222587499999989 18.147000000000002 -11.620654375 V-58.83934562499999 Q18.147000000000002 -61.23741249999999 19.73979375 -62.830206249999996 Q21.332587500000002 -64.423 23.730654375 -64.423 H70.949345625 Q73.3474125 -64.423 74.94020625 -62.830206249999996 Q76.533 -61.23741249999999 76.533 -58.83934562499999 V-11.620654375 Q76.533 -9.222587499999989 74.94020625 -7.62979374999999 Q73.3474125 -6.036999999999992 70.949345625 -6.036999999999992 H23.730654375 Z M23.730654375 -9.192999999999998 H70.949345625 Q71.859654375 -9.192999999999998 72.6183765 -9.951623499999997 Q73.37700000000001 -10.710345624999988 73.37700000000001 -11.620654375 V-58.83934562499999 Q73.37700000000001 -59.749654375 72.6183765 -60.5083765 Q71.859654375 -61.266999999999996 70.949345625 -61.266999999999996 H23.730654375 Q22.820345625 -61.266999999999996 22.061623500000003 -60.5083765 Q21.303 -59.749654375 21.303 -58.83934562499999 V-11.620654375 Q21.303 -10.710345624999988 22.061623500000003 -9.951623499999997 Q22.820345625 -9.192999999999998 23.730654375 -9.192999999999998 Z"/></g><g id="Ultralight-S" transform="matrix(1 0 0 1 517.792 696)"><path d="M47.34 -37.20249999999999 Q51.48225 -37.20249999999999 54.342375000000004 -40.062625 Q57.2025 -42.92274999999999 57.2025 -47.065 Q57.2025 -51.207249999999995 54.342375000000004 -54.067375 Q51.48225 -56.927499999999995 47.34 -56.927499999999995 Q43.19775 -56.927499999999995 40.337625 -54.067375 Q37.4775 -51.207249999999995 37.4775 -47.065 Q37.4775 -42.92274999999999 40.337625 -40.062625 Q43.19775 -37.20249999999999 47.34 -37.20249999999999 Z M40.83075 -45.28975 Q40.04175 -45.28975 39.548625 -45.782875 Q39.0555 -46.275999999999996 39.0555 -47.065 Q39.0555 -47.85399999999999 39.548625 -48.34712499999999 Q40.04175 -48.84025 40.83075 -48.84025 Q41.61975 -48.84025 42.112875 -48.34712499999999 Q42.606 -47.85399999999999 42.606 -47.065 Q42.606 -46.275999999999996 42.112875 -45.782875 Q41.61975 -45.28975 40.83075 -45.28975 Z M47.34 -45.28975 Q46.551 -45.28975 46.057875 -45.782875 Q45.564750000000004 -46.275999999999996 45.564750000000004 -47.065 Q45.564750000000004 -47.85399999999999 46.057875 -48.34712499999999 Q46.551 -48.84025 47.34 -48.84025 Q48.129000000000005 -48.84025 48.622125000000004 -48.34712499999999 Q49.11525 -47.85399999999999 49.11525 -47.065 Q49.11525 -46.275999999999996 48.622125000000004 -45.782875 Q48.129000000000005 -45.28975 47.34 -45.28975 Z M53.849250000000005 -45.28975 Q53.06025 -45.28975 52.567125000000004 -45.782875 Q52.074000000000005 -46.275999999999996 52.074000000000005 -47.065 Q52.074000000000005 -47.85399999999999 52.567125000000004 -48.34712499999999 Q53.06025 -48.84025 53.849250000000005 -48.84025 Q54.63825 -48.84025 55.131375000000006 -48.34712499999999 Q55.624500000000005 -47.85399999999999 55.624500000000005 -47.065 Q55.624500000000005 -46.275999999999996 55.131375000000006 -45.782875 Q54.63825 -45.28975 53.849250000000005 -45.28975 Z M24.459 -7.220499999999987 Q22.220212500000002 -7.220499999999987 20.77535625 -8.665356249999988 Q19.3305 -10.110212499999989 19.3305 -12.34899999999999 V-58.111 Q19.3305 -60.34978749999999 20.77535625 -61.79464375 Q22.220212500000002 -63.23949999999999 24.459 -63.23949999999999 H70.221 Q72.4597875 -63.23949999999999 73.90464375 -61.79464375 Q75.3495 -60.34978749999999 75.3495 -58.111 V-12.34899999999999 Q75.3495 -10.110212499999989 73.90464375 -8.665356249999988 Q72.4597875 -7.220499999999987 70.221 -7.220499999999987 H24.459 Z M24.459 -9.192999999999998 H70.221 Q71.4045 -9.192999999999998 72.39075 -10.179249999999996 Q73.37700000000001 -11.165499999999994 73.37700000000001 -12.34899999999999 V-58.111 Q73.37700000000001 -59.29449999999999 72.39075 -60.28075 Q71.4045 -61.266999999999996 70.221 -61.266999999999996 H24.459 Q23.2755 -61.266999999999996 22.289250000000003 -60.28075 Q21.303 -59.29449999999999 21.303 -58.111 V-12.34899999999999 Q21.303 -11.165499999999994 22.289250000000003 -10.179249999999996 Q23.2755 -9.192999999999998 24.459 -9.192999999999998 Z"/></g></g></svg>