<svg xmlns="http://www.w3.org/2000/svg" version="1.1" width="3300" height="2000"><g id="Notes"><style>
    text {
      font-family: monospace;
      text-anchor: middle;
    }
    text.emphasis {
      font-weight:bold;
    }
    text.lanchor {
      text-anchor: start;
    }
  </style><rect height="2200" id="artboard" fill="white" width="3300" x="0" y="0"/><line id="" style="fill:none;stroke:black;stroke-width:0.5;" x1="263" x2="3036" y1="292" y2="292"/><text class="lanchor emphasis" transform="matrix(1 0 0 1 263 322)">Weight/Scale Variations</text><text transform="matrix(1 0 0 1 559.711 322)">Ultralight</text><text transform="matrix(1 0 0 1 856.422 322)">Thin</text><text transform="matrix(1 0 0 1 1153.13 322)">Light</text><text transform="matrix(1 0 0 1 1449.84 322)">Regular</text><text transform="matrix(1 0 0 1 1746.56 322)">Medium</text><text transform="matrix(1 0 0 1 2043.27 322)">Semibold</text><text transform="matrix(1 0 0 1 2339.98 322)">Bold</text><text transform="matrix(1 0 0 1 2636.69 322)">Heavy</text><text transform="matrix(1 0 0 1 2933.4 322)">Black</text><text id="template-version" style="text-anchor: end;" transform="matrix(1 0 0 1 3036 1933)">Template v.1.0</text><text class="lanchor" transform="matrix(1 0 0 1 263 726)">Small</text><text class="lanchor" transform="matrix(1 0 0 1 263 1156)">Medium</text><text class="lanchor" transform="matrix(1 0 0 1 263 1586)">Large</text></g><g id="Guides"><g id="H-reference" style="fill:#27AAE1;stroke:none;" transform="matrix(1 0 0 1 339 696)"><path d="M 54.9316 0 L 57.666 0 L 30.5664 -70.459 L 28.0762 -70.459 L 0.976562 0 L 3.66211 0 L 12.9395 -24.4629 L 45.7031 -24.4629 Z M 29.1992 -67.0898 L 29.4434 -67.0898 L 44.8242 -26.709 L 13.8184 -26.709 Z"/></g><line id="Baseline-S" style="fill:none;stroke:#27AAE1;opacity:1;stroke-width:0.577;" x1="263" x2="3036" y1="696" y2="696"/><line id="Capline-S" style="fill:none;stroke:#27AAE1;opacity:1;stroke-width:0.577;" x1="263" x2="3036" y1="625.541" y2="625.541"/><g id="H-reference" style="fill:#27AAE1;stroke:none;" transform="matrix(1 0 0 1 339 1126)"><path d="M 54.9316 0 L 57.666 0 L 30.5664 -70.459 L 28.0762 -70.459 L 0.976562 0 L 3.66211 0 L 12.9395 -24.4629 L 45.7031 -24.4629 Z M 29.1992 -67.0898 L 29.4434 -67.0898 L 44.8242 -26.709 L 13.8184 -26.709 Z"/></g><line id="Baseline-M" style="fill:none;stroke:#27AAE1;opacity:1;stroke-width:0.577;" x1="263" x2="3036" y1="1126" y2="1126"/><line id="Capline-M" style="fill:none;stroke:#27AAE1;opacity:1;stroke-width:0.577;" x1="263" x2="3036" y1="1055.54" y2="1055.54"/><g id="H-reference" style="fill:#27AAE1;stroke:none;" transform="matrix(1 0 0 1 339 1556)"><path d="M 54.9316 0 L 57.666 0 L 30.5664 -70.459 L 28.0762 -70.459 L 0.976562 0 L 3.66211 0 L 12.9395 -24.4629 L 45.7031 -24.4629 Z M 29.1992 -67.0898 L 29.4434 -67.0898 L 44.8242 -26.709 L 13.8184 -26.709 Z"/></g><line id="Baseline-L" style="fill:none;stroke:#27AAE1;opacity:1;stroke-width:0.577;" x1="263" x2="3036" y1="1556" y2="1556"/><line id="Capline-L" style="fill:none;stroke:#27AAE1;opacity:1;stroke-width:0.577;" x1="263" x2="3036" y1="1485.54" y2="1485.54"/><rect height="119.336" id="left-margin" style="fill:darkred;stroke:none;opacity:0.4;" width="12.4512" x="1394.06" y="1030.79"/><rect height="119.336" id="right-margin" style="fill:darkgreen;stroke:none;opacity:0.4;" width="12.4512" x="1502.5112" y="1030.79"/><rect x="1406.5112" y="1045" width="96" height="96" fill="none" stroke="blue" stroke-dasharray="5"/><rect x="1394.06" y="1030.79" width="120.9024" height="119.336" fill="none" stroke="blue"/></g><g id="Symbols"><g id="Bold-L" transform="matrix(1 0 0 1 2266 1556)"><path d="M135.28875 -51.032499999999985  125.29125 -60.86874999999998  130.6125 -66.18999999999998 Q130.6125 -66.18999999999998 130.6125 -66.18999999999998 Q130.6125 -66.18999999999998 130.6125 -66.18999999999998 L108.36 -88.44249999999998 Q108.36 -88.44249999999998 108.36 -88.44249999999998 Q108.36 -88.44249999999998 108.36 -88.44249999999998 L103.03875000000001 -83.12124999999997 L93.04125 -93.11874999999998 L97.87875 -97.95624999999998 Q102.07125 -102.30999999999999 108.09861375000001 -102.31338624999998 Q114.1259775 -102.31677249999998 118.51875 -97.95624999999998 L139.965 -76.50999999999999 Q144.31875 -72.15979749999998 144.31875 -66.11114874999998 Q144.31875 -60.062499999999986 139.965 -55.869999999999976 L135.28875 -51.032499999999985 Z M57.0825 27.335000000000008 Q52.7322975 31.688750000000027 46.603023750000006 31.688750000000027 Q40.47375 31.688750000000027 36.120000000000005 27.335000000000008 L12.5775 3.6312500000000227 Q9.19125 0.18759500000001594 9.19125 -4.5405774999999835 Q9.19125 -9.268749999999983 12.5775 -12.654999999999987 L19.51125 -19.588749999999976 L29.50875 -9.752499999999984 L24.34875 -4.269999999999982 Q24.34875 -4.269999999999982 24.34875 -4.269999999999982 Q24.34875 -4.269999999999982 24.34875 -4.269999999999982 L46.44 17.82125000000002 Q46.44 17.82125000000002 46.44 17.82125000000002 Q46.44 17.82125000000002 46.44 17.82125000000002 L51.9225 12.661250000000024 L61.75875 22.658750000000026 L57.0825 27.335000000000008 Z M118.68 -27.00624999999998  128.83875 -37.32624999999999 Q128.83875 -37.32624999999999 128.83875 -37.32624999999999 Q128.83875 -37.32624999999999 128.83875 -37.32624999999999 L79.49625 -86.66874999999999 Q79.49625 -86.66874999999999 79.49625 -86.66874999999999 Q79.49625 -86.66874999999999 79.49625 -86.66874999999999 L69.17625 -76.50999999999999 Q69.17625 -76.50999999999999 69.17625 -76.50999999999999 Q69.17625 -76.50999999999999 69.17625 -76.50999999999999 L118.68 -27.00624999999998 Q118.68 -27.00624999999998 118.68 -27.00624999999998 Q118.68 -27.00624999999998 118.68 -27.00624999999998 Z M75.30375000000001 16.20875000000001  85.62375 6.050000000000011 Q85.62375 6.050000000000011 85.62375 6.050000000000011 Q85.62375 6.050000000000011 85.62375 6.050000000000011 L36.120000000000005 -43.453749999999985 Q36.120000000000005 -43.453749999999985 36.120000000000005 -43.453749999999985 Q36.120000000000005 -43.453749999999985 36.120000000000005 -43.453749999999985 L25.96125 -33.13374999999998 Q25.96125 -33.13374999999998 25.96125 -33.13374999999998 Q25.96125 -33.13374999999998 25.96125 -33.13374999999998 L75.30375000000001 16.20875000000001 Q75.30375000000001 16.20875000000001 75.30375000000001 16.20875000000001 Q75.30375000000001 16.20875000000001 75.30375000000001 16.20875000000001 Z M76.91625 -22.49124999999998  90.13875 -35.713749999999976  77.88375 -47.968749999999986  64.66125 -34.74624999999999  76.91625 -22.49124999999998 Z M83.205 27.980000000000018 Q79.83116625 31.366250000000008 75.2292525 31.366250000000008 Q70.6275 31.366250000000008 67.24125000000001 27.980000000000018 L14.02875 -25.232499999999987 Q10.6425 -28.606333749999976 10.723125 -33.12762249999999 Q10.80375 -37.64874999999998 14.190000000000001 -41.03499999999998 L28.0575 -55.22499999999998 Q31.501155 -58.611249999999984 36.1487025 -58.611249999999984 Q40.79625 -58.611249999999984 44.182500000000005 -55.22499999999998 L54.66375 -44.58249999999998 L68.0475 -57.80499999999998 L57.405 -68.60874999999999 Q54.018750000000004 -71.98258374999997 54.099375 -76.50387249999997 Q54.18 -81.02499999999998 57.6194625 -84.46446249999998 L71.5417875 -98.54803749999998 Q75.0422025 -101.98749999999998 79.609125 -101.98749999999998 Q84.17604750000001 -101.98749999999998 87.55875 -98.60125 L140.77125 -45.54999999999998 Q143.99625 -42.10634499999999 144.076875 -37.45879749999999 Q144.1575 -32.81124999999999 140.7180375 -29.371787499999982 L126.63446250000001 -15.449462499999996 Q123.20564250000001 -12.009999999999977 118.60372875000002 -12.009999999999977 Q114.00197625000001 -12.009999999999977 110.6175 -15.39624999999998 L99.97500000000001 -25.877499999999984 L86.7525 -12.493749999999977 L97.23375 -2.0124999999999886 Q100.62 1.4311550000000182 100.700625 6.07870250000002 Q100.78125 10.726250000000022 97.395 14.112500000000011 L83.205 27.980000000000018 Z"/></g><g id="Semibold-L" transform="matrix(1 0 0 1 1970.27 1556)"><path d="M134.377365 -51.52318374999999  125.78193375000001 -60.02750874999998  131.944425 -66.18999999999998 Q131.944425 -66.18999999999998 131.944425 -66.18999999999998 Q131.944425 -66.18999999999998 131.944425 -66.18999999999998 L108.36 -89.77442499999998 Q108.36 -89.77442499999998 108.36 -89.77442499999998 Q108.36 -89.77442499999998 108.36 -89.77442499999998 L102.19750875000001 -83.61193374999999 L93.53193375000001 -92.27750874999998 L98.36943375 -97.18515249999999 Q102.35166375000001 -101.25848874999998 108.14215125 -101.22527124999999 Q113.93263875 -101.19221499999999 118.02806625000001 -97.11500874999999 L139.1939025 -75.94917249999997 Q143.26723875000002 -71.87793249999999 143.26723875000002 -66.11034249999997 Q143.26723875000002 -60.34291374999998 139.1939025 -56.36068374999998 L134.377365 -51.52318374999999 Z M56.5216725 26.493758750000012 Q52.450432500000005 30.567095000000023 46.63737 30.567095000000023 Q40.8243075 30.567095000000023 36.750971250000006 26.493758750000012 L13.41874125 3.070422500000035 Q10.312905 -0.09426999999999452 10.312905 -4.54138374999998 Q10.312905 -8.988336249999975 13.41874125 -12.094172499999985 L20.422635 -19.098066249999988 L29.08804875 -10.59374124999998 L23.016825 -4.340143749999967 Q23.016825 -4.340143749999967 23.016825 -4.340143749999967 Q23.016825 -4.340143749999967 23.016825 -4.340143749999967 L46.510143750000005 19.153175000000005 Q46.510143750000005 19.153175000000005 46.510143750000005 19.153175000000005 Q46.510143750000005 19.153175000000005 46.510143750000005 19.153175000000005 L52.76374125 13.081951250000031 L61.268066250000004 21.747365000000002 L56.5216725 26.493758750000012 Z M119.17068375000001 -25.81445124999999  130.87179 -37.60666374999998 Q130.87179 -37.60666374999998 130.87179 -37.60666374999998 Q130.87179 -37.60666374999998 130.87179 -37.60666374999998 L79.77666375 -88.70178999999999 Q79.77666375 -88.70178999999999 79.77666375 -88.70178999999999 Q79.77666375 -88.70178999999999 79.77666375 -88.70178999999999 L67.98445124999999 -77.00068374999998 Q67.98445124999999 -77.00068374999998 67.98445124999999 -77.00068374999998 Q67.98445124999999 -77.00068374999998 67.98445124999999 -77.00068374999998 L119.17068375000001 -25.81445124999999 Q119.17068375000001 -25.81445124999999 119.17068375000001 -25.81445124999999 Q119.17068375000001 -25.81445124999999 119.17068375000001 -25.81445124999999 Z M75.02333625 18.24179000000001  86.8856925 6.470701250000019 Q86.8856925 6.470701250000019 86.8856925 6.470701250000019 Q86.8856925 6.470701250000019 86.8856925 6.470701250000019 L35.69929875 -44.71569249999999 Q35.69929875 -44.71569249999999 35.69929875 -44.71569249999999 Q35.69929875 -44.71569249999999 35.69929875 -44.71569249999999 L23.92821 -32.853336249999984 Q23.92821 -32.853336249999984 23.92821 -32.853336249999984 Q23.92821 -32.853336249999984 23.92821 -32.853336249999984 L75.02333625 18.24179000000001 Q75.02333625 18.24179000000001 75.02333625 18.24179000000001 Q75.02333625 18.24179000000001 75.02333625 18.24179000000001 Z M76.56569250000001 -21.019037499999982  91.68110625000001 -36.134451249999984  78.30445125 -49.51110624999998  63.189037500000005 -34.39569249999998  76.56569250000001 -21.019037499999982 Z M82.4339025 27.83971250000002 Q79.33967625 30.94554875 74.9835075 30.94554875 Q70.6275 30.94554875 67.52166375 27.83971250000002 L14.23902 -25.44276999999998 Q11.13318375 -28.536996249999987 11.1788175 -32.84753124999999 Q11.22445125 -37.158066249999976 14.3302875 -40.26390249999997 L28.12764375 -54.313614999999984 Q31.29233625 -57.41945124999998 35.69381625 -57.41945124999998 Q40.095135 -57.41945124999998 43.20097125 -54.313614999999984 L54.5234625 -42.90001749999999 L69.80012625 -58.08541374999997 L58.38652875 -69.59027874999998 Q55.28069250000001 -72.68434374999998 55.326165 -76.99487874999998 Q55.37179875 -81.30541374999999 58.507627500000005 -84.44140374999998 L72.336105 -98.43096999999997 Q75.53288625 -101.56679874999998 79.8887325 -101.56679874999998 Q84.24457875 -101.56679874999998 87.34848000000001 -98.46096249999998 L140.6309625 -45.269586249999975 Q143.6456925 -42.10489374999999 143.69132625 -37.703413749999996 Q143.73679875 -33.30193374999999 140.60097 -30.166104999999988 L126.61140375000001 -16.337627499999982 Q123.48605624999999 -13.20179874999998 119.13004875000001 -13.20179874999998 Q114.77387999999999 -13.20179874999998 111.66901125 -16.30763499999999 L100.25541375 -27.63012624999999 L85.0700175 -12.353462499999978 L96.39250875 -1.030971249999979 Q99.498345 2.133721250000008 99.54397875000001 6.5352012500000285 Q99.58945125000001 10.936520000000002 96.483615 14.04235625000004 L82.4339025 27.83971250000002 Z"/></g><g id="Medium-L" transform="matrix(1 0 0 1 1674.31 1556)"><path d="M133.69382625 -51.891317499999985  126.1500675 -59.39653749999998  132.94353 -66.18999999999998 Q132.94353 -66.18999999999998 132.94353 -66.18999999999998 Q132.94353 -66.18999999999998 132.94353 -66.18999999999998 L108.36 -90.77352999999998 Q108.36 -90.77352999999998 108.36 -90.77352999999998 Q108.36 -90.77352999999998 108.36 -90.77352999999998 L101.56653750000001 -83.98006749999999 L93.9000675 -91.6465375 L98.73756750000001 -96.60658749999999 Q102.56193375000001 -100.46965374999998 108.174885 -100.40918499999998 Q113.787675 -100.34855499999999 117.6599325 -96.48403749999999 L138.6153375 -75.52847125 Q142.47840375 -71.66637249999998 142.47840375 -66.10985874999997 Q142.47840375 -60.55318374999999 138.6153375 -56.72881749999999 L133.69382625 -51.891317499999985 Z M56.10097125 25.862787500000024 Q52.2388725 29.725692500000036 46.663008749999996 29.725692500000036 Q41.087145 29.725692500000036 37.22424 25.862787500000024 L14.0497125 2.6497212500000273 Q11.154307500000002 -0.30582999999998606 11.154307500000002 -4.541867499999981 Q11.154307500000002 -8.77806624999998 14.0497125 -11.673471249999977 L21.10617375 -18.729932499999975 L28.77264375 -11.224712499999981 L22.017720000000004 -4.3927112499999765 Q22.017720000000004 -4.3927112499999765 22.017720000000004 -4.3927112499999765 Q22.017720000000004 -4.3927112499999765 22.017720000000004 -4.3927112499999765 L46.56271125000001 20.15228000000002 Q46.56271125000001 20.15228000000002 46.56271125000001 20.15228000000002 Q46.56271125000001 20.15228000000002 46.56271125000001 20.15228000000002 L53.394712500000004 13.39735625000003 L60.8999325 21.063826250000034 L56.10097125 25.862787500000024 Z M119.53881750000001 -24.920481249999995  132.39673125000002 -37.81693374999999 Q132.39673125000002 -37.81693374999999 132.39673125000002 -37.81693374999999 Q132.39673125000002 -37.81693374999999 132.39673125000002 -37.81693374999999 L79.98693375 -90.22673124999999 Q79.98693375 -90.22673124999999 79.98693375 -90.22673124999999 Q79.98693375 -90.22673124999999 79.98693375 -90.22673124999999 L67.09048125 -77.36881749999998 Q67.09048125 -77.36881749999998 67.09048125 -77.36881749999998 Q67.09048125 -77.36881749999998 67.09048125 -77.36881749999998 L119.53881750000001 -24.920481249999995 Q119.53881750000001 -24.920481249999995 119.53881750000001 -24.920481249999995 Q119.53881750000001 -24.920481249999995 119.53881750000001 -24.920481249999995 Z M74.81306625 19.76673125000002  87.83223000000001 6.786106250000017 Q87.83223000000001 6.786106250000017 87.83223000000001 6.786106250000017 Q87.83223000000001 6.786106250000017 87.83223000000001 6.786106250000017 L35.38389375 -45.662229999999994 Q35.38389375 -45.662229999999994 35.38389375 -45.662229999999994 Q35.38389375 -45.662229999999994 35.38389375 -45.662229999999994 L22.403268750000002 -32.643066249999976 Q22.403268750000002 -32.643066249999976 22.403268750000002 -32.643066249999976 Q22.403268750000002 -32.643066249999976 22.403268750000002 -32.643066249999976 L74.81306625 19.76673125000002 Q74.81306625 19.76673125000002 74.81306625 19.76673125000002 Q74.81306625 19.76673125000002 74.81306625 19.76673125000002 Z M76.30285500000001 -19.91479749999999  92.83791375000001 -36.449856249999996  78.61985625 -50.66791374999998  62.0847975 -34.13285499999999  76.30285500000001 -19.91479749999999 Z M81.8553375 27.7345775 Q78.97105875 30.630143750000002 74.79919875 30.630143750000002 Q70.6275 30.630143750000002 67.73193375 27.7345775 L14.39688375 -25.600633749999986 Q11.501317499999999 -28.485073749999984 11.5206675 -32.637422499999985 Q11.53985625 -36.78993249999998 14.435422500000001 -39.68533749999999 L28.18021125 -53.63007624999997 Q31.135762500000002 -56.525481249999984 35.35261125 -56.525481249999984 Q39.56929875 -56.525481249999984 42.464865 -53.63007624999997 L54.418327500000004 -41.63791374999998 L71.1147975 -58.29568374999998 L59.122635 -70.32638499999999 Q56.227230000000006 -73.21082499999999 56.246418750000004 -77.36333499999998 Q56.26576875 -81.51568375 59.17391250000001 -84.42398874999998 L72.93192375 -98.34308874999999 Q75.90102 -101.25139374999998 80.09851875000001 -101.25139374999998 Q84.29601749999999 -101.25139374999998 87.19061625 -98.35582749999999 L140.5258275 -45.05931624999998 Q143.382855 -42.103764999999996 143.40204375000002 -37.886916249999985 Q143.42139375 -33.67006749999999 140.51308875 -30.761923749999994 L126.59398875 -17.003912499999984 Q123.69632625000001 -14.095768749999976 119.52462750000001 -14.095768749999976 Q115.35292875 -14.095768749999976 112.45784625 -16.991173749999973 L100.46568375000001 -28.944797499999993 L83.80791375000001 -12.248327499999974 L95.7615375 -0.29486499999997307 Q98.6569425 2.660686250000026 98.6762925 6.877535000000023 Q98.69548125000001 11.09438375000002 95.80007625 13.98978875000003 L81.8553375 27.7345775 Z"/></g><g id="Regular-L" transform="matrix(1 0 0 1 1378.56 1556)"><path d="M133.1925 -52.16124999999998  126.42 -58.93374999999999  133.67625 -66.18999999999998 Q133.67625 -66.18999999999998 133.67625 -66.18999999999998 Q133.67625 -66.18999999999998 133.67625 -66.18999999999998 L108.36 -91.50625 Q108.36 -91.50625 108.36 -91.50625 Q108.36 -91.50625 108.36 -91.50625 L101.10375 -84.24999999999999 L94.17 -91.18374999999997 L99.00750000000001 -96.18249999999998 Q102.71625 -99.89124999999999 108.19875 -99.81062499999999 Q113.68125 -99.72999999999999 117.39 -96.02124999999998 L138.19125 -75.21999999999998 Q141.9 -71.51124999999999 141.9 -66.10937499999999 Q141.9 -60.70749999999998 138.19125 -56.99874999999999 L133.1925 -52.16124999999998 Z M55.792500000000004 25.400000000000006 Q52.08375 29.108750000000015 46.681875 29.108750000000015 Q41.28 29.108750000000015 37.57125 25.400000000000006 L14.512500000000001 2.3412500000000307 Q11.77125 -0.46095249999999055 11.77125 -4.542351249999982 Q11.77125 -8.623749999999987 14.512500000000001 -11.36499999999998 L21.6075 -18.45999999999998 L28.54125 -11.687499999999986 L21.285 -4.431249999999977 Q21.285 -4.431249999999977 21.285 -4.431249999999977 Q21.285 -4.431249999999977 21.285 -4.431249999999977 L46.60125 20.88500000000002 Q46.60125 20.88500000000002 46.60125 20.88500000000002 Q46.60125 20.88500000000002 46.60125 20.88500000000002 L53.8575 13.628750000000025 L60.63 20.56250000000003 L55.792500000000004 25.400000000000006 Z M119.80875 -24.264999999999986  133.51500000000001 -37.97124999999998 Q133.51500000000001 -37.97124999999998 133.51500000000001 -37.97124999999998 Q133.51500000000001 -37.97124999999998 133.51500000000001 -37.97124999999998 L80.14125 -91.34499999999998 Q80.14125 -91.34499999999998 80.14125 -91.34499999999998 Q80.14125 -91.34499999999998 80.14125 -91.34499999999998 L66.435 -77.63874999999999 Q66.435 -77.63874999999999 66.435 -77.63874999999999 Q66.435 -77.63874999999999 66.435 -77.63874999999999 L119.80875 -24.264999999999986 Q119.80875 -24.264999999999986 119.80875 -24.264999999999986 Q119.80875 -24.264999999999986 119.80875 -24.264999999999986 Z M74.65875 20.88500000000002  88.52625 7.0175000000000125 Q88.52625 7.0175000000000125 88.52625 7.0175000000000125 Q88.52625 7.0175000000000125 88.52625 7.0175000000000125 L35.1525 -46.35624999999999 Q35.1525 -46.35624999999999 35.1525 -46.35624999999999 Q35.1525 -46.35624999999999 35.1525 -46.35624999999999 L21.285 -32.48874999999998 Q21.285 -32.48874999999998 21.285 -32.48874999999998 Q21.285 -32.48874999999998 21.285 -32.48874999999998 L74.65875 20.88500000000002 Q74.65875 20.88500000000002 74.65875 20.88500000000002 Q74.65875 20.88500000000002 74.65875 20.88500000000002 Z M76.11 -19.104999999999976  93.68625 -36.68124999999998  78.85125000000001 -51.516249999999985  61.275 -33.93999999999998  76.11 -19.104999999999976 Z M81.43125 27.657500000000027 Q78.7006425 30.398750000000007 74.66407125 30.398750000000007 Q70.6275 30.398750000000007 67.88625 27.657500000000027 L14.512500000000001 -25.716249999999988 Q11.77125 -28.44685749999998 11.77125 -32.48342874999997 Q11.77125 -36.51999999999998 14.512500000000001 -39.26124999999999 L28.21875 -53.12874999999998 Q31.0209525 -55.869999999999976 35.10235125 -55.869999999999976 Q39.18375 -55.869999999999976 41.925000000000004 -53.12874999999998 L54.34125 -40.71249999999998 L72.07875 -58.44999999999999 L59.6625 -70.86624999999998 Q56.92125 -73.59685749999998 56.92125 -77.63342874999998 Q56.92125 -81.66999999999999 59.6625 -84.41124999999998 L73.36875 -98.27874999999999 Q76.1709525 -101.01999999999998 80.25235125 -101.01999999999998 Q84.33375000000001 -101.01999999999998 87.075 -98.27874999999999 L140.44875 -44.90499999999999 Q143.19 -42.10279749999998 143.19 -38.02139874999999 Q143.19 -33.93999999999998 140.44875 -31.198749999999976 L126.58125 -17.49249999999998 Q123.8506425 -14.751249999999985 119.81407125000001 -14.751249999999985 Q115.7775 -14.751249999999985 113.03625000000001 -17.49249999999998 L100.62 -29.908749999999984 L82.88250000000001 -12.171249999999986 L95.29875 0.24500000000000455 Q98.04 3.047202500000026 98.04 7.128601250000003 Q98.04 11.210000000000008 95.29875 13.951250000000016 L81.43125 27.657500000000027 Z"/></g><g id="Light-L" transform="matrix(1 0 0 1 1082.77 1556)"><path d="M129.1609275 -52.16124999999998  124.06317 -57.259168749999986  129.83076 -63.026758749999985 Q130.45108875 -63.647087499999984 130.45108875 -64.42237749999998 Q130.45108875 -65.1976675 129.83076 -65.81783499999999 L107.987835 -87.66075999999998 Q107.36766750000001 -88.28108874999998 106.5923775 -88.28108874999998 Q105.8170875 -88.28108874999998 105.19675875000001 -87.66075999999998 L99.42916875 -81.89316999999998 L94.17 -87.15217749999998 L98.3873325 -91.53075999999999 Q101.66183625000001 -94.80526375 106.46208750000001 -94.72463874999998 Q111.26233875000001 -94.64401374999998 114.5368425 -91.36950999999999 L133.53951 -72.36684249999999 Q136.81401375 -69.09233874999998 136.81401375 -64.37271249999998 Q136.81401375 -59.65308624999999 133.53951 -56.37858249999998 L129.1609275 -52.16124999999998 Z M56.412667500000005 20.748260000000016 Q53.13816375 24.022763750000024 48.4185375 24.022763750000024 Q43.698911249999995 24.022763750000024 40.4244075 20.748260000000016 L20.03257125 0.3564237500000331 Q17.3534025 -2.3836974999999825 17.3534025 -6.279013749999976 Q17.3534025 -10.174329999999983 20.03257125 -12.853498749999986 L25.6390725 -18.45999999999998 L30.898080000000004 -13.362081249999974 L25.19257125 -7.594491249999976 Q24.5722425 -6.974162499999977 24.5722425 -6.198872499999979 Q24.5722425 -5.423582499999981 25.19257125 -4.803414999999987 L46.973415 16.97742875000003 Q47.593582500000004 17.59775750000003 48.3688725 17.59775750000003 Q49.1441625 17.59775750000003 49.764491250000006 16.97742875000003 L55.53208125 11.271920000000023 L60.63 16.53092750000002 L56.412667500000005 20.748260000000016 Z M119.80875 -25.009329999999977  131.34409125000002 -36.54467124999998 Q131.96442000000002 -37.16499999999998 131.96442000000002 -37.97124999999998 Q131.96442000000002 -38.77749999999999 131.34409125000002 -39.397828749999974 L81.56782875 -89.17409124999998 Q80.9475 -89.79441999999997 80.14125 -89.79441999999997 Q79.33500000000001 -89.79441999999997 78.71467125000001 -89.17409124999998 L67.17933 -77.63874999999999 Q66.55900125000001 -77.01858249999998 66.55900125000001 -76.24329249999998 Q66.55900125000001 -75.46784124999998 67.17933 -74.84767374999998 L117.01767375000001 -25.009329999999977 Q117.63784125000001 -24.38900124999998 118.4132925 -24.38900124999998 Q119.18858250000001 -24.38900124999998 119.80875 -25.009329999999977 Z M76.08532875 18.714091250000024  87.78192 7.079581250000018 Q88.40224875 6.459252500000019 88.40224875 5.683962500000035 Q88.40224875 4.908672500000023 87.78192 4.288505000000015 L37.881495 -45.611919999999984 Q37.2613275 -46.23224874999998 36.4860375 -46.23224874999998 Q35.7107475 -46.23224874999998 35.090418750000005 -45.611919999999984 L23.45590875 -33.915328749999986 Q22.835580000000004 -33.29499999999999 22.835580000000004 -32.48874999999998 Q22.835580000000004 -31.682499999999976 23.45590875 -31.06217124999999 L73.23217125000001 18.714091250000024 Q73.8525 19.334420000000023 74.65875 19.334420000000023 Q75.465 19.334420000000023 76.08532875 18.714091250000024 Z M75.1176675 -18.794916249999986  93.93441375 -37.67358249999998  79.8435825 -51.764413749999974  60.96491625 -32.94766749999998  75.1176675 -18.794916249999986 Z M81.18308625 23.87409125000002 Q78.51456 26.553260000000023 74.66407125 26.553260000000023 Q70.8135825 26.553260000000023 68.19633375000001 23.87409125000002 L18.29590875 -26.026333749999978 Q15.61674 -28.632939999999977 15.61674 -32.48342874999997 Q15.61674 -36.333917499999984 18.29590875 -39.013086249999986 L29.831411250000002 -50.70983874999999 Q32.5715325 -53.38900749999998 36.466848750000004 -53.38900749999998 Q40.362165 -53.38900749999998 43.041495 -50.70983874999999 L55.7057475 -38.045424999999994 L74.68374374999999 -57.023421249999984 L62.01933 -69.749755 Q59.34016125 -72.35636124999999 59.34016125 -76.23797124999999 Q59.34016125 -80.11941999999999 62.01933 -82.79858875 L73.61691375 -94.49534125 Q76.357035 -97.17450999999998 80.25235125 -97.17450999999998 Q84.1476675 -97.17450999999998 86.82683625 -94.49534125 L136.66534125 -44.656836249999984 Q139.34451 -41.91671499999998 139.34451 -38.02139874999999 Q139.34451 -34.12608249999998 136.66534125 -31.44691374999998 L124.96858875000001 -19.84932999999998 Q122.30006250000001 -17.17016124999998 118.41845250000001 -17.17016124999998 Q114.53700375000001 -17.17016124999998 111.91975500000001 -19.84932999999998 L99.19342125 -32.513743749999975 L80.215425 -13.535747499999985 L92.87983875 -0.8714949999999817 Q95.5590075 1.8687875000000247 95.5590075 5.764103750000004 Q95.5590075 9.659420000000011 92.87983875 12.338588750000014 L81.18308625 23.87409125000002 Z"/></g><g id="Thin-L" transform="matrix(1 0 0 1 787.282 1556)"><path d="M125.13000000000001 -52.16124999999998  121.70650125 -55.58474874999999  125.985915 -59.86400124999999 Q127.22625000000001 -61.10449749999998 127.22625000000001 -62.654916249999985 Q127.22625000000001 -64.20533499999999 125.985915 -65.44583124999998 L107.61583125 -83.81591499999999 Q106.375335 -85.05624999999998 104.82491625 -85.05624999999998 Q103.2744975 -85.05624999999998 102.03400125 -83.81591499999999 L97.75474875 -79.53650124999999 L94.17 -83.12124999999997 L97.767165 -86.87966499999999 Q100.60758375 -89.72008374999999 104.7257475 -89.63945874999999 Q108.84375 -89.55883374999999 111.68433 -86.718415 L128.888415 -69.51432999999997 Q131.72883375 -66.67374999999998 131.72883375 -62.63637249999998 Q131.72883375 -58.59883374999998 128.888415 -55.758414999999985 L125.13000000000001 -52.16124999999998 Z M57.032835000000006 16.097165000000018 Q54.19241625 18.937583750000016 50.154877500000005 18.937583750000016 Q46.1175 18.937583750000016 43.276920000000004 16.097165000000018 L25.551836250000004 -1.6279187499999779 Q22.9345875 -4.306119999999993 22.9345875 -8.015353749999974 Q22.9345875 -11.724748749999975 25.551836250000004 -14.341836249999986 L29.67 -18.45999999999998 L33.25474875 -15.036501249999986 L29.099336250000004 -10.757248749999988 Q27.859001250000002 -9.516752499999981 27.859001250000002 -7.966333749999976 Q27.859001250000002 -6.415914999999984 29.099336250000004 -5.175418749999977 L47.34541875 13.070663750000023 Q48.585915 14.31099875000001 50.13633375 14.31099875000001 Q51.686752500000004 14.31099875000001 52.927248750000004 13.070663750000023 L57.20650125 8.915251250000011 L60.63 12.500000000000028 L57.032835000000006 16.097165000000018 Z M119.80875 -25.753498749999977  129.17366625 -35.118414999999985 Q130.41400125 -36.358749999999986 130.41400125 -37.97124999999998 Q130.41400125 -39.58374999999998 129.17366625 -40.82408499999998 L82.994085 -87.00366624999998 Q81.75375 -88.24400124999998 80.14125 -88.24400124999998 Q78.52875 -88.24400124999998 77.288415 -87.00366624999998 L67.92349875000001 -77.63874999999999 Q66.6830025 -76.39841499999999 66.6830025 -74.84783499999998 Q66.6830025 -73.29741624999998 67.92349875000001 -72.05708124999998 L114.22708125 -25.753498749999977 Q115.46741625 -24.513002499999985 117.017835 -24.513002499999985 Q118.568415 -24.513002499999985 119.80875 -25.753498749999977 Z M77.511585 16.54366625000003  87.03775125 7.141501250000033 Q88.2782475 5.901166250000017 88.2782475 4.350747500000011 Q88.2782475 2.800167500000015 87.03775125 1.5598325000000273 L40.6101675 -44.86775124999998 Q39.3698325 -46.108247499999976 37.819252500000005 -46.108247499999976 Q36.26883375 -46.108247499999976 35.02849875 -44.86775124999998 L25.62633375 -35.34158499999998 Q24.38599875 -34.10124999999998 24.38599875 -32.48874999999998 Q24.38599875 -30.876249999999985 25.62633375 -29.635914999999983 L71.805915 16.54366625000003 Q73.04625 17.784001250000017 74.65875 17.784001250000017 Q76.27125000000001 17.784001250000017 77.511585 16.54366625000003 Z M74.125335 -18.484832499999982  94.18241625 -38.665914999999984  80.835915 -52.01241624999999  60.6548325 -31.955334999999977  74.125335 -18.484832499999982 Z M80.93508375 20.091166250000015 Q78.3284775 22.70841500000003 74.66407125 22.70841500000003 Q70.99966500000001 22.70841500000003 68.5064175 20.091166250000015 L22.07883375 -26.336417499999982 Q19.461585 -28.819022499999974 19.461585 -32.48342874999997 Q19.461585 -36.147834999999986 22.07883375 -38.76508374999999 L31.44375 -48.29124999999998 Q34.121790000000004 -50.90849874999998 37.831185 -50.90849874999998 Q41.54041875 -50.90849874999998 44.1576675 -48.29124999999998 L57.07008375 -35.378833749999984 L77.28825375000001 -55.597164999999976 L64.37599875000001 -68.63358249999999 Q61.75875 -71.1161875 61.75875 -74.84251374999998 Q61.75875 -78.56900124999999 64.37599875000001 -81.18624999999999 L73.86491625000001 -90.71241624999999 Q76.54295625 -93.32966499999998 80.25235125 -93.32966499999998 Q83.961585 -93.32966499999998 86.57883375 -90.71241624999999 L132.88241625 -44.408833749999985 Q135.499665 -41.73079374999999 135.499665 -38.02139874999999 Q135.499665 -34.31216499999998 132.88241625 -31.694916249999977 L123.35625 -22.205998749999978 Q120.74964375 -19.588749999999976 117.02315625000001 -19.588749999999976 Q113.29666875000001 -19.588749999999976 110.8035825 -22.205998749999978 L97.767165 -35.11825374999998 L77.54883375 -14.900083749999979 L90.46125 -1.9876674999999864 Q93.07849875000001 0.6903724999999952 93.07849875000001 4.399767500000024 Q93.07849875000001 8.109001250000006 90.46125 10.726250000000022 L80.93508375 20.091166250000015 Z"/></g><g id="Ultralight-L" transform="matrix(1 0 0 1 491.205 1556)"><path d="M122.71125 -52.16124999999998  120.2925 -54.579999999999984  123.67875000000001 -57.96624999999999 Q125.29125 -59.578749999999985 125.29125 -61.594374999999985 Q125.29125 -63.609999999999985 123.67875000000001 -65.22249999999998 L107.3925 -81.50874999999999 Q105.78 -83.12124999999997 103.764375 -83.12124999999997 Q101.74875 -83.12124999999997 100.13625 -81.50874999999999 L96.75 -78.12249999999997 L94.17 -80.70249999999999 L97.395 -84.08874999999998 Q99.97500000000001 -86.66874999999999 103.68375 -86.58812499999999 Q107.3925 -86.5075 109.9725 -83.92749999999998 L126.0975 -67.80249999999998 Q128.6775 -65.22249999999998 128.6775 -61.594374999999985 Q128.6775 -57.96624999999999 126.0975 -55.38624999999999 L122.71125 -52.16124999999998 Z M57.405 13.306250000000006 Q54.825 15.886250000000018 51.196875 15.886250000000018 Q47.56875 15.886250000000018 44.98875 13.306250000000006 L28.86375 -2.81874999999998 Q26.28375 -5.459702499999992 26.28375 -9.057351249999982 Q26.28375 -12.654999999999987 28.86375 -15.234999999999985 L32.08875 -18.45999999999998 L34.66875 -16.041249999999977 L31.44375 -12.654999999999987 Q29.83125 -11.042499999999976 29.83125 -9.026874999999976 Q29.83125 -7.011249999999976 31.44375 -5.398749999999978 L47.56875 10.726250000000022 Q49.18125 12.338750000000005 51.196875 12.338750000000005 Q53.2125 12.338750000000005 54.825 10.726250000000022 L58.21125 7.501250000000027 L60.63 10.081250000000011 L57.405 13.306250000000006 Z M119.80875 -26.19999999999999  127.87125 -34.26249999999999 Q129.48375000000001 -35.874999999999986 129.48375000000001 -37.97124999999998 Q129.48375000000001 -40.06749999999998 127.87125 -41.67999999999998 L83.85000000000001 -85.70124999999999 Q82.2375 -87.31374999999998 80.14125 -87.31374999999998 Q78.045 -87.31374999999998 76.4325 -85.70124999999999 L68.37 -77.63874999999999 Q66.75750000000001 -76.02624999999998 66.75750000000001 -74.01062499999998 Q66.75750000000001 -71.99499999999998 68.37 -70.3825 L112.55250000000001 -26.19999999999999 Q114.165 -24.587499999999977 116.180625 -24.587499999999977 Q118.19625 -24.587499999999977 119.80875 -26.19999999999999 Z M78.3675 15.241250000000008  86.59125 7.178750000000008 Q88.20375 5.566250000000025 88.20375 3.550625000000025 Q88.20375 1.535000000000025 86.59125 -0.07749999999998636 L42.2475 -44.421249999999986 Q40.635 -46.03374999999998 38.619375 -46.03374999999998 Q36.60375 -46.03374999999998 34.99125 -44.421249999999986 L26.92875 -36.19749999999998 Q25.31625 -34.58499999999998 25.31625 -32.48874999999998 Q25.31625 -30.392499999999984 26.92875 -28.779999999999987 L70.95 15.241250000000008 Q72.5625 16.85375000000002 74.65875 16.85375000000002 Q76.755 16.85375000000002 78.3675 15.241250000000008 Z M73.53 -18.298749999999984  94.33125 -39.26124999999999  81.43125 -52.16124999999998  60.46875 -31.359999999999985  73.53 -18.298749999999984 Z M80.78625 17.82125000000002 Q78.2168925 20.401250000000033 74.66407125 20.401250000000033 Q71.11125 20.401250000000033 68.6925 17.82125000000002 L24.34875 -26.52249999999998 Q21.76875 -28.93060749999998 21.76875 -32.48342874999997 Q21.76875 -36.03624999999998 24.34875 -38.61624999999998 L32.41125 -46.83999999999999 Q35.0522025 -49.41999999999999 38.64985125 -49.41999999999999 Q42.2475 -49.41999999999999 44.8275 -46.83999999999999 L57.88875 -33.77874999999999 L78.85125000000001 -54.74124999999998 L65.79 -67.96374999999998 Q63.21 -70.37185749999999 63.21 -74.00530374999998 Q63.21 -77.63874999999999 65.79 -80.21874999999999 L74.01375 -88.44249999999998 Q76.6547025 -91.02249999999998 80.25235125 -91.02249999999998 Q83.85000000000001 -91.02249999999998 86.43 -88.44249999999998 L130.6125 -44.25999999999998 Q133.1925 -41.61904749999998 133.1925 -38.02139874999999 Q133.1925 -34.423749999999984 130.6125 -31.843749999999986 L122.38875 -23.619999999999976 Q119.8193925 -21.039999999999978 116.18594625 -21.039999999999978 Q112.55250000000001 -21.039999999999978 110.13375 -23.619999999999976 L96.91125000000001 -36.68124999999998 L75.94875 -15.718749999999986 L89.01 -2.6574999999999847 Q91.59 -0.01654749999997307 91.59 3.5811012500000174 Q91.59 7.178750000000008 89.01 9.75875000000002 L80.78625 17.82125000000002 Z"/></g><g id="Bold-M" transform="matrix(1 0 0 1 2281.8 1126)"><path d="M105.375 -47.10499999999999  95.125 -57.35499999999999  96.875 -59.22999999999999 Q96.875 -59.22999999999999 96.875 -59.22999999999999 Q96.875 -59.22999999999999 96.875 -59.22999999999999 L84.0 -72.10499999999999 Q84.0 -72.10499999999999 84.0 -72.10499999999999 Q84.0 -72.10499999999999 84.0 -72.10499999999999 L82.125 -70.35499999999999 L71.875 -80.60499999999999 L75.5 -84.35499999999999 Q79.0 -87.85499999999999 83.8125 -87.85499999999999 Q88.625 -87.85499999999999 92.125 -84.35499999999999 L109.0 -67.60499999999999 Q112.5 -64.10499999999999 112.5 -59.22999999999999 Q112.5 -54.35499999999999 109.0 -50.85499999999999 L105.375 -47.10499999999999 Z M44.5 13.77000000000001 Q41.0 17.27000000000001 36.0625 17.27000000000001 Q31.125 17.27000000000001 27.625 13.77000000000001 L11.0 -2.9799999999999898 Q7.5 -6.47999999999999 7.5 -11.35499999999999 Q7.5 -16.22999999999999 11.0 -19.72999999999999 L14.625 -23.35499999999999 L24.875 -13.10499999999999 L23.125 -11.22999999999999 Q23.125 -11.22999999999999 23.125 -11.22999999999999 Q23.125 -11.22999999999999 23.125 -11.22999999999999 L36.0 1.6450000000000102 Q36.0 1.6450000000000102 36.0 1.6450000000000102 Q36.0 1.6450000000000102 36.0 1.6450000000000102 L37.875 -0.10499999999998977 L48.125 10.14500000000001 L44.5 13.77000000000001 Z M91.625 -33.10499999999999  95.125 -36.60499999999999 Q95.125 -36.60499999999999 95.125 -36.60499999999999 Q95.125 -36.60499999999999 95.125 -36.60499999999999 L61.375 -70.35499999999999 Q61.375 -70.35499999999999 61.375 -70.35499999999999 Q61.375 -70.35499999999999 61.375 -70.35499999999999 L57.875 -66.85499999999999 Q57.875 -66.85499999999999 57.875 -66.85499999999999 Q57.875 -66.85499999999999 57.875 -66.85499999999999 L91.625 -33.10499999999999 Q91.625 -33.10499999999999 91.625 -33.10499999999999 Q91.625 -33.10499999999999 91.625 -33.10499999999999 Z M58.5 0.020000000000010232  62.0 -3.4799999999999898 Q62.0 -3.4799999999999898 62.0 -3.4799999999999898 Q62.0 -3.4799999999999898 62.0 -3.4799999999999898 L28.25 -37.22999999999999 Q28.25 -37.22999999999999 28.25 -37.22999999999999 Q28.25 -37.22999999999999 28.25 -37.22999999999999 L24.75 -33.72999999999999 Q24.75 -33.72999999999999 24.75 -33.72999999999999 Q24.75 -33.72999999999999 24.75 -33.72999999999999 L58.5 0.020000000000010232 Q58.5 0.020000000000010232 58.5 0.020000000000010232 Q58.5 0.020000000000010232 58.5 0.020000000000010232 Z M58.0 -27.97999999999999  67.125 -37.10499999999999  61.875 -42.35499999999999  52.75 -33.22999999999999  58.0 -27.97999999999999 Z M66.875 12.14500000000001 Q63.375 15.64500000000001 58.5 15.64500000000001 Q53.625 15.64500000000001 50.125 12.14500000000001 L12.5 -25.47999999999999 Q9.0 -28.97999999999999 9.0625 -33.79249999999999 Q9.125 -38.60499999999999 12.625 -42.10499999999999 L20.0 -49.47999999999999 Q23.5 -52.97999999999999 28.3125 -52.97999999999999 Q33.125 -52.97999999999999 36.625 -49.47999999999999 L42.5 -43.47999999999999 L51.625 -52.60499999999999 L45.625 -58.60499999999999 Q42.125 -62.10499999999999 42.1875 -66.91749999999999 Q42.25 -71.72999999999999 45.75 -75.22999999999999 L53.25 -82.72999999999999 Q56.75 -86.22999999999999 61.5 -86.22999999999999 Q66.25 -86.22999999999999 69.75 -82.72999999999999 L107.375 -45.10499999999999 Q110.875 -41.60499999999999 110.9375 -36.79249999999999 Q111.0 -31.97999999999999 107.5 -28.47999999999999 L100.0 -20.97999999999999 Q96.5 -17.47999999999999 91.625 -17.47999999999999 Q86.75 -17.47999999999999 83.25 -20.97999999999999 L77.375 -26.85499999999999 L68.25 -17.72999999999999 L74.125 -11.85499999999999 Q77.625 -8.35499999999999 77.6875 -3.5424999999999898 Q77.75 1.2700000000000102 74.25 4.77000000000001 L66.875 12.14500000000001 Z"/></g><g id="Semibold-M" transform="matrix(1 0 0 1 1985.97 1126)"><path d="M104.451125 -47.64849999999999  95.614125 -56.48549999999999  98.233625 -59.22999999999999 Q98.233625 -59.22999999999999 98.233625 -59.22999999999999 Q98.233625 -59.22999999999999 98.233625 -59.22999999999999 L84.0 -73.463625 Q84.0 -73.463625 84.0 -73.463625 Q84.0 -73.463625 84.0 -73.463625 L81.2555 -70.84412499999999 L72.364125 -79.73549999999999 L76.0435 -83.539875 Q79.27175 -86.768125 83.839625 -86.74099999999999 Q88.407625 -86.71374999999999 91.635875 -83.48549999999999 L108.184875 -67.00725 Q111.413125 -63.77887499999999 111.413125 -59.20287499999999 Q111.413125 -54.62674999999999 108.184875 -51.39849999999999 L104.451125 -47.64849999999999 Z M43.9565 12.900500000000008 Q40.72825 16.12875000000001 36.116875 16.12875000000001 Q31.505375 16.12875000000001 28.277125 12.900500000000008 L11.8695 -3.5777499999999947 Q8.64125 -6.806124999999994 8.64125 -11.382124999999988 Q8.64125 -15.958249999999992 11.8695 -19.186499999999995 L15.548875 -22.86587499999999 L24.44025 -13.974499999999992 L21.766375 -11.284374999999983 Q21.766375 -11.284374999999983 21.766375 -11.284374999999983 Q21.766375 -11.284374999999983 21.766375 -11.284374999999983 L36.054375 3.0036250000000138 Q36.054375 3.0036250000000138 36.054375 3.0036250000000138 Q36.054375 3.0036250000000138 36.054375 3.0036250000000138 L38.7445 0.3297500000000042 L47.635875 9.221125000000015 L43.9565 12.900500000000008 Z M92.1685 -31.855124999999987  97.244375 -36.931124999999994 Q97.244375 -36.931124999999994 97.244375 -36.931124999999994 Q97.244375 -36.931124999999994 97.244375 -36.931124999999994 L61.701125 -72.47437499999998 Q61.701125 -72.47437499999998 61.701125 -72.47437499999998 Q61.701125 -72.47437499999998 61.701125 -72.47437499999998 L56.625125 -67.39849999999998 Q56.625125 -67.39849999999998 56.625125 -67.39849999999998 Q56.625125 -67.39849999999998 56.625125 -67.39849999999998 L92.1685 -31.855124999999987 Q92.1685 -31.855124999999987 92.1685 -31.855124999999987 Q92.1685 -31.855124999999987 92.1685 -31.855124999999987 Z M58.22825 2.085125000000005  63.30425 -3.045249999999996 Q63.30425 -3.045249999999996 63.30425 -3.045249999999996 Q63.30425 -3.045249999999996 63.30425 -3.045249999999996 L27.81525 -38.534249999999986 Q27.81525 -38.534249999999986 27.81525 -38.534249999999986 Q27.81525 -38.534249999999986 27.81525 -38.534249999999986 L22.684875 -33.45824999999999 Q22.684875 -33.45824999999999 22.684875 -33.45824999999999 Q22.684875 -33.45824999999999 22.684875 -33.45824999999999 L58.22825 2.085125000000005 Q58.22825 2.085125000000005 58.22825 2.085125000000005 Q58.22825 2.085125000000005 58.22825 2.085125000000005 Z M57.619625 -26.45837499999999  68.755375 -37.539749999999984  62.30975 -43.98537499999999  51.228375 -32.84962499999999  57.619625 -26.45837499999999 Z M66.059875 11.982000000000014 Q62.8315 15.210250000000016 58.22825 15.210250000000016 Q53.625 15.210250000000016 50.39675 11.982000000000014 L12.717375 -25.697374999999994 Q9.489125 -28.925624999999997 9.524375 -33.493624999999994 Q9.55975 -38.061499999999995 12.788 -41.289874999999995 L20.054375 -48.55612499999999 Q23.282625 -51.78437499999999 27.823375 -51.78437499999999 Q32.364125 -51.78437499999999 35.5925 -48.55612499999999 L42.337 -41.740999999999985 L53.47275 -52.87674999999999 L46.6575 -59.63749999999999 Q43.42925 -62.86587499999999 43.464625 -67.43374999999999 Q43.499875 -72.00174999999999 46.72825 -75.22999999999999 L54.065125 -82.567 Q57.2935 -85.79524999999998 61.798875 -85.79524999999998 Q66.304375 -85.79524999999998 69.532625 -82.567 L107.26625 -44.83324999999999 Q110.494625 -41.60499999999999 110.529875 -37.06424999999999 Q110.56525 -32.523499999999984 107.337 -29.295124999999985 L100.0 -21.958249999999992 Q96.77175 -18.729874999999993 92.1685 -18.729874999999993 Q87.565125 -18.729874999999993 84.336875 -21.958249999999992 L77.64675 -28.702749999999995 L66.511 -17.566999999999993 L73.2555 -10.822499999999991 Q76.48375 -7.594124999999991 76.519125 -3.0533749999999884 Q76.554375 1.4873750000000143 73.326125 4.715625000000017 L66.059875 11.982000000000014 Z"/></g><g id="Medium-M" transform="matrix(1 0 0 1 1689.91 1126)"><path d="M103.758125 -48.05612499999999  95.981 -55.83324999999999  99.25275 -59.22999999999999 Q99.25275 -59.22999999999999 99.25275 -59.22999999999999 Q99.25275 -59.22999999999999 99.25275 -59.22999999999999 L84.0 -74.48274999999998 Q84.0 -74.48274999999998 84.0 -74.48274999999998 Q84.0 -74.48274999999998 84.0 -74.48274999999998 L80.60325 -71.21099999999998 L72.731 -79.08324999999999 L76.451125 -82.92837499999999 Q79.4755 -85.95287499999999 83.86 -85.90525 Q88.244625 -85.85774999999998 91.269 -82.83324999999999 L107.573375 -66.55874999999999 Q110.597875 -63.53437499999999 110.597875 -59.18249999999999 Q110.597875 -54.83049999999999 107.573375 -51.80612499999999 L103.758125 -48.05612499999999 Z M43.548875 12.248250000000013 Q40.5245 15.272750000000016 36.157625 15.272750000000016 Q31.79075 15.272750000000016 28.76625 12.248250000000013 L12.52175 -4.02624999999999 Q9.49725 -7.050624999999997 9.49725 -11.40249999999999 Q9.49725 -15.754499999999993 12.52175 -18.778874999999985 L16.241875 -22.498999999999995 L24.114125 -14.626749999999987 L20.74725 -11.325124999999986 Q20.74725 -11.325124999999986 20.74725 -11.325124999999986 Q20.74725 -11.325124999999986 20.74725 -11.325124999999986 L36.095125 4.022750000000016 Q36.095125 4.022750000000016 36.095125 4.022750000000016 Q36.095125 4.022750000000016 36.095125 4.022750000000016 L39.39675 0.6558750000000089 L47.269 8.528125000000017 L43.548875 12.248250000000013 Z M92.576125 -30.91749999999999  98.83425 -37.175625 Q98.83425 -37.175625 98.83425 -37.175625 Q98.83425 -37.175625 98.83425 -37.175625 L61.945625 -74.06424999999999 Q61.945625 -74.06424999999999 61.945625 -74.06424999999999 Q61.945625 -74.06424999999999 61.945625 -74.06424999999999 L55.6875 -67.80612499999998 Q55.6875 -67.80612499999998 55.6875 -67.80612499999998 Q55.6875 -67.80612499999998 55.6875 -67.80612499999998 L92.576125 -30.91749999999999 Q92.576125 -30.91749999999999 92.576125 -30.91749999999999 Q92.576125 -30.91749999999999 92.576125 -30.91749999999999 Z M58.0245 3.6341250000000116  64.282625 -2.719124999999991 Q64.282625 -2.719124999999991 64.282625 -2.719124999999991 Q64.282625 -2.719124999999991 64.282625 -2.719124999999991 L27.489125 -39.512624999999986 Q27.489125 -39.512624999999986 27.489125 -39.512624999999986 Q27.489125 -39.512624999999986 27.489125 -39.512624999999986 L21.135875 -33.25449999999999 Q21.135875 -33.25449999999999 21.135875 -33.25449999999999 Q21.135875 -33.25449999999999 21.135875 -33.25449999999999 L58.0245 3.6341250000000116 Q58.0245 3.6341250000000116 58.0245 3.6341250000000116 Q58.0245 3.6341250000000116 58.0245 3.6341250000000116 Z M57.33425 -25.316999999999993  69.97825 -37.86587499999999  62.635875 -45.20824999999999  50.087 -32.56424999999999  57.33425 -25.316999999999993 Z M65.448375 11.859625000000008 Q62.423875 14.884125000000012 58.0245 14.884125000000012 Q53.625 14.884125000000012 50.6005 11.859625000000008 L12.880375 -25.86037499999999 Q9.856 -28.884874999999994 9.870875 -33.269375 Q9.885875 -37.653874999999985 12.910375 -40.67837499999999 L20.095125 -47.86312499999999 Q23.119625 -50.88762499999999 27.4565 -50.88762499999999 Q31.7935 -50.88762499999999 34.818 -47.86312499999999 L42.214625 -40.436499999999995 L54.858625 -53.08049999999999 L47.432 -60.41199999999999 Q44.407625 -63.43649999999999 44.4225 -67.821 Q44.4375 -72.20549999999999 47.462 -75.22999999999999 L54.676625 -82.44462499999999 Q57.701125 -85.46912499999999 62.023125 -85.46912499999999 Q66.345125 -85.46912499999999 69.369625 -82.44462499999999 L107.18475 -44.62949999999999 Q110.20925 -41.60499999999999 110.22425 -37.26799999999999 Q110.239125 -32.931124999999994 107.214625 -29.90662499999999 L100.0 -22.691999999999993 Q96.9755 -19.66749999999999 92.576125 -19.66749999999999 Q88.176625 -19.66749999999999 85.152125 -22.691999999999993 L77.8505 -30.088624999999993 L65.2065 -17.444624999999988 L72.60325 -10.047999999999988 Q75.62775 -7.023499999999984 75.642625 -2.6864999999999952 Q75.657625 1.650375000000011 72.633125 4.674875000000014 L65.448375 11.859625000000008 Z"/></g><g id="Regular-M" transform="matrix(1 0 0 1 1394.06 1126)"><path d="M103.25 -48.35499999999999  96.25 -55.35499999999999  100.0 -59.22999999999999 Q100.0 -59.22999999999999 100.0 -59.22999999999999 Q100.0 -59.22999999999999 100.0 -59.22999999999999 L84.0 -75.22999999999999 Q84.0 -75.22999999999999 84.0 -75.22999999999999 Q84.0 -75.22999999999999 84.0 -75.22999999999999 L80.125 -71.47999999999999 L73.0 -78.60499999999999 L76.75 -82.47999999999999 Q79.625 -85.35499999999999 83.875 -85.29249999999999 Q88.125 -85.22999999999999 91.0 -82.35499999999999 L107.125 -66.22999999999999 Q110.0 -63.35499999999999 110.0 -59.16749999999999 Q110.0 -54.97999999999999 107.125 -52.10499999999999 L103.25 -48.35499999999999 Z M43.25 11.77000000000001 Q40.375 14.64500000000001 36.1875 14.64500000000001 Q32.0 14.64500000000001 29.125 11.77000000000001 L13.0 -4.35499999999999 Q10.125 -7.22999999999999 10.125 -11.41749999999999 Q10.125 -15.60499999999999 13.0 -18.47999999999999 L16.75 -22.22999999999999 L23.875 -15.10499999999999 L20.0 -11.35499999999999 Q20.0 -11.35499999999999 20.0 -11.35499999999999 Q20.0 -11.35499999999999 20.0 -11.35499999999999 L36.125 4.77000000000001 Q36.125 4.77000000000001 36.125 4.77000000000001 Q36.125 4.77000000000001 36.125 4.77000000000001 L39.875 0.8950000000000102 L47.0 8.02000000000001 L43.25 11.77000000000001 Z M92.875 -30.22999999999999  100.0 -37.35499999999999 Q100.0 -37.35499999999999 100.0 -37.35499999999999 Q100.0 -37.35499999999999 100.0 -37.35499999999999 L62.125 -75.22999999999999 Q62.125 -75.22999999999999 62.125 -75.22999999999999 Q62.125 -75.22999999999999 62.125 -75.22999999999999 L55.0 -68.10499999999999 Q55.0 -68.10499999999999 55.0 -68.10499999999999 Q55.0 -68.10499999999999 55.0 -68.10499999999999 L92.875 -30.22999999999999 Q92.875 -30.22999999999999 92.875 -30.22999999999999 Q92.875 -30.22999999999999 92.875 -30.22999999999999 Z M57.875 4.77000000000001  65.0 -2.4799999999999898 Q65.0 -2.4799999999999898 65.0 -2.4799999999999898 Q65.0 -2.4799999999999898 65.0 -2.4799999999999898 L27.25 -40.22999999999999 Q27.25 -40.22999999999999 27.25 -40.22999999999999 Q27.25 -40.22999999999999 27.25 -40.22999999999999 L20.0 -33.10499999999999 Q20.0 -33.10499999999999 20.0 -33.10499999999999 Q20.0 -33.10499999999999 20.0 -33.10499999999999 L57.875 4.77000000000001 Q57.875 4.77000000000001 57.875 4.77000000000001 Q57.875 4.77000000000001 57.875 4.77000000000001 Z M57.125 -24.47999999999999  70.875 -38.10499999999999  62.875 -46.10499999999999  49.25 -32.35499999999999  57.125 -24.47999999999999 Z M65.0 11.77000000000001 Q62.125 14.64500000000001 57.875 14.64500000000001 Q53.625 14.64500000000001 50.75 11.77000000000001 L13.0 -25.97999999999999 Q10.125 -28.85499999999999 10.125 -33.10499999999999 Q10.125 -37.35499999999999 13.0 -40.22999999999999 L20.125 -47.35499999999999 Q23.0 -50.22999999999999 27.1875 -50.22999999999999 Q31.375 -50.22999999999999 34.25 -47.35499999999999 L42.125 -39.47999999999999 L55.875 -53.22999999999999 L48.0 -60.97999999999999 Q45.125 -63.85499999999999 45.125 -68.10499999999999 Q45.125 -72.35499999999999 48.0 -75.22999999999999 L55.125 -82.35499999999999 Q58.0 -85.22999999999999 62.1875 -85.22999999999999 Q66.375 -85.22999999999999 69.25 -82.35499999999999 L107.125 -44.47999999999999 Q110.0 -41.60499999999999 110.0 -37.41749999999999 Q110.0 -33.22999999999999 107.125 -30.35499999999999 L100.0 -23.22999999999999 Q97.125 -20.35499999999999 92.875 -20.35499999999999 Q88.625 -20.35499999999999 85.75 -23.22999999999999 L78.0 -31.10499999999999 L64.25 -17.35499999999999 L72.125 -9.47999999999999 Q75.0 -6.60499999999999 75.0 -2.4174999999999898 Q75.0 1.7700000000000102 72.125 4.64500000000001 L65.0 11.77000000000001 Z"/></g><g id="Light-M" transform="matrix(1 0 0 1 1098.18 1126)"><path d="M100.12475 -48.35499999999999  94.90375 -53.575999999999986  97.980625 -56.77787499999999 Q98.461375 -57.25874999999999 98.461375 -57.85974999999999 Q98.461375 -58.46074999999999 97.980625 -58.94149999999999 L83.7115 -73.210625 Q83.23075 -73.691375 82.62975 -73.691375 Q82.02875 -73.691375 81.547875 -73.210625 L78.346 -70.13374999999999 L73.0 -75.47975 L76.26925 -78.874 Q78.807625 -81.412375 82.52875 -81.349875 Q86.249875 -81.287375 88.78825 -78.749 L103.519 -64.01825 Q106.057375 -61.47987499999999 106.057375 -57.82124999999999 Q106.057375 -54.16262499999999 103.519 -51.62424999999999 L100.12475 -48.35499999999999 Z M43.73075 8.164000000000016 Q41.192375 10.702375000000004 37.53375 10.702375000000004 Q33.875125 10.702375000000004 31.33675 8.164000000000016 L16.798375 -6.374374999999986 Q14.211875 -8.960874999999987 14.211875 -12.763749999999987 Q14.211875 -16.566624999999988 16.798375 -19.15312499999999 L19.87525 -22.22999999999999 L25.22125 -16.883999999999986 L22.0675 -13.807124999999985 Q21.586625 -13.326249999999987 21.586625 -12.725249999999988 Q21.586625 -12.12424999999999 22.0675 -11.643499999999989 L36.4135 2.702500000000015 Q36.89425 3.1833750000000123 37.49525 3.1833750000000123 Q38.09625 3.1833750000000123 38.577125 2.702500000000015 L41.654 -0.4512499999999875 L47.0 4.894750000000016 L43.73075 8.164000000000016 Z M92.875 -29.84537499999999  99.27875 -36.24912499999999 Q99.759625 -36.72999999999999 99.759625 -37.35499999999999 Q99.759625 -37.97999999999999 99.27875 -38.46087499999999 L63.230875 -74.50874999999999 Q62.75 -74.98962499999999 62.125 -74.98962499999999 Q61.5 -74.98962499999999 61.019125 -74.50874999999999 L54.615375 -68.10499999999999 Q54.1345 -67.62424999999999 54.1345 -67.02324999999999 Q54.1345 -66.422125 54.615375 -65.941375 L90.711375 -29.84537499999999 Q91.192125 -29.364499999999992 91.79325 -29.364499999999992 Q92.39425 -29.364499999999992 92.875 -29.84537499999999 Z M58.980875 4.0487500000000125  65.384625 -2.431874999999991 Q65.8655 -2.9127499999999884 65.8655 -3.5137499999999875 Q65.8655 -4.114749999999987 65.384625 -4.595499999999987 L29.3655 -40.61462499999999 Q28.88475 -41.09549999999999 28.28375 -41.09549999999999 Q27.68275 -41.09549999999999 27.201875 -40.61462499999999 L20.72125 -34.21087499999999 Q20.240375 -33.72999999999999 20.240375 -33.10499999999999 Q20.240375 -32.47999999999999 20.72125 -31.999124999999992 L56.769125 4.0487500000000125 Q57.25 4.52962500000001 57.875 4.52962500000001 Q58.5 4.52962500000001 58.980875 4.0487500000000125 Z M56.8365 -23.758749999999992  71.548125 -38.39349999999999  63.1635 -46.77812499999999  48.52875 -32.06649999999999  56.8365 -23.758749999999992 Z M64.27875 9.317875000000015 Q61.69225 11.904375000000016 57.875 11.904375000000016 Q54.05775 11.904375000000016 51.47125 9.317875000000015 L15.452125 -26.701249999999987 Q12.865625 -29.28774999999999 12.865625 -33.10499999999999 Q12.865625 -36.92224999999999 15.452125 -39.50874999999999 L21.855875 -45.96062499999999 Q24.442375 -48.54712499999999 28.24525 -48.54712499999999 Q32.048125 -48.54712499999999 34.634625 -45.96062499999999 L43.18275 -37.412499999999994 L57.894375 -52.12412499999999 L49.34625 -60.59537499999999 Q46.75975 -63.18187499999999 46.75975 -67.02324999999999 Q46.75975 -70.86449999999999 49.34625 -73.451 L55.798125 -79.902875 Q58.384625 -82.489375 62.1875 -82.489375 Q65.990375 -82.489375 68.576875 -79.902875 L104.672875 -43.80687499999999 Q107.259375 -41.22037499999999 107.259375 -37.41749999999999 Q107.259375 -33.61462499999999 104.672875 -31.02812499999999 L98.221 -24.576249999999987 Q95.6345 -21.989749999999987 91.79325 -21.989749999999987 Q87.951875 -21.989749999999987 85.365375 -24.576249999999987 L76.894125 -33.124374999999986 L62.1825 -18.41274999999999 L70.730625 -9.86462499999999 Q73.317125 -7.278124999999989 73.317125 -3.4752499999999884 Q73.317125 0.3276250000000118 70.730625 2.9141250000000127 L64.27875 9.317875000000015 Z"/></g><g id="Thin-M" transform="matrix(1 0 0 1 802.565 1126)"><path d="M97.0 -48.35499999999999  93.55775 -51.79737499999999  95.961625 -54.32612499999999 Q96.923125 -55.28774999999999 96.923125 -56.48962499999999 Q96.923125 -57.69149999999999 95.961625 -58.65312499999999 L83.423125 -71.19162499999999 Q82.4615 -72.15312499999999 81.259625 -72.15312499999999 Q80.05775 -72.15312499999999 79.096125 -71.19162499999999 L76.567375 -68.78774999999999 L73.0 -72.35499999999999 L75.7885 -75.26849999999999 Q77.990375 -77.47037499999999 81.18275 -77.40787499999999 Q84.375 -77.34537499999999 86.577 -75.14349999999999 L99.9135 -61.80699999999999 Q102.115375 -59.60499999999999 102.115375 -56.47524999999999 Q102.115375 -53.34537499999999 99.9135 -51.14349999999999 L97.0 -48.35499999999999 Z M44.2115 4.558500000000009 Q42.009625 6.7603750000000105 38.87975 6.7603750000000105 Q35.75 6.7603750000000105 33.548 4.558500000000009 L20.596125 -8.393374999999992 Q18.298 -10.69149999999999 18.298 -14.109749999999991 Q18.298 -17.52812499999999 20.596125 -19.82612499999999 L23.0 -22.22999999999999 L26.56725 -18.66262499999999 L24.134625 -16.25887499999999 Q23.173 -15.297249999999991 23.173 -14.09537499999999 Q23.173 -12.893499999999989 24.134625 -11.931874999999991 L36.701875 0.6353750000000105 Q37.6635 1.5970000000000084 38.865375 1.5970000000000084 Q40.06725 1.5970000000000084 41.028875 0.6353750000000105 L43.432625 -1.7972499999999911 L47.0 1.7700000000000102 L44.2115 4.558500000000009 Z M92.875 -29.46074999999999  98.55775 -35.14349999999999 Q99.51925 -36.10499999999999 99.51925 -37.35499999999999 Q99.51925 -38.60499999999999 98.55775 -39.56649999999999 L64.3365 -73.78774999999999 Q63.375 -74.74924999999999 62.125 -74.74924999999999 Q60.875 -74.74924999999999 59.9135 -73.78774999999999 L54.23075 -68.10499999999999 Q53.26925 -67.14349999999999 53.26925 -65.94149999999999 Q53.26925 -64.73962499999999 54.23075 -63.77812499999999 L88.548125 -29.46074999999999 Q89.509625 -28.49924999999999 90.7115 -28.49924999999999 Q91.9135 -28.49924999999999 92.875 -29.46074999999999 Z M60.0865 3.327750000000009  65.76925 -2.383874999999989 Q66.73075 -3.34537499999999 66.73075 -4.547249999999991 Q66.73075 -5.749249999999989 65.76925 -6.71074999999999 L31.48075 -40.99924999999999 Q30.51925 -41.96074999999999 29.31725 -41.96074999999999 Q28.115375 -41.96074999999999 27.153875 -40.99924999999999 L21.44225 -35.31649999999999 Q20.48075 -34.35499999999999 20.48075 -33.10499999999999 Q20.48075 -31.85499999999999 21.44225 -30.89349999999999 L55.6635 3.327750000000009 Q56.625 4.28925000000001 57.875 4.28925000000001 Q59.125 4.28925000000001 60.0865 3.327750000000009 Z M56.548125 -23.03774999999999  72.221125 -38.68187499999999  63.451875 -47.45112499999999  47.80775 -31.77812499999999  56.548125 -23.03774999999999 Z M63.55775 6.866125000000011 Q61.259625 9.16425000000001 57.875 9.16425000000001 Q54.490375 9.16425000000001 52.19225 6.866125000000011 L17.903875 -27.42224999999999 Q15.60575 -29.72037499999999 15.60575 -33.10499999999999 Q15.60575 -36.48962499999999 17.903875 -38.78774999999999 L23.5865 -44.56649999999999 Q25.884625 -46.86462499999999 29.302875 -46.86462499999999 Q32.721125 -46.86462499999999 35.01925 -44.56649999999999 L44.240375 -35.34537499999999 L59.913375 -51.01849999999999 L50.69225 -60.21074999999999 Q48.39425 -62.50887499999999 48.39425 -65.94149999999999 Q48.39425 -69.37424999999999 50.69225 -71.67237499999999 L56.471125 -77.45112499999999 Q58.76925 -79.74924999999999 62.1875 -79.74924999999999 Q65.60575 -79.74924999999999 67.903875 -77.45112499999999 L102.221125 -43.13387499999999 Q104.51925 -40.83574999999999 104.51925 -37.41749999999999 Q104.51925 -33.99924999999999 102.221125 -31.70112499999999 L96.442375 -25.92224999999999 Q94.14425 -23.62424999999999 90.7115 -23.62424999999999 Q87.278875 -23.62424999999999 84.98075 -25.92224999999999 L75.7885 -35.14337499999999 L60.115375 -19.47037499999999 L69.3365 -10.24924999999999 Q71.634625 -7.9511249999999905 71.634625 -4.53287499999999 Q71.634625 -1.1146249999999895 69.3365 1.1835000000000093 L63.55775 6.866125000000011 Z"/></g><g id="Ultralight-M" transform="matrix(1 0 0 1 506.415 1126)"><path d="M95.125 -48.35499999999999  92.75 -50.72999999999999  94.75 -52.85499999999999 Q96.0 -54.10499999999999 96.0 -55.66749999999999 Q96.0 -57.22999999999999 94.75 -58.47999999999999 L83.25 -69.97999999999999 Q82.0 -71.22999999999999 80.4375 -71.22999999999999 Q78.875 -71.22999999999999 77.625 -69.97999999999999 L75.5 -67.97999999999999 L73.0 -70.47999999999999 L75.5 -73.10499999999999 Q77.5 -75.10499999999999 80.375 -75.04249999999999 Q83.25 -74.97999999999999 85.25 -72.97999999999999 L97.75 -60.47999999999999 Q99.75 -58.47999999999999 99.75 -55.66749999999999 Q99.75 -52.85499999999999 97.75 -50.85499999999999 L95.125 -48.35499999999999 Z M44.5 2.3950000000000102 Q42.5 4.39500000000001 39.6875 4.39500000000001 Q36.875 4.39500000000001 34.875 2.3950000000000102 L22.875 -9.60499999999999 Q20.75 -11.72999999999999 20.75 -14.91749999999999 Q20.75 -18.10499999999999 22.875 -20.22999999999999 L24.875 -22.22999999999999 L27.375 -19.72999999999999 L25.375 -17.72999999999999 Q24.125 -16.47999999999999 24.125 -14.91749999999999 Q24.125 -13.35499999999999 25.375 -12.10499999999999 L36.875 -0.6049999999999898 Q38.125 0.6450000000000102 39.6875 0.6450000000000102 Q41.25 0.6450000000000102 42.5 -0.6049999999999898 L44.5 -2.6049999999999898 L47.0 -0.10499999999998977 L44.5 2.3950000000000102 Z M92.875 -29.22999999999999  98.125 -34.47999999999999 Q99.375 -35.72999999999999 99.375 -37.35499999999999 Q99.375 -38.97999999999999 98.125 -40.22999999999999 L65.0 -73.35499999999999 Q63.75 -74.60499999999999 62.125 -74.60499999999999 Q60.5 -74.60499999999999 59.25 -73.35499999999999 L54.0 -68.10499999999999 Q52.75 -66.85499999999999 52.75 -65.29249999999999 Q52.75 -63.72999999999999 54.0 -62.47999999999999 L87.25 -29.22999999999999 Q88.5 -27.97999999999999 90.0625 -27.97999999999999 Q91.625 -27.97999999999999 92.875 -29.22999999999999 Z M60.75 2.8950000000000102  66.0 -2.3549999999999898 Q67.25 -3.6049999999999898 67.25 -5.16749999999999 Q67.25 -6.72999999999999 66.0 -7.97999999999999 L32.75 -41.22999999999999 Q31.5 -42.47999999999999 29.9375 -42.47999999999999 Q28.375 -42.47999999999999 27.125 -41.22999999999999 L21.875 -35.97999999999999 Q20.625 -34.72999999999999 20.625 -33.10499999999999 Q20.625 -31.47999999999999 21.875 -30.22999999999999 L55.0 2.8950000000000102 Q56.25 4.14500000000001 57.875 4.14500000000001 Q59.5 4.14500000000001 60.75 2.8950000000000102 Z M56.375 -22.60499999999999  72.625 -38.85499999999999  63.625 -47.85499999999999  47.375 -31.60499999999999  56.375 -22.60499999999999 Z M63.125 5.39500000000001 Q61.0 7.52000000000001 57.875 7.52000000000001 Q54.75 7.52000000000001 52.625 5.39500000000001 L19.375 -27.85499999999999 Q17.25 -29.97999999999999 17.25 -33.10499999999999 Q17.25 -36.22999999999999 19.375 -38.35499999999999 L24.625 -43.72999999999999 Q26.75 -45.85499999999999 29.9375 -45.85499999999999 Q33.125 -45.85499999999999 35.25 -43.72999999999999 L44.875 -34.10499999999999 L61.125 -50.35499999999999 L51.5 -59.97999999999999 Q49.375 -62.10499999999999 49.375 -65.29249999999999 Q49.375 -68.47999999999999 51.5 -70.60499999999999 L56.875 -75.97999999999999 Q59.0 -78.10499999999999 62.1875 -78.10499999999999 Q65.375 -78.10499999999999 67.5 -75.97999999999999 L100.75 -42.72999999999999 Q102.875 -40.60499999999999 102.875 -37.41749999999999 Q102.875 -34.22999999999999 100.75 -32.10499999999999 L95.375 -26.72999999999999 Q93.25 -24.60499999999999 90.0625 -24.60499999999999 Q86.875 -24.60499999999999 84.75 -26.72999999999999 L75.125 -36.35499999999999 L58.875 -20.10499999999999 L68.5 -10.47999999999999 Q70.625 -8.35499999999999 70.625 -5.16749999999999 Q70.625 -1.9799999999999898 68.5 0.14500000000001023 L63.125 5.39500000000001 Z"/></g><g id="Bold-S" transform="matrix(1 0 0 1 2294.23 696)"><path d="M81.26700000000001 -43.81037499999999  73.672875 -51.40449999999999  75.3495 -53.08112499999999 Q75.3495 -53.08112499999999 75.3495 -53.08112499999999 Q75.3495 -53.08112499999999 75.3495 -53.08112499999999 L65.191125 -63.140874999999994 Q65.191125 -63.140874999999994 65.191125 -63.140874999999994 Q65.191125 -63.140874999999994 65.191125 -63.140874999999994 L63.613125000000004 -61.46424999999999 L56.117625000000004 -68.95975 L59.175000000000004 -72.11574999999999 Q61.739250000000006 -74.67999999999999 65.1418125 -74.72931249999999 Q68.544375 -74.77862499999999 71.108625 -72.21437499999999 L84.324375 -59.097249999999995 Q86.888625 -56.532999999999994 86.888625 -53.08112499999999 Q86.888625 -49.62924999999999 84.324375 -47.065 L81.26700000000001 -43.81037499999999 Z M35.011875 2.3461250000000007 Q33.138 4.220000000000013 30.031312500000002 4.614500000000007 Q26.924625000000002 5.0090000000000146 24.360375 2.4447500000000133 L10.552875 -11.46137499999999 Q7.988625000000001 -13.9960375 7.988625000000001 -17.512018749999996 Q7.988625000000001 -21.02799999999999 10.552875 -23.592249999999993 L13.61025 -26.550999999999988 L21.10575 -19.055499999999995 L19.626375 -17.477499999999992 Q19.626375 -17.477499999999992 19.626375 -17.477499999999992 Q19.626375 -17.477499999999992 19.626375 -17.477499999999992 L29.587500000000002 -7.417749999999998 Q29.587500000000002 -7.417749999999998 29.587500000000002 -7.417749999999998 Q29.587500000000002 -7.417749999999998 29.587500000000002 -7.417749999999998 L31.264125 -8.897124999999988 L38.759625 -1.4016249999999957 L35.011875 2.3461250000000007 Z M70.911375 -33.158874999999995  73.870125 -36.01899999999999 Q73.870125 -36.01899999999999 73.870125 -36.01899999999999 Q73.870125 -36.01899999999999 73.870125 -36.01899999999999 L48.32625 -61.56287499999999 Q48.32625 -61.56287499999999 48.32625 -61.56287499999999 Q48.32625 -61.56287499999999 48.32625 -61.56287499999999 L45.3675 -58.702749999999995 Q45.3675 -58.702749999999995 45.3675 -58.702749999999995 Q45.3675 -58.702749999999995 45.3675 -58.702749999999995 L70.911375 -33.158874999999995 Q70.911375 -33.158874999999995 70.911375 -33.158874999999995 Q70.911375 -33.158874999999995 70.911375 -33.158874999999995 Z M46.551 -8.699874999999992  49.411125000000006 -11.46137499999999 Q49.411125000000006 -11.46137499999999 49.411125000000006 -11.46137499999999 Q49.411125000000006 -11.46137499999999 49.411125000000006 -11.46137499999999 L23.768625 -37.103874999999995 Q23.768625 -37.103874999999995 23.768625 -37.103874999999995 Q23.768625 -37.103874999999995 23.768625 -37.103874999999995 L21.007125000000002 -34.24374999999999 Q21.007125000000002 -34.24374999999999 21.007125000000002 -34.24374999999999 Q21.007125000000002 -34.24374999999999 21.007125000000002 -34.24374999999999 L46.551 -8.699874999999992 Q46.551 -8.699874999999992 46.551 -8.699874999999992 Q46.551 -8.699874999999992 46.551 -8.699874999999992 Z M46.255125 -29.805624999999992  52.764375 -36.314874999999994  48.523500000000006 -40.457125  42.014250000000004 -34.046499999999995  46.255125 -29.805624999999992 Z M52.567125000000004 0.3736250000000041 Q50.002875 2.9378750000000053 46.551 2.9378750000000053 Q43.099125 2.9378750000000053 40.534875 0.3736250000000041 L11.835 -28.424874999999993 Q9.27075 -30.989124999999994 9.3200625 -34.342375 Q9.369375 -37.69562499999999 11.933625000000001 -40.259874999999994 L17.851125 -46.177375 Q20.3857875 -48.74162499999999 23.85245625 -48.74162499999999 Q27.319125 -48.74162499999999 29.883375 -46.177375 L34.518750000000004 -41.541999999999994 L40.929375 -48.051249999999996 L36.195375 -52.78525 Q33.631125000000004 -55.34949999999999 33.680437500000004 -58.752062499999994 Q33.72975 -62.154624999999996 36.294000000000004 -64.718875 L42.408750000000005 -70.735 Q44.9434125 -73.29925 48.360768750000005 -73.29925 Q51.778125 -73.29925 54.342375000000004 -70.735 L83.04225000000001 -42.232375 Q85.6065 -39.69771249999999 85.65581250000001 -36.23104374999999 Q85.70512500000001 -32.764374999999994 83.14087500000001 -30.200124999999993 L77.02612500000001 -24.183999999999997 Q74.461875 -21.619749999999996 71.01 -21.619749999999996 Q67.558125 -21.619749999999996 64.993875 -24.183999999999997 L60.16125 -28.819374999999994 L53.750625 -22.310125 L58.386 -17.67474999999999 Q60.950250000000004 -15.110499999999988 61.048875 -11.658624999999986 Q61.1475 -8.20675 58.58325 -5.642499999999998 L52.567125000000004 0.3736250000000041 Z"/></g><g id="Semibold-S" transform="matrix(1 0 0 1 1998.1 696)"><path d="M80.53806262500001 -44.2391965  74.058794625 -50.718464499999996  76.42145512500001 -53.08112499999999 Q76.42145512500001 -53.08112499999999 76.42145512500001 -53.08112499999999 Q76.42145512500001 -53.08112499999999 76.42145512500001 -53.08112499999999 L65.191125 -64.212830125 Q65.191125 -64.212830125 65.191125 -64.212830125 Q65.191125 -64.212830125 65.191125 -64.212830125 L62.9270895 -61.85016962499999 L56.503544625 -68.2737145 L59.603821499999995 -71.472616375 Q61.95366075 -73.822455625 65.163214125 -73.85036649999999 Q68.372866125 -73.87817874999999 70.722705375 -71.5283395 L83.68124137500001 -58.62562525 Q86.031080625 -56.275687375 86.031080625 -53.059723375 Q86.031080625 -49.84366074999999 83.68124137500001 -47.493821499999996 L80.53806262500001 -44.2391965 Z M34.5830535 1.6600895000000122 Q32.923589250000006 3.3195537500000114 30.074214375 3.714053750000005 Q27.224740875000002 4.108553750000013 24.874901625000003 1.7587145000000106 L11.238910500000001 -11.932999749999993 Q8.88907125 -14.253350124999997 8.88907125 -17.53342037499999 Q8.88907125 -20.813589249999993 11.238910500000001 -23.163428499999995 L14.339187375 -26.165080374999988 L20.76273225 -19.741535499999998 L18.554419875 -17.52040187499999 Q18.554419875 -17.52040187499999 18.554419875 -17.52040187499999 Q18.554419875 -17.52040187499999 18.554419875 -17.52040187499999 L29.630401875 -6.345794874999996 Q29.630401875 -6.345794874999996 29.630401875 -6.345794874999996 Q29.630401875 -6.345794874999996 29.630401875 -6.345794874999996 L31.950160500000003 -8.554107250000001 L38.373705375 -2.1305623749999825 L34.5830535 1.6600895000000122 Z M71.3401965 -32.17272362499999  75.54231187500001 -36.276312624999996 Q75.54231187500001 -36.276312624999996 75.54231187500001 -36.276312624999996 Q75.54231187500001 -36.276312624999996 75.54231187500001 -36.276312624999996 L48.583562625 -63.23506187499999 Q48.583562625 -63.23506187499999 48.583562625 -63.23506187499999 Q48.583562625 -63.23506187499999 48.583562625 -63.23506187499999 L44.381348625 -59.1315715 Q44.381348625 -59.1315715 44.381348625 -59.1315715 Q44.381348625 -59.1315715 44.381348625 -59.1315715 L71.3401965 -32.17272362499999 Q71.3401965 -32.17272362499999 71.3401965 -32.17272362499999 Q71.3401965 -32.17272362499999 71.3401965 -32.17272362499999 Z M46.33658925 -7.070491375000003  50.44017825 -11.118357250000003 Q50.44017825 -11.118357250000003 50.44017825 -11.118357250000003 Q50.44017825 -11.118357250000003 50.44017825 -11.118357250000003 L23.42560725 -38.13292824999999 Q23.42560725 -38.13292824999999 23.42560725 -38.13292824999999 Q23.42560725 -38.13292824999999 23.42560725 -38.13292824999999 L19.377741375000003 -34.02933925 Q19.377741375000003 -34.02933925 19.377741375000003 -34.02933925 Q19.377741375000003 -34.02933925 19.377741375000003 -34.02933925 L46.33658925 -7.070491375000003 Q46.33658925 -7.070491375000003 46.33658925 -7.070491375000003 Q46.33658925 -7.070491375000003 46.33658925 -7.070491375000003 Z M45.955009125000004 -28.605062874999994  54.050740875 -36.65789274999999  48.86651775 -41.74349087499999  40.813687875 -33.74638412499999  45.955009125000004 -28.605062874999994 Z M51.92399137500001 0.24501800000001595 Q49.5740535 2.594857250000018 46.33658925 2.594857250000018 Q43.099125 2.594857250000018 40.74928575 0.24501800000001595 L12.006508875000002 -28.596383874999994 Q9.656669625 -30.946223124999996 9.684481875 -34.106562624999995 Q9.71239275 -37.2668035 12.062232000000002 -39.616741375 L17.894026875 -45.44843762499999 Q20.214278625000002 -47.79827687499999 23.466536625000003 -47.79827687499999 Q26.718794625 -47.79827687499999 29.068732500000003 -45.44843762499999 L34.390143 -40.16992899999999 L42.38724975 -48.265660749999995 L37.010017500000004 -53.599892499999996 Q34.66017825 -55.94983037499999 34.688089125 -59.159383749999996 Q34.715901375 -62.369035749999995 37.06583925 -64.718875 L43.051883625 -70.606393 Q45.372234 -72.95623225 48.596581125 -72.95623225 Q51.821026874999994 -72.95623225 54.170866124999996 -70.606393 L82.95644625 -42.01796425 Q85.30638412500001 -39.69771249999999 85.334196375 -36.44545449999999 Q85.36210725000001 -33.19319649999999 83.012268 -30.84325862499999 L77.02612500000001 -24.955839249999997 Q74.67628575 -22.605901375000002 71.4388215 -22.605901375000002 Q68.201258625 -22.605901375000002 65.851419375 -24.955839249999997 L60.37566075 -30.277249749999996 L52.378554 -22.181517999999997 L57.6999645 -16.860107499999998 Q60.04980375 -14.510169624999989 60.127027125000005 -11.272705374999987 Q60.204151874999994 -8.035241124999985 57.854312625000006 -5.685401874999982 L51.92399137500001 0.24501800000001595 Z"/></g><g id="Medium-S" transform="matrix(1 0 0 1 1701.85 696)"><path d="M79.991285625 -44.56081262499999  74.348259 -50.203839249999994  77.22554475000001 -53.08112499999999 Q77.22554475000001 -53.08112499999999 77.22554475000001 -53.08112499999999 Q77.22554475000001 -53.08112499999999 77.22554475000001 -53.08112499999999 L65.191125 -65.01691975 Q65.191125 -65.01691975 65.191125 -65.01691975 Q65.191125 -65.01691975 65.191125 -65.01691975 L62.412464250000006 -62.139634 L56.793009 -67.75908924999999 L59.92543762500001 -70.99014287499999 Q62.1144195 -73.17922337499999 65.17929000000001 -73.19095974999999 Q68.244259125 -73.20279475 70.43324100000001 -71.01371424999999 L83.198767875 -58.27175875 Q85.387848375 -56.08277687499999 85.387848375 -53.0436475 Q85.387848375 -50.00441949999999 83.198767875 -47.815437624999994 L79.991285625 -44.56081262499999 Z M34.26143737500001 1.1454642500000034 Q32.76283050000001 2.6441697500000174 30.106366125000005 3.038669750000011 Q27.449901750000002 3.433169750000019 25.26082125 1.244089250000016 L11.753535750000001 -12.286866249999989 Q9.56445525 -14.446260624999994 9.56445525 -17.54949624999999 Q9.56445525 -20.652830499999993 11.753535750000001 -22.84181237499999 L14.885964375 -25.875615999999994 L20.505419625000002 -20.256160749999992 L17.75033025 -17.552553624999987 Q17.75033025 -17.552553624999987 17.75033025 -17.552553624999987 Q17.75033025 -17.552553624999987 17.75033025 -17.552553624999987 L29.662553625000005 -5.541705249999993 Q29.662553625000005 -5.541705249999993 29.662553625000005 -5.541705249999993 Q29.662553625000005 -5.541705249999993 29.662553625000005 -5.541705249999993 L32.46478575 -8.29679462499999 L38.084241 -2.6773393749999883 L34.26143737500001 1.1454642500000034 Z M71.66181262500001 -31.432937499999994  76.79672325 -36.469223125 Q76.79672325 -36.469223125 76.79672325 -36.469223125 Q76.79672325 -36.469223125 76.79672325 -36.469223125 L48.776473125 -64.48947324999999 Q48.776473125 -64.48947324999999 48.776473125 -64.48947324999999 Q48.776473125 -64.48947324999999 48.776473125 -64.48947324999999 L43.6415625 -59.45318762499999 Q43.6415625 -59.45318762499999 43.6415625 -59.45318762499999 Q43.6415625 -59.45318762499999 43.6415625 -59.45318762499999 L71.66181262500001 -31.432937499999994 Q71.66181262500001 -31.432937499999994 71.66181262500001 -31.432937499999994 Q71.66181262500001 -31.432937499999994 71.66181262500001 -31.432937499999994 Z M46.175830500000004 -5.848330374999989  51.212116125 -10.861044624999991 Q51.212116125 -10.861044624999991 51.212116125 -10.861044624999991 Q51.212116125 -10.861044624999991 51.212116125 -10.861044624999991 L23.168294625 -38.90486612499999 Q23.168294625 -38.90486612499999 23.168294625 -38.90486612499999 Q23.168294625 -38.90486612499999 23.168294625 -38.90486612499999 L18.155580375 -33.8685805 Q18.155580375 -33.8685805 18.155580375 -33.8685805 Q18.155580375 -33.8685805 18.155580375 -33.8685805 L46.175830500000004 -5.848330374999989 Q46.175830500000004 -5.848330374999989 46.175830500000004 -5.848330374999989 Q46.175830500000004 -5.848330374999989 46.175830500000004 -5.848330374999989 Z M45.729848249999996 -27.704517999999993  55.015589250000005 -36.91520537499999  49.123830375000004 -42.708339249999995  39.913143000000005 -33.52122324999999  45.729848249999996 -27.704517999999993 Z M51.441517875 0.14846412500000383 Q49.25243737500001 2.3375446250000067 46.175830500000004 2.3375446250000067 Q43.099125 2.3375446250000067 40.9100445 0.14846412500000383 L12.135115875 -28.724990874999996 Q9.946134 -30.914071375 9.957870375 -33.929629375 Q9.969705375 -36.94518737499999 12.158785875000001 -39.13426787499999 L17.926178625 -44.90166062499999 Q20.085671625000003 -47.090741124999994 23.177072250000002 -47.090741124999994 Q26.268571500000004 -47.090741124999994 28.457652 -44.90166062499999 L34.293589125 -39.1406785 L43.48070512500001 -48.426419499999994 L37.621098 -54.210972999999996 Q35.43211612500001 -56.40005349999999 35.4438525 -59.464923999999996 Q35.4556875 -62.529794499999994 37.644768000000006 -64.718875 L43.534357125 -70.509839125 Q45.693850125000004 -72.698919625 48.773514375000005 -72.698919625 Q51.853178625 -72.698919625 54.042259125 -70.509839125 L82.89214275 -41.8572055 Q85.08122325000001 -39.69771249999999 85.09305825 -36.60621324999999 Q85.10479462500001 -33.514812625 82.91571412500001 -31.325732124999995 L77.02612500000001 -25.534768 Q74.8370445 -23.345687499999997 71.76043762500001 -23.345687499999997 Q68.683732125 -23.345687499999997 66.494651625 -25.534768 L60.5364195 -31.370705124999994 L51.349303500000005 -22.084964125 L57.185339250000006 -16.249026999999998 Q59.37441975000001 -14.059946499999995 59.435468625 -10.983240999999992 Q59.496616125 -7.9066341249999965 57.30753562500001 -5.717553624999994 L51.441517875 0.14846412500000383 Z"/></g><g id="Regular-S" transform="matrix(1 0 0 1 1405.73 696)"><path d="M79.59037500000001 -44.79662499999999  74.5605 -49.826499999999996  77.81512500000001 -53.08112499999999 Q77.81512500000001 -53.08112499999999 77.81512500000001 -53.08112499999999 Q77.81512500000001 -53.08112499999999 77.81512500000001 -53.08112499999999 L65.191125 -65.6065 Q65.191125 -65.6065 65.191125 -65.6065 Q65.191125 -65.6065 65.191125 -65.6065 L62.035125 -62.35187499999999 L57.005250000000004 -67.38175 L60.16125 -70.636375 Q62.232375000000005 -72.7075 65.191125 -72.7075 Q68.14987500000001 -72.7075 70.221 -70.636375 L82.845 -58.012375 Q84.91612500000001 -55.94125 84.91612500000001 -53.031812499999994 Q84.91612500000001 -50.122375 82.845 -48.051249999999996 L79.59037500000001 -44.79662499999999 Z M34.025625 0.7681250000000119 Q32.644875 2.148875000000004 30.1299375 2.5433750000000117 Q27.615000000000002 2.9378750000000053 25.543875 0.8667500000000103 L12.130875000000001 -12.546249999999986 Q10.059750000000001 -14.587787500000005 10.059750000000001 -17.561331249999995 Q10.059750000000001 -20.534875 12.130875000000001 -22.605999999999995 L15.286875 -25.663374999999988 L20.316750000000003 -20.633499999999998 L17.16075 -17.57612499999999 Q17.16075 -17.57612499999999 17.16075 -17.57612499999999 Q17.16075 -17.57612499999999 17.16075 -17.57612499999999 L29.686125 -4.952124999999995 Q29.686125 -4.952124999999995 29.686125 -4.952124999999995 Q29.686125 -4.952124999999995 29.686125 -4.952124999999995 L32.842125 -8.108124999999987 L37.872 -3.078249999999997 L34.025625 0.7681250000000119 Z M71.897625 -30.890499999999996  77.7165 -36.610749999999996 Q77.7165 -36.610749999999996 77.7165 -36.610749999999996 Q77.7165 -36.610749999999996 77.7165 -36.610749999999996 L48.918 -65.40925 Q48.918 -65.40925 48.918 -65.40925 Q48.918 -65.40925 48.918 -65.40925 L43.099125 -59.68899999999999 Q43.099125 -59.68899999999999 43.099125 -59.68899999999999 Q43.099125 -59.68899999999999 43.099125 -59.68899999999999 L71.897625 -30.890499999999996 Q71.897625 -30.890499999999996 71.897625 -30.890499999999996 Q71.897625 -30.890499999999996 71.897625 -30.890499999999996 Z M46.057875 -4.952124999999995  51.778125 -10.672374999999988 Q51.778125 -10.672374999999988 51.778125 -10.672374999999988 Q51.778125 -10.672374999999988 51.778125 -10.672374999999988 L22.979625000000002 -39.47087499999999 Q22.979625000000002 -39.47087499999999 22.979625000000002 -39.47087499999999 Q22.979625000000002 -39.47087499999999 22.979625000000002 -39.47087499999999 L17.259375000000002 -33.75062499999999 Q17.259375000000002 -33.75062499999999 17.259375000000002 -33.75062499999999 Q17.259375000000002 -33.75062499999999 17.259375000000002 -33.75062499999999 L46.057875 -4.952124999999995 Q46.057875 -4.952124999999995 46.057875 -4.952124999999995 Q46.057875 -4.952124999999995 46.057875 -4.952124999999995 Z M45.564750000000004 -27.044124999999994  55.723125 -37.103874999999995  49.3125 -43.41587499999999  39.25275 -33.35612499999999  45.564750000000004 -27.044124999999994 Z M51.08775 0.07775000000000887 Q49.016625000000005 2.148875000000004 46.057875 2.148875000000004 Q43.099125 2.148875000000004 41.028 0.07775000000000887 L12.2295 -28.819374999999994 Q10.158375000000001 -30.890499999999996 10.158375000000001 -33.79993749999999 Q10.158375000000001 -36.709374999999994 12.2295 -38.780499999999996 L17.94975 -44.50075 Q19.9912875 -46.57187499999999 22.96483125 -46.57187499999999 Q25.938375 -46.57187499999999 28.009500000000003 -44.50075 L34.222875 -38.385999999999996 L44.282625 -48.544374999999995 L38.069250000000004 -54.659124999999996 Q35.998125 -56.73025 35.998125 -59.68899999999999 Q35.998125 -62.647749999999995 38.069250000000004 -64.718875 L43.888125 -70.43912499999999 Q45.9296625 -72.51025 48.903206250000004 -72.51025 Q51.87675 -72.51025 53.947875 -70.43912499999999 L82.845 -41.73924999999999 Q84.91612500000001 -39.69771249999999 84.91612500000001 -36.72416874999999 Q84.91612500000001 -33.75062499999999 82.845 -31.679499999999997 L77.02612500000001 -25.959249999999997 Q74.955 -23.888124999999988 71.99625 -23.888124999999988 Q69.03750000000001 -23.888124999999988 66.966375 -25.959249999999997 L60.654375 -32.172625 L50.594625 -22.01424999999999 L56.808 -15.80087499999999 Q58.879125 -13.729749999999996 58.9284375 -10.770999999999987 Q58.97775 -7.812249999999992 56.906625000000005 -5.741124999999997 L51.08775 0.07775000000000887 Z"/></g><g id="Light-S" transform="matrix(1 0 0 1 1109.75 696)"><path d="M77.12455275 -44.79662499999999  73.49830875 -48.42286899999999  76.221838125 -51.14639837499999 Q76.601149875 -51.525808749999996 76.601149875 -51.99999775 Q76.601149875 -52.474186749999994 76.221838125 -52.85349849999999 L64.9634985 -64.013213125 Q64.58418675 -64.39252487499999 64.10999775 -64.39252487499999 Q63.63580875 -64.39252487499999 63.256398375 -64.013213125 L60.631494 -61.289683749999995 L57.005250000000004 -64.91592775 L59.78193825 -67.791241 Q61.587466125000006 -69.596768875 64.12893375 -69.596768875 Q66.67040137500001 -69.596768875 68.47592925000001 -67.791241 L79.99986600000001 -56.267304249999995 Q81.805393875 -54.461776375 81.805393875 -51.969621249999996 Q81.805393875 -49.477466125 79.99986600000001 -47.67193825 L77.12455275 -44.79662499999999 Z M34.404936750000005 -2.0770089999999897 Q33.289783875 -0.9618561249999971 31.19212875 -0.5673561250000034 Q29.094473625 -0.1728561249999956 27.288945750000003 -1.9783839999999913 L15.127792875 -14.13953687499999 Q13.284294375 -15.953447874999995 13.284294375 -18.623522499999993 Q13.284294375 -21.29359712499999 15.127792875 -23.137095624999986 L17.75269725 -25.663374999999988 L21.37894125 -22.037130999999988 L18.7920075 -19.510851624999987 Q18.412597125 -19.131441249999995 18.412597125 -18.65725225 Q18.412597125 -18.18306324999999 18.7920075 -17.80375149999999 L29.9137515 -6.583382499999985 Q30.29306325 -6.203972124999993 30.76725225 -6.203972124999993 Q31.24144125 -6.203972124999993 31.620851625000004 -6.583382499999985 L34.24575600000001 -9.170316249999985 L37.872 -5.544072249999985 L34.404936750000005 -2.0770089999999897 Z M71.897625 -30.587030874999996  77.14743375 -35.738214625 Q77.526844125 -36.117625 77.526844125 -36.610749999999996 Q77.526844125 -37.103874999999995 77.14743375 -37.483285374999994 L49.790535375 -64.84018375 Q49.411125000000006 -65.219594125 48.918 -65.219594125 Q48.424875 -65.219594125 48.045464625 -64.84018375 L42.795655875 -59.68899999999999 Q42.4162455 -59.309688249999994 42.4162455 -58.83549925 Q42.4162455 -58.361211624999996 42.795655875 -57.98189987499999 L70.19052487500001 -30.587030874999996 Q70.56983662500001 -30.207620499999997 71.04412425000001 -30.207620499999997 Q71.51831325 -30.207620499999997 71.897625 -30.587030874999996 Z M46.930410375 -5.521191249999987  52.081594125 -10.634404374999988 Q52.4610045 -11.013814749999995 52.4610045 -11.48800374999999 Q52.4610045 -11.962192749999986 52.081594125 -12.341504499999985 L24.648754500000003 -39.77434412499999 Q24.26944275 -40.15375449999999 23.79525375 -40.15375449999999 Q23.32106475 -40.15375449999999 22.941654375000002 -39.77434412499999 L17.82844125 -34.62316037499999 Q17.449030875000002 -34.24374999999999 17.449030875000002 -33.75062499999999 Q17.449030875000002 -33.25749999999999 17.82844125 -32.878089624999994 L45.185339625000005 -5.521191249999987 Q45.564750000000004 -5.141780874999995 46.057875 -5.141780874999995 Q46.551 -5.141780874999995 46.930410375 -5.521191249999987 Z M45.337123500000004 -26.475058750000002  56.254220625 -37.331501499999995  49.5401265 -43.94697062499999  38.68368375 -33.12849849999999  45.337123500000004 -26.475058750000002 Z M50.51868375 -1.8569766249999873 Q48.675185250000006 -0.013478124999991792 46.057875 -0.013478124999991792 Q43.44056475 -0.013478124999991792 41.59706625 -1.8569766249999873 L14.164226625 -29.388441249999993 Q12.320728125 -31.231939749999995 12.320728125 -33.79993749999999 Q12.320728125 -36.367935249999995 14.164226625 -38.21143375 L19.315410375000003 -43.400588125 Q21.129321375 -45.244086624999994 23.799396 -45.244086624999994 Q26.469470625 -45.244086624999994 28.312969125000002 -43.400588125 L35.05743975 -36.7547425 L45.875911875 -47.671839625 L39.13144125 -54.355655875 Q37.28794275 -56.199154375 37.28794275 -58.83549925 Q37.28794275 -61.4717455 39.13144125 -63.31524399999999 L44.419220625 -68.504398375 Q46.233131625 -70.34789687499999 48.903206250000004 -70.34789687499999 Q51.573280875 -70.34789687499999 53.416779375000004 -68.504398375 L80.910273375 -41.20815437499999 Q82.75377187500001 -39.39424337499999 82.75377187500001 -36.72416874999999 Q82.75377187500001 -34.05409412499999 80.910273375 -32.210595624999996 L75.622494 -27.021441249999995 Q73.77899550000001 -25.177942749999985 71.14274925000001 -25.177942749999985 Q68.506404375 -25.177942749999985 66.662905875 -27.021441249999995 L59.781839625 -33.76591187499999 L48.9633675 -22.84881474999999 L55.707838125 -16.104344124999997 Q57.551336625000005 -14.260845624999988 57.600649125000004 -11.605564749999985 Q57.649961625 -8.950283874999997 55.80646312500001 -7.106785374999987 L50.51868375 -1.8569766249999873 Z"/></g><g id="Thin-S" transform="matrix(1 0 0 1 814.015 696)"><path d="M74.659125 -44.79662499999999  72.43631475000001 -47.01953387499999  74.62884712500001 -49.21196762499999 Q75.387470625 -49.97068974999999 75.387470625 -50.918969125 Q75.387470625 -51.867248499999995 74.62884712500001 -52.625970624999994 L64.73597062500001 -62.420222124999995 Q63.9772485 -63.178845624999994 63.028969125 -63.178845624999994 Q62.080689750000005 -63.178845624999994 61.321967625000006 -62.420222124999995 L59.228158875 -60.227689749999996 L57.005250000000004 -62.45049999999999 L59.402626500000004 -64.9465015 Q60.942655875 -66.486530875 63.06693975 -66.486530875 Q65.191125 -66.486530875 66.731253 -64.9465015 L77.15512650000001 -54.52262799999999 Q78.695155875 -52.982499999999995 78.695155875 -50.90762725 Q78.695155875 -48.83265587499999 77.15512650000001 -47.2926265 L74.659125 -44.79662499999999 Z M34.784248500000004 -4.9217484999999925 Q33.934594125000004 -4.0720941249999925 32.25412275 -3.677594124999999 Q30.57375 -3.283094124999991 29.033622 -4.823123499999994 L18.124217625 -15.732527874999988 Q16.508247 -17.318911 16.508247 -19.68551649999999 Q16.508247 -22.05222062499999 18.124217625 -23.668092625 L20.218125 -25.663374999999988 L22.440935250000003 -23.440466125 L20.422969125 -21.44528237499999 Q19.664247 -20.68656025 19.664247 -19.738280874999987 Q19.664247 -18.79000149999999 20.422969125 -18.031279374999997 L30.141279375000003 -8.214344124999997 Q30.900001500000002 -7.455621999999991 31.848280875 -7.455621999999991 Q32.796560250000006 -7.455621999999991 33.555282375000004 -8.214344124999997 L35.649091125000005 -10.232310249999998 L37.872 -8.009499999999989 L34.784248500000004 -4.9217484999999925 Z M71.897625 -30.283561749999997  76.57856475 -34.86587649999999 Q77.33718825 -35.6245 77.33718825 -36.610749999999996 Q77.33718825 -37.596999999999994 76.57856475 -38.35562349999999 L50.6628735 -64.27131474999999 Q49.904250000000005 -65.02993824999999 48.918 -65.02993824999999 Q47.93175 -65.02993824999999 47.1731265 -64.27131474999999 L42.49218675 -59.68899999999999 Q41.73356325 -58.930376499999994 41.73356325 -57.981998499999996 Q41.73356325 -57.033719125 42.49218675 -56.27509562499999 L68.483720625 -30.283561749999997 Q69.242344125 -29.52493824999999 70.1906235 -29.52493824999999 Q71.1390015 -29.52493824999999 71.897625 -30.283561749999997 Z M47.8027485 -6.090060249999993  52.38506325 -10.596532374999995 Q53.14368675 -11.355155874999994 53.14368675 -12.303435249999993 Q53.14368675 -13.251813249999998 52.38506325 -14.010436749999997 L26.31768675 -40.07781324999999 Q25.55906325 -40.83643675 24.610685250000003 -40.83643675 Q23.662405875 -40.83643675 22.903782375 -40.07781324999999 L18.39731025 -35.4954985 Q17.63868675 -34.736875 17.63868675 -33.75062499999999 Q17.63868675 -32.764374999999994 18.39731025 -32.005751499999995 L44.3130015 -6.090060249999993 Q45.071625000000004 -5.331436749999995 46.057875 -5.331436749999995 Q47.044125 -5.331436749999995 47.8027485 -6.090060249999993 Z M45.109595625000004 -25.906189749999996  56.785217625 -37.559029374999994  49.767654375000006 -44.477967625  38.11481475 -32.90097062499999  45.109595625000004 -25.906189749999996 Z M49.94981475 -3.7914073749999915 Q48.333844125 -2.1754367499999887 46.057875 -2.1754367499999887 Q43.781905875 -2.1754367499999887 42.165935250000004 -3.7914073749999915 L16.098657375000002 -29.957310249999992 Q14.482686750000001 -31.573280874999995 14.482686750000001 -33.79993749999999 Q14.482686750000001 -36.026594124999995 16.098657375000002 -37.64256474999999 L20.6808735 -42.30062349999999 Q22.267256624999998 -43.916594124999996 24.633862125 -43.916594124999996 Q27.000467625000002 -43.916594124999996 28.61643825 -42.30062349999999 L35.891905875 -35.123780874999994 L47.468902875000005 -46.79950149999999 L40.19343525 -54.05218675 Q38.577563250000004 -55.66815737499999 38.577563250000004 -57.981998499999996 Q38.577563250000004 -60.29593824999999 40.19343525 -61.911908874999995 L44.950217625 -66.569967625 Q46.53660075 -68.18593824999999 48.903206250000004 -68.18593824999999 Q51.26981175 -68.18593824999999 52.885782375000005 -66.569967625 L78.975842625 -40.67715737499999 Q80.59181325 -39.09077424999999 80.59181325 -36.72416874999999 Q80.59181325 -34.35756324999999 78.975842625 -32.741592624999996 L74.219158875 -28.083435249999994 Q72.60318825 -26.467563249999998 70.2892485 -26.467563249999998 Q67.975407375 -26.467563249999998 66.35943675 -28.083435249999994 L58.909501500000005 -35.358902875 L47.332405875 -23.683280874999994 L54.607873500000004 -16.40781324999999 Q56.223844125 -14.791842624999987 56.273156625000006 -12.44003087499999 Q56.322469125000005 -10.088219124999995 54.7064985 -8.472248499999992 L49.94981475 -3.7914073749999915 Z"/></g><g id="Ultralight-S" transform="matrix(1 0 0 1 517.792 696)"><path d="M73.17975 -44.79662499999999  71.799 -46.177375  73.672875 -48.051249999999996 Q74.659125 -49.037499999999994 74.659125 -50.270312499999996 Q74.659125 -51.503125 73.672875 -52.489374999999995 L64.59937500000001 -61.46424999999999 Q63.613125000000004 -62.45049999999999 62.3803125 -62.45049999999999 Q61.1475 -62.45049999999999 60.16125 -61.46424999999999 L58.386 -59.590374999999995 L57.005250000000004 -60.971124999999994 L59.175000000000004 -63.23949999999999 Q60.55575 -64.62025 62.429625 -64.62025 Q64.3035 -64.62025 65.68425 -63.23949999999999 L75.448125 -53.475624999999994 Q76.828875 -52.094874999999995 76.828875 -50.270312499999996 Q76.828875 -48.44575 75.448125 -47.065 L73.17975 -44.79662499999999 Z M35.011875 -6.628749999999997 Q34.3215 -5.9383749999999935 32.8914375 -5.543875 Q31.461375 -5.149374999999992 30.080625 -6.530124999999998 L19.922250000000002 -16.68849999999999 Q18.442875 -18.138287500000004 18.442875 -20.322831249999993 Q18.442875 -22.507374999999996 19.922250000000002 -23.98675 L21.6975 -25.663374999999988 L23.07825 -24.282624999999996 L21.401625 -22.605999999999995 Q20.415375 -21.619749999999996 20.415375 -20.386937499999988 Q20.415375 -19.154124999999993 21.401625 -18.167874999999995 L30.277875 -9.192999999999998 Q31.264125 -8.20675 32.4969375 -8.20675 Q33.72975 -8.20675 34.716 -9.192999999999998 L36.49125 -10.869625 L37.872 -9.488874999999993 L35.011875 -6.628749999999997 Z M71.897625 -30.101499999999994  76.237125 -34.342375 Q77.223375 -35.328624999999995 77.223375 -36.610749999999996 Q77.223375 -37.892875 76.237125 -38.879124999999995 L51.186375000000005 -63.929874999999996 Q50.200125 -64.916125 48.918 -64.916125 Q47.635875 -64.916125 46.649625 -63.929874999999996 L42.310125 -59.68899999999999 Q41.323875 -58.702749999999995 41.323875 -57.46993749999999 Q41.323875 -56.23712499999999 42.310125 -55.25087499999999 L67.4595 -30.101499999999994 Q68.44575 -29.115249999999996 69.6785625 -29.115249999999996 Q70.911375 -29.115249999999996 71.897625 -30.101499999999994 Z M48.32625 -6.4315  52.567125000000004 -10.57374999999999 Q53.553375 -11.559999999999988 53.553375 -12.792812499999997 Q53.553375 -14.025624999999991 52.567125000000004 -15.01187499999999 L27.319125 -40.259874999999994 Q26.332875 -41.24612499999999 25.1000625 -41.24612499999999 Q23.867250000000002 -41.24612499999999 22.881 -40.259874999999994 L18.73875 -36.01899999999999 Q17.7525 -35.03274999999999 17.7525 -33.75062499999999 Q17.7525 -32.46849999999999 18.73875 -31.482249999999993 L43.789500000000004 -6.4315 Q44.77575 -5.445249999999987 46.057875 -5.445249999999987 Q47.34 -5.445249999999987 48.32625 -6.4315 Z M44.973 -25.56474999999999  57.103875 -37.69562499999999  49.904250000000005 -44.79662499999999  37.773375 -32.764374999999994  44.973 -25.56474999999999 Z M49.608375 -4.952124999999995 Q48.129000000000005 -3.4727499999999907 46.057875 -3.4727499999999907 Q43.98675 -3.4727499999999907 42.507375 -4.952124999999995 L17.259375000000002 -30.29874999999999 Q15.780000000000001 -31.778124999999996 15.780000000000001 -33.79993749999999 Q15.780000000000001 -35.821749999999994 17.259375000000002 -37.30112499999999 L21.50025 -41.64062499999999 Q22.9500375 -43.12 25.13458125 -43.12 Q27.319125 -43.12 28.7985 -41.64062499999999 L36.392625 -34.14512499999999 L48.424875 -46.275999999999996 L40.83075 -53.870124999999994 Q39.351375000000004 -55.34949999999999 39.351375000000004 -57.46993749999999 Q39.351375000000004 -59.590374999999995 40.83075 -61.06975 L45.268875 -65.40925 Q46.7186625 -66.88862499999999 48.903206250000004 -66.88862499999999 Q51.08775 -66.88862499999999 52.567125000000004 -65.40925 L77.81512500000001 -40.35849999999999 Q79.2945 -38.90871249999999 79.2945 -36.72416874999999 Q79.2945 -34.539624999999994 77.81512500000001 -33.060249999999996 L73.37700000000001 -28.720749999999995 Q71.897625 -27.24137499999999 69.7771875 -27.24137499999999 Q67.65675 -27.24137499999999 66.177375 -28.720749999999995 L58.386 -36.314874999999994 L46.353750000000005 -24.183999999999997 L53.947875 -16.589874999999992 Q55.42725 -15.110499999999988 55.4765625 -12.940749999999994 Q55.525875 -10.770999999999987 54.0465 -9.291624999999996 L49.608375 -4.952124999999995 Z"/></g></g></svg>