<svg xmlns="http://www.w3.org/2000/svg" version="1.1" width="3300" height="2000"><g id="Notes"><style>
    text {
      font-family: monospace;
      text-anchor: middle;
    }
    text.emphasis {
      font-weight:bold;
    }
    text.lanchor {
      text-anchor: start;
    }
  </style><rect height="2200" id="artboard" fill="white" width="3300" x="0" y="0"/><line id="" style="fill:none;stroke:black;stroke-width:0.5;" x1="263" x2="3036" y1="292" y2="292"/><text class="lanchor emphasis" transform="matrix(1 0 0 1 263 322)">Weight/Scale Variations</text><text transform="matrix(1 0 0 1 559.711 322)">Ultralight</text><text transform="matrix(1 0 0 1 856.422 322)">Thin</text><text transform="matrix(1 0 0 1 1153.13 322)">Light</text><text transform="matrix(1 0 0 1 1449.84 322)">Regular</text><text transform="matrix(1 0 0 1 1746.56 322)">Medium</text><text transform="matrix(1 0 0 1 2043.27 322)">Semibold</text><text transform="matrix(1 0 0 1 2339.98 322)">Bold</text><text transform="matrix(1 0 0 1 2636.69 322)">Heavy</text><text transform="matrix(1 0 0 1 2933.4 322)">Black</text><text id="template-version" style="text-anchor: end;" transform="matrix(1 0 0 1 3036 1933)">Template v.1.0</text><text class="lanchor" transform="matrix(1 0 0 1 263 726)">Small</text><text class="lanchor" transform="matrix(1 0 0 1 263 1156)">Medium</text><text class="lanchor" transform="matrix(1 0 0 1 263 1586)">Large</text></g><g id="Guides"><g id="H-reference" style="fill:#27AAE1;stroke:none;" transform="matrix(1 0 0 1 339 696)"><path d="M 54.9316 0 L 57.666 0 L 30.5664 -70.459 L 28.0762 -70.459 L 0.976562 0 L 3.66211 0 L 12.9395 -24.4629 L 45.7031 -24.4629 Z M 29.1992 -67.0898 L 29.4434 -67.0898 L 44.8242 -26.709 L 13.8184 -26.709 Z"/></g><line id="Baseline-S" style="fill:none;stroke:#27AAE1;opacity:1;stroke-width:0.577;" x1="263" x2="3036" y1="696" y2="696"/><line id="Capline-S" style="fill:none;stroke:#27AAE1;opacity:1;stroke-width:0.577;" x1="263" x2="3036" y1="625.541" y2="625.541"/><g id="H-reference" style="fill:#27AAE1;stroke:none;" transform="matrix(1 0 0 1 339 1126)"><path d="M 54.9316 0 L 57.666 0 L 30.5664 -70.459 L 28.0762 -70.459 L 0.976562 0 L 3.66211 0 L 12.9395 -24.4629 L 45.7031 -24.4629 Z M 29.1992 -67.0898 L 29.4434 -67.0898 L 44.8242 -26.709 L 13.8184 -26.709 Z"/></g><line id="Baseline-M" style="fill:none;stroke:#27AAE1;opacity:1;stroke-width:0.577;" x1="263" x2="3036" y1="1126" y2="1126"/><line id="Capline-M" style="fill:none;stroke:#27AAE1;opacity:1;stroke-width:0.577;" x1="263" x2="3036" y1="1055.54" y2="1055.54"/><g id="H-reference" style="fill:#27AAE1;stroke:none;" transform="matrix(1 0 0 1 339 1556)"><path d="M 54.9316 0 L 57.666 0 L 30.5664 -70.459 L 28.0762 -70.459 L 0.976562 0 L 3.66211 0 L 12.9395 -24.4629 L 45.7031 -24.4629 Z M 29.1992 -67.0898 L 29.4434 -67.0898 L 44.8242 -26.709 L 13.8184 -26.709 Z"/></g><line id="Baseline-L" style="fill:none;stroke:#27AAE1;opacity:1;stroke-width:0.577;" x1="263" x2="3036" y1="1556" y2="1556"/><line id="Capline-L" style="fill:none;stroke:#27AAE1;opacity:1;stroke-width:0.577;" x1="263" x2="3036" y1="1485.54" y2="1485.54"/><rect height="119.336" id="left-margin" style="fill:darkred;stroke:none;opacity:0.4;" width="12.4512" x="1394.06" y="1030.79"/><rect height="119.336" id="right-margin" style="fill:darkgreen;stroke:none;opacity:0.4;" width="12.4512" x="1502.5112" y="1030.79"/><rect x="1406.5112" y="1045" width="96" height="96" fill="none" stroke="blue" stroke-dasharray="5"/><rect x="1394.06" y="1030.79" width="120.9024" height="119.336" fill="none" stroke="blue"/></g><g id="Symbols"><g id="Bold-L" transform="matrix(1 0 0 1 2266 1556)"><path d="M129.80625 0.0837500000000091 Q134.16 2.3412500000000307 137.143125 -1.3674999999999784 Q140.12625 -5.0762499999999875 137.86875 -9.107499999999987 L126.42 -30.71499999999999 L117.7125 -7.011249999999976 L129.80625 0.0837500000000091 Z M95.62125 -6.688749999999985 H107.23125 L122.55 -45.71124999999998 Q123.5175 -47.968749999999986 123.275625 -50.14562499999998 Q123.03375 -52.32249999999998 120.61500000000001 -53.45124999999999 L107.23125 -59.25624999999998 Q104.97375000000001 -60.38499999999998 102.71625 -59.25624999999998 Q100.45875000000001 -58.12749999999998 100.2975 -55.869999999999976 L95.62125 -6.688749999999985 Z M47.730000000000004 -6.688749999999985 H59.0175 L54.502500000000005 -55.869999999999976 Q54.34125 -58.28874999999998 52.325625 -59.41749999999999 Q50.31 -60.546249999999986 47.56875 -59.25624999999998 L34.83 -53.77374999999998 Q32.73375 -52.96749999999999 32.491875 -50.14562499999998 Q32.25 -47.32374999999999 33.05625 -45.06624999999998 L47.730000000000004 -6.688749999999985 Z M24.993750000000002 0.0837500000000091  37.0875 -7.011249999999976  28.380000000000003 -30.71499999999999  16.931250000000002 -8.301249999999982 Q14.67375 -3.7862499999999812 17.89875 -0.9643749999999756 Q21.12375 1.857500000000016 24.993750000000002 0.0837500000000091 Z M68.6925 -6.688749999999985 H85.94625 L91.2675 -65.38374999999999 Q91.59 -67.64124999999999 90.058125 -69.17312499999998 Q88.52625 -70.70499999999998 86.26875 -70.70499999999998 H68.53125 Q65.95125 -70.70499999999998 64.66125 -69.17312499999998 Q63.37125 -67.64124999999999 63.5325 -65.38374999999999 L68.6925 -6.688749999999985 Z M21.44625 13.628750000000025 Q13.545 13.628750000000025 8.143125 8.065625000000011 Q2.74125 2.502500000000026 2.74125 -5.398749999999978 Q2.74125 -7.817499999999981 3.466875 -10.074999999999989 Q4.1925 -12.332499999999982 5.32125 -14.589999999999975 L19.6725 -42.00249999999998 Q17.25375 -49.41999999999999 19.914375 -56.514999999999986 Q22.575 -63.609999999999985 29.50875 -66.51249999999999 L42.8925 -71.99499999999998 Q45.472500000000004 -72.96249999999998 48.133125 -73.20437499999998 Q50.79375 -73.44624999999999 53.2125 -72.15624999999999 Q53.8575 -77.79999999999998 58.3725 -80.94437499999998 Q62.8875 -84.08874999999998 68.53125 -84.08874999999998 H86.26875 Q91.91250000000001 -84.08874999999998 96.42750000000001 -81.18624999999999 Q100.94250000000001 -78.28374999999998 101.5875 -72.80124999999998 Q104.00625000000001 -73.60749999999999 106.666875 -73.365625 Q109.3275 -73.12374999999999 111.74625 -71.99499999999998 L125.29125 -66.51249999999999 Q132.225 -63.77124999999998 135.046875 -56.83749999999998 Q137.86875 -49.90374999999999 135.45000000000002 -42.969999999999985 L149.47875 -14.751249999999985 Q150.285 -12.654999999999987 151.171875 -10.478124999999977 Q152.05875 -8.301249999999982 152.05875 -6.043749999999989 Q152.05875 2.180000000000007 146.173125 7.904375000000016 Q140.2875 13.628750000000025 131.9025 13.628750000000025 Q129.80625 13.628750000000025 127.790625 12.82250000000002 Q125.775 12.016250000000014 123.84 11.210000000000008 L114.64875 6.695000000000022 H39.99 L31.44375 11.210000000000008 Q29.025000000000002 12.177500000000009 26.525625 12.903125000000017 Q24.02625 13.628750000000025 21.44625 13.628750000000025 Z"/></g><g id="Semibold-L" transform="matrix(1 0 0 1 1970.27 1556)"><path d="M129.80625 0.0837500000000091 Q134.16 2.3412500000000307 137.143125 -1.3674999999999784 Q140.12625 -5.0762499999999875 137.86875 -9.107499999999987 L126.42 -30.71499999999999 L117.7125 -7.011249999999976 L129.80625 0.0837500000000091 Z M95.62125 -6.688749999999985 H107.0909625 L122.55 -45.71124999999998 Q123.5175 -47.968749999999986 123.275625 -50.14562499999998 Q123.03375 -52.32249999999998 120.61500000000001 -53.45124999999999 L107.23125 -59.25624999999998 Q104.97375000000001 -60.38499999999998 102.71625 -59.25624999999998 Q100.45875000000001 -58.12749999999998 100.2975 -55.869999999999976 L95.62125 -6.688749999999985 Z M47.800143750000004 -6.688749999999985 H59.0175 L54.502500000000005 -55.869999999999976 Q54.34125 -58.28874999999998 52.325625 -59.41749999999999 Q50.31 -60.546249999999986 47.56875 -59.25624999999998 L34.83 -53.77374999999998 Q32.73375 -52.96749999999999 32.491875 -50.14562499999998 Q32.25 -47.32374999999999 33.05625 -45.06624999999998 L47.800143750000004 -6.688749999999985 Z M24.993750000000002 0.0837500000000091  37.0875 -7.011249999999976  28.380000000000003 -30.71499999999999  16.931250000000002 -8.301249999999982 Q14.67375 -3.7862499999999812 17.89875 -0.9643749999999756 Q21.12375 1.857500000000016 24.993750000000002 0.0837500000000091 Z M68.6925 -6.688749999999985 H85.94625 L91.2675 -65.38374999999999 Q91.59 -67.64124999999999 90.058125 -69.17312499999998 Q88.52625 -70.70499999999998 86.26875 -70.70499999999998 H68.53125 Q65.95125 -70.70499999999998 64.66125 -69.17312499999998 Q63.37125 -67.64124999999999 63.5325 -65.38374999999999 L68.6925 -6.688749999999985 Z M21.44625 12.016411250000004 Q14.24595375 12.016411250000004 9.299771250000001 6.908978750000017 Q4.35358875 1.8013850000000389 4.35358875 -5.398749999999978 Q4.35358875 -7.607229999999987 5.07921375 -9.68945124999999 Q5.804838750000001 -11.771672499999994 6.7934625 -13.818902499999979 L21.3549825 -41.862212499999984 Q18.9362325 -48.789028749999986 21.2814525 -55.49847999999999 Q23.62651125 -62.20793124999999 30.0695775 -64.97014374999998 L43.4533275 -70.45264375 Q46.033327500000006 -71.42014375 48.6939525 -71.6270275 Q51.354577500000005 -71.83391124999997 53.70318375 -70.47376749999998 Q54.6285975 -75.90724749999998 58.863183750000005 -79.19174874999999 Q63.09777 -82.47641124999998 68.53125 -82.47641124999998 H86.26875 Q91.70223 -82.47641124999998 95.93681625 -79.43362374999998 Q100.1714025 -76.39099749999998 101.09681625 -71.11876749999999 Q103.51556625 -71.99516124999998 106.14103875 -71.78827749999999 Q108.76667250000001 -71.58139374999999 111.18542250000002 -70.45264375 L124.73042250000002 -64.97014374999998 Q131.24347125 -62.43932499999998 133.71495000000002 -55.85597124999998 Q136.1862675 -49.272778749999986 133.62723 -42.829712499999985 L148.0065375 -13.980152499999974 Q148.74264374999998 -12.024028749999985 149.5945275 -10.05742374999997 Q150.44641125 -8.090979999999988 150.44641125 -6.043749999999989 Q150.44641125 1.5490287500000193 145.01647875 6.782720000000012 Q139.586385 12.016411250000004 131.9025 12.016411250000004 Q129.9465375 12.016411250000004 128.1411825 11.245152500000017 Q126.3358275 10.473893750000002 124.54111499999999 9.737787500000024 L115.06945125000001 5.082661250000001 H39.56929875 L30.672652499999998 9.737787500000024 Q28.4641725 10.635143749999997 26.1750675 11.325777500000015 Q23.8859625 12.016411250000004 21.44625 12.016411250000004 Z"/></g><g id="Medium-L" transform="matrix(1 0 0 1 1674.31 1556)"><path d="M129.80625 0.0837500000000091 Q134.16 2.3412500000000307 137.143125 -1.3674999999999784 Q140.12625 -5.0762499999999875 137.86875 -9.107499999999987 L126.42 -30.71499999999999 L117.7125 -7.011249999999976 L129.80625 0.0837500000000091 Z M95.62125 -6.688749999999985 H106.9858275 L122.55 -45.71124999999998 Q123.5175 -47.968749999999986 123.275625 -50.14562499999998 Q123.03375 -52.32249999999998 120.61500000000001 -53.45124999999999 L107.23125 -59.25624999999998 Q104.97375000000001 -60.38499999999998 102.71625 -59.25624999999998 Q100.45875000000001 -58.12749999999998 100.2975 -55.869999999999976 L95.62125 -6.688749999999985 Z M47.852711250000006 -6.688749999999985 H59.0175 L54.502500000000005 -55.869999999999976 Q54.34125 -58.28874999999998 52.325625 -59.41749999999999 Q50.31 -60.546249999999986 47.56875 -59.25624999999998 L34.83 -53.77374999999998 Q32.73375 -52.96749999999999 32.491875 -50.14562499999998 Q32.25 -47.32374999999999 33.05625 -45.06624999999998 L47.852711250000006 -6.688749999999985 Z M24.993750000000002 0.0837500000000091  37.0875 -7.011249999999976  28.380000000000003 -30.71499999999999  16.931250000000002 -8.301249999999982 Q14.67375 -3.7862499999999812 17.89875 -0.9643749999999756 Q21.12375 1.857500000000016 24.993750000000002 0.0837500000000091 Z M68.6925 -6.688749999999985 H85.94625 L91.2675 -65.38374999999999 Q91.59 -67.64124999999999 90.058125 -69.17312499999998 Q88.52625 -70.70499999999998 86.26875 -70.70499999999998 H68.53125 Q65.95125 -70.70499999999998 64.66125 -69.17312499999998 Q63.37125 -67.64124999999999 63.5325 -65.38374999999999 L68.6925 -6.688749999999985 Z M21.44625 10.80687500000002 Q14.771951249999999 10.80687500000002 10.167457500000001 6.041292500000026 Q5.563125 1.2755487500000129 5.563125 -5.398749999999978 Q5.563125 -7.449366249999983 6.28875 -9.400168749999992 Q7.014375 -11.350971249999986 7.8977025 -13.240337499999981 L22.61708625 -41.75707749999998 Q20.19833625 -48.31575999999998 22.306841249999998 -54.735928749999985 Q24.415346250000002 -61.15625874999999 30.490278749999998 -63.81333624999999 L43.87402875 -69.29583624999998 Q46.45402875 -70.26333624999998 49.11465375 -70.44393624999998 Q51.77527875 -70.62437499999999 54.071317500000006 -69.21166374999999 Q55.2071625 -74.48744124999999 59.2313175 -77.87707749999998 Q63.25563375 -81.26687499999998 68.53125 -81.26687499999998 H86.26875 Q91.54436625 -81.26687499999998 95.5686825 -78.11895249999998 Q99.5928375 -74.97119124999998 100.7286825 -69.85666374999998 Q103.1474325 -70.78562499999998 105.7467825 -70.60518624999997 Q108.34597125 -70.42458624999999 110.76472125000001 -69.29583624999998 L124.30972125000001 -63.81333624999999 Q130.507365 -61.44021999999998 132.715845 -55.11986499999999 Q134.92416375000002 -48.799509999999984 132.2601525 -42.72457749999998 L146.9022975 -13.401587499999977 Q147.58583625 -11.550759999999983 148.41143625 -9.742018749999971 Q149.236875 -7.933116249999983 149.236875 -6.043749999999989 Q149.236875 1.075760000000031 144.1487925 5.941317500000025 Q139.06054875 10.80687500000002 131.9025 10.80687500000002 Q130.05167250000002 10.80687500000002 128.40402 10.062061250000028 Q126.75652875 9.317086250000017 125.06695125 8.63354750000002 L115.38485625000001 3.873125000000016 H39.25389375 L30.0940875 8.63354750000002 Q28.043471250000003 9.478336250000012 25.91223 10.142686250000025 Q23.7808275 10.80687500000002 21.44625 10.80687500000002 Z"/></g><g id="Regular-L" transform="matrix(1 0 0 1 1378.56 1556)"><path d="M129.80625 0.0837500000000091 Q134.16 2.3412500000000307 137.143125 -1.3674999999999784 Q140.12625 -5.0762499999999875 137.86875 -9.107499999999987 L126.42 -30.71499999999999 L117.7125 -7.011249999999976 L129.80625 0.0837500000000091 Z M95.62125 -6.688749999999985 H106.90875 L122.55 -45.71124999999998 Q123.5175 -47.968749999999986 123.275625 -50.14562499999998 Q123.03375 -52.32249999999998 120.61500000000001 -53.45124999999999 L107.23125 -59.25624999999998 Q104.97375000000001 -60.38499999999998 102.71625 -59.25624999999998 Q100.45875000000001 -58.12749999999998 100.2975 -55.869999999999976 L95.62125 -6.688749999999985 Z M47.89125 -6.688749999999985 H59.0175 L54.502500000000005 -55.869999999999976 Q54.34125 -58.28874999999998 52.325625 -59.41749999999999 Q50.31 -60.546249999999986 47.56875 -59.25624999999998 L34.83 -53.77374999999998 Q32.73375 -52.96749999999999 32.491875 -50.14562499999998 Q32.25 -47.32374999999999 33.05625 -45.06624999999998 L47.89125 -6.688749999999985 Z M24.993750000000002 0.0837500000000091  37.0875 -7.011249999999976  28.380000000000003 -30.71499999999999  16.931250000000002 -8.301249999999982 Q14.67375 -3.7862499999999812 17.89875 -0.9643749999999756 Q21.12375 1.857500000000016 24.993750000000002 0.0837500000000091 Z M68.6925 -6.688749999999985 H85.94625 L91.2675 -65.38374999999999 Q91.59 -67.64124999999999 90.058125 -69.17312499999998 Q88.52625 -70.70499999999998 86.26875 -70.70499999999998 H68.53125 Q65.95125 -70.70499999999998 64.66125 -69.17312499999998 Q63.37125 -67.64124999999999 63.5325 -65.38374999999999 L68.6925 -6.688749999999985 Z M21.44625 9.920000000000016 Q15.1575 9.920000000000016 10.80375 5.40500000000003 Q6.45 0.8900000000000148 6.45 -5.398749999999978 Q6.45 -7.333749999999981 7.175625 -9.188124999999985 Q7.90125 -11.042499999999976 8.7075 -12.816249999999982 L23.5425 -41.67999999999998 Q21.12375 -47.968749999999986 23.05875 -54.17687499999998 Q24.993750000000002 -60.38499999999998 30.798750000000002 -62.96499999999999 L44.182500000000005 -68.44749999999999 Q46.7625 -69.41499999999999 49.423125 -69.57624999999999 Q52.08375 -69.73749999999998 54.34125 -68.28624999999998 Q55.63125 -73.44624999999999 59.50125 -76.91312499999998 Q63.37125 -80.37999999999998 68.53125 -80.37999999999998 H86.26875 Q91.42875000000001 -80.37999999999998 95.29875 -77.15499999999999 Q99.16875 -73.92999999999998 100.45875000000001 -68.93124999999998 Q102.8775 -69.89874999999998 105.4575 -69.73749999999998 Q108.03750000000001 -69.57624999999999 110.45625 -68.44749999999999 L124.00125 -62.96499999999999 Q129.9675 -60.70749999999998 131.983125 -54.579999999999984 Q133.99875 -48.452499999999986 131.2575 -42.64749999999998 L146.0925 -12.977499999999978 Q146.7375 -11.203749999999985 147.54375000000002 -9.510624999999976 Q148.35 -7.817499999999981 148.35 -6.043749999999989 Q148.35 0.7287500000000193 143.51250000000002 5.324375000000032 Q138.675 9.920000000000016 131.9025 9.920000000000016 Q130.12875 9.920000000000016 128.596875 9.194375000000008 Q127.065 8.468750000000028 125.4525 7.823750000000018 L115.61625000000001 2.9862500000000125 H39.0225 L29.67 7.823750000000018 Q27.735 8.630000000000024 25.719375 9.275000000000006 Q23.70375 9.920000000000016 21.44625 9.920000000000016 Z"/></g><g id="Light-L" transform="matrix(1 0 0 1 1082.77 1556)"><path d="M129.0 0.6419975000000306 Q134.22208125 3.3956637500000113 137.67025125 -0.9022937499999841 Q141.1185825 -5.20025124999998 138.4889175 -10.037912499999976 L126.10991625 -33.31999374999998 L115.97583750000001 -6.763086249999986 L129.0 0.6419975000000306 Z M94.38075375000001 -5.8204187499999875 H107.5289175 L123.29433 -44.90499999999999 Q124.57191375000001 -48.09275124999998 124.081875 -50.610831249999976 Q123.5919975 -53.12874999999998 120.73900125 -54.381662499999976 L107.47941375 -60.000579999999985 Q104.66366625 -61.31541249999998 101.94096 -60.217622499999976 Q99.21825375 -59.11983249999999 99.05700375 -56.242164999999986 L94.38075375000001 -5.8204187499999875 Z M47.2710825 -5.8204187499999875 H60.3200775 L55.74299625 -56.490167499999984 Q55.58174625 -59.094999999999985 53.069955 -60.28583124999999 Q50.55816375 -61.476662499999975 47.320586250000005 -60.000579999999985 L34.58183625 -54.642081249999976 Q31.865418750000003 -53.52574749999998 31.561462499999998 -50.362667499999986 Q31.2576675 -47.19974874999998 32.37400125 -44.197918749999985 L47.2710825 -5.8204187499999875 Z M25.8 0.6419975000000306  38.8241625 -6.763086249999986  28.814246250000004 -33.31999374999998  16.3110825 -9.169581249999979 Q13.61933625 -3.9102512499999875 17.37162375 -0.4991687499999813 Q21.12375 2.911913750000025 25.8 0.6419975000000306 Z M67.63808625 -5.8204187499999875 H87.06274499999999 L92.383995 -64.88758374999998 Q92.64441375 -67.64124999999999 90.864375 -69.54528999999998 Q89.0844975 -71.44932999999997 86.20666875 -71.44932999999997 H68.59333125 Q65.82724875 -71.44932999999997 64.0410825 -69.63833124999998 Q62.254755 -67.82733249999998 62.416005000000006 -65.13558624999999 L67.63808625 -5.8204187499999875 Z M21.95015625 8.431501250000025 Q16.118872500000002 8.431501250000025 12.09068625 4.381546250000014 Q8.06266125 0.33175250000002166 8.06266125 -5.398749999999978 Q8.06266125 -7.269894999999991 8.66412375 -9.063156249999992 Q9.265747500000002 -10.856417499999978 10.13407875 -12.568086249999979 L25.155161250000003 -41.67999999999998 Q22.860412500000002 -47.59658499999999 24.516288749999998 -53.40158499999998 Q26.172165 -59.20658499999999 31.543080000000003 -61.538421249999985 L44.8026675 -66.95900124999999 Q47.56875 -68.0505025 50.4154575 -68.11871124999999 Q53.262165 -68.18691999999999 55.519665 -66.36350499999999 Q56.1894975 -71.52350499999999 59.873415 -75.14550249999999 Q63.5573325 -78.76733875 68.6889525 -78.76733875 H86.20666875 Q91.30474875 -78.76733875 95.01962625 -75.44929749999999 Q98.73450375 -72.13125624999998 99.5283375 -67.07058624999999 Q101.69908500000001 -68.5961725 104.4961275 -68.34204249999999 Q107.29317 -68.08775124999998 109.8980025 -66.95900124999999 L123.25692000000001 -61.538421249999985 Q128.72700375 -59.46700374999999 130.52558625 -53.71166874999999 Q132.32416875 -47.956333749999985 129.76900125 -42.46141749999998 L144.78992250000002 -12.729336249999989 Q145.3730025 -11.203749999999985 146.11717125 -9.710091249999977 Q146.86150125 -8.216432499999996 146.86150125 -6.601997499999982 Q146.86150125 -0.26358249999998407 142.396005 4.083878750000025 Q137.93067 8.431501250000025 131.61999 8.431501250000025 Q130.00474875 8.431501250000025 128.638155 7.798917500000016 Q127.27172250000001 7.166172500000016 125.824665 6.5832537500000115 L115.74025125 1.4977512500000216 H39.0225 L29.35991625 6.459252500000019 Q27.61099875 7.203421250000019 25.781456249999998 7.817461250000008 Q23.95191375 8.431501250000025 21.95015625 8.431501250000025 Z"/></g><g id="Thin-L" transform="matrix(1 0 0 1 787.282 1556)"><path d="M128.19375 1.2000837500000046 Q134.28400125000002 4.4499162500000295 138.19737750000002 -0.43724874999998065 Q142.110915 -5.324252499999986 139.109085 -10.968002499999983 L125.79983250000001 -35.924503749999985 L114.2394975 -6.515083749999988 L128.19375 1.2000837500000046 Z M93.14041875000001 -4.952248749999981 H108.149085 L124.03849875 -44.09874999999998 Q125.62616625 -48.216752499999984 124.888125 -51.07587624999998 Q124.15008375000001 -53.93499999999999 120.86300250000001 -55.31175249999998 L107.72741625 -60.744748749999985 Q104.3535825 -62.245502499999986 101.16583125 -61.17883374999998 Q97.97791875 -60.112164999999976 97.81666875 -56.61416874999999 L93.14041875000001 -4.952248749999981 Z M46.650915 -4.952248749999981 H61.6223325 L56.98333125 -57.11033499999998 Q56.822081250000004 -59.90124999999999 53.81412375 -61.15400124999998 Q50.806166250000004 -62.40675249999998 47.07258375 -60.744748749999985 L34.333833750000004 -55.51025124999998 Q30.99724875 -54.08383374999998 30.631372499999998 -50.57970999999998 Q30.265335 -47.07574749999998 31.691913749999998 -43.32974874999998 L46.650915 -4.952248749999981 Z M26.60625 1.2000837500000046  40.560502500000005 -6.515083749999988  29.24833125 -35.924503749999985  15.690915000000002 -10.037751249999985 Q12.565083750000001 -4.03425249999998 16.8444975 -0.034123749999992015 Q21.12375 3.9661662500000148 26.60625 1.2000837500000046 Z M66.58383375 -4.952248749999981 H88.1789175 L93.5001675 -64.39141749999999 Q93.69866625 -67.64124999999999 91.670625 -69.91729374999998 Q89.64258375 -72.19349874999997 86.14474875 -72.19349874999997 H68.65525125 Q65.7032475 -72.19349874999997 63.420915 -70.10337624999998 Q61.1385825 -68.01341499999998 61.2998325 -64.88758374999998 L66.58383375 -4.952248749999981 Z M22.4540625 6.943163750000025 Q17.08008375 6.943163750000025 13.37746125 3.358415000000008 Q9.675 -0.22633374999998068 9.675 -5.398749999999978 Q9.675 -7.206201249999978 10.15246125 -8.938348749999989 Q10.63008375 -10.67033499999998 11.560334999999998 -12.32008374999998 L26.767500000000002 -41.67999999999998 Q24.5967525 -47.224581249999986 25.97366625 -52.626456249999976 Q27.350418750000003 -58.02833124999998 32.28724875 -60.112164999999976 L45.422835 -65.47066374999997 Q48.375 -66.68616624999999 51.40779 -66.66133374999998 Q54.440418750000006 -66.63650124999998 56.69791875 -64.4410825 Q56.747583750000004 -69.60108249999999 60.245418750000006 -73.37804124999998 Q63.743415 -77.15499999999999 68.846655 -77.15499999999999 H86.14474875 Q91.1807475 -77.15499999999999 94.7405025 -73.74391749999998 Q98.30041875 -70.33283499999999 98.5982475 -65.21008374999998 Q100.52083125 -67.29391749999999 103.53491625000001 -66.94658499999998 Q106.54900125 -66.59941374999998 109.33991625 -65.47066374999997 L122.51275125000001 -60.112164999999976 Q127.48666875 -58.22666874999999 129.06820875 -52.84349874999998 Q130.64974875000001 -47.46016749999998 128.28066375 -42.275334999999984 L143.48766750000001 -12.481333749999976 Q144.00866625 -11.203749999999985 144.690915 -9.909557499999991 Q145.37316375 -8.615364999999983 145.37316375 -7.160083749999984 Q145.37316375 -1.2559149999999875 141.2798325 2.843543750000009 Q137.18650125 6.943163750000025 131.33764125 6.943163750000025 Q129.8807475 6.943163750000025 128.67959625 6.403460000000024 Q127.478445 5.863917500000014 126.19666875 5.342918750000024 L115.8642525 0.009413750000021537 H39.0225 L29.0498325 5.094916250000011 Q27.486997499999998 5.777165000000025 25.843376250000002 6.36008375000003 Q24.19991625 6.943163750000025 22.4540625 6.943163750000025 Z"/></g><g id="Ultralight-L" transform="matrix(1 0 0 1 491.205 1556)"><path d="M127.71000000000001 1.535000000000025 Q134.32125 5.08250000000001 138.51375000000002 -0.15812499999998408 Q142.70625 -5.398749999999978 139.48125000000002 -11.526249999999976 L125.61375000000001 -37.48749999999998 L113.1975 -6.3662499999999795 L127.71000000000001 1.535000000000025 Z M92.39625000000001 -4.431249999999977 H108.52125000000001 L124.485 -43.61499999999998 Q126.25875 -48.29124999999998 125.371875 -51.35499999999999 Q124.485 -54.41874999999999 120.9375 -55.869999999999976 L107.87625 -61.19124999999998 Q104.1675 -62.80374999999998 100.700625 -61.75562499999998 Q97.23375 -60.70749999999998 97.0725 -56.83749999999998 L92.39625000000001 -4.431249999999977 Z M46.27875 -4.431249999999977 H62.40375 L57.7275 -57.48249999999999 Q57.566250000000004 -60.38499999999998 54.260625000000005 -61.67499999999998 Q50.955 -62.96499999999999 46.92375 -61.19124999999998 L34.185 -56.031249999999986 Q30.47625 -54.41874999999999 30.073125 -50.70999999999998 Q29.67 -47.001249999999985 31.282500000000002 -42.80874999999999 L46.27875 -4.431249999999977 Z M27.09 1.535000000000025  41.6025 -6.3662499999999795  29.50875 -37.48749999999998  15.31875 -10.558749999999975 Q11.932500000000001 -4.108749999999986 16.528125 0.24500000000000455 Q21.12375 4.598750000000024 27.09 1.535000000000025 Z M65.95125 -4.431249999999977 H88.84875 L94.17 -64.09374999999999 Q94.33125 -67.64124999999999 92.154375 -70.14062499999999 Q89.9775 -72.63999999999999 86.1075 -72.63999999999999 H68.6925 Q65.62875 -72.63999999999999 63.04875 -70.3825 Q60.46875 -68.12499999999999 60.63 -64.73874999999998 L65.95125 -4.431249999999977 Z M22.75640625 6.050000000000011 Q17.656875 6.050000000000011 14.1496875 2.7443750000000193 Q10.6425 -0.5612499999999869 10.6425 -5.398749999999978 Q10.6425 -7.167823749999982 11.045625000000001 -8.863367499999981 Q11.44875 -10.558749999999975 12.41625 -12.171249999999986 L27.735 -41.67999999999998 Q25.63875 -47.001249999999985 26.848125 -52.16124999999998 Q28.0575 -57.32124999999998 32.73375 -59.25624999999998 L45.795 -64.57749999999999 Q48.85875 -65.86749999999998 52.003125000000004 -65.78687499999998 Q55.1475 -65.70624999999998 57.405 -63.28749999999998 Q57.0825 -68.44749999999999 60.46875 -72.31749999999998 Q63.855000000000004 -76.18749999999999 68.94130875 -76.18749999999999 H86.1075 Q91.10625 -76.18749999999999 94.573125 -72.72062499999998 Q98.04 -69.25374999999998 98.04 -64.09374999999999 Q99.81375 -66.51249999999999 102.95812500000001 -66.10937499999999 Q106.1025 -65.70624999999998 109.00500000000001 -64.57749999999999 L122.06625 -59.25624999999998 Q126.7425 -57.48249999999999 128.19375 -52.32249999999998 Q129.645 -47.16249999999998 127.3875 -42.16374999999998 L142.70625 -12.332499999999982 Q143.19 -11.203749999999985 143.835 -10.02920499999999 Q144.48000000000002 -8.854659999999981 144.48000000000002 -7.494999999999976 Q144.48000000000002 -1.851249999999979 140.61 2.099375000000009 Q136.74 6.050000000000011 131.1681675 6.050000000000011 Q129.80625 6.050000000000011 128.70442875 5.566250000000025 Q127.60244625 5.08250000000001 126.42 4.598750000000024 L115.93875 -0.8837499999999778 H39.0225 L28.86375 4.2762500000000045 Q27.4125 4.921250000000015 25.880625000000002 5.485625000000027 Q24.34875 6.050000000000011 22.75640625 6.050000000000011 Z"/></g><g id="Bold-M" transform="matrix(1 0 0 1 2281.8 1126)"><path d="M100.5 -10.47999999999999 Q102.625 -9.35499999999999 104.25 -10.97999999999999 Q105.875 -12.60499999999999 104.75 -14.72999999999999 L97.5 -28.22999999999999 L92.25 -14.72999999999999 L100.5 -10.47999999999999 Z M75.5 -15.22999999999999 H81.75 L93.5 -44.97999999999999 Q93.875 -45.97999999999999 93.3125 -46.66749999999999 Q92.75 -47.35499999999999 92.0 -47.72999999999999 L82.0 -51.72999999999999 Q80.875 -52.10499999999999 79.8125 -51.47999999999999 Q78.75 -50.85499999999999 78.5 -49.72999999999999 L75.5 -15.22999999999999 Z M38.25 -15.22999999999999 H44.5 L41.5 -49.72999999999999 Q41.25 -51.10499999999999 40.1875 -51.60499999999999 Q39.125 -52.10499999999999 38.0 -51.72999999999999 L28.0 -47.72999999999999 Q27.0 -47.35499999999999 26.5625 -46.66749999999999 Q26.125 -45.97999999999999 26.5 -44.97999999999999 L38.25 -15.22999999999999 Z M19.5 -10.47999999999999  27.75 -14.72999999999999  22.5 -28.22999999999999  15.25 -14.72999999999999 Q14.125 -12.60499999999999 15.75 -10.97999999999999 Q17.375 -9.35499999999999 19.5 -10.47999999999999 Z M54.5 -15.22999999999999 H65.5 L69.25 -57.47999999999999 Q69.5 -58.60499999999999 68.6875 -59.41749999999999 Q67.875 -60.22999999999999 66.75 -60.22999999999999 H53.25 Q52.25 -60.22999999999999 51.4375 -59.41749999999999 Q50.625 -58.60499999999999 50.75 -57.47999999999999 L54.5 -15.22999999999999 Z M17.25 3.6450000000000102 Q10.375 3.6450000000000102 5.75 -1.4174999999999898 Q1.125 -6.47999999999999 1.125 -13.47999999999999 Q1.125 -15.47999999999999 1.5625 -17.35499999999999 Q2.0 -19.22999999999999 3.0 -20.97999999999999 L13.5 -40.60499999999999 Q11.75 -46.72999999999999 14.3125 -52.47999999999999 Q16.875 -58.22999999999999 22.875 -60.60499999999999 L32.875 -64.60499999999999 Q34.625 -65.22999999999999 36.4375 -65.60499999999999 Q38.25 -65.97999999999999 40.125 -65.72999999999999 Q41.375 -69.85499999999999 45.125 -71.97999999999999 Q48.875 -74.10499999999999 53.25 -74.10499999999999 H66.75 Q71.125 -74.10499999999999 74.875 -71.97999999999999 Q78.625 -69.85499999999999 79.875 -65.72999999999999 Q81.75 -65.72999999999999 83.5625 -65.47999999999999 Q85.375 -65.22999999999999 87.125 -64.60499999999999 L97.125 -60.60499999999999 Q103.125 -58.10499999999999 105.9375 -52.41749999999999 Q108.75 -46.72999999999999 106.75 -40.72999999999999 L117.0 -21.22999999999999 Q118.0 -19.47999999999999 118.4375 -17.54249999999999 Q118.875 -15.60499999999999 118.875 -13.47999999999999 Q118.875 -6.35499999999999 113.875 -1.3549999999999898 Q108.875 3.6450000000000102 101.75 3.6450000000000102 Q99.875 3.6450000000000102 98.0625 3.2700000000000102 Q96.25 2.8950000000000102 94.5 2.0200000000000102 L87.5 -1.3549999999999898 H32.25 L26.0 2.0200000000000102 Q24.0 3.0200000000000102 21.75 3.3325000000000102 Q19.5 3.6450000000000102 17.25 3.6450000000000102 Z"/></g><g id="Semibold-M" transform="matrix(1 0 0 1 1985.97 1126)"><path d="M100.5 -10.47999999999999 Q102.625 -9.35499999999999 104.25 -10.97999999999999 Q105.875 -12.60499999999999 104.75 -14.72999999999999 L97.5 -28.22999999999999 L92.25 -14.72999999999999 L100.5 -10.47999999999999 Z M75.5 -15.22999999999999 H81.64125 L93.5 -44.97999999999999 Q93.875 -45.97999999999999 93.3125 -46.66749999999999 Q92.75 -47.35499999999999 92.0 -47.72999999999999 L82.0 -51.72999999999999 Q80.875 -52.10499999999999 79.8125 -51.47999999999999 Q78.75 -50.85499999999999 78.5 -49.72999999999999 L75.5 -15.22999999999999 Z M38.35875 -15.22999999999999 H44.5 L41.5 -49.72999999999999 Q41.25 -51.10499999999999 40.1875 -51.60499999999999 Q39.125 -52.10499999999999 38.0 -51.72999999999999 L28.0 -47.72999999999999 Q27.0 -47.35499999999999 26.5625 -46.66749999999999 Q26.125 -45.97999999999999 26.5 -44.97999999999999 L38.35875 -15.22999999999999 Z M19.5 -10.47999999999999  27.75 -14.72999999999999  22.5 -28.22999999999999  15.25 -14.72999999999999 Q14.125 -12.60499999999999 15.75 -10.97999999999999 Q17.375 -9.35499999999999 19.5 -10.47999999999999 Z M54.5 -15.22999999999999 H65.5 L69.25 -57.47999999999999 Q69.5 -58.60499999999999 68.6875 -59.41749999999999 Q67.875 -60.22999999999999 66.75 -60.22999999999999 H53.25 Q52.25 -60.22999999999999 51.4375 -59.41749999999999 Q50.625 -58.60499999999999 50.75 -57.47999999999999 L54.5 -15.22999999999999 Z M17.25 1.9603750000000133 Q11.0815 1.9603750000000133 6.945625 -2.6131249999999966 Q2.809625 -7.186499999999995 2.809625 -13.47999999999999 Q2.809625 -15.262624999999986 3.247125 -16.947374999999994 Q3.684625 -18.632249999999985 4.521625 -20.21912499999999 L15.239 -40.44199999999999 Q13.489 -46.07787499999999 15.752625 -51.44749999999999 Q18.01625 -56.81699999999999 23.47275 -59.02899999999999 L33.47275 -63.02899999999999 Q35.22275 -63.65399999999999 37.008125 -63.97462499999999 Q38.7935 -64.29537499999999 40.614125 -63.99099999999999 Q42.0815 -67.89862499999998 45.55975 -70.15949999999998 Q49.038 -72.42037499999999 53.25 -72.42037499999999 H66.75 Q70.962 -72.42037499999999 74.44025 -70.15949999999998 Q77.9185 -67.89862499999998 79.385875 -63.99099999999999 Q81.2065 -64.09962499999999 82.991875 -63.87687499999999 Q84.77725 -63.65399999999999 86.52725 -63.02899999999999 L96.52725 -59.02899999999999 Q102.0925 -56.746374999999986 104.55175 -51.41212499999999 Q107.011 -46.07787499999999 104.90225 -40.62124999999999 L115.478375 -20.46912499999999 Q116.369625 -18.882249999999985 116.78 -17.134874999999994 Q117.190375 -15.387624999999986 117.190375 -13.47999999999999 Q117.190375 -7.007124999999988 112.706625 -2.5233749999999873 Q108.222875 1.9603750000000133 101.75 1.9603750000000133 Q100.092375 1.9603750000000133 98.470125 1.6125000000000114 Q96.84775 1.2646250000000094 95.260875 0.49837500000001 L87.93475 -3.0396249999999867 H31.81525 L25.239125 0.49837500000001 Q23.40225 1.4440000000000168 21.342375 1.7021250000000094 Q19.282625 1.9603750000000133 17.25 1.9603750000000133 Z"/></g><g id="Medium-M" transform="matrix(1 0 0 1 1689.91 1126)"><path d="M100.5 -10.47999999999999 Q102.625 -9.35499999999999 104.25 -10.97999999999999 Q105.875 -12.60499999999999 104.75 -14.72999999999999 L97.5 -28.22999999999999 L92.25 -14.72999999999999 L100.5 -10.47999999999999 Z M75.5 -15.22999999999999 H81.55975 L93.5 -44.97999999999999 Q93.875 -45.97999999999999 93.3125 -46.66749999999999 Q92.75 -47.35499999999999 92.0 -47.72999999999999 L82.0 -51.72999999999999 Q80.875 -52.10499999999999 79.8125 -51.47999999999999 Q78.75 -50.85499999999999 78.5 -49.72999999999999 L75.5 -15.22999999999999 Z M38.44025 -15.22999999999999 H44.5 L41.5 -49.72999999999999 Q41.25 -51.10499999999999 40.1875 -51.60499999999999 Q39.125 -52.10499999999999 38.0 -51.72999999999999 L28.0 -47.72999999999999 Q27.0 -47.35499999999999 26.5625 -46.66749999999999 Q26.125 -45.97999999999999 26.5 -44.97999999999999 L38.44025 -15.22999999999999 Z M19.5 -10.47999999999999  27.75 -14.72999999999999  22.5 -28.22999999999999  15.25 -14.72999999999999 Q14.125 -12.60499999999999 15.75 -10.97999999999999 Q17.375 -9.35499999999999 19.5 -10.47999999999999 Z M54.5 -15.22999999999999 H65.5 L69.25 -57.47999999999999 Q69.5 -58.60499999999999 68.6875 -59.41749999999999 Q67.875 -60.22999999999999 66.75 -60.22999999999999 H53.25 Q52.25 -60.22999999999999 51.4375 -59.41749999999999 Q50.625 -58.60499999999999 50.75 -57.47999999999999 L54.5 -15.22999999999999 Z M17.25 0.6966250000000116 Q11.611375 0.6966250000000116 7.842375 -3.509874999999994 Q4.073375 -7.716374999999985 4.073375 -13.47999999999999 Q4.073375 -15.099624999999989 4.510875 -16.641749999999988 Q4.948375 -18.18374999999999 5.663 -19.648499999999984 L16.5435 -40.31962499999999 Q14.7935 -45.58874999999999 16.832875 -50.67299999999999 Q18.87225 -55.75724999999999 23.92125 -57.84687499999999 L33.92125 -61.84687499999999 Q35.67125 -62.47187499999999 37.436125 -62.75174999999999 Q39.201125 -63.03162499999999 40.981 -62.68649999999999 Q42.611375 -66.43112499999998 45.885875 -68.79387499999999 Q49.160375 -71.15662499999999 53.25 -71.15662499999999 H66.75 Q70.839625 -71.15662499999999 74.114125 -68.79387499999999 Q77.388625 -66.43112499999998 79.019 -62.68649999999999 Q80.798875 -62.87674999999999 82.563875 -62.67437499999999 Q84.32875 -62.47187499999999 86.07875 -61.84687499999999 L96.07875 -57.84687499999999 Q101.318 -55.72724999999999 103.51225 -50.65799999999999 Q105.7065 -45.58874999999999 103.516375 -40.539749999999984 L114.337 -19.898499999999984 Q115.14675 -18.43374999999999 115.53675 -16.829249999999988 Q115.926625 -15.224624999999989 115.926625 -13.47999999999999 Q115.926625 -7.496249999999989 111.830125 -3.3998749999999944 Q107.73375 0.6966250000000116 101.75 0.6966250000000116 Q100.255375 0.6966250000000116 98.77575 0.36925000000000807 Q97.29625 0.0417500000000075 95.8315 -0.6429999999999865 L88.260875 -4.303374999999988 H31.489125 L24.6685 -0.6429999999999865 Q22.95375 0.2618750000000034 21.03675 0.4792500000000075 Q19.119625 0.6966250000000116 17.25 0.6966250000000116 Z"/></g><g id="Regular-M" transform="matrix(1 0 0 1 1394.06 1126)"><path d="M100.5 -10.47999999999999 Q102.625 -9.35499999999999 104.25 -10.97999999999999 Q105.875 -12.60499999999999 104.75 -14.72999999999999 L97.5 -28.22999999999999 L92.25 -14.72999999999999 L100.5 -10.47999999999999 Z M75.5 -15.22999999999999 H81.5 L93.5 -44.97999999999999 Q93.875 -45.97999999999999 93.3125 -46.66749999999999 Q92.75 -47.35499999999999 92.0 -47.72999999999999 L82.0 -51.72999999999999 Q80.875 -52.10499999999999 79.8125 -51.47999999999999 Q78.75 -50.85499999999999 78.5 -49.72999999999999 L75.5 -15.22999999999999 Z M38.5 -15.22999999999999 H44.5 L41.5 -49.72999999999999 Q41.25 -51.10499999999999 40.1875 -51.60499999999999 Q39.125 -52.10499999999999 38.0 -51.72999999999999 L28.0 -47.72999999999999 Q27.0 -47.35499999999999 26.5625 -46.66749999999999 Q26.125 -45.97999999999999 26.5 -44.97999999999999 L38.5 -15.22999999999999 Z M19.5 -10.47999999999999  27.75 -14.72999999999999  22.5 -28.22999999999999  15.25 -14.72999999999999 Q14.125 -12.60499999999999 15.75 -10.97999999999999 Q17.375 -9.35499999999999 19.5 -10.47999999999999 Z M54.5 -15.22999999999999 H65.5 L69.25 -57.47999999999999 Q69.5 -58.60499999999999 68.6875 -59.41749999999999 Q67.875 -60.22999999999999 66.75 -60.22999999999999 H53.25 Q52.25 -60.22999999999999 51.4375 -59.41749999999999 Q50.625 -58.60499999999999 50.75 -57.47999999999999 L54.5 -15.22999999999999 Z M17.25 -0.22999999999998977 Q12.0 -0.22999999999998977 8.5 -4.16749999999999 Q5.0 -8.10499999999999 5.0 -13.47999999999999 Q5.0 -14.97999999999999 5.4375 -16.41749999999999 Q5.875 -17.85499999999999 6.5 -19.22999999999999 L17.5 -40.22999999999999 Q15.75 -45.22999999999999 17.625 -50.10499999999999 Q19.5 -54.97999999999999 24.25 -56.97999999999999 L34.25 -60.97999999999999 Q36.0 -61.60499999999999 37.75 -61.85499999999999 Q39.5 -62.10499999999999 41.25 -61.72999999999999 Q43.0 -65.35499999999999 46.125 -67.79249999999999 Q49.25 -70.22999999999999 53.25 -70.22999999999999 H66.75 Q70.75 -70.22999999999999 73.875 -67.79249999999999 Q77.0 -65.35499999999999 78.75 -61.72999999999999 Q80.5 -61.97999999999999 82.25 -61.79249999999999 Q84.0 -61.60499999999999 85.75 -60.97999999999999 L95.75 -56.97999999999999 Q100.75 -54.97999999999999 102.75 -50.10499999999999 Q104.75 -45.22999999999999 102.5 -40.47999999999999 L113.5 -19.47999999999999 Q114.25 -18.10499999999999 114.625 -16.60499999999999 Q115.0 -15.10499999999999 115.0 -13.47999999999999 Q115.0 -7.85499999999999 111.1875 -4.04249999999999 Q107.375 -0.22999999999998977 101.75 -0.22999999999998977 Q100.375 -0.22999999999998977 99.0 -0.5424999999999898 Q97.625 -0.8549999999999898 96.25 -1.4799999999999898 L88.5 -5.22999999999999 H31.25 L24.25 -1.4799999999999898 Q22.625 -0.6049999999999898 20.8125 -0.41749999999998977 Q19.0 -0.22999999999998977 17.25 -0.22999999999998977 Z"/></g><g id="Light-M" transform="matrix(1 0 0 1 1098.18 1126)"><path d="M99.923 -9.32612499999999 Q103.05775 -7.672124999999994 105.211625 -10.090499999999992 Q107.3655 -12.508874999999989 105.80775 -15.49924999999999 L97.403875 -31.210999999999984 L90.61525 -14.152999999999992 L99.923 -9.32612499999999 Z M74.15375 -13.979874999999993 H82.3655 L94.461625 -43.92224999999999 Q95.22125 -45.83574999999999 94.562625 -47.05212499999999 Q93.903875 -48.26849999999999 92.48075 -48.88387499999999 L82.48075 -52.88387499999999 Q80.778875 -53.54737499999999 79.1875 -52.874374999999986 Q77.596125 -52.20124999999999 77.346125 -50.40312499999999 L74.15375 -13.979874999999993 Z M37.6345 -13.979874999999993 H45.84625 L42.653875 -50.59549999999999 Q42.403875 -52.25887499999999 40.860625 -52.90312499999999 Q39.317375 -53.54737499999999 37.51925 -52.88387499999999 L27.51925 -48.88387499999999 Q25.894125 -48.22049999999999 25.48075 -46.85987499999999 Q25.06725 -45.49924999999999 25.73075 -43.72987499999999 L37.6345 -13.979874999999993 Z M20.077 -9.32612499999999  29.38475 -14.152999999999992  22.692375 -31.210999999999984  14.19225 -15.306999999999988 Q12.538375 -12.268374999999992 14.812375 -10.018374999999992 Q17.0865 -7.768374999999992 20.077 -9.32612499999999 Z M53.346125 -13.979874999999993 H66.653875 L70.500125 -57.38387499999999 Q70.750125 -59.08574999999999 69.649125 -60.28299999999999 Q68.548125 -61.48012499999999 66.75 -61.48012499999999 H53.25 Q51.81725 -61.48012499999999 50.572 -60.35512499999999 Q49.326875 -59.22999999999999 49.499875 -57.57612499999999 L53.346125 -13.979874999999993 Z M17.448375 -1.383874999999989 Q12.649125 -1.383874999999989 9.449625 -4.840624999999989 Q6.250125 -8.297374999999988 6.250125 -13.09537499999999 Q6.250125 -14.545874999999995 6.6395 -15.935999999999993 Q7.028875 -17.32612499999999 7.653875 -18.65299999999999 L18.942375 -40.22999999999999 Q17.2405 -44.89337499999999 18.803 -49.45587499999999 Q20.3655 -54.01837499999999 24.73075 -55.82612499999999 L34.73075 -59.82612499999999 Q36.673125 -60.59524999999999 38.6635 -60.72512499999999 Q40.653875 -60.85487499999999 42.403875 -59.99912499999999 Q43.48075 -63.76837499999999 46.4135 -66.37412499999999 Q49.346125 -68.97987499999999 53.324125 -68.97987499999999 H66.75 Q70.701875 -68.97987499999999 73.658625 -66.44624999999999 Q76.615375 -63.91262499999999 77.788375 -60.19137499999999 Q79.394125 -61.01837499999999 81.3845 -60.78274999999999 Q83.375 -60.54724999999999 85.26925 -59.82612499999999 L95.26925 -55.82612499999999 Q99.788375 -54.01837499999999 101.499875 -49.47999999999999 Q103.211375 -44.94149999999999 101.15375 -40.47999999999999 L112.44225 -18.90299999999999 Q113.096125 -17.67224999999999 113.471125 -16.374999999999986 Q113.846125 -15.077749999999995 113.846125 -13.672374999999988 Q113.846125 -8.528124999999989 110.322 -4.955999999999989 Q106.798 -1.383874999999989 101.67525 -1.383874999999989 Q100.423125 -1.383874999999989 99.224375 -1.6723749999999882 Q98.025625 -1.9608749999999873 96.827 -2.5377499999999884 L88.884625 -6.480124999999987 H30.9615 L23.673 -2.633874999999989 Q22.240375 -1.8551249999999868 20.64425 -1.619499999999988 Q19.048125 -1.383874999999989 17.448375 -1.383874999999989 Z"/></g><g id="Thin-M" transform="matrix(1 0 0 1 802.565 1126)"><path d="M99.346125 -8.172374999999988 Q103.490375 -5.9896249999999895 106.173125 -9.20112499999999 Q108.85575 -12.412749999999988 106.865375 -16.26849999999999 L97.30775 -34.19149999999999 L88.98075 -13.57612499999999 L99.346125 -8.172374999999988 Z M72.80775 -12.72999999999999 H83.23075 L95.423125 -42.86462499999999 Q96.56725 -45.69149999999999 95.8125 -47.43674999999999 Q95.057625 -49.18187499999999 92.9615 -50.03762499999999 L82.9615 -54.03762499999999 Q80.68275 -54.98962499999999 78.5625 -54.26849999999999 Q76.442375 -53.54724999999999 76.192375 -51.07612499999999 L72.80775 -12.72999999999999 Z M36.76925 -12.72999999999999 H47.19225 L43.807625 -51.46074999999999 Q43.557625 -53.41262499999999 41.533625 -54.20112499999999 Q39.509625 -54.98962499999999 37.0385 -54.03762499999999 L27.0385 -50.03762499999999 Q24.7885 -49.08574999999999 24.399 -47.05212499999999 Q24.009625 -45.01849999999999 24.9615 -42.47999999999999 L36.76925 -12.72999999999999 Z M20.653875 -8.172374999999988  31.01925 -13.57612499999999  22.884625 -34.19149999999999  13.134625 -15.883874999999989 Q10.951875 -11.931874999999991 13.875 -9.056874999999991 Q16.798125 -6.181999999999988 20.653875 -8.172374999999988 Z M52.192375 -12.72999999999999 H67.807625 L71.75 -57.28774999999999 Q72.0 -59.56649999999999 70.610625 -61.14824999999999 Q69.221125 -62.72999999999999 66.75 -62.72999999999999 H53.25 Q51.384625 -62.72999999999999 49.70675 -61.29249999999999 Q48.028875 -59.85499999999999 48.25 -57.67224999999999 L52.192375 -12.72999999999999 Z M17.646625 -2.5376249999999914 Q13.298125 -2.5376249999999914 10.399 -5.5136249999999905 Q7.5 -8.48962499999999 7.5 -12.71074999999999 Q7.5 -14.111874999999984 7.841375 -15.454624999999993 Q8.182625 -16.797374999999988 8.807625 -18.07612499999999 L20.384625 -40.22999999999999 Q18.73075 -44.55687499999999 19.98075 -48.80687499999999 Q21.23075 -53.05687499999999 25.2115 -54.67237499999999 L35.2115 -58.67237499999999 Q37.346125 -59.58574999999999 39.576875 -59.59537499999999 Q41.807625 -59.60499999999999 43.557625 -58.26849999999999 Q43.9615 -62.18199999999999 46.701875 -64.95599999999999 Q49.44225 -67.72999999999999 53.398375 -67.72999999999999 H66.75 Q70.653875 -67.72999999999999 73.44225 -65.10024999999999 Q76.23075 -62.47037499999999 76.826875 -58.65312499999999 Q78.2885 -60.05687499999999 80.51925 -59.77324999999999 Q82.75 -59.48962499999999 84.7885 -58.67237499999999 L94.7885 -54.67237499999999 Q98.826875 -53.05687499999999 100.25 -48.85499999999999 Q101.673125 -44.65312499999999 99.80775 -40.47999999999999 L111.384625 -18.32612499999999 Q111.942375 -17.23962499999999 112.317375 -16.144999999999996 Q112.692375 -15.050374999999988 112.692375 -13.86462499999999 Q112.692375 -9.20112499999999 109.45675 -5.869374999999991 Q106.221125 -2.5376249999999914 101.600625 -2.5376249999999914 Q100.471125 -2.5376249999999914 99.44875 -2.8021249999999895 Q98.42625 -3.0664999999999907 97.403875 -3.59537499999999 L89.26925 -7.72999999999999 H30.673125 L23.096125 -3.7876249999999914 Q21.85575 -3.1049999999999898 20.476 -2.821374999999989 Q19.096125 -2.5376249999999914 17.646625 -2.5376249999999914 Z"/></g><g id="Ultralight-M" transform="matrix(1 0 0 1 506.415 1126)"><path d="M99.0 -7.47999999999999 Q103.75 -4.97999999999999 106.75 -8.66749999999999 Q109.75 -12.35499999999999 107.5 -16.72999999999999 L97.25 -35.97999999999999 L88.0 -13.22999999999999 L99.0 -7.47999999999999 Z M72.0 -11.97999999999999 H83.75 L96.0 -42.22999999999999 Q97.375 -45.60499999999999 96.5625 -47.66749999999999 Q95.75 -49.72999999999999 93.25 -50.72999999999999 L83.25 -54.72999999999999 Q80.625 -55.85499999999999 78.1875 -55.10499999999999 Q75.75 -54.35499999999999 75.5 -51.47999999999999 L72.0 -11.97999999999999 Z M36.25 -11.97999999999999 H48.0 L44.5 -51.97999999999999 Q44.25 -54.10499999999999 41.9375 -54.97999999999999 Q39.625 -55.85499999999999 36.75 -54.72999999999999 L26.75 -50.72999999999999 Q24.125 -49.60499999999999 23.75 -47.16749999999999 Q23.375 -44.72999999999999 24.5 -41.72999999999999 L36.25 -11.97999999999999 Z M21.0 -7.47999999999999  32.0 -13.22999999999999  23.0 -35.97999999999999  12.5 -16.22999999999999 Q10.0 -11.72999999999999 13.3125 -8.47999999999999 Q16.625 -5.22999999999999 21.0 -7.47999999999999 Z M51.5 -11.97999999999999 H68.5 L72.5 -57.22999999999999 Q72.75 -59.85499999999999 71.1875 -61.66749999999999 Q69.625 -63.47999999999999 66.75 -63.47999999999999 H53.25 Q51.125 -63.47999999999999 49.1875 -61.85499999999999 Q47.25 -60.22999999999999 47.5 -57.72999999999999 L51.5 -11.97999999999999 Z M17.765625 -3.2299999999999898 Q13.6875 -3.2299999999999898 10.96875 -5.91749999999999 Q8.25 -8.60499999999999 8.25 -12.47999999999999 Q8.25 -13.85137499999999 8.5625 -15.165749999999989 Q8.875 -16.47999999999999 9.5 -17.72999999999999 L21.25 -40.22999999999999 Q19.625 -44.35499999999999 20.6875 -48.41749999999999 Q21.75 -52.47999999999999 25.5 -53.97999999999999 L35.5 -57.97999999999999 Q37.75 -58.97999999999999 40.125 -58.91749999999999 Q42.5 -58.85499999999999 44.25 -57.22999999999999 Q44.25 -61.22999999999999 46.875 -64.10499999999999 Q49.5 -66.97999999999999 53.442875 -66.97999999999999 H66.75 Q70.625 -66.97999999999999 73.3125 -64.29249999999999 Q76.0 -61.60499999999999 76.25 -57.72999999999999 Q77.625 -59.47999999999999 80.0 -59.16749999999999 Q82.375 -58.85499999999999 84.5 -57.97999999999999 L94.5 -53.97999999999999 Q98.25 -52.47999999999999 99.5 -48.47999999999999 Q100.75 -44.47999999999999 99.0 -40.47999999999999 L110.75 -17.97999999999999 Q111.25 -16.97999999999999 111.625 -16.00699999999999 Q112.0 -15.033999999999992 112.0 -13.97999999999999 Q112.0 -9.60499999999999 108.9375 -6.41749999999999 Q105.875 -3.2299999999999898 101.55575 -3.2299999999999898 Q100.5 -3.2299999999999898 99.583375 -3.4799999999999898 Q98.666625 -3.7299999999999898 97.75 -4.22999999999999 L89.5 -8.47999999999999 H30.5 L22.75 -4.47999999999999 Q21.625 -3.8549999999999898 20.375 -3.5424999999999898 Q19.125 -3.2299999999999898 17.765625 -3.2299999999999898 Z"/></g><g id="Bold-S" transform="matrix(1 0 0 1 2294.23 696)"><path d="M78.897633 -17.477499999999992 Q80.67525 -16.589874999999992 82.1053125 -18.069249999999997 Q83.535375 -19.548624999999987 82.549125 -21.4225 L76.631625 -32.46849999999999 L71.99625 -20.830749999999995 L78.897633 -17.477499999999992 Z M59.076375000000006 -21.02799999999999 H64.69800000000001 L73.777516125 -44.69158937499999 Q74.067375 -45.486999999999995 73.672875 -46.325312499999995 Q73.278375 -47.163624999999996 72.48937500000001 -47.45949999999999 L64.59937500000001 -50.51687499999999 Q63.514500000000005 -51.01 62.577562500000006 -50.368937499999994 Q61.640625 -49.727875 61.542 -48.544374999999995 L59.076375000000006 -21.02799999999999 Z M29.982000000000003 -21.02799999999999 H35.603625 L33.138 -48.544374999999995 Q33.039375 -49.727875 32.053125 -50.368937499999994 Q31.066875000000003 -51.01 29.982000000000003 -50.51687499999999 L22.181650125 -47.45101824999999 Q21.401625 -47.163624999999996 20.9578125 -46.325312499999995 Q20.514 -45.486999999999995 20.80691625 -44.69158937499999 L29.982000000000003 -21.02799999999999 Z M15.780000000000001 -17.477499999999992  22.68375 -20.929374999999993  18.048375 -32.567125  12.525375 -21.4225 Q11.539125 -19.548624999999987 12.821250000000001 -18.118562499999996 Q14.103375 -16.68849999999999 15.780000000000001 -17.477499999999992 Z M42.829977375000006 -21.02799999999999 H51.87675 L54.934125 -54.659124999999996 Q55.03275 -55.74399999999999 54.3916875 -56.483687499999995 Q53.750625 -57.223375 52.66575 -57.223375 H42.014250000000004 Q40.929375 -57.223375 40.2883125 -56.465737749999995 Q39.64725 -55.7081005 39.745875000000005 -54.659124999999996 L42.829977375000006 -21.02799999999999 Z M14.5965 -6.924624999999992 Q9.172125000000001 -6.924624999999992 5.424375 -10.721687499999987 Q1.676625 -14.518749999999997 1.676625 -19.943124999999995 Q1.676625 -21.385910124999995 1.8738750000000002 -22.735593249999994 Q2.071125 -24.085375 2.860125 -25.268874999999994 L11.4405 -41.64062499999999 Q9.468 -46.07874999999999 11.533306125000001 -50.533641249999995 Q13.59861225 -54.98853249999999 18.442875 -56.828875 L26.23425 -59.984874999999995 Q27.615000000000002 -60.57662499999999 29.143687500000002 -60.773875 Q30.672375000000002 -60.971124999999994 32.15175 -60.57662499999999 Q32.54625 -64.12712499999999 35.535080625 -65.80375 Q38.523911250000005 -67.480375 42.014250000000004 -67.480375 H52.589710125 Q56.019000000000005 -67.480375 59.0270625 -65.80375 Q62.035125 -64.12712499999999 62.429625 -60.67524999999999 Q63.909000000000006 -60.971124999999994 65.43768750000001 -60.72456249999999 Q66.966375 -60.477999999999994 68.347125 -59.984874999999995 L76.237125 -56.828875 Q80.75198025 -54.92353862499999 82.88336512500001 -50.59971999999999 Q85.01475 -46.275999999999996 83.535375 -41.541999999999994 L91.81987500000001 -25.268874999999994 Q92.51025 -24.085375 92.75681250000001 -22.748611749999995 Q93.003375 -21.411848500000005 93.003375 -19.943124999999995 Q93.003375 -14.617374999999996 89.25700575 -10.770999999999987 Q85.5106365 -6.924624999999992 80.182125 -6.924624999999992 Q78.60412500000001 -6.924624999999992 77.1740625 -7.245156249999994 Q75.744 -7.565687499999996 74.36325000000001 -8.305374999999998 L69.136125 -10.869625 H25.543875 L20.316750000000003 -8.305374999999998 Q18.936 -7.713624999999993 17.493313500000003 -7.319125 Q16.050627000000002 -6.924624999999992 14.5965 -6.924624999999992 Z"/></g><g id="Semibold-S" transform="matrix(1 0 0 1 1998.1 696)"><path d="M78.897633 -17.477499999999992 Q80.67525 -16.589874999999992 82.1053125 -18.069249999999997 Q83.535375 -19.548624999999987 82.549125 -21.4225 L76.631625 -32.46849999999999 L71.99625 -20.830749999999995 L78.897633 -17.477499999999992 Z M59.076375000000006 -21.02799999999999 H64.61219625 L73.777516125 -44.69158937499999 Q74.067375 -45.486999999999995 73.672875 -46.325312499999995 Q73.278375 -47.163624999999996 72.48937500000001 -47.45949999999999 L64.59937500000001 -50.51687499999999 Q63.514500000000005 -51.01 62.577562500000006 -50.368937499999994 Q61.640625 -49.727875 61.542 -48.544374999999995 L59.076375000000006 -21.02799999999999 Z M30.067803750000003 -21.02799999999999 H35.603625 L33.138 -48.544374999999995 Q33.039375 -49.727875 32.053125 -50.368937499999994 Q31.066875000000003 -51.01 29.982000000000003 -50.51687499999999 L22.181650125 -47.45101824999999 Q21.401625 -47.163624999999996 20.9578125 -46.325312499999995 Q20.514 -45.486999999999995 20.80691625 -44.69158937499999 L30.067803750000003 -21.02799999999999 Z M15.780000000000001 -17.477499999999992  22.68375 -20.929374999999993  18.048375 -32.567125  12.525375 -21.4225 Q11.539125 -19.548624999999987 12.821250000000001 -18.118562499999996 Q14.103375 -16.68849999999999 15.780000000000001 -17.477499999999992 Z M42.829977375000006 -21.02799999999999 H51.87675 L54.934125 -54.659124999999996 Q55.03275 -55.74399999999999 54.3916875 -56.483687499999995 Q53.750625 -57.223375 52.66575 -57.223375 H42.014250000000004 Q40.929375 -57.223375 40.2883125 -56.465737749999995 Q39.64725 -55.7081005 39.745875000000005 -54.659124999999996 L42.829977375000006 -21.02799999999999 Z M14.5965 -8.253794124999985 Q9.7295535 -8.253794124999985 6.367723125 -11.665035625000002 Q3.005794125 -15.076178499999997 3.005794125 -19.943124999999995 Q3.005794125 -21.214401249999995 3.203044125 -22.414075749999995 Q3.400294125 -23.613750249999995 4.060687125 -24.668544624999996 L12.812571000000002 -41.512018 Q10.840071000000002 -45.564223375 12.66956475 -49.71899875 Q14.4990585 -53.87377412499999 18.91449975 -55.58541099999999 L26.70587475 -58.74141099999999 Q28.08662475 -59.333161 29.593910625 -59.487509124999995 Q31.101196500000004 -59.641955875 32.537669625 -59.204553999999995 Q33.1036785 -62.58354512499999 35.878098375 -64.3673755 Q38.65251825 -66.151205875 42.014250000000004 -66.151205875 H52.589710125 Q55.890393 -66.151205875 58.684044750000005 -64.3673755 Q61.4776965 -62.58354512499999 62.043705375 -59.303179 Q63.48017850000001 -59.68475912499999 64.987464375 -59.459696875 Q66.49475025 -59.23453599999999 67.87550025 -58.74141099999999 L75.76550025 -55.58541099999999 Q79.937239125 -53.8515835 81.790008375 -49.806479124999996 Q83.642679 -45.761473374999994 82.07750025 -41.45619624999999 L90.619312875 -24.668544624999996 Q91.223884125 -23.613750249999995 91.449045 -22.42699562499999 Q91.67420587500001 -21.24033962499999 91.67420587500001 -19.943124999999995 Q91.67420587500001 -15.131901624999998 88.33515787500001 -11.692847874999998 Q84.996109875 -8.253794124999985 80.182125 -8.253794124999985 Q78.77563387500001 -8.253794124999985 77.495678625 -8.55292374999999 Q76.21562475 -8.852053374999997 74.963580375 -9.505937124999988 L69.47914275 -12.198794124999992 H25.20085725 L19.716419625 -9.505937124999988 Q18.46437525 -8.957088999999982 17.171697375 -8.605490874999987 Q15.879118125 -8.253794124999985 14.5965 -8.253794124999985 Z"/></g><g id="Medium-S" transform="matrix(1 0 0 1 1701.85 696)"><path d="M78.897633 -17.477499999999992 Q80.67525 -16.589874999999992 82.1053125 -18.069249999999997 Q83.535375 -19.548624999999987 82.549125 -21.4225 L76.631625 -32.46849999999999 L71.99625 -20.830749999999995 L78.897633 -17.477499999999992 Z M59.076375000000006 -21.02799999999999 H64.54789275 L73.777516125 -44.69158937499999 Q74.067375 -45.486999999999995 73.672875 -46.325312499999995 Q73.278375 -47.163624999999996 72.48937500000001 -47.45949999999999 L64.59937500000001 -50.51687499999999 Q63.514500000000005 -51.01 62.577562500000006 -50.368937499999994 Q61.640625 -49.727875 61.542 -48.544374999999995 L59.076375000000006 -21.02799999999999 Z M30.13210725 -21.02799999999999 H35.603625 L33.138 -48.544374999999995 Q33.039375 -49.727875 32.053125 -50.368937499999994 Q31.066875000000003 -51.01 29.982000000000003 -50.51687499999999 L22.181650125 -47.45101824999999 Q21.401625 -47.163624999999996 20.9578125 -46.325312499999995 Q20.514 -45.486999999999995 20.80691625 -44.69158937499999 L30.13210725 -21.02799999999999 Z M15.780000000000001 -17.477499999999992  22.68375 -20.929374999999993  18.048375 -32.567125  12.525375 -21.4225 Q11.539125 -19.548624999999987 12.821250000000001 -18.118562499999996 Q14.103375 -16.68849999999999 15.780000000000001 -17.477499999999992 Z M42.829977375000006 -21.02799999999999 H51.87675 L54.934125 -54.659124999999996 Q55.03275 -55.74399999999999 54.3916875 -56.483687499999995 Q53.750625 -57.223375 52.66575 -57.223375 H42.014250000000004 Q40.929375 -57.223375 40.2883125 -56.465737749999995 Q39.64725 -55.7081005 39.745875000000005 -54.659124999999996 L42.829977375000006 -21.02799999999999 Z M14.5965 -9.250892874999991 Q10.147624875000002 -9.250892874999991 7.075258875000001 -12.372571374999993 Q4.002892875000001 -15.494249874999994 4.002892875000001 -19.943124999999995 Q4.002892875000001 -21.085695625 4.200142875000001 -22.172838999999982 Q4.397392875 -23.25988375 4.961232000000001 -24.218321499999988 L13.841821500000002 -41.41546412499999 Q11.8693215 -45.17830375 13.521882000000002 -49.10791825 Q15.174541125 -53.03753275 19.26836625 -54.652714374999995 L27.059741250000002 -57.808714374999994 Q28.44049125 -58.400464375 29.931602625 -58.52266074999999 Q31.422812625 -58.644857124999994 32.827134 -58.17530349999999 Q33.521749875000005 -61.425687624999995 36.135411 -63.289897374999995 Q38.7489735 -65.154107125 42.014250000000004 -65.154107125 H52.589710125 Q55.793839125 -65.154107125 58.426732125 -63.289897374999995 Q61.059625125000004 -61.425687624999995 61.75424100000001 -58.2739285 Q63.158562375 -58.71991074999999 64.649772375 -58.510924374999995 Q66.14088375 -58.30183937499999 67.52163375 -57.808714374999994 L75.41163375000001 -54.652714374999995 Q79.326158625 -53.047493874999994 80.969842875 -49.211474499999994 Q82.61342850000001 -45.375553749999995 80.984044875 -41.39189274999999 L89.71876800000001 -24.218321499999988 Q90.25903575 -23.25988375 90.46812075 -22.185857499999997 Q90.677107125 -21.111633999999995 90.677107125 -19.943124999999995 Q90.677107125 -15.517821249999997 87.643698 -12.384406374999998 Q84.61019025 -9.250892874999991 80.182125 -9.250892874999991 Q78.904240875 -9.250892874999991 77.73681675 -9.533847999999992 Q76.56949125 -9.81690175 75.41380350000001 -10.406481999999997 L69.736455375 -13.195892874999998 H24.943544625 L19.266196500000003 -10.406481999999997 Q18.11050875 -9.889785625000002 16.93055925 -9.57033924999999 Q15.750511125 -9.250892874999991 14.5965 -9.250892874999991 Z"/></g><g id="Regular-S" transform="matrix(1 0 0 1 1405.73 696)"><path d="M78.897633 -17.477499999999992 Q80.67525 -16.589874999999992 82.1053125 -18.069249999999997 Q83.535375 -19.548624999999987 82.549125 -21.4225 L76.631625 -32.46849999999999 L71.99625 -20.830749999999995 L78.897633 -17.477499999999992 Z M59.076375000000006 -21.02799999999999 H64.50075 L73.777516125 -44.69158937499999 Q74.067375 -45.486999999999995 73.672875 -46.325312499999995 Q73.278375 -47.163624999999996 72.48937500000001 -47.45949999999999 L64.59937500000001 -50.51687499999999 Q63.514500000000005 -51.01 62.577562500000006 -50.368937499999994 Q61.640625 -49.727875 61.542 -48.544374999999995 L59.076375000000006 -21.02799999999999 Z M30.17925 -21.02799999999999 H35.603625 L33.138 -48.544374999999995 Q33.039375 -49.727875 32.053125 -50.368937499999994 Q31.066875000000003 -51.01 29.982000000000003 -50.51687499999999 L22.181650125 -47.45101824999999 Q21.401625 -47.163624999999996 20.9578125 -46.325312499999995 Q20.514 -45.486999999999995 20.80691625 -44.69158937499999 L30.17925 -21.02799999999999 Z M15.780000000000001 -17.477499999999992  22.68375 -20.929374999999993  18.048375 -32.567125  12.525375 -21.4225 Q11.539125 -19.548624999999987 12.821250000000001 -18.118562499999996 Q14.103375 -16.68849999999999 15.780000000000001 -17.477499999999992 Z M42.829977375000006 -21.02799999999999 H51.87675 L54.934125 -54.659124999999996 Q55.03275 -55.74399999999999 54.3916875 -56.483687499999995 Q53.750625 -57.223375 52.66575 -57.223375 H42.014250000000004 Q40.929375 -57.223375 40.2883125 -56.465737749999995 Q39.64725 -55.7081005 39.745875000000005 -54.659124999999996 L42.829977375000006 -21.02799999999999 Z M14.5965 -9.982 Q10.45425 -9.982 7.594125 -12.891437499999995 Q4.734 -15.80087499999999 4.734 -19.943124999999995 Q4.734 -20.991410125 4.93125 -21.99590574999999 Q5.1285 -23.000499999999988 5.621625 -23.888124999999988 L14.5965 -41.34475 Q12.624 -44.89525 14.146868625000002 -48.65976625 Q15.66973725 -52.42428249999999 19.52775 -53.96874999999999 L27.319125 -57.12474999999999 Q28.699875000000002 -57.716499999999996 30.17925 -57.815124999999995 Q31.658625 -57.91374999999999 33.039375 -57.420624999999994 Q33.828375 -60.57662499999999 36.324080625 -62.49981249999999 Q38.81978625 -64.423 42.014250000000004 -64.423 H52.589710125 Q55.723125 -64.423 58.238062500000005 -62.49981249999999 Q60.753 -60.57662499999999 61.542 -57.51924999999999 Q62.92275 -58.012375 64.402125 -57.815124999999995 Q65.8815 -57.617875 67.26225000000001 -57.12474999999999 L75.15225000000001 -53.96874999999999 Q78.87810525 -52.457913624999996 80.36842762500001 -48.77515749999999 Q81.85875 -45.092499999999994 80.182125 -41.34475 L89.058375 -23.888124999999988 Q89.5515 -23.000499999999988 89.74875 -22.008924249999993 Q89.946 -21.017348499999997 89.946 -19.943124999999995 Q89.946 -15.80087499999999 87.13656825000001 -12.891437499999995 Q84.32713650000001 -9.982 80.182125 -9.982 Q78.998625 -9.982 77.91375000000001 -10.253218749999988 Q76.828875 -10.52443749999999 75.744 -11.066874999999996 L69.92512500000001 -13.926999999999992 H24.754875000000002 L18.936 -11.066874999999996 Q17.851125 -10.57374999999999 16.753626 -10.277874999999995 Q15.656127000000001 -9.982 14.5965 -9.982 Z"/></g><g id="Light-S" transform="matrix(1 0 0 1 1109.75 696)"><path d="M78.44238 -16.567092625 Q81.01668975 -15.262086624999995 82.864034625 -17.3674345 Q84.7113795 -19.472782374999994 83.38368975 -22.02943825 L76.555782375 -34.82050899999999 L70.70643225 -20.375496999999996 L78.44238 -16.567092625 Z M58.01418375 -20.041651375 H65.1836295 L74.536139625 -43.857024624999994 Q75.12956625 -45.373186749999995 74.659223625 -46.628781624999995 Q74.188782375 -47.884376499999995 72.86868675000001 -48.369907375 L64.97868675000001 -51.427282375 Q63.438657375000005 -52.148033874999996 62.0844375 -51.46909937499999 Q60.730217625 -50.790066249999995 60.631592625 -49.075470624999994 L58.01418375 -20.041651375 Z M29.496370500000005 -20.041651375 H36.66581625 L34.048407375000004 -49.227254499999994 Q33.949782375 -50.638282374999996 32.584220625 -51.39315812499999 Q31.218658875 -52.148033874999996 29.60268825 -51.427282375 L21.802338375 -48.361524249999995 Q20.529089625 -47.846504499999995 20.10431175 -46.477096374999995 Q19.67943525 -45.107688249999995 20.199879375000002 -43.705240749999994 L29.496370500000005 -20.041651375 Z M16.235253000000004 -16.567092625  23.97356775 -20.474121999999994  18.200158875 -34.91913399999999  11.69081025 -21.877753 Q10.287277875000001 -19.283027875000002 12.081463875 -17.35984037499999 Q13.875748500000002 -15.436652874999993 16.235253000000004 -16.567092625 Z M41.91957000000001 -20.041651375 H52.787157375 L55.920473625 -54.583282374999996 Q56.019098625 -56.12331174999999 55.150409625 -57.16656699999999 Q54.281720625 -58.209723624999995 52.66575 -58.209723624999995 H42.014250000000004 Q40.58793525 -58.209723624999995 39.605433000000005 -57.205523875 Q38.623029375 -56.20132412499999 38.75952637500001 -54.734967624999996 L41.91957000000001 -20.041651375 Z M14.753017875 -10.89240737499999 Q10.966409625 -10.89240737499999 8.343379125 -13.422533124999987 Q5.720348625 -15.952658874999997 5.720348625 -19.63965587499999 Q5.720348625 -20.64888549999999 5.879628 -21.616002249999994 Q6.038907375000001 -22.58321762499999 6.532032375 -23.43287199999999 L15.734533874999999 -41.34475 Q13.800004500000002 -44.629652875 15.076310625000001 -48.147705249999994 Q16.352616750000003 -51.665659 19.90706175 -53.058342624999995 L27.698436750000003 -56.21434262499999 Q29.230970625 -56.91980725 30.900001500000002 -56.92365362499999 Q32.569032375 -56.927401374999995 33.949782375 -56.054964625 Q34.20768675 -59.324777874999995 36.551707125 -61.380714624999996 Q38.89562887500001 -63.436651375 42.072734625 -63.436651375 H52.589710125 Q55.685154375 -63.436651375 58.067342625 -61.43762124999999 Q60.449530875 -59.438591124999995 60.783277875 -56.305274874999995 Q62.050214625 -57.253652875 63.71924550000001 -57.01843225 Q65.388375 -56.78331025 66.88293825000001 -56.21434262499999 L74.77293825000001 -53.058342624999995 Q78.11938312500001 -51.6991915 79.382079 -48.28203249999999 Q80.64477487500001 -44.864873499999995 79.11993375 -41.34475 L88.22381025 -23.43287199999999 Q88.641092625 -22.659060249999996 88.83834262500001 -21.827454249999988 Q89.035592625 -20.995848249999995 89.035592625 -20.094908874999987 Q89.035592625 -16.331970624999997 86.453787375 -13.612188999999987 Q83.871982125 -10.89240737499999 80.12314725 -10.89240737499999 Q79.036595625 -10.89240737499999 78.090781875 -11.144690124999997 Q77.144968125 -11.396972874999989 76.199253 -11.901439749999994 L70.228594125 -14.913348624999998 H24.527248500000002 L18.480747 -11.977282374999987 Q17.547655875 -11.560098624999995 16.62087675 -11.226252999999986 Q15.694097625 -10.89240737499999 14.753017875 -10.89240737499999 Z"/></g><g id="Thin-S" transform="matrix(1 0 0 1 814.015 696)"><path d="M77.98722562500001 -15.656783874999988 Q81.358030875 -13.93459412499999 83.622658125 -16.665717625 Q85.88718675 -19.396939749999987 84.21815587500001 -22.636376499999997 L76.47993975 -37.1721235 L69.41681175000001 -19.92034262499999 L77.98722562500001 -15.656783874999988 Z M56.95218975 -19.055499999999995 H65.86631175000001 L75.294763125 -43.022558499999995 Q76.19156025000001 -45.259373499999995 75.645375 -46.932250749999994 Q75.099091125 -48.605029374999994 73.24799850000001 -49.280216124999995 L65.35799850000001 -52.337591124999996 Q63.36281475 -53.285969124999994 61.5913125 -52.569064 Q59.819908875 -51.852060249999994 59.721283875000005 -49.60646762499999 L56.95218975 -19.055499999999995 Z M28.813688250000002 -19.055499999999995 H37.727810250000005 L34.958716125 -49.90993674999999 Q34.860091125000004 -51.548591124999994 33.115217625 -52.417280125 Q31.370344125000003 -53.285969124999994 29.2233765 -52.337591124999996 L21.423026625000002 -49.271832999999994 Q19.6567515 -48.529186749999994 19.250811000000002 -46.628781624999995 Q18.844969125000002 -44.728376499999996 19.593039750000003 -42.719089374999996 L28.813688250000002 -19.055499999999995 Z M16.690407375 -15.656783874999988  25.263188250000002 -20.018967624999988  18.351844125 -37.270748499999996  10.856344125 -22.33290737499999 Q9.035529375 -19.017529374999995 11.341875 -16.60121687499999 Q13.648220625 -14.185002999999995 16.690407375 -15.656783874999988 Z M41.00926125 -19.055499999999995 H53.697466125000005 L56.906625000000005 -54.507439749999996 Q57.005250000000004 -56.5026235 55.909033125 -57.84924924999999 Q54.812717625000005 -59.195874999999994 52.66575 -59.195874999999994 H42.014250000000004 Q40.246594125 -59.195874999999994 38.92275075 -57.94511274999999 Q37.598907375 -56.6943505 37.773375 -54.810810249999996 L41.00926125 -19.055499999999995 Z M14.909437125 -11.80271612499999 Q11.478470625000002 -11.80271612499999 9.092436 -13.953530125 Q6.7065 -16.104344124999997 6.7065 -19.336186749999996 Q6.7065 -20.30645949999999 6.827907375 -21.23619737499999 Q6.949216125 -22.166033874999997 7.4423411250000004 -22.977717624999997 L16.872469125000002 -41.34475 Q14.975811750000002 -44.364154375 16.005555375 -47.63564424999999 Q17.035299000000002 -50.9070355 20.2863735 -52.148033874999996 L28.077748500000002 -55.304033874999995 Q29.761967625 -56.12331174999999 31.620654375 -56.032280875 Q33.479341125000005 -55.94125 34.860091125000004 -54.68950149999999 Q34.5869985 -58.073128 36.779235 -60.261813999999994 Q38.97147150000001 -62.45049999999999 42.131317875 -62.45049999999999 H52.589710125 Q55.647282375 -62.45049999999999 57.896622750000006 -60.375627249999994 Q60.14606175 -58.300655875 60.024654375000004 -55.091595625 Q61.1778765 -56.495029374999994 63.03656325 -56.22193675 Q64.89525 -55.948844124999994 66.5036265 -55.304033874999995 L74.3936265 -52.148033874999996 Q77.360759625 -50.94056799999999 78.395927625 -47.78890749999999 Q79.431095625 -44.637345624999995 78.05793975 -41.34475 L87.38934412500001 -22.977717624999997 Q87.730783875 -22.317719124999996 87.928033875 -21.645984249999984 Q88.12528387500001 -20.974249375 88.12528387500001 -20.246594124999987 Q88.12528387500001 -16.862967624999996 85.7710065 -14.332841875 Q83.41682775000001 -11.80271612499999 80.064268125 -11.80271612499999 Q79.074467625 -11.80271612499999 78.26781375 -12.036062874999999 Q77.46106125 -12.269310999999988 76.654407375 -12.735905875 L70.53206325000001 -15.899499999999989 H24.299720625 L18.025592625 -12.887591125 Q17.24418675 -12.546249999999986 16.4881275 -12.174532374999998 Q15.731969625000001 -11.80271612499999 14.909437125 -11.80271612499999 Z"/></g><g id="Ultralight-S" transform="matrix(1 0 0 1 517.792 696)"><path d="M77.714133 -15.110499999999988 Q81.562875 -13.137999999999991 84.07781250000001 -16.244687499999998 Q86.59275000000001 -19.35137499999999 84.718875 -23.000499999999988 L76.434375 -38.58324999999999 L68.643 -19.64725 L77.714133 -15.110499999999988 Z M56.314875 -18.46374999999999 H66.276 L75.750016125 -42.52183937499999 Q76.828875 -45.19112499999999 76.237125 -47.1143125 Q75.645375 -49.037499999999994 73.47562500000001 -49.826499999999996 L65.58562500000001 -52.883874999999996 Q63.31725 -53.96874999999999 61.295437500000006 -53.2290625 Q59.273625 -52.489374999999995 59.175000000000004 -49.925124999999994 L56.314875 -18.46374999999999 Z M28.404 -18.46374999999999 H38.365125 L35.505 -50.319624999999995 Q35.406375000000004 -52.094874999999995 33.433875 -53.031812499999994 Q31.461375 -53.96874999999999 28.99575 -52.883874999999996 L21.195400125 -49.818018249999994 Q19.13325 -48.938874999999996 18.73875 -46.719812499999996 Q18.344250000000002 -44.50075 19.22891625 -42.127339375 L28.404 -18.46374999999999 Z M16.9635 -15.110499999999988  26.037000000000003 -19.745874999999998  18.442875 -38.68187499999999  10.355625 -22.605999999999995 Q8.2845 -18.858249999999998 10.8980625 -16.1460625 Q13.511625 -13.433874999999986 16.9635 -15.110499999999988 Z M40.462977375 -18.46374999999999 H54.243750000000006 L57.498375 -54.46187499999999 Q57.597 -56.73025 56.3641875 -58.258937499999995 Q55.131375000000006 -59.787625 52.66575 -59.787625 H42.014250000000004 Q40.04175 -59.787625 38.513062500000004 -58.38892524999999 Q36.984375 -56.9902255 37.181625000000004 -54.85637499999999 L40.462977375 -18.46374999999999 Z M15.003328125000001 -12.34899999999999 Q11.7856875 -12.34899999999999 9.54196875 -14.272187499999987 Q7.29825 -16.195375 7.29825 -19.154124999999993 Q7.29825 -20.10092499999999 7.3968750000000005 -21.008274999999983 Q7.495500000000001 -21.91562499999999 7.988625000000001 -22.704624999999993 L17.55525 -41.34475 Q15.681375000000001 -44.204874999999994 16.563181125 -47.32832875 Q17.44498725 -50.45178249999999 20.514 -51.601749999999996 L28.305375 -54.757749999999994 Q30.080625 -55.645374999999994 32.053125 -55.4974375 Q34.025625 -55.34949999999999 35.406375000000004 -53.870124999999994 Q34.814625 -57.321999999999996 36.915830625000005 -59.590374999999995 Q39.017036250000004 -61.85875 42.166428375 -61.85875 H52.589710125 Q55.624500000000005 -61.85875 57.794250000000005 -59.73831249999999 Q59.964000000000006 -57.617875 59.569500000000005 -54.363249999999994 Q60.654375 -56.039874999999995 62.626875000000005 -55.74399999999999 Q64.59937500000001 -55.448125 66.276 -54.757749999999994 L74.166 -51.601749999999996 Q76.90560525000001 -50.48541362499999 77.80417762500001 -47.49303249999999 Q78.70275000000001 -44.50075 77.420625 -41.34475 L86.888625 -22.704624999999993 Q87.1845 -22.11287499999999 87.38175000000001 -21.537102250000004 Q87.57900000000001 -20.96132949999999 87.57900000000001 -20.33762499999999 Q87.57900000000001 -17.181624999999997 85.36131825000001 -14.765312499999993 Q83.1436365 -12.34899999999999 80.02886175 -12.34899999999999 Q79.09725 -12.34899999999999 78.37403287500001 -12.570906249999993 Q77.650717125 -12.792812499999997 76.92750000000001 -13.23662499999999 L70.71412500000001 -16.491249999999994 H24.163125 L17.7525 -13.433874999999986 Q17.062125 -13.137999999999991 16.408438500000003 -12.743499999999997 Q15.754752 -12.34899999999999 15.003328125000001 -12.34899999999999 Z"/></g></g></svg>