<svg xmlns="http://www.w3.org/2000/svg" version="1.1" width="3300" height="2000"><g id="Notes"><style>
    text {
      font-family: monospace;
      text-anchor: middle;
    }
    text.emphasis {
      font-weight:bold;
    }
    text.lanchor {
      text-anchor: start;
    }
  </style><rect height="2200" id="artboard" fill="white" width="3300" x="0" y="0"/><line id="" style="fill:none;stroke:black;stroke-width:0.5;" x1="263" x2="3036" y1="292" y2="292"/><text class="lanchor emphasis" transform="matrix(1 0 0 1 263 322)">Weight/Scale Variations</text><text transform="matrix(1 0 0 1 559.711 322)">Ultralight</text><text transform="matrix(1 0 0 1 856.422 322)">Thin</text><text transform="matrix(1 0 0 1 1153.13 322)">Light</text><text transform="matrix(1 0 0 1 1449.84 322)">Regular</text><text transform="matrix(1 0 0 1 1746.56 322)">Medium</text><text transform="matrix(1 0 0 1 2043.27 322)">Semibold</text><text transform="matrix(1 0 0 1 2339.98 322)">Bold</text><text transform="matrix(1 0 0 1 2636.69 322)">Heavy</text><text transform="matrix(1 0 0 1 2933.4 322)">Black</text><text id="template-version" style="text-anchor: end;" transform="matrix(1 0 0 1 3036 1933)">Template v.1.0</text><text class="lanchor" transform="matrix(1 0 0 1 263 726)">Small</text><text class="lanchor" transform="matrix(1 0 0 1 263 1156)">Medium</text><text class="lanchor" transform="matrix(1 0 0 1 263 1586)">Large</text></g><g id="Guides"><g id="H-reference" style="fill:#27AAE1;stroke:none;" transform="matrix(1 0 0 1 339 696)"><path d="M 54.9316 0 L 57.666 0 L 30.5664 -70.459 L 28.0762 -70.459 L 0.976562 0 L 3.66211 0 L 12.9395 -24.4629 L 45.7031 -24.4629 Z M 29.1992 -67.0898 L 29.4434 -67.0898 L 44.8242 -26.709 L 13.8184 -26.709 Z"/></g><line id="Baseline-S" style="fill:none;stroke:#27AAE1;opacity:1;stroke-width:0.577;" x1="263" x2="3036" y1="696" y2="696"/><line id="Capline-S" style="fill:none;stroke:#27AAE1;opacity:1;stroke-width:0.577;" x1="263" x2="3036" y1="625.541" y2="625.541"/><g id="H-reference" style="fill:#27AAE1;stroke:none;" transform="matrix(1 0 0 1 339 1126)"><path d="M 54.9316 0 L 57.666 0 L 30.5664 -70.459 L 28.0762 -70.459 L 0.976562 0 L 3.66211 0 L 12.9395 -24.4629 L 45.7031 -24.4629 Z M 29.1992 -67.0898 L 29.4434 -67.0898 L 44.8242 -26.709 L 13.8184 -26.709 Z"/></g><line id="Baseline-M" style="fill:none;stroke:#27AAE1;opacity:1;stroke-width:0.577;" x1="263" x2="3036" y1="1126" y2="1126"/><line id="Capline-M" style="fill:none;stroke:#27AAE1;opacity:1;stroke-width:0.577;" x1="263" x2="3036" y1="1055.54" y2="1055.54"/><g id="H-reference" style="fill:#27AAE1;stroke:none;" transform="matrix(1 0 0 1 339 1556)"><path d="M 54.9316 0 L 57.666 0 L 30.5664 -70.459 L 28.0762 -70.459 L 0.976562 0 L 3.66211 0 L 12.9395 -24.4629 L 45.7031 -24.4629 Z M 29.1992 -67.0898 L 29.4434 -67.0898 L 44.8242 -26.709 L 13.8184 -26.709 Z"/></g><line id="Baseline-L" style="fill:none;stroke:#27AAE1;opacity:1;stroke-width:0.577;" x1="263" x2="3036" y1="1556" y2="1556"/><line id="Capline-L" style="fill:none;stroke:#27AAE1;opacity:1;stroke-width:0.577;" x1="263" x2="3036" y1="1485.54" y2="1485.54"/><rect height="119.336" id="left-margin" style="fill:darkred;stroke:none;opacity:0.4;" width="12.4512" x="1394.06" y="1030.79"/><rect height="119.336" id="right-margin" style="fill:darkgreen;stroke:none;opacity:0.4;" width="12.4512" x="1502.5112" y="1030.79"/><rect x="1406.5112" y="1045" width="96" height="96" fill="none" stroke="blue" stroke-dasharray="5"/><rect x="1394.06" y="1030.79" width="120.9024" height="119.336" fill="none" stroke="blue"/></g><g id="Symbols"><g id="Bold-L" transform="matrix(1 0 0 1 2266 1556)"><path d="M84.495 37.493750000000006 V-1.851249999999979 L69.9825 -15.073749999999976 L63.5325 13.628750000000025 L17.25375 4.115000000000009 L19.6725 -8.462499999999977 L51.761250000000004 -2.0124999999999886 L62.565000000000005 -56.67624999999998 L49.665 -50.38749999999999 V-28.134999999999977 H36.120000000000005 V-59.578749999999985 L64.98375 -71.02749999999997 Q70.305 -73.28499999999998 72.643125 -74.01062499999998 Q74.98125 -74.73624999999998 77.4 -74.73624999999998 Q81.10875 -74.73624999999998 84.01125 -72.96249999999998 Q86.91375000000001 -71.18874999999998 88.84875 -68.12499999999999 L95.94375000000001 -57.32124999999998 Q99.97500000000001 -50.87124999999999 107.150625 -46.27562499999998 Q114.32625 -41.67999999999998 124.32375 -41.67999999999998 V-28.134999999999977 Q113.1975 -28.134999999999977 104.65125 -32.64999999999998 Q96.105 -37.16499999999998 88.6875 -46.35624999999999 L83.36625000000001 -25.071249999999978 L97.7175 -11.848749999999981 V37.493750000000006 H84.495 Z M87.39750000000001 -81.18624999999999 Q81.5925 -81.18624999999999 77.641875 -85.21749999999999 Q73.69125 -89.24874999999999 73.69125 -94.89249999999998 Q73.69125 -100.69749999999999 77.641875 -104.648125 Q81.5925 -108.59874999999998 87.39750000000001 -108.59874999999998 Q93.04125 -108.59874999999998 96.99187500000001 -104.648125 Q100.94250000000001 -100.69749999999999 100.94250000000001 -94.89249999999998 Q100.94250000000001 -89.24874999999999 96.99187500000001 -85.21749999999999 Q93.04125 -81.18624999999999 87.39750000000001 -81.18624999999999 Z"/></g><g id="Semibold-L" transform="matrix(1 0 0 1 1970.27 1556)"><path d="M85.26609750000001 36.72297500000002 V-2.2719512499999865 L69.49181625 -16.686088749999982 L62.90152875 12.717365000000001 L18.165135 3.4840287500000215 L20.30347125 -7.551114999999982 L52.392221250000006 -1.1011149999999787 L63.61651125 -57.868048749999986 L49.314442500000006 -51.01847124999999 V-29.046384999999987 H37.451925 V-59.08806624999998 L65.26416375 -70.39652874999999 Q70.51527 -72.65402874999998 72.7834125 -73.30950999999999 Q75.05139375 -73.96515249999999 77.4 -73.96515249999999 Q80.89848 -73.96515249999999 83.62570125 -72.36668124999998 Q86.3529225 -70.76804874999999 88.21777875 -67.84458624999999 L95.1726525 -57.040836249999984 Q99.273885 -50.45054874999998 106.4846625 -45.679806249999984 Q113.69527875 -40.90890249999998 123.5526525 -40.90890249999998 V-29.046384999999987 Q112.56652875 -29.046384999999987 104.05543125 -33.77165499999998 Q95.54417250000002 -38.496924999999976 88.19681625 -48.03873249999998 L82.454865 -24.93096249999998 L96.94640249999999 -11.568336249999973 V36.72297500000002 H85.26609750000001 Z M87.25721250000001 -80.41515249999998 Q81.87291375 -80.41515249999998 78.13255875 -84.20097999999999 Q74.392365 -87.98680749999998 74.392365 -93.28016124999999 Q74.392365 -98.66445999999999 78.13255875 -102.40481499999999 Q81.87291375 -106.14516999999998 87.25721250000001 -106.14516999999998 Q92.55056625 -106.14516999999998 96.29076 -102.40481499999999 Q100.031115 -98.66445999999999 100.031115 -93.28016124999999 Q100.031115 -87.98680749999998 96.29076 -84.20097999999999 Q92.55056625 -80.41515249999998 87.25721250000001 -80.41515249999998 Z"/></g><g id="Medium-L" transform="matrix(1 0 0 1 1674.31 1556)"><path d="M85.8446625 36.14408750000001 V-2.587356249999985 L69.1236825 -17.89562499999998 L62.42826 12.033826250000033 L18.84867375 3.010760000000033 L20.776740000000004 -6.867576249999985 L52.86549 -0.417576249999982 L64.40534625000001 -58.76201874999998 L49.051605 -51.49173999999998 V-29.729923749999983 H38.451029999999996 V-58.719932499999985 L65.47443375 -69.92325999999998 Q70.67313375 -72.18075999999998 72.8885475 -72.78367374999999 Q75.10396125000001 -73.38658749999999 77.4 -73.38658749999999 Q80.74061625 -73.38658749999999 83.33641875 -71.91969624999999 Q85.93222125 -70.45264375 87.74451 -67.63431624999998 L94.5940875 -56.830566249999976 Q98.74804875 -50.13514374999998 105.98511 -45.232821249999986 Q113.22201000000001 -40.330337499999985 122.9740875 -40.330337499999985 V-29.729923749999983 Q112.09326000000001 -29.729923749999983 103.60844625 -34.61305749999998 Q95.12347125000001 -39.49602999999999 87.8286825 -49.30083624999999 L81.77132625 -24.825827499999974 L96.36783750000001 -11.358066249999979 V36.14408750000001 H85.8446625 Z M87.15207749999999 -79.83658749999998 Q82.08318375 -79.83658749999998 78.5006925 -83.43842874999999 Q74.91820125 -87.04026999999999 74.91820125 -92.07062499999998 Q74.91820125 -97.13951874999998 78.5006925 -100.72200999999998 Q82.08318375 -104.30466249999998 87.15207749999999 -104.30466249999998 Q92.1824325 -104.30466249999998 95.76492375 -100.72200999999998 Q99.34757625 -97.13951874999998 99.34757625 -92.07062499999998 Q99.34757625 -87.04026999999999 95.76492375 -83.43842874999999 Q92.1824325 -79.83658749999998 87.15207749999999 -79.83658749999998 Z"/></g><g id="Regular-L" transform="matrix(1 0 0 1 1378.56 1556)"><path d="M86.26875 35.72000000000003 V-2.81874999999998 L68.85375 -18.782499999999985 L62.081250000000004 11.532500000000027 L19.35 2.6637500000000216 L21.12375 -6.3662499999999795 L53.2125 0.0837500000000091 L64.98375 -59.41749999999999 L48.85875 -51.838749999999976 V-30.23124999999999 H39.18375 V-58.44999999999999 L65.62875 -69.57624999999999 Q70.78875000000001 -71.83374999999998 72.965625 -72.398125 Q75.1425 -72.96249999999998 77.4 -72.96249999999998 Q80.625 -72.96249999999998 83.124375 -71.59187499999999 Q85.62375 -70.22124999999998 87.39750000000001 -67.47999999999999 L94.17 -56.67624999999998 Q98.3625 -49.90374999999999 105.61875 -44.90499999999999 Q112.875 -39.906249999999986 122.55 -39.906249999999986 V-30.23124999999999 Q111.74625 -30.23124999999999 103.280625 -35.22999999999999 Q94.815 -40.22874999999998 87.55875 -50.22624999999998 L81.27 -24.748749999999987 L95.94375000000001 -11.203749999999985 V35.72000000000003 H86.26875 Z M87.075 -79.4125 Q82.2375 -79.4125 78.770625 -82.87937499999998 Q75.30375000000001 -86.34624999999998 75.30375000000001 -91.18374999999997 Q75.30375000000001 -96.02124999999998 78.770625 -99.48812499999998 Q82.2375 -102.95499999999998 87.075 -102.95499999999998 Q91.91250000000001 -102.95499999999998 95.379375 -99.48812499999998 Q98.84625 -96.02124999999998 98.84625 -91.18374999999997 Q98.84625 -86.34624999999998 95.379375 -82.87937499999998 Q91.91250000000001 -79.4125 87.075 -79.4125 Z"/></g><g id="Light-L" transform="matrix(1 0 0 1 1082.77 1556)"><path d="M87.2610825 34.107500000000016 V-3.438917499999988 L68.2335825 -21.077409999999972 L61.336920000000006 9.919838750000025 L21.21066375 1.6093362500000126 L22.61224875 -5.125753749999987 L54.390915 1.2621650000000102 L66.59641125 -61.03016124999998 L47.99041875 -52.58307999999998 V-31.47174624999998 H40.67224875 V-57.64374999999998 L66.9932475 -68.58391749999998 Q71.47099875 -70.5311725 73.46179125 -71.06458749999999 Q75.45258375 -71.59800249999998 77.4 -71.59800249999998 Q80.19075375 -71.59800249999998 82.44212625 -70.32041874999999 Q84.6933375 -69.04283499999998 86.28100500000001 -66.61166874999998 L92.991585 -55.93191999999999 Q97.12200375 -49.28358249999998 104.34729375 -44.28483249999998 Q111.5724225 -39.28608249999998 120.93733875000001 -38.91391749999998 V-31.595747499999987 Q111.00192 -31.843911249999977 102.41229375 -37.028743749999975 Q93.82266750000001 -42.213576249999974 86.6283375 -53.20340874999998 L80.02950375 -24.500586249999984 L94.57925250000001 -10.83158499999999 V34.107500000000016 H87.2610825 Z M87.075 -79.78466499999999 Q82.48566375 -79.78466499999999 79.23583125 -83.03449749999999 Q75.98599875000001 -86.28416874999999 75.98599875000001 -90.87366624999999 Q75.98599875000001 -95.46300249999999 79.23583125 -98.71283499999998 Q82.48566375 -101.96266749999998 87.075 -101.96266749999998 Q91.66433625 -101.96266749999998 94.91416875 -98.71283499999998 Q98.16400125 -95.46300249999999 98.16400125 -90.87366624999999 Q98.16400125 -86.28416874999999 94.91416875 -83.03449749999999 Q91.66433625 -79.78466499999999 87.075 -79.78466499999999 Z"/></g><g id="Thin-L" transform="matrix(1 0 0 1 787.282 1556)"><path d="M88.253415 32.49500000000003 V-4.059084999999982 L67.613415 -23.371836249999987 L60.59275125 8.307500000000005 L23.07116625 0.5550837500000227 L24.100586250000003 -3.8854187499999853 L55.56916875 2.4404187500000205 L68.20875 -62.642499999999984 L47.12224875 -53.32724874999998 V-32.71208124999998 H42.16058625 V-56.83749999999998 L68.35758375 -67.59158499999998 Q72.15308625 -69.2289175 73.9579575 -69.73137249999999 Q75.7626675 -70.23366624999998 77.4 -70.23366624999998 Q79.75666875 -70.23366624999998 81.76003875 -69.04912374999998 Q83.7632475 -67.86458124999999 85.1648325 -65.74349874999999 L91.81333125 -55.18775124999999 Q95.88166875 -48.663414999999986 103.07599875 -43.664664999999985 Q110.2701675 -38.665914999999984 119.325 -37.92158499999998 V-32.96008374999998 Q110.25775125 -33.45624999999998 101.54412375 -38.82716499999998 Q92.830335 -44.197918749999985 85.6982475 -56.18008374999998 L78.78916875 -24.252583749999985 L93.21491625 -10.459581249999985 V32.49500000000003 H88.253415 Z M87.075 -80.15666875 Q82.73366625 -80.15666875 79.70087625000001 -83.18945874999999 Q76.66808625 -86.22224874999998 76.66808625 -90.56358249999998 Q76.66808625 -94.90491624999999 79.70087625000001 -97.93770624999999 Q82.73366625 -100.97033499999998 87.075 -100.97033499999998 Q91.41633375 -100.97033499999998 94.44912375 -97.93770624999999 Q97.48191375 -94.90491624999999 97.48191375 -90.56358249999998 Q97.48191375 -86.22224874999998 94.44912375 -83.18945874999999 Q91.41633375 -80.15666875 87.075 -80.15666875 Z"/></g><g id="Ultralight-L" transform="matrix(1 0 0 1 491.205 1556)"><path d="M88.84875 31.527500000000032 V-4.431249999999977 L67.24125000000001 -24.748749999999987 L60.14625 7.340000000000032 L24.1875 -0.07749999999998636 L24.993750000000002 -3.141249999999985 L56.276250000000005 3.147500000000008 L69.17625 -63.609999999999985 L46.60125 -53.77374999999998 V-33.45624999999998 H43.05375 V-56.35374999999998 L69.17625 -66.99624999999997 Q72.5625 -68.44749999999999 74.25562500000001 -68.93124999999998 Q75.94875 -69.41499999999999 77.4 -69.41499999999999 Q79.49625 -69.41499999999999 81.35062500000001 -68.28624999999998 Q83.205 -67.15749999999998 84.495 -65.22249999999998 L91.10625 -54.74124999999998 Q95.1375 -48.29124999999998 102.313125 -43.29249999999999 Q109.48875 -38.29374999999999 118.3575 -37.32624999999999 V-33.77874999999999 Q109.81125 -34.423749999999984 101.02312500000001 -39.906249999999986 Q92.235 -45.38874999999999 85.14 -57.96624999999999 L78.045 -24.103749999999977 L92.39625000000001 -10.236249999999984 V31.527500000000032 H88.84875 Z M87.075 -80.37999999999998 Q82.88250000000001 -80.37999999999998 79.98 -83.28249999999998 Q77.0775 -86.18499999999997 77.0775 -90.37749999999998 Q77.0775 -94.57 79.98 -97.47249999999998 Q82.88250000000001 -100.37499999999999 87.075 -100.37499999999999 Q91.2675 -100.37499999999999 94.17 -97.47249999999998 Q97.0725 -94.57 97.0725 -90.37749999999998 Q97.0725 -86.18499999999997 94.17 -83.28249999999998 Q91.2675 -80.37999999999998 87.075 -80.37999999999998 Z"/></g><g id="Bold-M" transform="matrix(1 0 0 1 2281.8 1126)"><path d="M63.125 21.64500000000001 V-9.22999999999999 L55.625 -16.35499999999999 L51.0 4.02000000000001 L12.75 -3.7299999999999898 L15.5 -17.35499999999999 L39.5 -12.35499999999999 L46.5 -47.85499999999999 L40.75 -45.72999999999999 V-28.10499999999999 H26.875 V-54.85499999999999 L49.0 -63.72999999999999 Q53.75 -65.60499999999999 55.9375 -66.29249999999999 Q58.125 -66.97999999999999 60.0 -66.97999999999999 Q63.25 -66.97999999999999 65.75 -65.22999999999999 Q68.25 -63.47999999999999 70.0 -60.85499999999999 L75.25 -52.85499999999999 Q78.25 -48.10499999999999 83.75 -45.04249999999999 Q89.25 -41.97999999999999 96.875 -41.97999999999999 V-28.10499999999999 Q88.25 -28.10499999999999 81.0 -31.04249999999999 Q73.75 -33.97999999999999 68.625 -38.72999999999999 L66.625 -28.10499999999999 L76.875 -18.35499999999999 V21.64500000000001 H63.125 Z M67.75 -69.60499999999999 Q62.75 -69.60499999999999 59.25 -73.10499999999999 Q55.75 -76.60499999999999 55.75 -81.60499999999999 Q55.75 -86.60499999999999 59.25 -90.04249999999999 Q62.75 -93.47999999999999 67.75 -93.47999999999999 Q72.75 -93.47999999999999 76.1875 -90.04249999999999 Q79.625 -86.60499999999999 79.625 -81.60499999999999 Q79.625 -76.60499999999999 76.1875 -73.10499999999999 Q72.75 -69.60499999999999 67.75 -69.60499999999999 Z"/></g><g id="Semibold-M" transform="matrix(1 0 0 1 1985.97 1126)"><path d="M63.940125 20.830000000000013 V-9.664749999999984 L55.135875 -18.039624999999987 L50.347875 3.0417500000000075 L13.72825 -4.382124999999988 L16.152125 -16.431124999999994 L40.152125 -11.431124999999994 L47.586875 -49.10487499999999 L40.423875 -46.38212499999999 V-29.028874999999985 H28.233625 V-54.36587499999999 L49.326125 -63.07787499999999 Q53.913 -64.95287499999999 56.04625 -65.58599999999998 Q58.179375 -66.21912499999999 60.0 -66.21912499999999 Q62.97825 -66.21912499999999 65.369625 -64.63225 Q67.760875 -63.04524999999999 69.347875 -60.58324999999999 L74.489125 -52.58324999999999 Q77.597875 -47.61587499999999 83.125 -44.41749999999999 Q88.65225 -41.21912499999999 96.059875 -41.21912499999999 V-29.028874999999985 Q87.597875 -29.028874999999985 80.375 -32.18374999999999 Q73.15225 -35.33862499999999 68.135875 -40.468999999999994 L65.701125 -27.941999999999993 L76.059875 -18.083249999999992 V20.830000000000013 H63.940125 Z M67.64125 -68.789875 Q63.02175 -68.789875 59.76625 -72.04524999999998 Q56.510875 -75.30075 56.510875 -79.92037499999999 Q56.510875 -84.539875 59.76625 -87.75999999999999 Q63.02175 -90.98012499999999 67.64125 -90.98012499999999 Q72.260875 -90.98012499999999 75.481 -87.75999999999999 Q78.701125 -84.539875 78.701125 -79.92037499999999 Q78.701125 -75.30075 75.481 -72.04524999999998 Q72.260875 -68.789875 67.64125 -68.789875 Z"/></g><g id="Medium-M" transform="matrix(1 0 0 1 1689.91 1126)"><path d="M64.551625 20.218750000000014 V-9.990874999999988 L54.769 -19.30337499999999 L49.85875 2.308000000000007 L14.462 -4.871249999999989 L16.64125 -15.738124999999997 L40.64125 -10.738124999999997 L48.402125 -50.04249999999999 L40.179375 -46.87124999999999 V-29.721874999999983 H29.25275 V-53.99899999999999 L49.570625 -62.58874999999999 Q54.035375 -64.46374999999999 56.12775 -65.05612499999998 Q58.220125 -65.64849999999998 60.0 -65.64849999999998 Q62.7745 -65.64849999999998 65.08425 -64.18374999999999 Q67.394 -62.71912499999999 68.85875 -60.37949999999999 L73.9185 -52.37949999999999 Q77.10875 -47.24899999999999 82.65625 -43.94874999999999 Q88.20375 -40.648499999999984 95.448375 -40.648499999999984 V-29.721874999999983 Q87.10875 -29.721874999999983 79.90625 -33.039749999999984 Q72.70375 -36.357749999999996 67.769 -41.773499999999984 L65.008125 -27.819624999999988 L75.448375 -17.879499999999993 V20.218750000000014 H64.551625 Z M67.55975 -68.17837499999999 Q63.2255 -68.17837499999999 60.1535 -71.25037499999999 Q57.0815 -74.322375 57.0815 -78.65662499999999 Q57.0815 -82.99087499999999 60.1535 -86.04799999999999 Q63.2255 -89.10499999999999 67.55975 -89.10499999999999 Q71.894 -89.10499999999999 74.951125 -86.04799999999999 Q78.008125 -82.99087499999999 78.008125 -78.65662499999999 Q78.008125 -74.322375 74.951125 -71.25037499999999 Q71.894 -68.17837499999999 67.55975 -68.17837499999999 Z"/></g><g id="Regular-M" transform="matrix(1 0 0 1 1394.06 1126)"><path d="M65.0 19.77000000000001 V-10.22999999999999 L54.5 -20.22999999999999 L49.5 1.7700000000000102 L15.0 -5.22999999999999 L17.0 -15.22999999999999 L41.0 -10.22999999999999 L49.0 -50.72999999999999 L40.0 -47.22999999999999 V-30.22999999999999 H30.0 V-53.72999999999999 L49.75 -62.22999999999999 Q54.125 -64.10499999999999 56.1875 -64.66749999999999 Q58.25 -65.22999999999999 60.0 -65.22999999999999 Q62.625 -65.22999999999999 64.875 -63.85499999999999 Q67.125 -62.47999999999999 68.5 -60.22999999999999 L73.5 -52.22999999999999 Q76.75 -46.97999999999999 82.3125 -43.60499999999999 Q87.875 -40.22999999999999 95.0 -40.22999999999999 V-30.22999999999999 Q86.75 -30.22999999999999 79.5625 -33.66749999999999 Q72.375 -37.10499999999999 67.5 -42.72999999999999 L64.5 -27.72999999999999 L75.0 -17.72999999999999 V19.77000000000001 H65.0 Z M67.5 -67.72999999999999 Q63.375 -67.72999999999999 60.4375 -70.66749999999999 Q57.5 -73.60499999999999 57.5 -77.72999999999999 Q57.5 -81.85499999999999 60.4375 -84.79249999999999 Q63.375 -87.72999999999999 67.5 -87.72999999999999 Q71.625 -87.72999999999999 74.5625 -84.79249999999999 Q77.5 -81.85499999999999 77.5 -77.72999999999999 Q77.5 -73.60499999999999 74.5625 -70.66749999999999 Q71.625 -67.72999999999999 67.5 -67.72999999999999 Z"/></g><g id="Light-M" transform="matrix(1 0 0 1 1098.18 1126)"><path d="M66.250125 18.52000000000001 V-10.662749999999988 L53.73075 -22.633999999999986 L48.538375 0.3276250000000118 L16.442375 -6.191624999999988 L17.961625 -13.643374999999992 L41.961625 -8.691374999999994 L50.63475 -52.84549999999999 L38.749875 -48.04737499999999 V-31.480124999999987 H31.250125 V-52.96074999999999 L51.09625 -61.36449999999999 Q54.89425 -62.95112499999999 56.692375 -63.46549999999999 Q58.490375 -63.97987499999999 60.0 -63.97987499999999 Q62.288375 -63.97987499999999 64.25 -62.77324999999999 Q66.2115 -61.56649999999999 67.44225 -59.55687499999999 L72.44225 -51.55687499999999 Q75.644125 -46.40299999999999 81.206625 -42.88374999999999 Q86.769125 -39.36449999999999 93.749875 -39.07612499999999 V-31.576249999999987 Q86.125 -31.816624999999988 79.009625 -35.49449999999999 Q71.89425 -39.172499999999985 66.875 -46.14374999999999 L63.15375 -27.34537499999999 L73.749875 -17.15299999999999 V18.52000000000001 H66.250125 Z M67.5 -68.49924999999999 Q63.6635 -68.49924999999999 60.966375 -71.19637499999999 Q58.26925 -73.89349999999999 58.26925 -77.72999999999999 Q58.26925 -81.56649999999999 60.966375 -84.26362499999999 Q63.6635 -86.96074999999999 67.5 -86.96074999999999 Q71.3365 -86.96074999999999 74.033625 -84.26362499999999 Q76.73075 -81.56649999999999 76.73075 -77.72999999999999 Q76.73075 -73.89349999999999 74.033625 -71.19637499999999 Q71.3365 -68.49924999999999 67.5 -68.49924999999999 Z"/></g><g id="Thin-M" transform="matrix(1 0 0 1 802.565 1126)"><path d="M67.5 17.27000000000001 V-11.09537499999999 L52.9615 -25.03762499999999 L47.576875 -1.1146249999999895 L17.884625 -7.153124999999989 L18.923125 -12.056999999999988 L42.923125 -7.153124999999989 L52.26925 -54.96074999999999 L37.5 -48.86462499999999 V-32.72999999999999 H32.5 V-52.19149999999999 L52.44225 -60.49924999999999 Q55.6635 -61.79737499999999 57.197125 -62.26362499999999 Q58.73075 -62.72999999999999 60.0 -62.72999999999999 Q61.951875 -62.72999999999999 63.625 -61.69149999999999 Q65.298125 -60.65312499999999 66.384625 -58.88387499999999 L71.384625 -50.88387499999999 Q74.5385 -45.82612499999999 80.101 -42.16274999999999 Q85.6635 -38.49924999999999 92.5 -37.92237499999999 V-32.92224999999999 Q85.5 -33.40299999999999 78.45675 -37.32137499999999 Q71.4135 -41.23962499999999 66.25 -49.55687499999999 L61.80775 -26.96074999999999 L72.5 -16.57612499999999 V17.27000000000001 H67.5 Z M67.5 -69.26849999999999 Q63.951875 -69.26849999999999 61.495125 -71.72512499999999 Q59.0385 -74.18187499999999 59.0385 -77.72999999999999 Q59.0385 -81.27812499999999 61.495125 -83.73487499999999 Q63.951875 -86.19149999999999 67.5 -86.19149999999999 Q71.048125 -86.19149999999999 73.504875 -83.73487499999999 Q75.9615 -81.27812499999999 75.9615 -77.72999999999999 Q75.9615 -74.18187499999999 73.504875 -71.72512499999999 Q71.048125 -69.26849999999999 67.5 -69.26849999999999 Z"/></g><g id="Ultralight-M" transform="matrix(1 0 0 1 506.415 1126)"><path d="M68.25 16.52000000000001 V-11.35499999999999 L52.5 -26.47999999999999 L47.0 -1.9799999999999898 L18.75 -7.72999999999999 L19.5 -11.10499999999999 L43.5 -6.22999999999999 L53.25 -56.22999999999999 L36.75 -49.35499999999999 V-33.47999999999999 H33.25 V-51.72999999999999 L53.25 -59.97999999999999 Q56.125 -61.10499999999999 57.5 -61.54249999999999 Q58.875 -61.97999999999999 60.0 -61.97999999999999 Q61.75 -61.97999999999999 63.25 -61.04249999999999 Q64.75 -60.10499999999999 65.75 -58.47999999999999 L70.75 -50.47999999999999 Q73.875 -45.47999999999999 79.4375 -41.72999999999999 Q85.0 -37.97999999999999 91.75 -37.22999999999999 V-33.72999999999999 Q85.125 -34.35499999999999 78.125 -38.41749999999999 Q71.125 -42.47999999999999 65.875 -51.60499999999999 L61.0 -26.72999999999999 L71.75 -16.22999999999999 V16.52000000000001 H68.25 Z M67.5 -69.72999999999999 Q64.125 -69.72999999999999 61.8125 -72.04249999999999 Q59.5 -74.35499999999999 59.5 -77.72999999999999 Q59.5 -81.10499999999999 61.8125 -83.41749999999999 Q64.125 -85.72999999999999 67.5 -85.72999999999999 Q70.875 -85.72999999999999 73.1875 -83.41749999999999 Q75.5 -81.10499999999999 75.5 -77.72999999999999 Q75.5 -74.35499999999999 73.1875 -72.04249999999999 Q70.875 -69.72999999999999 67.5 -69.72999999999999 Z"/></g><g id="Bold-S" transform="matrix(1 0 0 1 2294.23 696)"><path d="M52.961625000000005 4.1213750000000005 V-17.57612499999999 L47.833125 -22.704624999999993 L44.973 -8.20675 L17.16075 -13.828374999999994 L19.13325 -23.592249999999993 L36.984375 -20.041749999999993 L41.323875 -42.035124999999994 L36.09675 -39.766749999999995 V-28.819374999999994 H25.938375 V-46.57187499999999 L46.057875 -54.5605 Q47.241375000000005 -54.955 48.2769375 -55.25087499999999 Q49.3125 -55.546749999999996 50.397375000000004 -55.546749999999996 Q53.553375 -55.546749999999996 55.8710625 -54.01806249999999 Q58.188750000000006 -52.489374999999995 59.865375 -49.826499999999996 L61.443375 -47.558125 Q64.204875 -42.92274999999999 67.9033125 -40.95025 Q71.60175000000001 -38.97774999999999 77.223375 -38.97774999999999 V-28.819374999999994 Q71.305875 -28.819374999999994 66.37462500000001 -30.890499999999996 Q61.443375 -32.96162499999999 57.794250000000005 -36.80799999999999 L56.314875 -28.424874999999993 L63.021375000000006 -21.718374999999995 V4.1213750000000005 H52.961625000000005 Z M57.005250000000004 -58.012375 Q52.863 -58.012375 50.002875 -60.872499999999995 Q47.14275 -63.732625 47.14275 -67.874875 Q47.14275 -72.017125 50.002875 -74.82793749999999 Q52.863 -77.63875 57.005250000000004 -77.63875 Q61.1475 -77.63875 63.958312500000005 -74.82793749999999 Q66.769125 -72.017125 66.769125 -67.874875 Q66.769125 -63.732625 63.958312500000005 -60.872499999999995 Q61.1475 -58.012375 57.005250000000004 -58.012375 Z"/></g><g id="Semibold-S" transform="matrix(1 0 0 1 1998.1 696)"><path d="M53.604758624999995 3.4782413750000103 V-17.919142749999992 L47.447205375 -24.033794124999986 L44.458473375000004 -8.978589249999999 L17.93258925 -14.342901624999996 L19.647776625000002 -22.863312624999992 L37.498901625 -19.312812624999992 L42.181419375000004 -43.021276375 L35.839437375 -40.28127662499999 V-29.548312374999988 H27.010330125000003 V-46.18595537499999 L46.315187625 -54.045973374999996 Q47.369982 -54.440473374999996 48.36274125 -54.69344649999999 Q49.355401875000005 -54.946419625 50.397375000000004 -54.946419625 Q53.338964250000004 -54.946419625 55.570946625000005 -53.546437749999996 Q57.802830375 -52.146357249999994 59.350848375000005 -49.61208925 L60.843044625000005 -47.34371425 Q63.690348375000006 -42.536830374999994 67.4101875 -40.457125 Q71.13012525 -38.377419624999995 76.58024137500001 -38.377419624999995 V-29.548312374999988 Q70.791348375 -29.548312374999988 65.8815 -31.79094624999999 Q60.97175025 -34.033580125 57.408330375 -38.180071 L55.58593762500001 -28.296267999999998 L62.37824137500001 -21.503964249999996 V3.4782413750000103 H53.604758624999995 Z M56.91944625 -57.369241374999994 Q53.07741075 -57.369241374999994 50.41019625 -60.036357249999995 Q47.743080375 -62.703571749999995 47.743080375 -66.545705875 Q47.743080375 -70.38774137499999 50.41019625 -73.027045 Q53.07741075 -75.666348625 56.91944625 -75.666348625 Q60.761580375 -75.666348625 63.400884 -73.027045 Q66.040187625 -70.38774137499999 66.040187625 -66.545705875 Q66.040187625 -62.703571749999995 63.400884 -60.036357249999995 Q60.761580375 -57.369241374999994 56.91944625 -57.369241374999994 Z"/></g><g id="Medium-S" transform="matrix(1 0 0 1 1701.85 696)"><path d="M54.08723212500001 2.9957678750000127 V-18.17645537499999 L47.157741 -25.030892874999992 L44.072553750000004 -9.557518000000002 L18.511518000000002 -14.728821249999996 L20.033696250000002 -22.316535625 L37.88482125 -18.766035625 L42.824651625 -43.761062499999994 L35.646526875 -40.667196249999996 V-30.095089374999986 H27.81441975 V-45.89649099999999 L46.508098125000004 -53.660053749999996 Q47.466535875000005 -54.05455375 48.42704475 -54.275375125 Q49.387553625 -54.496196499999996 50.397375000000004 -54.496196499999996 Q53.178205500000004 -54.496196499999996 55.34578575 -53.19257124999999 Q57.513366000000005 -51.889044625 58.964928750000006 -49.4513305 L60.3928215 -47.1829555 Q63.30442875000001 -42.24736599999999 67.04034375 -40.08728125 Q70.77625875 -37.92719649999999 76.097767875 -37.92719649999999 V-30.095089374999986 Q70.40542875 -30.095089374999986 65.51165625 -32.46633024999999 Q60.617883750000004 -34.837669749999996 57.118866000000004 -39.20932149999999 L55.03916062500001 -28.199714124999993 L61.895767875000004 -21.343205499999996 V2.9957678750000127 H54.08723212500001 Z M56.85514275 -56.886767875 Q53.2381695 -56.886767875 50.7157365 -59.409200874999996 Q48.1933035 -61.93163387499999 48.1933035 -65.54860712499999 Q48.1933035 -69.16558037499999 50.7157365 -71.676277 Q53.2381695 -74.186875 56.85514275 -74.186875 Q60.47211600000001 -74.186875 62.98281262500001 -71.676277 Q65.49341062500001 -69.16558037499999 65.49341062500001 -65.54860712499999 Q65.49341062500001 -61.93163387499999 62.98281262500001 -59.409200874999996 Q60.47211600000001 -56.886767875 56.85514275 -56.886767875 Z"/></g><g id="Regular-S" transform="matrix(1 0 0 1 1405.73 696)"><path d="M54.441 2.64200000000001 V-18.365124999999992 L46.9455 -25.762 L43.789500000000004 -9.982 L18.936 -15.01187499999999 L20.316750000000003 -21.91562499999999 L38.167875 -18.365124999999992 L43.296375000000005 -44.30349999999999 L35.505 -40.95025 V-30.495999999999995 H28.404 V-45.68424999999999 L46.649625 -53.376999999999995 Q47.53725 -53.771499999999996 48.4741875 -53.96874999999999 Q49.411125000000006 -54.166 50.397375000000004 -54.166 Q53.06025 -54.166 55.180687500000005 -52.933187499999995 Q57.301125 -51.700374999999994 58.681875000000005 -49.333375 L60.062625000000004 -47.065 Q63.021375000000006 -42.035124999999994 66.769125 -39.816062499999994 Q70.516875 -37.596999999999994 75.744 -37.596999999999994 V-30.495999999999995 Q70.122375 -30.495999999999995 65.2404375 -32.96162499999999 Q60.3585 -35.427249999999994 56.906625000000005 -39.96399999999999 L54.63825 -28.12899999999999 L61.542 -21.22524999999999 V2.64200000000001 H54.441 Z M56.808 -56.532999999999994 Q53.356125000000006 -56.532999999999994 50.9398125 -58.9493125 Q48.523500000000006 -61.365624999999994 48.523500000000006 -64.8175 Q48.523500000000006 -68.269375 50.9398125 -70.6856875 Q53.356125000000006 -73.102 56.808 -73.102 Q60.259875 -73.102 62.676187500000005 -70.6856875 Q65.0925 -68.269375 65.0925 -64.8175 Q65.0925 -61.365624999999994 62.676187500000005 -58.9493125 Q60.259875 -56.532999999999994 56.808 -56.532999999999994 Z"/></g><g id="Light-S" transform="matrix(1 0 0 1 1109.75 696)"><path d="M55.427348625 1.655651375000005 V-18.70656475 L46.338561750000004 -27.658755999999997 L43.030777875000005 -11.12003387499999 L20.074033875 -15.770597124999995 L21.075472125 -20.663777874999994 L38.926597125 -17.151149875 L44.58619275 -45.97262949999999 L34.518651375000005 -41.595158874999996 V-31.482348624999993 H29.390348624999998 V-45.07731174999999 L47.71181625 -52.6941205 Q48.14418825 -52.861092625 48.872533875 -53.020371999999995 Q49.600780875000005 -53.179651375 50.397375000000004 -53.179651375 Q52.794652875000004 -53.179651375 54.687562500000006 -52.07968674999999 Q56.5803735 -50.979623499999995 57.84731025000001 -48.802279375 L59.228060250000006 -46.533904375 Q62.14883962500001 -41.579871999999995 65.896589625 -39.246996249999995 Q69.644339625 -36.914120499999996 74.75765137500001 -36.686592624999996 V-31.558191249999993 Q69.62925 -31.747847124999993 64.804219125 -34.403127999999995 Q59.97918825 -37.05850749999999 56.4135 -42.65744874999999 L53.57605875 -27.825530875 L60.555651375000004 -20.76999699999999 V1.655651375000005 H55.427348625 Z M56.808 -57.13993824999999 Q53.5837515 -57.13993824999999 51.357094875 -59.366594875 Q49.130438250000005 -61.593251499999994 49.130438250000005 -64.8175 Q49.130438250000005 -68.0417485 51.357094875 -70.268405125 Q53.5837515 -72.49506174999999 56.808 -72.49506174999999 Q60.0322485 -72.49506174999999 62.258905125000005 -70.268405125 Q64.48556175 -68.0417485 64.48556175 -64.8175 Q64.48556175 -61.593251499999994 62.258905125000005 -59.366594875 Q60.0322485 -57.13993824999999 56.808 -57.13993824999999 Z"/></g><g id="Thin-S" transform="matrix(1 0 0 1 814.015 696)"><path d="M56.4135 0.6695000000000135 V-19.047905874999998 L45.731623500000005 -29.555216124999994 L42.272154375 -12.257969124999988 L21.211969125 -16.529220624999994 L21.834095625 -19.412127999999996 L39.685220625 -15.937470624999989 L45.87581325 -47.641561749999994 L33.5325 -42.239969124999995 V-32.46849999999999 H30.3765 V-44.470373499999994 L48.773810250000004 -52.01143825 Q48.7511265 -51.95078387499999 49.270781625000005 -52.072092624999996 Q49.790436750000005 -52.19349999999999 50.397375000000004 -52.19349999999999 Q52.529154375000005 -52.19349999999999 54.1944375 -51.226186 Q55.859720625 -50.258970624999996 57.012844125 -48.27128237499999 L58.393594125 -46.00290737499999 Q61.2765015 -41.124717624999995 65.0242515 -38.678127249999996 Q68.7720015 -36.23143825 73.7715 -35.77628387499999 V-32.62018525 Q69.136125 -32.999497 64.36800075000001 -35.84453237499999 Q59.5998765 -38.689469124999995 55.920375 -45.350404375 L52.51406475 -27.52206174999999 L59.569500000000005 -20.314842624999997 V0.6695000000000135 H56.4135 Z M56.808 -57.74687649999999 Q53.811279375000005 -57.74687649999999 51.774278625 -59.783778625 Q49.7373765 -61.820779375 49.7373765 -64.8175 Q49.7373765 -67.81422062499999 51.774278625 -69.851221375 Q53.811279375000005 -71.88812349999999 56.808 -71.88812349999999 Q59.804720625 -71.88812349999999 61.841721375 -69.851221375 Q63.8786235 -67.81422062499999 63.8786235 -64.8175 Q63.8786235 -61.820779375 61.841721375 -59.783778625 Q59.804720625 -57.74687649999999 56.808 -57.74687649999999 Z"/></g><g id="Ultralight-S" transform="matrix(1 0 0 1 517.792 696)"><path d="M57.005250000000004 0.07775000000000887 V-19.252749999999992 L45.3675 -30.693249999999992 L41.817 -12.940749999999994 L21.894750000000002 -16.984375 L22.289250000000003 -18.660999999999987 L40.140375 -15.209125 L46.649625 -48.642999999999994 L32.94075 -42.62687499999999 V-33.060249999999996 H30.96825 V-44.106249999999996 L49.411125000000006 -51.601749999999996 Q49.11525 -51.40449999999999 49.509750000000004 -51.503125 Q49.904250000000005 -51.601749999999996 50.397375000000004 -51.601749999999996 Q52.369875 -51.601749999999996 53.898562500000004 -50.714124999999996 Q55.42725 -49.826499999999996 56.512125000000005 -47.952625 L57.892875000000004 -45.68424999999999 Q60.753 -40.85162499999999 64.50075 -38.3366875 Q68.2485 -35.821749999999994 73.17975 -35.23 V-33.25749999999999 Q68.84025 -33.75062499999999 64.10625 -36.709374999999994 Q59.37225 -39.668124999999996 55.624500000000005 -46.96637499999999 L51.87675 -27.33999999999999 L58.97775 -20.041749999999993 V0.07775000000000887 H57.005250000000004 Z M56.808 -58.111 Q53.947875 -58.111 52.0246875 -60.034187499999994 Q50.1015 -61.957375 50.1015 -64.8175 Q50.1015 -67.67762499999999 52.0246875 -69.60081249999999 Q53.947875 -71.524 56.808 -71.524 Q59.668125 -71.524 61.5913125 -69.60081249999999 Q63.514500000000005 -67.67762499999999 63.514500000000005 -64.8175 Q63.514500000000005 -61.957375 61.5913125 -60.034187499999994 Q59.668125 -58.111 56.808 -58.111 Z"/></g></g></svg>