<svg xmlns="http://www.w3.org/2000/svg" version="1.1" width="3300" height="2000"><g id="Notes"><style>
    text {
      font-family: monospace;
      text-anchor: middle;
    }
    text.emphasis {
      font-weight:bold;
    }
    text.lanchor {
      text-anchor: start;
    }
  </style><rect height="2200" id="artboard" fill="white" width="3300" x="0" y="0"/><line id="" style="fill:none;stroke:black;stroke-width:0.5;" x1="263" x2="3036" y1="292" y2="292"/><text class="lanchor emphasis" transform="matrix(1 0 0 1 263 322)">Weight/Scale Variations</text><text transform="matrix(1 0 0 1 559.711 322)">Ultralight</text><text transform="matrix(1 0 0 1 856.422 322)">Thin</text><text transform="matrix(1 0 0 1 1153.13 322)">Light</text><text transform="matrix(1 0 0 1 1449.84 322)">Regular</text><text transform="matrix(1 0 0 1 1746.56 322)">Medium</text><text transform="matrix(1 0 0 1 2043.27 322)">Semibold</text><text transform="matrix(1 0 0 1 2339.98 322)">Bold</text><text transform="matrix(1 0 0 1 2636.69 322)">Heavy</text><text transform="matrix(1 0 0 1 2933.4 322)">Black</text><text id="template-version" style="text-anchor: end;" transform="matrix(1 0 0 1 3036 1933)">Template v.1.0</text><text class="lanchor" transform="matrix(1 0 0 1 263 726)">Small</text><text class="lanchor" transform="matrix(1 0 0 1 263 1156)">Medium</text><text class="lanchor" transform="matrix(1 0 0 1 263 1586)">Large</text></g><g id="Guides"><g id="H-reference" style="fill:#27AAE1;stroke:none;" transform="matrix(1 0 0 1 339 696)"><path d="M 54.9316 0 L 57.666 0 L 30.5664 -70.459 L 28.0762 -70.459 L 0.976562 0 L 3.66211 0 L 12.9395 -24.4629 L 45.7031 -24.4629 Z M 29.1992 -67.0898 L 29.4434 -67.0898 L 44.8242 -26.709 L 13.8184 -26.709 Z"/></g><line id="Baseline-S" style="fill:none;stroke:#27AAE1;opacity:1;stroke-width:0.577;" x1="263" x2="3036" y1="696" y2="696"/><line id="Capline-S" style="fill:none;stroke:#27AAE1;opacity:1;stroke-width:0.577;" x1="263" x2="3036" y1="625.541" y2="625.541"/><g id="H-reference" style="fill:#27AAE1;stroke:none;" transform="matrix(1 0 0 1 339 1126)"><path d="M 54.9316 0 L 57.666 0 L 30.5664 -70.459 L 28.0762 -70.459 L 0.976562 0 L 3.66211 0 L 12.9395 -24.4629 L 45.7031 -24.4629 Z M 29.1992 -67.0898 L 29.4434 -67.0898 L 44.8242 -26.709 L 13.8184 -26.709 Z"/></g><line id="Baseline-M" style="fill:none;stroke:#27AAE1;opacity:1;stroke-width:0.577;" x1="263" x2="3036" y1="1126" y2="1126"/><line id="Capline-M" style="fill:none;stroke:#27AAE1;opacity:1;stroke-width:0.577;" x1="263" x2="3036" y1="1055.54" y2="1055.54"/><g id="H-reference" style="fill:#27AAE1;stroke:none;" transform="matrix(1 0 0 1 339 1556)"><path d="M 54.9316 0 L 57.666 0 L 30.5664 -70.459 L 28.0762 -70.459 L 0.976562 0 L 3.66211 0 L 12.9395 -24.4629 L 45.7031 -24.4629 Z M 29.1992 -67.0898 L 29.4434 -67.0898 L 44.8242 -26.709 L 13.8184 -26.709 Z"/></g><line id="Baseline-L" style="fill:none;stroke:#27AAE1;opacity:1;stroke-width:0.577;" x1="263" x2="3036" y1="1556" y2="1556"/><line id="Capline-L" style="fill:none;stroke:#27AAE1;opacity:1;stroke-width:0.577;" x1="263" x2="3036" y1="1485.54" y2="1485.54"/><rect height="119.336" id="left-margin" style="fill:darkred;stroke:none;opacity:0.4;" width="12.4512" x="1394.06" y="1030.79"/><rect height="119.336" id="right-margin" style="fill:darkgreen;stroke:none;opacity:0.4;" width="12.4512" x="1502.5112" y="1030.79"/><rect x="1406.5112" y="1045" width="96" height="96" fill="none" stroke="blue" stroke-dasharray="5"/><rect x="1394.06" y="1030.79" width="120.9024" height="119.336" fill="none" stroke="blue"/></g><g id="Symbols"><g id="Bold-L" transform="matrix(1 0 0 1 2266 1556)"><path d="M18.86625 -15.879999999999981 Q12.617812500000001 -15.879999999999981 8.16328125 -20.29728249999998 Q3.70875 -24.71440374999999 3.70875 -31.198749999999976 V-90.05499999999998 Q3.70875 -96.53934624999998 8.16328125 -100.95646749999999 Q12.617812500000001 -105.37374999999999 18.86625 -105.37374999999999 H135.93375 Q142.1821875 -105.37374999999999 146.63671875 -100.95646749999999 Q151.09125 -96.53934624999998 151.09125 -90.05499999999998 V-31.198749999999976 Q151.09125 -24.71440374999999 146.63671875 -20.29728249999998 Q142.1821875 -15.879999999999981 135.93375 -15.879999999999981 H18.86625 Z M18.86625 -90.05499999999998 Q18.86625 -90.05499999999998 18.86625 -90.05499999999998 Q18.86625 -90.05499999999998 18.86625 -90.05499999999998 V-31.198749999999976 Q18.86625 -31.198749999999976 18.86625 -31.198749999999976 Q18.86625 -31.198749999999976 18.86625 -31.198749999999976 H135.93375 Q135.93375 -31.198749999999976 135.93375 -31.198749999999976 Q135.93375 -31.198749999999976 135.93375 -31.198749999999976 V-90.05499999999998 Q135.93375 -90.05499999999998 135.93375 -90.05499999999998 Q135.93375 -90.05499999999998 135.93375 -90.05499999999998 H18.86625 Z M17.25375 10.565000000000026  16.4475 -4.753749999999982  137.86875 -11.203749999999985  138.675 4.115000000000009  17.25375 10.565000000000026 Z M16.60875 31.043750000000017 V15.725000000000023 H138.19125 V31.043750000000017 H16.60875 Z M69.015 -42.969999999999985 Q79.19439 -42.969999999999985 88.617195 -46.35624999999999 Q98.04 -49.74249999999998 105.78 -56.67624999999998 Q107.3925 -51.19374999999998 112.310625 -48.61374999999998 Q117.22875 -46.03374999999998 123.03375 -45.54999999999998 V-75.54249999999999 Q117.06750000000001 -75.05874999999997 111.988125 -72.398125 Q106.90875 -69.73749999999998 105.4575 -64.41624999999999 Q97.78280625 -71.03346624999998 88.43272499999999 -74.65868874999998 Q79.08264375 -78.28374999999998 69.015 -78.28374999999998 Q57.4085475 -78.28374999999998 46.68364875 -74.01062499999998 Q35.95875 -69.73749999999998 28.86375 -60.546249999999986 Q35.95875 -51.35499999999999 46.68364875 -47.16249999999998 Q57.4085475 -42.969999999999985 69.015 -42.969999999999985 Z"/></g><g id="Semibold-L" transform="matrix(1 0 0 1 1970.27 1556)"><path d="M17.67445125 -15.879999999999981 Q12.4075425 -15.879999999999981 8.653965 -19.612453749999986 Q4.90054875 -23.344907499999977 4.90054875 -28.745169999999987 V-90.05499999999998 Q4.90054875 -95.45526249999999 8.653965 -99.18771624999998 Q12.4075425 -102.92016999999998 17.67445125 -102.92016999999998 H137.12554875 Q142.3924575 -102.92016999999998 146.146035 -99.18771624999998 Q149.89945125 -95.45526249999999 149.89945125 -90.05499999999998 V-28.745169999999987 Q149.89945125 -23.344907499999977 146.146035 -19.612453749999986 Q142.3924575 -15.879999999999981 137.12554875 -15.879999999999981 H17.67445125 Z M17.67445125 -90.05499999999998 Q17.67445125 -90.05499999999998 17.67445125 -90.05499999999998 Q17.67445125 -90.05499999999998 17.67445125 -90.05499999999998 V-28.745169999999987 Q17.67445125 -28.745169999999987 17.67445125 -28.745169999999987 Q17.67445125 -28.745169999999987 17.67445125 -28.745169999999987 H137.12554875 Q137.12554875 -28.745169999999987 137.12554875 -28.745169999999987 Q137.12554875 -28.745169999999987 137.12554875 -28.745169999999987 V-90.05499999999998 Q137.12554875 -90.05499999999998 137.12554875 -90.05499999999998 Q137.12554875 -90.05499999999998 137.12554875 -90.05499999999998 H17.67445125 Z M18.375405 8.882517500000034  17.709442499999998 -3.982652499999972  136.747095 -10.292364999999975  137.4130575 2.5726437499999975  18.375405 8.882517500000034 Z M17.80054875 27.398371250000025 V14.533201250000019 H136.99945125000002 V27.398371250000025 H17.80054875 Z M68.4541725 -41.70805749999998 Q79.174395 -41.70805749999998 89.09788125 -45.33972999999999 Q99.02152875 -48.97140249999998 106.901655 -56.46597999999999 Q108.16359750000001 -50.77304874999999 113.1868575 -47.87764374999999 Q118.21027875 -44.98223874999999 124.22554875 -44.56847124999999 V-74.14043124999998 Q118.04902875 -73.65668124999999 112.89951 -70.75063374999999 Q107.74999125 -67.84474749999998 106.64929875 -62.17293999999998 Q98.75159625 -69.32244249999998 88.933245 -73.20727749999998 Q79.1147325 -77.09195124999998 68.4541725 -77.09195124999998 Q56.65083375 -77.09195124999998 45.74388375 -72.88896999999997 Q34.837095000000005 -68.68598874999998 27.671951250000003 -59.35445124999998 Q34.837095000000005 -50.02307499999999 45.74388375 -45.865566249999986 Q56.65083375 -41.70805749999998 68.4541725 -41.70805749999998 Z"/></g><g id="Medium-L" transform="matrix(1 0 0 1 1674.31 1556)"><path d="M16.78048125 -15.879999999999981 Q12.24967875 -15.879999999999981 9.02209875 -19.09871124999998 Q5.794518750000001 -22.317422499999992 5.794518750000001 -26.904662499999986 V-90.05499999999998 Q5.794518750000001 -94.64223999999999 9.02209875 -97.86095124999999 Q12.24967875 -101.07966249999998 16.78048125 -101.07966249999998 H138.01951875 Q142.55032125 -101.07966249999998 145.77790125 -97.86095124999999 Q149.00548125 -94.64223999999999 149.00548125 -90.05499999999998 V-26.904662499999986 Q149.00548125 -22.317422499999992 145.77790125 -19.09871124999998 Q142.55032125 -15.879999999999981 138.01951875 -15.879999999999981 H16.78048125 Z M16.78048125 -90.05499999999998 Q16.78048125 -90.05499999999998 16.78048125 -90.05499999999998 Q16.78048125 -90.05499999999998 16.78048125 -90.05499999999998 V-26.904662499999986 Q16.78048125 -26.904662499999986 16.78048125 -26.904662499999986 Q16.78048125 -26.904662499999986 16.78048125 -26.904662499999986 H138.01951875 Q138.01951875 -26.904662499999986 138.01951875 -26.904662499999986 Q138.01951875 -26.904662499999986 138.01951875 -26.904662499999986 V-90.05499999999998 Q138.01951875 -90.05499999999998 138.01951875 -90.05499999999998 Q138.01951875 -90.05499999999998 138.01951875 -90.05499999999998 H16.78048125 Z M19.2168075 7.6204137500000115  18.65598 -3.4040874999999744  135.90569250000001 -9.608826249999993  136.46652 1.4158362500000123  19.2168075 7.6204137500000115 Z M18.69451875 24.66389375 V13.639231250000023 H136.10548125000003 V24.66389375 H18.69451875 Z M68.03347125 -40.761519999999976 Q79.15956 -40.761519999999976 89.45859750000001 -44.57717874999999 Q99.75763500000001 -48.392837499999985 107.7430575 -56.30811624999998 Q108.7421625 -50.45764374999999 113.84427375 -47.32552374999999 Q118.946385 -44.19340374999999 125.11951875 -43.83236499999998 V-73.08875874999998 Q118.78513500000001 -72.60500875 113.58304875 -69.51497499999999 Q108.3809625 -66.42494124999999 107.54326875 -60.49013499999998 Q99.47834999999999 -68.03889249999997 89.308635 -72.1185175 Q79.13892 -76.19798124999998 68.03347125 -76.19798124999998 Q56.0824275 -76.19798124999998 45.039060000000006 -72.04756749999999 Q33.9956925 -67.89715374999997 26.77798125 -58.46048124999999 Q33.9956925 -49.02396999999998 45.039060000000006 -44.89274499999998 Q56.0824275 -40.761519999999976 68.03347125 -40.761519999999976 Z"/></g><g id="Regular-L" transform="matrix(1 0 0 1 1378.56 1556)"><path d="M16.125 -15.879999999999981 Q12.1340625 -15.879999999999981 9.29203125 -18.722031249999986 Q6.45 -21.564062499999977 6.45 -25.55499999999998 V-90.05499999999998 Q6.45 -94.04593749999998 9.29203125 -96.88796874999998 Q12.1340625 -99.72999999999999 16.125 -99.72999999999999 H138.675 Q142.6659375 -99.72999999999999 145.50796875 -96.88796874999998 Q148.35 -94.04593749999998 148.35 -90.05499999999998 V-25.55499999999998 Q148.35 -21.564062499999977 145.50796875 -18.722031249999986 Q142.6659375 -15.879999999999981 138.675 -15.879999999999981 H16.125 Z M16.125 -90.05499999999998 Q16.125 -90.05499999999998 16.125 -90.05499999999998 Q16.125 -90.05499999999998 16.125 -90.05499999999998 V-25.55499999999998 Q16.125 -25.55499999999998 16.125 -25.55499999999998 Q16.125 -25.55499999999998 16.125 -25.55499999999998 H138.675 Q138.675 -25.55499999999998 138.675 -25.55499999999998 Q138.675 -25.55499999999998 138.675 -25.55499999999998 V-90.05499999999998 Q138.675 -90.05499999999998 138.675 -90.05499999999998 Q138.675 -90.05499999999998 138.675 -90.05499999999998 H16.125 Z M19.833750000000002 6.695000000000022  19.35 -2.9799999999999756  135.28875 -9.107499999999987  135.7725 0.5675000000000239  19.833750000000002 6.695000000000022 Z M19.35 22.658750000000026 V12.983750000000015 H135.45000000000002 V22.658750000000026 H19.35 Z M67.72500000000001 -40.06749999999998 Q79.148595 -40.06749999999998 89.7230475 -44.01812499999998 Q100.2975 -47.968749999999986 108.36 -56.19249999999998 Q109.16625 -50.22624999999998 114.32625 -46.92062499999999 Q119.48625 -43.61499999999998 125.775 -43.29249999999999 V-72.31749999999998 Q119.325 -71.83374999999998 114.08437500000001 -68.60874999999999 Q108.84375 -65.38374999999999 108.19875 -59.25624999999998 Q100.01128125000001 -67.09783749999998 89.58388875 -71.32016875 Q79.15649625 -75.54249999999999 67.72500000000001 -75.54249999999999 Q55.66559625000001 -75.54249999999999 44.522253750000004 -71.43062499999999 Q33.378750000000004 -67.31874999999998 26.122500000000002 -57.80499999999998 Q33.378750000000004 -48.29124999999998 44.522253750000004 -44.17937499999998 Q55.66559625000001 -40.06749999999998 67.72500000000001 -40.06749999999998 Z"/></g><g id="Light-L" transform="matrix(1 0 0 1 1082.77 1556)"><path d="M18.6059925 -18.733157499999976 Q14.801137500000001 -18.733157499999976 12.0521475 -21.482147499999982 Q9.303157500000001 -24.231137499999974 9.303157500000001 -28.035992499999978 V-87.5740075 Q9.303157500000001 -91.37886249999998 12.0521475 -94.12785249999999 Q14.801137500000001 -96.87684249999998 18.6059925 -96.87684249999998 H136.1940075 Q139.9988625 -96.87684249999998 142.74785250000002 -94.12785249999999 Q145.4968425 -91.37886249999998 145.4968425 -87.5740075 V-28.035992499999978 Q145.4968425 -24.231137499999974 142.74785250000002 -21.482147499999982 Q139.9988625 -18.733157499999976 136.1940075 -18.733157499999976 H18.6059925 Z M18.6059925 -89.55883374999999 Q17.737661250000002 -89.55883374999999 17.179413750000002 -89.00058624999998 Q16.62116625 -88.44233874999998 16.62116625 -87.5740075 V-28.035992499999978 Q16.62116625 -27.16766124999998 17.179413750000002 -26.609413749999987 Q17.737661250000002 -26.05116624999998 18.6059925 -26.05116624999998 H136.1940075 Q137.06233875 -26.05116624999998 137.62058625 -26.609413749999987 Q138.17883375 -27.16766124999998 138.17883375 -28.035992499999978 V-87.5740075 Q138.17883375 -88.44233874999998 137.62058625 -89.00058624999998 Q137.06233875 -89.55883374999999 136.1940075 -89.55883374999999 H18.6059925 Z M20.7641625 4.400090000000034  20.40441375 -3.2900837499999795  134.3583375 -9.293582499999985  134.71808625 -1.6034087499999714  20.7641625 4.400090000000034 Z M20.3423325 20.425921250000016 V12.735586250000011 H134.4576675 V20.425921250000016 H20.3423325 Z M68.687985 -41.121913749999976 Q79.45867875 -41.121913749999976 89.46391875 -44.730205 Q99.46915875 -48.33849624999998 107.181585 -56.00641749999998 Q108.049755 -50.59841499999999 112.68262875 -47.63383374999998 Q117.31534125 -44.669413749999975 122.98392375 -44.28483249999998 V-71.32516749999999 Q117.21617250000001 -70.77933624999999 112.47171375 -67.83345999999999 Q107.727255 -64.88758374999998 107.082255 -59.380251249999986 Q99.26695125 -66.72567249999999 89.37071625 -70.60679875 Q79.47431999999999 -74.48808624999998 68.7173325 -74.48808624999998 Q57.29019 -74.48808624999998 46.6989675 -70.61598999999998 Q36.107745 -66.7437325 29.09965875 -57.796614999999974 Q36.045825 -48.849497499999984 46.6583325 -44.985624999999985 Q57.27100125 -41.121913749999976 68.687985 -41.121913749999976 Z"/></g><g id="Thin-L" transform="matrix(1 0 0 1 787.282 1556)"><path d="M21.08650125 -21.58566999999998 Q17.46772875 -21.58566999999998 14.811779999999999 -24.241779999999977 Q12.15567 -26.897728749999985 12.15567 -30.51650124999999 V-85.09349874999998 Q12.15567 -88.71227124999999 14.811779999999999 -91.36821999999998 Q17.46772875 -94.02432999999999 21.08650125 -94.02432999999999 H133.71349875 Q137.33227125 -94.02432999999999 139.98822 -91.36821999999998 Q142.64433 -88.71227124999999 142.64433 -85.09349874999998 V-30.51650124999999 Q142.64433 -26.897728749999985 139.98822 -24.241779999999977 Q137.33227125 -21.58566999999998 133.71349875 -21.58566999999998 H21.08650125 Z M21.08650125 -89.06266749999998 Q19.35 -89.06266749999998 18.23366625 -87.94633374999998 Q17.1173325 -86.82999999999998 17.1173325 -85.09349874999998 V-30.51650124999999 Q17.1173325 -28.779999999999987 18.23366625 -27.663666249999977 Q19.35 -26.547332499999982 21.08650125 -26.547332499999982 H133.71349875 Q135.45000000000002 -26.547332499999982 136.56633375 -27.663666249999977 Q137.6826675 -28.779999999999987 137.6826675 -30.51650124999999 V-85.09349874999998 Q137.6826675 -86.82999999999998 136.56633375 -87.94633374999998 Q135.45000000000002 -89.06266749999998 133.71349875 -89.06266749999998 H21.08650125 Z M21.6942525 2.1056637500000193  21.45866625 -3.6001674999999835  133.4282475 -9.479664999999983  133.66383375 -3.77383374999998  21.6942525 2.1056637500000193 Z M21.334665 18.193415000000016 V12.487583750000027 H133.465335 V18.193415000000016 H21.334665 Z M69.6506475 -42.17616624999998 Q79.76876250000001 -42.17616624999998 89.20479 -45.442284999999984 Q98.6408175 -48.70824249999998 106.00333125 -55.820334999999986 Q106.9335825 -50.97041874999998 111.03916875 -48.347042499999986 Q115.14491625000001 -45.72366624999998 120.19333125 -45.27716499999998 V-70.33283499999999 Q115.1076675 -69.72508374999998 110.859375 -67.05833124999998 Q106.61108250000001 -64.39141749999999 105.9660825 -59.50425249999998 Q98.52294375000001 -66.35350749999998 89.15754375 -69.89375124999998 Q79.79214375 -73.43383374999999 69.709665 -73.43383374999999 Q58.914300000000004 -73.43383374999999 48.875358750000004 -69.80135499999999 Q38.8364175 -66.16887624999998 32.07633375 -57.788229999999984 Q38.712416250000004 -49.407583749999986 48.794250000000005 -45.791874999999976 Q58.87608375 -42.17616624999998 69.6506475 -42.17616624999998 Z"/></g><g id="Ultralight-L" transform="matrix(1 0 0 1 491.205 1556)"><path d="M22.575 -23.297499999999985 Q19.067812500000002 -23.297499999999985 16.46765625 -25.897656249999983 Q13.8675 -28.49781249999998 13.8675 -32.00499999999998 V-83.60499999999999 Q13.8675 -87.11218749999998 16.46765625 -89.71234374999997 Q19.067812500000002 -92.31249999999999 22.575 -92.31249999999999 H132.225 Q135.7321875 -92.31249999999999 138.33234375 -89.71234374999997 Q140.9325 -87.11218749999998 140.9325 -83.60499999999999 V-32.00499999999998 Q140.9325 -28.49781249999998 138.33234375 -25.897656249999983 Q135.7321875 -23.297499999999985 132.225 -23.297499999999985 H22.575 Z M22.575 -88.76499999999999 Q20.3175 -88.76499999999999 18.86625 -87.31374999999998 Q17.415 -85.86249999999998 17.415 -83.60499999999999 V-32.00499999999998 Q17.415 -29.747499999999988 18.86625 -28.296249999999986 Q20.3175 -26.844999999999985 22.575 -26.844999999999985 H132.225 Q134.48250000000002 -26.844999999999985 135.93375 -28.296249999999986 Q137.385 -29.747499999999988 137.385 -32.00499999999998 V-83.60499999999999 Q137.385 -85.86249999999998 135.93375 -87.31374999999998 Q134.48250000000002 -88.76499999999999 132.225 -88.76499999999999 H22.575 Z M22.2525 0.7287500000000193  22.091250000000002 -3.7862499999999812  132.87 -9.591249999999988  133.03125 -5.0762499999999875  22.2525 0.7287500000000193 Z M21.93 16.85375000000002 V12.338750000000005 H132.87 V16.85375000000002 H21.93 Z M70.22840624999999 -42.80874999999999 Q79.954845 -42.80874999999999 89.049345 -45.86943624999998 Q98.143845 -48.93012249999998 105.29625 -55.70874999999998 Q106.26375 -51.19374999999998 110.05312500000001 -48.77499999999998 Q113.8425 -46.35624999999999 118.51875 -45.87249999999999 V-69.73749999999998 Q113.8425 -69.09249999999999 109.891875 -66.59312499999999 Q105.94125 -64.09374999999999 105.29625 -59.578749999999985 Q98.07628125000001 -66.13033749999998 89.02951125 -69.46579374999999 Q79.9829025 -72.80124999999998 70.305 -72.80124999999998 Q59.888895 -72.80124999999998 50.1813225 -69.31260624999999 Q40.47375 -65.8239625 33.862500000000004 -57.783231249999986 Q40.3125 -49.74249999999998 50.075865 -46.27562499999998 Q59.83923 -42.80874999999999 70.22840624999999 -42.80874999999999 Z"/></g><g id="Bold-M" transform="matrix(1 0 0 1 2281.8 1126)"><path d="M17.875 -20.22999999999999 Q11.25 -20.22999999999999 6.6875 -24.79249999999999 Q2.125 -29.35499999999999 2.125 -35.97999999999999 V-75.22999999999999 Q2.125 -81.85499999999999 6.6875 -86.41749999999999 Q11.25 -90.97999999999999 17.875 -90.97999999999999 H102.125 Q108.75 -90.97999999999999 113.3125 -86.41749999999999 Q117.875 -81.85499999999999 117.875 -75.22999999999999 V-35.97999999999999 Q117.875 -29.35499999999999 113.3125 -24.79249999999999 Q108.75 -20.22999999999999 102.125 -20.22999999999999 H17.875 Z M17.875 -75.22999999999999 Q17.875 -75.22999999999999 17.875 -75.22999999999999 Q17.875 -75.22999999999999 17.875 -75.22999999999999 V-35.97999999999999 Q17.875 -35.97999999999999 17.875 -35.97999999999999 Q17.875 -35.97999999999999 17.875 -35.97999999999999 H102.125 Q102.125 -35.97999999999999 102.125 -35.97999999999999 Q102.125 -35.97999999999999 102.125 -35.97999999999999 V-75.22999999999999 Q102.125 -75.22999999999999 102.125 -75.22999999999999 Q102.125 -75.22999999999999 102.125 -75.22999999999999 H17.875 Z M12.75 1.2700000000000102  12.0 -11.97999999999999  107.5 -17.10499999999999  108.25 -3.8549999999999898  12.75 1.2700000000000102 Z M12.125 18.27000000000001 V5.02000000000001 H107.875 V18.27000000000001 H12.125 Z M52.625 -40.72999999999999 Q60.559875 -40.72999999999999 67.904875 -43.41749999999999 Q75.25 -46.10499999999999 81.25 -51.47999999999999 Q83.0 -46.72999999999999 87.5 -44.66749999999999 Q92.0 -42.60499999999999 97.125 -42.60499999999999 V-68.60499999999999 Q91.875 -68.60499999999999 87.375 -66.41749999999999 Q82.875 -64.22999999999999 81.125 -59.47999999999999 Q75.125 -64.72999999999999 67.8125 -67.60499999999999 Q60.5 -70.47999999999999 52.625 -70.47999999999999 Q43.145 -70.47999999999999 34.385 -66.97999999999999 Q25.625 -63.47999999999999 20.25 -55.60499999999999 Q25.625 -47.72999999999999 34.385 -44.22999999999999 Q43.145 -40.72999999999999 52.625 -40.72999999999999 Z"/></g><g id="Semibold-M" transform="matrix(1 0 0 1 1985.97 1126)"><path d="M16.625125 -20.22999999999999 Q11.087 -20.22999999999999 7.230875 -24.085999999999984 Q3.374875 -27.941999999999993 3.374875 -33.48012499999999 V-75.22999999999999 Q3.374875 -80.768125 7.230875 -84.62412499999999 Q11.087 -88.48012499999999 16.625125 -88.48012499999999 H103.374875 Q108.913 -88.48012499999999 112.769 -84.62412499999999 Q116.625125 -80.768125 116.625125 -75.22999999999999 V-33.48012499999999 Q116.625125 -27.941999999999993 112.769 -24.085999999999984 Q108.913 -20.22999999999999 103.374875 -20.22999999999999 H16.625125 Z M16.625125 -75.22999999999999 Q16.625125 -75.22999999999999 16.625125 -75.22999999999999 Q16.625125 -75.22999999999999 16.625125 -75.22999999999999 V-33.48012499999999 Q16.625125 -33.48012499999999 16.625125 -33.48012499999999 Q16.625125 -33.48012499999999 16.625125 -33.48012499999999 H103.374875 Q103.374875 -33.48012499999999 103.374875 -33.48012499999999 Q103.374875 -33.48012499999999 103.374875 -33.48012499999999 V-75.22999999999999 Q103.374875 -75.22999999999999 103.374875 -75.22999999999999 Q103.374875 -75.22999999999999 103.374875 -75.22999999999999 H16.625125 Z M13.89125 -0.4689999999999941  13.30425 -11.219124999999991  106.35875 -16.181124999999994  106.94575 -5.430999999999983  13.89125 -0.4689999999999941 Z M13.374875 14.520250000000004 V3.7701250000000073 H106.625125 V14.520250000000004 H13.374875 Z M52.02725 -39.425749999999994 Q60.533875 -39.425749999999994 68.408125 -42.357749999999996 Q76.2825 -45.28987499999999 82.445625 -51.26262499999999 Q83.760875 -46.29524999999999 88.3695 -43.933874999999986 Q92.97825 -41.57249999999999 98.374875 -41.57249999999999 V-67.13774999999998 Q92.9075 -67.13774999999998 88.298875 -64.67849999999999 Q83.690125 -62.21924999999999 82.374875 -57.19749999999999 Q76.10325 -62.99099999999999 68.301625 -66.13774999999998 Q60.5 -69.28437499999998 52.02725 -69.28437499999998 Q42.3755 -69.28437499999998 33.45675 -65.81162499999999 Q24.538125 -62.33874999999999 19.054375 -54.35512499999999 Q24.538125 -46.371374999999986 33.45675 -42.898624999999996 Q42.3755 -39.425749999999994 52.02725 -39.425749999999994 Z"/></g><g id="Medium-M" transform="matrix(1 0 0 1 1689.91 1126)"><path d="M15.6875 -20.22999999999999 Q10.964625 -20.22999999999999 7.638625 -23.556124999999994 Q4.3125 -26.882249999999985 4.3125 -31.60499999999999 V-75.22999999999999 Q4.3125 -79.95287499999999 7.638625 -83.27887499999999 Q10.964625 -86.60499999999999 15.6875 -86.60499999999999 H104.3125 Q109.035375 -86.60499999999999 112.361375 -83.27887499999999 Q115.6875 -79.95287499999999 115.6875 -75.22999999999999 V-31.60499999999999 Q115.6875 -26.882249999999985 112.361375 -23.556124999999994 Q109.035375 -20.22999999999999 104.3125 -20.22999999999999 H15.6875 Z M15.6875 -75.22999999999999 Q15.6875 -75.22999999999999 15.6875 -75.22999999999999 Q15.6875 -75.22999999999999 15.6875 -75.22999999999999 V-31.60499999999999 Q15.6875 -31.60499999999999 15.6875 -31.60499999999999 Q15.6875 -31.60499999999999 15.6875 -31.60499999999999 H104.3125 Q104.3125 -31.60499999999999 104.3125 -31.60499999999999 Q104.3125 -31.60499999999999 104.3125 -31.60499999999999 V-75.22999999999999 Q104.3125 -75.22999999999999 104.3125 -75.22999999999999 Q104.3125 -75.22999999999999 104.3125 -75.22999999999999 H15.6875 Z M14.74725 -1.7734999999999843  14.282625 -10.648499999999984  105.50275 -15.488124999999997  105.967375 -6.613124999999997  14.74725 -1.7734999999999843 Z M14.3125 11.70750000000001 V2.8325000000000102 H105.6875 V11.70750000000001 H14.3125 Z M51.57875 -38.447374999999994 Q60.51425 -38.447374999999994 68.785625 -41.56287499999999 Q77.057 -44.67837499999999 83.342375 -51.09962499999999 Q84.3315 -45.96912499999999 89.02175 -43.38349999999999 Q93.712 -40.79799999999999 99.3125 -40.79799999999999 V-66.03712499999999 Q93.682 -66.03712499999999 88.991875 -63.37399999999999 Q84.301625 -60.71099999999999 83.3125 -55.48549999999999 Q76.837 -61.68649999999999 68.6685 -65.03712499999999 Q60.5 -68.38762499999999 51.57875 -68.38762499999999 Q41.79825 -68.38762499999999 32.7605 -64.935125 Q23.722875 -61.48274999999999 18.157625 -53.41749999999999 Q23.722875 -45.35224999999999 32.7605 -41.899874999999994 Q41.79825 -38.447374999999994 51.57875 -38.447374999999994 Z"/></g><g id="Regular-M" transform="matrix(1 0 0 1 1394.06 1126)"><path d="M15.0 -20.22999999999999 Q10.875 -20.22999999999999 7.9375 -23.16749999999999 Q5.0 -26.10499999999999 5.0 -30.22999999999999 V-75.22999999999999 Q5.0 -79.35499999999999 7.9375 -82.29249999999999 Q10.875 -85.22999999999999 15.0 -85.22999999999999 H105.0 Q109.125 -85.22999999999999 112.0625 -82.29249999999999 Q115.0 -79.35499999999999 115.0 -75.22999999999999 V-30.22999999999999 Q115.0 -26.10499999999999 112.0625 -23.16749999999999 Q109.125 -20.22999999999999 105.0 -20.22999999999999 H15.0 Z M15.0 -75.22999999999999 Q15.0 -75.22999999999999 15.0 -75.22999999999999 Q15.0 -75.22999999999999 15.0 -75.22999999999999 V-30.22999999999999 Q15.0 -30.22999999999999 15.0 -30.22999999999999 Q15.0 -30.22999999999999 15.0 -30.22999999999999 H105.0 Q105.0 -30.22999999999999 105.0 -30.22999999999999 Q105.0 -30.22999999999999 105.0 -30.22999999999999 V-75.22999999999999 Q105.0 -75.22999999999999 105.0 -75.22999999999999 Q105.0 -75.22999999999999 105.0 -75.22999999999999 H15.0 Z M15.375 -2.7299999999999898  15.0 -10.22999999999999  104.875 -14.97999999999999  105.25 -7.47999999999999  15.375 -2.7299999999999898 Z M15.0 9.64500000000001 V2.1450000000000102 H105.0 V9.64500000000001 H15.0 Z M51.25 -37.72999999999999 Q60.5 -37.72999999999999 69.0625 -40.97999999999999 Q77.625 -44.22999999999999 84.0 -50.97999999999999 Q84.75 -45.72999999999999 89.5 -42.97999999999999 Q94.25 -40.22999999999999 100.0 -40.22999999999999 V-65.22999999999999 Q94.25 -65.22999999999999 89.5 -62.41749999999999 Q84.75 -59.60499999999999 84.0 -54.22999999999999 Q77.375 -60.72999999999999 68.9375 -64.22999999999999 Q60.5 -67.72999999999999 51.25 -67.72999999999999 Q41.375 -67.72999999999999 32.25 -64.29249999999999 Q23.125 -60.85499999999999 17.5 -52.72999999999999 Q23.125 -44.60499999999999 32.25 -41.16749999999999 Q41.375 -37.72999999999999 51.25 -37.72999999999999 Z"/></g><g id="Light-M" transform="matrix(1 0 0 1 1098.18 1126)"><path d="M16.250125 -22.441749999999985 Q12.50975 -22.441749999999985 9.86075 -25.090749999999986 Q7.21175 -27.739749999999987 7.21175 -31.480124999999987 V-73.97987499999999 Q7.21175 -77.72025 9.86075 -80.36925 Q12.50975 -83.01825 16.250125 -83.01825 H103.749875 Q107.49025 -83.01825 110.13925 -80.36925 Q112.78825 -77.72025 112.78825 -73.97987499999999 V-31.480124999999987 Q112.78825 -27.739749999999987 110.13925 -25.090749999999986 Q107.49025 -22.441749999999985 103.749875 -22.441749999999985 H16.250125 Z M16.250125 -75.51849999999999 Q15.577 -75.51849999999999 15.14425 -75.08574999999999 Q14.7115 -74.65299999999999 14.7115 -73.97987499999999 V-31.480124999999987 Q14.7115 -30.806999999999988 15.14425 -30.37424999999999 Q15.577 -29.94149999999999 16.250125 -29.94149999999999 H103.749875 Q104.423 -29.94149999999999 104.85575 -30.37424999999999 Q105.2885 -30.806999999999988 105.2885 -31.480124999999987 V-73.97987499999999 Q105.2885 -74.65299999999999 104.85575 -75.08574999999999 Q104.423 -75.51849999999999 103.749875 -75.51849999999999 H16.250125 Z M16.09625 -4.508999999999986  15.817375 -10.47037499999999  104.15375 -15.12424999999999  104.432625 -9.162874999999985  16.09625 -4.508999999999986 Z M15.76925 7.914125000000013 V1.9526250000000118 H104.23075 V7.914125000000013 H15.76925 Z M52.355875 -38.88387499999999 Q60.98075 -38.88387499999999 69.014375 -41.82137499999999 Q77.048 -44.75887499999999 83.0865 -50.97999999999999 Q83.8365 -46.35499999999999 87.9855 -43.89349999999999 Q92.1345 -41.43199999999999 97.16325 -41.33587499999999 V-64.12412499999999 Q92.1345 -63.97987499999999 87.961375 -61.45587499999999 Q83.788375 -58.93187499999999 83.0865 -54.22999999999999 Q76.846125 -60.24924999999999 68.9135 -63.41262499999999 Q60.98075 -66.57612499999999 52.355875 -66.57612499999999 Q43.105875 -66.57612499999999 34.533875 -63.40299999999999 Q25.96175 -60.22999999999999 20.529125 -52.72999999999999 Q25.913625 -45.22999999999999 34.50975 -42.05699999999999 Q43.105875 -38.88387499999999 52.355875 -38.88387499999999 Z"/></g><g id="Thin-M" transform="matrix(1 0 0 1 802.565 1126)"><path d="M17.5 -24.65299999999999 Q14.14425 -24.65299999999999 11.783625 -27.01362499999999 Q9.423 -29.37424999999999 9.423 -32.72999999999999 V-72.72999999999999 Q9.423 -76.08574999999999 11.783625 -78.44637499999999 Q14.14425 -80.80699999999999 17.5 -80.80699999999999 H102.5 Q105.85575 -80.80699999999999 108.216375 -78.44637499999999 Q110.577 -76.08574999999999 110.577 -72.72999999999999 V-32.72999999999999 Q110.577 -29.37424999999999 108.216375 -27.01362499999999 Q105.85575 -24.65299999999999 102.5 -24.65299999999999 H17.5 Z M17.5 -75.80687499999999 Q16.153875 -75.80687499999999 15.2885 -74.94149999999999 Q14.423125 -74.07612499999999 14.423125 -72.72999999999999 V-32.72999999999999 Q14.423125 -31.38387499999999 15.2885 -30.51849999999999 Q16.153875 -29.65312499999999 17.5 -29.65312499999999 H102.5 Q103.846125 -29.65312499999999 104.7115 -30.51849999999999 Q105.576875 -31.38387499999999 105.576875 -32.72999999999999 V-72.72999999999999 Q105.576875 -74.07612499999999 104.7115 -74.94149999999999 Q103.846125 -75.80687499999999 102.5 -75.80687499999999 H17.5 Z M16.81725 -6.287624999999991  16.634625 -10.71074999999999  103.43275 -15.268499999999989  103.615375 -10.84537499999999  16.81725 -6.287624999999991 Z M16.5385 6.183500000000009 V1.7603750000000105 H103.4615 V6.183500000000009 H16.5385 Z M53.4615 -40.03762499999999 Q61.4615 -40.03762499999999 68.966375 -42.66262499999999 Q76.471125 -45.28762499999999 82.173125 -50.97999999999999 Q82.923125 -46.97999999999999 86.471125 -44.80687499999999 Q90.01925 -42.63387499999999 94.327 -42.44149999999999 V-63.01849999999999 Q90.01925 -62.72999999999999 86.423125 -60.49437499999999 Q82.826875 -58.25887499999999 82.173125 -54.22999999999999 Q76.317375 -59.76849999999999 68.889375 -62.59537499999999 Q61.4615 -65.42237499999999 53.4615 -65.42237499999999 Q44.8365 -65.42237499999999 36.81725 -62.51362499999999 Q28.798 -59.60499999999999 23.557625 -52.72999999999999 Q28.701875 -45.85499999999999 36.76925 -42.94637499999999 Q44.8365 -40.03762499999999 53.4615 -40.03762499999999 Z"/></g><g id="Ultralight-M" transform="matrix(1 0 0 1 506.415 1126)"><path d="M18.25 -25.97999999999999 Q15.125 -25.97999999999999 12.9375 -28.16749999999999 Q10.75 -30.35499999999999 10.75 -33.47999999999999 V-71.97999999999999 Q10.75 -75.10499999999999 12.9375 -77.29249999999999 Q15.125 -79.47999999999999 18.25 -79.47999999999999 H101.75 Q104.875 -79.47999999999999 107.0625 -77.29249999999999 Q109.25 -75.10499999999999 109.25 -71.97999999999999 V-33.47999999999999 Q109.25 -30.35499999999999 107.0625 -28.16749999999999 Q104.875 -25.97999999999999 101.75 -25.97999999999999 H18.25 Z M18.25 -75.97999999999999 Q16.5 -75.97999999999999 15.375 -74.85499999999999 Q14.25 -73.72999999999999 14.25 -71.97999999999999 V-33.47999999999999 Q14.25 -31.72999999999999 15.375 -30.60499999999999 Q16.5 -29.47999999999999 18.25 -29.47999999999999 H101.75 Q103.5 -29.47999999999999 104.625 -30.60499999999999 Q105.75 -31.72999999999999 105.75 -33.47999999999999 V-71.97999999999999 Q105.75 -73.72999999999999 104.625 -74.85499999999999 Q103.5 -75.97999999999999 101.75 -75.97999999999999 H18.25 Z M17.25 -7.35499999999999  17.125 -10.85499999999999  103.0 -15.35499999999999  103.125 -11.85499999999999  17.25 -7.35499999999999 Z M17.0 5.14500000000001 V1.6450000000000102 H103.0 V5.14500000000001 H17.0 Z M54.125 -40.72999999999999 Q61.75 -40.72999999999999 68.9375 -43.16749999999999 Q76.125 -45.60499999999999 81.625 -50.97999999999999 Q82.375 -47.35499999999999 85.5625 -45.35499999999999 Q88.75 -43.35499999999999 92.625 -43.10499999999999 V-62.35499999999999 Q88.75 -61.97999999999999 85.5 -59.91749999999999 Q82.25 -57.85499999999999 81.625 -54.22999999999999 Q76.0 -59.47999999999999 68.875 -62.10499999999999 Q61.75 -64.72999999999999 54.125 -64.72999999999999 Q45.875 -64.72999999999999 38.1875 -61.97999999999999 Q30.5 -59.22999999999999 25.375 -52.72999999999999 Q30.375 -46.22999999999999 38.125 -43.47999999999999 Q45.875 -40.72999999999999 54.125 -40.72999999999999 Z"/></g><g id="Bold-S" transform="matrix(1 0 0 1 2294.23 696)"><path d="M14.103375 -25.762 Q9.2017125 -25.762 5.83366875 -29.13004374999999 Q2.465625 -32.49808749999999 2.465625 -37.39975 V-66.00099999999999 Q2.465625 -70.90266249999999 5.83366875 -74.27070624999999 Q9.2017125 -77.63875 14.103375 -77.63875 H80.576625 Q85.47828750000001 -77.63875 88.84633125 -74.27070624999999 Q92.214375 -70.90266249999999 92.214375 -66.00099999999999 V-37.39975 Q92.214375 -32.49808749999999 88.84633125 -29.13004374999999 Q85.47828750000001 -25.762 80.576625 -25.762 H14.103375 Z M14.103375 -66.00099999999999 Q14.103375 -66.00099999999999 14.103375 -66.00099999999999 Q14.103375 -66.00099999999999 14.103375 -66.00099999999999 V-37.39975 Q14.103375 -37.39975 14.103375 -37.39975 Q14.103375 -37.39975 14.103375 -37.39975 H80.576625 Q80.576625 -37.39975 80.576625 -37.39975 Q80.576625 -37.39975 80.576625 -37.39975 V-66.00099999999999 Q80.576625 -66.00099999999999 80.576625 -66.00099999999999 Q80.576625 -66.00099999999999 80.576625 -66.00099999999999 H14.103375 Z M12.2295 -8.403999999999996  11.539125 -20.041749999999993  82.15462500000001 -23.78949999999999  82.845 -12.151749999999993  12.2295 -8.403999999999996 Z M11.933625000000001 7.0801250000000095 V-4.557624999999987 H82.746375 V7.0801250000000095 H11.933625000000001 Z M42.507375 -39.96399999999999 Q48.866616375 -39.96399999999999 54.612508875 -42.330999999999996 Q60.3585 -44.69799999999999 64.10625 -49.826499999999996 Q65.0925 -45.881499999999996 68.44575 -43.85968749999999 Q71.799 -41.837875 75.842625 -41.837875 V-61.56287499999999 Q71.70037500000001 -61.56287499999999 68.347125 -59.491749999999996 Q64.993875 -57.420624999999994 64.007625 -53.57424999999999 Q60.3585 -58.604124999999996 54.5889375 -61.0204375 Q48.819375 -63.436749999999996 42.507375 -63.436749999999996 Q35.443162125 -63.436749999999996 28.915567875 -60.57662499999999 Q22.387875 -57.716499999999996 18.73875 -51.700374999999994 Q22.289250000000003 -45.58562499999999 28.848897375000004 -42.774812499999996 Q35.40854475 -39.96399999999999 42.507375 -39.96399999999999 Z"/></g><g id="Semibold-S" transform="matrix(1 0 0 1 1998.1 696)"><path d="M13.117223625000001 -25.762 Q9.0731055 -25.762 6.26249025 -28.57261525 Q3.4517763750000006 -31.38323049999999 3.4517763750000006 -35.42734862499999 V-66.00099999999999 Q3.4517763750000006 -70.04511812499999 6.26249025 -72.855733375 Q9.0731055 -75.666348625 13.117223625000001 -75.666348625 H81.56277637500001 Q85.60689450000001 -75.666348625 88.41750975 -72.855733375 Q91.228223625 -70.04511812499999 91.228223625 -66.00099999999999 V-35.42734862499999 Q91.228223625 -31.38323049999999 88.41750975 -28.57261525 Q85.60689450000001 -25.762 81.56277637500001 -25.762 H13.117223625000001 Z M13.117223625000001 -66.00099999999999 Q13.117223625000001 -66.00099999999999 13.117223625000001 -66.00099999999999 Q13.117223625000001 -66.00099999999999 13.117223625000001 -66.00099999999999 V-35.42734862499999 Q13.117223625000001 -35.42734862499999 13.117223625000001 -35.42734862499999 Q13.117223625000001 -35.42734862499999 13.117223625000001 -35.42734862499999 H81.56277637500001 Q81.56277637500001 -35.42734862499999 81.56277637500001 -35.42734862499999 Q81.56277637500001 -35.42734862499999 81.56277637500001 -35.42734862499999 V-66.00099999999999 Q81.56277637500001 -66.00099999999999 81.56277637500001 -66.00099999999999 Q81.56277637500001 -66.00099999999999 81.56277637500001 -66.00099999999999 H13.117223625000001 Z M13.12994625 -9.776071000000002  12.56817825 -19.441419624999995  81.25417875000001 -23.060562625000003  81.81594675000001 -13.395213999999982  13.12994625 -9.776071000000002 Z M12.919776375 4.12157225 V-5.543776374999993 H81.760223625 V4.12157225 H12.919776375 Z M42.03575025000001 -38.934946749999995 Q48.846102375 -38.934946749999995 55.009573125 -41.49485725 Q61.173142500000004 -44.054866374999996 65.049598125 -49.654991124999995 Q65.692830375 -45.538482249999994 69.1317855 -43.28085737499999 Q72.57083925 -41.0232325 76.828776375 -41.0232325 V-60.40521475 Q72.5150175 -60.40521475 69.076062375 -58.119679 Q65.63700862499999 -55.83414325 64.99377637500001 -51.773357499999996 Q61.130339250000006 -57.232054 54.97485712500001 -59.86277724999999 Q48.819375 -62.493401874999996 42.03575025000001 -62.493401874999996 Q34.836026625 -62.493401874999996 28.183178625000004 -59.654777124999995 Q21.530330625 -56.816053749999995 17.795401875 -50.714223624999995 Q21.431705625000003 -44.51366987499999 28.116606750000003 -41.724357624999996 Q34.80140925 -38.934946749999995 42.03575025000001 -38.934946749999995 Z"/></g><g id="Medium-S" transform="matrix(1 0 0 1 1701.85 696)"><path d="M12.377437500000001 -25.762 Q8.976551625 -25.762 6.584106375 -28.154543874999995 Q4.1915625 -30.547087749999996 4.1915625 -33.947874999999996 V-66.00099999999999 Q4.1915625 -69.401885875 6.584106375 -71.794331125 Q8.976551625 -74.186875 12.377437500000001 -74.186875 H82.30256250000001 Q85.703448375 -74.186875 88.095893625 -71.794331125 Q90.4884375 -69.401885875 90.4884375 -66.00099999999999 V-33.947874999999996 Q90.4884375 -30.547087749999996 88.095893625 -28.154543874999995 Q85.703448375 -25.762 82.30256250000001 -25.762 H12.377437500000001 Z M12.377437500000001 -66.00099999999999 Q12.377437500000001 -66.00099999999999 12.377437500000001 -66.00099999999999 Q12.377437500000001 -66.00099999999999 12.377437500000001 -66.00099999999999 V-33.947874999999996 Q12.377437500000001 -33.947874999999996 12.377437500000001 -33.947874999999996 Q12.377437500000001 -33.947874999999996 12.377437500000001 -33.947874999999996 H82.30256250000001 Q82.30256250000001 -33.947874999999996 82.30256250000001 -33.947874999999996 Q82.30256250000001 -33.947874999999996 82.30256250000001 -33.947874999999996 V-66.00099999999999 Q82.30256250000001 -66.00099999999999 82.30256250000001 -66.00099999999999 Q82.30256250000001 -66.00099999999999 82.30256250000001 -66.00099999999999 H12.377437500000001 Z M13.80533025 -10.805321499999991  13.340116125 -18.991196499999987  80.57879475000001 -22.513785624999997  81.044008875 -14.327910625000001  13.80533025 -10.805321499999991 Z M13.6595625 1.9023125000000078 V-6.283562499999988 H81.0204375 V1.9023125000000078 H13.6595625 Z M41.681883750000004 -38.163008874999996 Q48.83061825 -38.163008874999996 55.307420625 -40.867700875 Q61.784223000000004 -43.57239287499999 65.75713387500001 -49.52638412499999 Q66.14305350000001 -45.281169625 69.64641075 -42.846611499999995 Q73.14976800000001 -40.41215199999999 77.5685625 -40.41215199999999 V-59.536821624999995 Q73.126098 -59.536821624999995 69.622839375 -57.090428499999994 Q66.119482125 -54.644133999999994 65.7335625 -50.422589499999994 Q61.70926800000001 -56.202803499999995 55.2643215 -58.994384124999996 Q48.819375 -61.785866125 41.681883750000004 -61.785866125 Q34.380576375000004 -61.785866125 27.633837375 -58.963218624999996 Q20.887098375 -56.140669749999994 17.087866125 -49.97443749999999 Q20.788473375 -43.709580249999995 27.567265500000005 -40.936343875 Q34.345959 -38.163008874999996 41.681883750000004 -38.163008874999996 Z"/></g><g id="Regular-S" transform="matrix(1 0 0 1 1405.73 696)"><path d="M11.835 -25.762 Q8.9058375 -25.762 6.819918750000001 -27.84791874999999 Q4.734 -29.93383749999999 4.734 -32.86299999999999 V-66.00099999999999 Q4.734 -68.9301625 6.819918750000001 -71.01608125 Q8.9058375 -73.102 11.835 -73.102 H82.845 Q85.7741625 -73.102 87.86008125000001 -71.01608125 Q89.946 -68.9301625 89.946 -66.00099999999999 V-32.86299999999999 Q89.946 -29.93383749999999 87.86008125000001 -27.84791874999999 Q85.7741625 -25.762 82.845 -25.762 H11.835 Z M11.835 -66.00099999999999 Q11.835 -66.00099999999999 11.835 -66.00099999999999 Q11.835 -66.00099999999999 11.835 -66.00099999999999 V-32.86299999999999 Q11.835 -32.86299999999999 11.835 -32.86299999999999 Q11.835 -32.86299999999999 11.835 -32.86299999999999 H82.845 Q82.845 -32.86299999999999 82.845 -32.86299999999999 Q82.845 -32.86299999999999 82.845 -32.86299999999999 V-66.00099999999999 Q82.845 -66.00099999999999 82.845 -66.00099999999999 Q82.845 -66.00099999999999 82.845 -66.00099999999999 H11.835 Z M14.300625 -11.559999999999988  13.906125000000001 -18.660999999999987  80.0835 -22.11287499999999  80.47800000000001 -15.01187499999999  14.300625 -11.559999999999988 Z M14.202 0.2750000000000057 V-6.825999999999993 H80.47800000000001 V0.2750000000000057 H14.202 Z M41.4225 -37.596999999999994 Q48.819375 -37.596999999999994 55.525875 -40.40781249999999 Q62.232375000000005 -43.218624999999996 66.276 -49.431999999999995 Q66.47325000000001 -45.092499999999994 70.02375 -42.52824999999999 Q73.57425 -39.96399999999999 78.111 -39.96399999999999 V-58.9 Q73.57425 -58.9 70.02375 -56.33575 Q66.47325000000001 -53.771499999999996 66.276 -49.431999999999995 Q62.133750000000006 -55.448125 55.4765625 -58.35756249999999 Q48.819375 -61.266999999999996 41.4225 -61.266999999999996 Q34.046632125 -61.266999999999996 27.231052875000003 -58.4561875 Q20.415375 -55.645374999999994 16.569 -49.431999999999995 Q20.316750000000003 -43.12 27.164382375 -40.35849999999999 Q34.012014750000006 -37.596999999999994 41.4225 -37.596999999999994 Z"/></g><g id="Light-S" transform="matrix(1 0 0 1 1109.75 696)"><path d="M12.821348625 -27.507070749999997 Q10.19565525 -27.507070749999997 8.337363 -29.365362999999988 Q6.479070750000001 -31.22365525 6.479070750000001 -33.84934862499999 V-65.014651375 Q6.479070750000001 -67.64034475 8.337363 -69.498637 Q10.19565525 -71.35692925 12.821348625 -71.35692925 H81.85865137500001 Q84.48434475 -71.35692925 86.34263700000001 -69.498637 Q88.20092925 -67.64034475 88.20092925 -65.014651375 V-33.84934862499999 Q88.20092925 -31.22365525 86.34263700000001 -29.365362999999988 Q84.48434475 -27.507070749999997 81.85865137500001 -27.507070749999997 H12.821348625 Z M12.821348625 -66.22862649999999 Q12.290253 -66.22862649999999 11.94881325 -65.88718675 Q11.6073735 -65.545747 11.6073735 -65.014651375 V-33.84934862499999 Q11.6073735 -33.31825299999999 11.94881325 -32.97681324999999 Q12.290253 -32.63537349999999 12.821348625 -32.63537349999999 H81.85865137500001 Q82.389747 -32.63537349999999 82.73118675 -32.97681324999999 Q83.0726265 -33.31825299999999 83.0726265 -33.84934862499999 V-65.014651375 Q83.0726265 -65.545747 82.73118675 -65.88718675 Q82.389747 -66.22862649999999 81.85865137500001 -66.22862649999999 H12.821348625 Z M14.869691250000002 -12.963630999999992  14.551033875 -18.850655874999987  79.51443375000001 -22.226688249999995  79.83309112500001 -16.339663374999986  14.869691250000002 -12.963630999999992 Z M14.80893825 -1.0906603749999846 V-6.977783874999986 H79.87106175000001 V-1.0906603749999846 H14.80893825 Z M42.295035375 -38.50740737499999 Q49.19868675 -38.50740737499999 55.48790437500001 -41.071657374999994 Q61.777122000000006 -43.635907374999995 65.5552485 -49.431999999999995 Q65.7524985 -45.58562499999999 68.8288095 -43.24900149999999 Q71.90512050000001 -40.91237799999999 75.87280425 -40.83653537499999 V-58.027464625 Q71.90512050000001 -57.913651375 68.809774875 -55.577027875 Q65.714527875 -53.240404375 65.5552485 -49.431999999999995 Q61.716467625 -55.06881325 55.4576265 -57.712653624999994 Q49.19868675 -60.356592625 42.295035375 -60.356592625 Q35.4122925 -60.356592625 29.032931625000003 -57.754372 Q22.65357075 -55.152249999999995 18.958979625 -49.431999999999995 Q22.516975125000002 -43.613125 28.947325125000003 -41.060315499999994 Q35.377675125 -38.50740737499999 42.295035375 -38.50740737499999 Z"/></g><g id="Thin-S" transform="matrix(1 0 0 1 814.015 696)"><path d="M13.807500000000001 -29.251746999999995 Q11.48527575 -29.251746999999995 9.854511375 -30.882511374999993 Q8.223747000000001 -32.51327574999999 8.223747000000001 -34.835499999999996 V-64.0285 Q8.223747000000001 -66.35072425 9.854511375 -67.981488625 Q11.48527575 -69.612253 13.807500000000001 -69.612253 H80.8725 Q83.19472425000001 -69.612253 84.825488625 -67.981488625 Q86.456253 -66.35072425 86.456253 -64.0285 V-34.835499999999996 Q86.456253 -32.51327574999999 84.825488625 -30.882511374999993 Q83.19472425000001 -29.251746999999995 80.8725 -29.251746999999995 H13.807500000000001 Z M13.807500000000001 -66.456154375 Q12.745407375 -66.456154375 12.0626265 -65.77337349999999 Q11.379845625000002 -65.090592625 11.379845625000002 -64.0285 V-34.835499999999996 Q11.379845625000002 -33.77340737499999 12.0626265 -33.09062649999999 Q12.745407375 -32.40784562499999 13.807500000000001 -32.40784562499999 H80.8725 Q81.93459262500001 -32.40784562499999 82.6173735 -33.09062649999999 Q83.300154375 -33.77340737499999 83.300154375 -34.835499999999996 V-64.0285 Q83.300154375 -65.090592625 82.6173735 -65.77337349999999 Q81.93459262500001 -66.456154375 80.8725 -66.456154375 H13.807500000000001 Z M15.438560250000002 -14.36696612499999  15.195844125 -19.04031175  78.94556475 -22.340501499999988  79.188280875 -17.66715587499999  15.438560250000002 -14.36696612499999 Z M15.4158765 -2.4561234999999897 V-7.129469124999986 H79.26412350000001 V-2.4561234999999897 H15.4158765 Z M43.167373500000004 -39.417716125 Q49.5779985 -39.417716125 55.450032375 -41.735403625 Q61.321967625000006 -44.053091124999995 64.834595625 -49.431999999999995 Q65.031845625 -46.07874999999999 67.633967625 -43.969654375 Q70.23618825 -41.860657374999995 73.635003 -41.708873499999996 V-57.155126499999994 Q70.23618825 -56.927499999999995 67.596095625 -54.81840437499999 Q64.955904375 -52.709407375 64.834595625 -49.431999999999995 Q61.299283875 -54.68950149999999 55.438591875 -57.067843374999995 Q49.5779985 -59.44628387499999 43.167373500000004 -59.44628387499999 Q36.777755625 -59.44628387499999 30.834613125 -57.052655124999994 Q24.891372 -54.659124999999996 21.348466125 -49.431999999999995 Q24.716904375000002 -44.106249999999996 30.730070625 -41.762032375 Q36.74313825 -39.417716125 43.167373500000004 -39.417716125 Z"/></g><g id="Ultralight-S" transform="matrix(1 0 0 1 517.792 696)"><path d="M14.39925 -30.29874999999999 Q12.2590875 -30.29874999999999 10.764918750000001 -31.79291874999999 Q9.27075 -33.28708749999999 9.27075 -35.427249999999994 V-63.436749999999996 Q9.27075 -65.57691249999999 10.764918750000001 -67.07108124999999 Q12.2590875 -68.56524999999999 14.39925 -68.56524999999999 H80.28075 Q82.42091250000001 -68.56524999999999 83.91508125 -67.07108124999999 Q85.40925 -65.57691249999999 85.40925 -63.436749999999996 V-35.427249999999994 Q85.40925 -33.28708749999999 83.91508125 -31.79291874999999 Q82.42091250000001 -30.29874999999999 80.28075 -30.29874999999999 H14.39925 Z M14.39925 -66.59275 Q13.018500000000001 -66.59275 12.130875000000001 -65.705125 Q11.24325 -64.8175 11.24325 -63.436749999999996 V-35.427249999999994 Q11.24325 -34.046499999999995 12.130875000000001 -33.158874999999995 Q13.018500000000001 -32.271249999999995 14.39925 -32.271249999999995 H80.28075 Q81.6615 -32.271249999999995 82.549125 -33.158874999999995 Q83.43675 -34.046499999999995 83.43675 -35.427249999999994 V-63.436749999999996 Q83.43675 -64.8175 82.549125 -65.705125 Q81.6615 -66.59275 80.28075 -66.59275 H14.39925 Z M15.780000000000001 -15.209125  15.58275 -19.154124999999993  78.60412500000001 -22.408749999999998  78.80137500000001 -18.46374999999999  15.780000000000001 -15.209125 Z M15.780000000000001 -3.275499999999994 V-7.220499999999987 H78.9 V-3.275499999999994 H15.780000000000001 Z M43.690875000000005 -39.96399999999999 Q49.805625 -39.96399999999999 55.42725 -42.13374999999999 Q61.048875 -44.30349999999999 64.402125 -49.431999999999995 Q64.59937500000001 -46.374624999999995 66.9170625 -44.402125 Q69.23475 -42.429624999999994 72.292125 -42.232375 V-56.63162499999999 Q69.23475 -56.33575 66.86775 -54.363249999999994 Q64.50075 -52.39075 64.402125 -49.431999999999995 Q61.048875 -54.46187499999999 55.42725 -56.68093749999999 Q49.805625 -58.9 43.690875000000005 -58.9 Q37.597132125 -58.9 31.915740375000006 -56.63162499999999 Q26.23425 -54.363249999999994 22.782375000000002 -49.431999999999995 Q26.037000000000003 -44.402125 31.799757375 -42.18306249999999 Q37.562514750000005 -39.96399999999999 43.690875000000005 -39.96399999999999 Z"/></g></g></svg>