<svg xmlns="http://www.w3.org/2000/svg" version="1.1" width="3300" height="2000"><g id="Notes"><style>
    text {
      font-family: monospace;
      text-anchor: middle;
    }
    text.emphasis {
      font-weight:bold;
    }
    text.lanchor {
      text-anchor: start;
    }
  </style><rect height="2200" id="artboard" fill="white" width="3300" x="0" y="0"/><line id="" style="fill:none;stroke:black;stroke-width:0.5;" x1="263" x2="3036" y1="292" y2="292"/><text class="lanchor emphasis" transform="matrix(1 0 0 1 263 322)">Weight/Scale Variations</text><text transform="matrix(1 0 0 1 559.711 322)">Ultralight</text><text transform="matrix(1 0 0 1 856.422 322)">Thin</text><text transform="matrix(1 0 0 1 1153.13 322)">Light</text><text transform="matrix(1 0 0 1 1449.84 322)">Regular</text><text transform="matrix(1 0 0 1 1746.56 322)">Medium</text><text transform="matrix(1 0 0 1 2043.27 322)">Semibold</text><text transform="matrix(1 0 0 1 2339.98 322)">Bold</text><text transform="matrix(1 0 0 1 2636.69 322)">Heavy</text><text transform="matrix(1 0 0 1 2933.4 322)">Black</text><text id="template-version" style="text-anchor: end;" transform="matrix(1 0 0 1 3036 1933)">Template v.1.0</text><text class="lanchor" transform="matrix(1 0 0 1 263 726)">Small</text><text class="lanchor" transform="matrix(1 0 0 1 263 1156)">Medium</text><text class="lanchor" transform="matrix(1 0 0 1 263 1586)">Large</text></g><g id="Guides"><g id="H-reference" style="fill:#27AAE1;stroke:none;" transform="matrix(1 0 0 1 339 696)"><path d="M 54.9316 0 L 57.666 0 L 30.5664 -70.459 L 28.0762 -70.459 L 0.976562 0 L 3.66211 0 L 12.9395 -24.4629 L 45.7031 -24.4629 Z M 29.1992 -67.0898 L 29.4434 -67.0898 L 44.8242 -26.709 L 13.8184 -26.709 Z"/></g><line id="Baseline-S" style="fill:none;stroke:#27AAE1;opacity:1;stroke-width:0.577;" x1="263" x2="3036" y1="696" y2="696"/><line id="Capline-S" style="fill:none;stroke:#27AAE1;opacity:1;stroke-width:0.577;" x1="263" x2="3036" y1="625.541" y2="625.541"/><g id="H-reference" style="fill:#27AAE1;stroke:none;" transform="matrix(1 0 0 1 339 1126)"><path d="M 54.9316 0 L 57.666 0 L 30.5664 -70.459 L 28.0762 -70.459 L 0.976562 0 L 3.66211 0 L 12.9395 -24.4629 L 45.7031 -24.4629 Z M 29.1992 -67.0898 L 29.4434 -67.0898 L 44.8242 -26.709 L 13.8184 -26.709 Z"/></g><line id="Baseline-M" style="fill:none;stroke:#27AAE1;opacity:1;stroke-width:0.577;" x1="263" x2="3036" y1="1126" y2="1126"/><line id="Capline-M" style="fill:none;stroke:#27AAE1;opacity:1;stroke-width:0.577;" x1="263" x2="3036" y1="1055.54" y2="1055.54"/><g id="H-reference" style="fill:#27AAE1;stroke:none;" transform="matrix(1 0 0 1 339 1556)"><path d="M 54.9316 0 L 57.666 0 L 30.5664 -70.459 L 28.0762 -70.459 L 0.976562 0 L 3.66211 0 L 12.9395 -24.4629 L 45.7031 -24.4629 Z M 29.1992 -67.0898 L 29.4434 -67.0898 L 44.8242 -26.709 L 13.8184 -26.709 Z"/></g><line id="Baseline-L" style="fill:none;stroke:#27AAE1;opacity:1;stroke-width:0.577;" x1="263" x2="3036" y1="1556" y2="1556"/><line id="Capline-L" style="fill:none;stroke:#27AAE1;opacity:1;stroke-width:0.577;" x1="263" x2="3036" y1="1485.54" y2="1485.54"/><rect height="119.336" id="left-margin" style="fill:darkred;stroke:none;opacity:0.4;" width="12.4512" x="1394.06" y="1030.79"/><rect height="119.336" id="right-margin" style="fill:darkgreen;stroke:none;opacity:0.4;" width="12.4512" x="1502.5112" y="1030.79"/><rect x="1406.5112" y="1045" width="96" height="96" fill="none" stroke="blue" stroke-dasharray="5"/><rect x="1394.06" y="1030.79" width="120.9024" height="119.336" fill="none" stroke="blue"/></g><g id="Symbols"><g id="Bold-L" transform="matrix(1 0 0 1 2266 1556)"><path d="M69.82125 27.335000000000008 V14.43500000000003 H56.92125 V0.24500000000000455 H69.82125 V-14.106249999999989 Q56.4375 -16.686249999999987 47.810625 -27.200717499999982 Q39.18375 -37.71518499999999 39.18375 -51.35499999999999 Q39.18375 -67.30762374999998 50.388045 -78.4395175 Q61.59234000000001 -89.57124999999999 77.4 -89.57124999999999 Q93.20766 -89.57124999999999 104.41195499999999 -78.4395175 Q115.61625000000001 -67.30762374999998 115.61625000000001 -51.35499999999999 Q115.61625000000001 -37.71518499999999 106.98937500000001 -27.200717499999982 Q98.3625 -16.686249999999987 84.97875 -14.106249999999989 V0.24500000000000455 H97.87875 V14.43500000000003 H84.97875 V27.335000000000008 H69.82125 Z M77.3674275 -28.296249999999986 Q87.075 -28.296249999999986 93.766875 -34.95555249999998 Q100.45875000000001 -41.61485499999998 100.45875000000001 -51.32242749999999 Q100.45875000000001 -61.02999999999999 93.7994475 -67.72187499999998 Q87.140145 -74.41375 77.4325725 -74.41375 Q67.72500000000001 -74.41375 61.033125 -67.75444749999998 Q54.34125 -61.09514499999999 54.34125 -51.387572499999976 Q54.34125 -41.67999999999998 61.000552500000005 -34.98812499999998 Q67.65985500000001 -28.296249999999986 77.3674275 -28.296249999999986 Z"/></g><g id="Semibold-L" transform="matrix(1 0 0 1 1970.27 1556)"><path d="M71.01304875000001 25.372103750000008 V12.47210375000003 H58.113048750000004 V0.24500000000000455 H71.01304875000001 V-15.017634999999984 Q57.6994425 -17.247077499999975 49.037415 -27.58626624999998 Q40.37554875 -37.925454999999985 40.37554875 -51.42514374999999 Q40.37554875 -66.85096374999998 51.23041500000001 -77.61520749999998 Q62.08528125 -88.37945124999999 77.4 -88.37945124999999 Q92.71471875 -88.37945124999999 103.569585 -77.61520749999998 Q114.42445125 -66.85096374999998 114.42445125 -51.42514374999999 Q114.42445125 -37.925454999999985 105.76258500000002 -27.58626624999998 Q97.1005575 -17.247077499999975 83.78695125 -15.017634999999984 V0.24500000000000455 H96.68695125 V12.47210375000003 H83.78695125 V25.372103750000008 H71.01304875000001 Z M77.3674275 -27.104451249999983 Q87.49570125000001 -27.104451249999983 94.573125 -34.149302499999976 Q101.65054875 -41.194153749999984 101.65054875 -51.32242749999999 Q101.65054875 -61.45070124999998 94.6056975 -68.52812499999999 Q87.56084625000001 -75.60554875 77.4325725 -75.60554875 Q67.30429875 -75.60554875 60.226875 -68.56069749999997 Q53.14945125 -61.51584624999998 53.14945125 -51.387572499999976 Q53.14945125 -41.25929874999997 60.1943025 -34.18187499999998 Q67.23915375 -27.104451249999983 77.3674275 -27.104451249999983 Z"/></g><g id="Medium-L" transform="matrix(1 0 0 1 1674.31 1556)"><path d="M71.90701875 23.899730000000034 V10.999730000000028 H59.00701875 V0.24500000000000455 H71.90701875 V-15.701173749999981 Q58.64598000000001 -17.667778749999982 49.95766875 -27.87554874999998 Q41.26951875 -38.08315749999997 41.26951875 -51.477711249999984 Q41.26951875 -66.50846874999999 51.862353750000004 -76.99697499999998 Q62.4550275 -87.48548124999999 77.4 -87.48548124999999 Q92.34497250000001 -87.48548124999999 102.93764625000001 -76.99697499999998 Q113.53048125000001 -66.50846874999999 113.53048125000001 -51.477711249999984 Q113.53048125000001 -38.08315749999997 104.84233125 -27.87554874999998 Q96.15402 -17.667778749999982 82.89298125 -15.701173749999981 V0.24500000000000455 H95.79298125000001 V10.999730000000028 H82.89298125 V23.899730000000034 H71.90701875 Z M77.3674275 -26.210481249999987 Q87.81110625000001 -26.210481249999987 95.1778125 -33.54461499999998 Q102.54451875 -40.87874874999997 102.54451875 -51.32242749999999 Q102.54451875 -61.76610624999998 95.210385 -69.13281249999999 Q87.87625125000001 -76.49951875 77.4325725 -76.49951875 Q66.98889375 -76.49951875 59.6221875 -69.16538499999999 Q52.25548125 -61.83125124999998 52.25548125 -51.387572499999976 Q52.25548125 -40.94389374999997 59.589615 -33.57718749999998 Q66.92374875 -26.210481249999987 77.3674275 -26.210481249999987 Z"/></g><g id="Regular-L" transform="matrix(1 0 0 1 1378.56 1556)"><path d="M72.5625 22.82000000000002 V9.920000000000016 H59.6625 V0.24500000000000455 H72.5625 V-16.202499999999986 Q59.34 -17.97624999999998 50.6325 -28.087592499999985 Q41.925000000000004 -38.19893499999999 41.925000000000004 -51.516249999999985 Q41.925000000000004 -66.25724124999998 52.325625 -76.54370124999998 Q62.72625 -86.82999999999998 77.4 -86.82999999999998 Q92.07375 -86.82999999999998 102.47437500000001 -76.54370124999998 Q112.875 -66.25724124999998 112.875 -51.516249999999985 Q112.875 -38.19893499999999 104.1675 -28.087592499999985 Q95.46000000000001 -17.97624999999998 82.2375 -16.202499999999986 V0.24500000000000455 H95.1375 V9.920000000000016 H82.2375 V22.82000000000002 H72.5625 Z M77.3674275 -25.55499999999998 Q88.0425 -25.55499999999998 95.62125 -33.10117749999998 Q103.2 -40.64735499999999 103.2 -51.32242749999999 Q103.2 -61.99749999999999 95.6538225 -69.57624999999999 Q88.107645 -77.15499999999999 77.4325725 -77.15499999999999 Q66.75750000000001 -77.15499999999999 59.17875 -69.60882249999997 Q51.6 -62.06264499999999 51.6 -51.387572499999976 Q51.6 -40.71249999999998 59.1461775 -33.13374999999998 Q66.692355 -25.55499999999998 77.3674275 -25.55499999999998 Z"/></g><g id="Light-L" transform="matrix(1 0 0 1 1082.77 1556)"><path d="M73.740915 21.20733875000002 V8.307338750000014 H60.840915 V0.9893300000000238 H73.740915 V-17.629078749999977 Q60.82849875 -19.09274499999998 52.18308 -28.79306124999998 Q43.53766125 -38.493538749999985 43.53766125 -51.44965374999998 Q43.53766125 -65.51194374999999 53.442119999999996 -75.36464124999998 Q63.3464175 -85.21733874999998 77.4 -85.21733874999998 Q91.4535825 -85.21733874999998 101.35788000000001 -75.36464124999998 Q111.26233875000001 -65.51194374999999 111.26233875000001 -51.45787749999998 Q111.26233875000001 -38.509018749999996 102.61692000000001 -28.800801249999992 Q93.97150125 -19.09274499999998 81.05908500000001 -17.629078749999977 V0.9893300000000238 H93.959085 V8.307338750000014 H81.05908500000001 V21.20733875000002 H73.740915 Z M77.377425 -24.810669999999988 Q88.414665 -24.810669999999988 96.1794975 -32.55292749999998 Q103.94433 -40.29518499999999 103.94433 -51.332424999999986 Q103.94433 -62.36966499999998 96.2020725 -70.13449749999998 Q88.45981499999999 -77.89932999999999 77.422575 -77.89932999999999 Q66.385335 -77.89932999999999 58.6205025 -70.15707249999997 Q50.85567 -62.41481499999999 50.85567 -51.37757499999998 Q50.85567 -40.34033499999998 58.597927500000004 -32.575502499999985 Q66.340185 -24.810669999999988 77.377425 -24.810669999999988 Z"/></g><g id="Thin-L" transform="matrix(1 0 0 1 787.282 1556)"><path d="M74.91916875 19.595000000000027 V6.695000000000022 H62.019168750000006 V1.7334987500000238 H74.91916875 V-19.055334999999985 Q62.31683625 -20.208917499999984 53.73349875 -29.498529999999988 Q45.15 -38.78798124999999 45.15 -51.38289624999999 Q45.15 -64.76664624999998 54.5582925 -74.18574249999999 Q63.966585 -83.60499999999999 77.4 -83.60499999999999 Q90.833415 -83.60499999999999 100.2417075 -74.18574249999999 Q109.65 -64.76664624999998 109.65 -51.39950499999999 Q109.65 -38.819102499999985 101.06650125 -29.514009999999985 Q92.48316375 -20.208917499999984 79.88083125 -19.055334999999985 V1.7334987500000238 H92.78083125 V6.695000000000022 H79.88083125 V19.595000000000027 H74.91916875 Z M77.3874225 -24.066501249999988 Q88.78666875 -24.066501249999988 96.73758375 -32.00483874999999 Q104.68849875000001 -39.94317624999999 104.68849875000001 -51.342422499999984 Q104.68849875000001 -62.74166874999999 96.75016125 -70.69258374999998 Q88.81182375 -78.64349874999999 77.4125775 -78.64349874999999 Q66.01333125000001 -78.64349874999999 58.06241625 -70.70516124999997 Q50.11150125 -62.766823749999986 50.11150125 -51.36757749999998 Q50.11150125 -39.96833124999998 58.049838750000006 -32.01741624999998 Q65.98817625 -24.066501249999988 77.3874225 -24.066501249999988 Z"/></g><g id="Ultralight-L" transform="matrix(1 0 0 1 491.205 1556)"><path d="M75.62625 18.627500000000026 V5.7275000000000205 H62.72625 V2.180000000000007 H75.62625 V-19.91124999999998 Q63.21 -20.878749999999982 54.66375 -29.921649999999985 Q46.1175 -38.96471124999998 46.1175 -51.342906249999984 Q46.1175 -64.31933874999999 55.228125 -73.47849999999998 Q64.33875 -82.63749999999999 77.4 -82.63749999999999 Q90.46125 -82.63749999999999 99.571875 -73.47849999999998 Q108.6825 -64.31933874999999 108.6825 -51.36435249999998 Q108.6825 -39.00518499999998 100.13625 -29.94196749999999 Q91.59 -20.878749999999982 79.17375 -19.91124999999998 V2.180000000000007 H92.07375 V5.7275000000000205 H79.17375 V18.627500000000026 H75.62625 Z M77.39355 -23.619999999999976 Q89.01 -23.619999999999976 97.0725 -31.67604999999999 Q105.135 -39.73193874999998 105.135 -51.348549999999975 Q105.135 -62.96499999999999 97.07894999999999 -71.02749999999997 Q89.02306125000001 -79.08999999999997 77.40645 -79.08999999999997 Q65.79 -79.08999999999997 57.7275 -71.03394999999999 Q49.665 -62.97806124999998 49.665 -51.36144999999999 Q49.665 -39.744999999999976 57.72105 -31.682499999999976 Q65.77693875 -23.619999999999976 77.39355 -23.619999999999976 Z"/></g><g id="Bold-M" transform="matrix(1 0 0 1 2281.8 1126)"><path d="M52.125 14.39500000000001 V4.39500000000001 H42.125 V-10.22999999999999 H52.125 V-18.47999999999999 Q42.125 -21.10499999999999 35.875 -29.22999999999999 Q29.625 -37.35499999999999 29.625 -47.72999999999999 Q29.625 -60.40949999999999 38.530375 -69.25725 Q47.43575 -78.10499999999999 60.0 -78.10499999999999 Q72.56425 -78.10499999999999 81.469625 -69.25725 Q90.375 -60.40949999999999 90.375 -47.72999999999999 Q90.375 -37.35499999999999 84.125 -29.22999999999999 Q77.875 -21.10499999999999 67.875 -18.47999999999999 V-10.22999999999999 H77.875 V4.39500000000001 H67.875 V14.39500000000001 H52.125 Z M60.0 -33.10499999999999 Q66.125 -33.10499999999999 70.375 -37.35499999999999 Q74.625 -41.60499999999999 74.625 -47.72999999999999 Q74.625 -53.85499999999999 70.375 -58.10499999999999 Q66.125 -62.35499999999999 60.0 -62.35499999999999 Q53.875 -62.35499999999999 49.625 -58.10499999999999 Q45.375 -53.85499999999999 45.375 -47.72999999999999 Q45.375 -41.60499999999999 49.625 -37.35499999999999 Q53.875 -33.10499999999999 60.0 -33.10499999999999 Z"/></g><g id="Semibold-M" transform="matrix(1 0 0 1 1985.97 1126)"><path d="M53.374875 12.384250000000009 V2.3842500000000086 H43.374875 V-10.22999999999999 H53.374875 V-19.458249999999992 Q43.42925 -21.702749999999995 37.152125 -29.637624999999986 Q30.874875 -37.572374999999994 30.874875 -47.83874999999999 Q30.874875 -59.950999999999986 39.413875 -68.40312499999999 Q47.95275 -76.85512499999999 60.0 -76.85512499999999 Q72.04725 -76.85512499999999 80.586125 -68.40312499999999 Q89.125125 -59.950999999999986 89.125125 -47.83874999999999 Q89.125125 -37.572374999999994 82.847875 -29.637624999999986 Q76.57075 -21.702749999999995 66.625125 -19.458249999999992 V-10.22999999999999 H76.625125 V2.3842500000000086 H66.625125 V12.384250000000009 H53.374875 Z M60.0 -31.855124999999987 Q66.614125 -31.855124999999987 71.2445 -36.48549999999999 Q75.874875 -41.11587499999999 75.874875 -47.72999999999999 Q75.874875 -54.34412499999999 71.2445 -58.97449999999999 Q66.614125 -63.60487499999999 60.0 -63.60487499999999 Q53.385875 -63.60487499999999 48.7555 -58.97449999999999 Q44.125125 -54.34412499999999 44.125125 -47.72999999999999 Q44.125125 -41.11587499999999 48.7555 -36.48549999999999 Q53.385875 -31.855124999999987 60.0 -31.855124999999987 Z"/></g><g id="Medium-M" transform="matrix(1 0 0 1 1689.91 1126)"><path d="M54.3125 10.876000000000005 V0.8760000000000048 H44.3125 V-10.22999999999999 H54.3125 V-20.191999999999993 Q44.407625 -22.15124999999999 38.11 -29.943249999999992 Q31.8125 -37.73537499999999 31.8125 -47.92024999999999 Q31.8125 -59.60712499999999 40.0765 -67.76237499999999 Q48.340625 -75.91749999999999 60.0 -75.91749999999999 Q71.659375 -75.91749999999999 79.9235 -67.76237499999999 Q88.1875 -59.60712499999999 88.1875 -47.92024999999999 Q88.1875 -37.73537499999999 81.89 -29.943249999999992 Q75.592375 -22.15124999999999 65.6875 -20.191999999999993 V-10.22999999999999 H75.6875 V0.8760000000000048 H65.6875 V10.876000000000005 H54.3125 Z M60.0 -30.91749999999999 Q66.981 -30.91749999999999 71.89675 -35.83324999999999 Q76.8125 -40.748999999999995 76.8125 -47.72999999999999 Q76.8125 -54.71099999999999 71.89675 -59.62674999999999 Q66.981 -64.54249999999999 60.0 -64.54249999999999 Q53.019 -64.54249999999999 48.10325 -59.62674999999999 Q43.1875 -54.71099999999999 43.1875 -47.72999999999999 Q43.1875 -40.748999999999995 48.10325 -35.83324999999999 Q53.019 -30.91749999999999 60.0 -30.91749999999999 Z"/></g><g id="Regular-M" transform="matrix(1 0 0 1 1394.06 1126)"><path d="M55.0 9.77000000000001 V-0.22999999999998977 H45.0 V-10.22999999999999 H55.0 V-20.72999999999999 Q45.125 -22.47999999999999 38.8125 -30.16749999999999 Q32.5 -37.85499999999999 32.5 -47.97999999999999 Q32.5 -59.35499999999999 40.5625 -67.29249999999999 Q48.625 -75.22999999999999 60.0 -75.22999999999999 Q71.375 -75.22999999999999 79.4375 -67.29249999999999 Q87.5 -59.35499999999999 87.5 -47.97999999999999 Q87.5 -37.85499999999999 81.1875 -30.16749999999999 Q74.875 -22.47999999999999 65.0 -20.72999999999999 V-10.22999999999999 H75.0 V-0.22999999999998977 H65.0 V9.77000000000001 H55.0 Z M60.0 -30.22999999999999 Q67.25 -30.22999999999999 72.375 -35.35499999999999 Q77.5 -40.47999999999999 77.5 -47.72999999999999 Q77.5 -54.97999999999999 72.375 -60.10499999999999 Q67.25 -65.22999999999999 60.0 -65.22999999999999 Q52.75 -65.22999999999999 47.625 -60.10499999999999 Q42.5 -54.97999999999999 42.5 -47.72999999999999 Q42.5 -40.47999999999999 47.625 -35.35499999999999 Q52.75 -30.22999999999999 60.0 -30.22999999999999 Z"/></g><g id="Light-M" transform="matrix(1 0 0 1 1098.18 1126)"><path d="M56.250125 8.519875000000013 V-1.4801249999999868 H46.250125 V-8.979874999999993 H56.250125 V-21.78774999999999 Q46.519375 -23.201249999999987 40.13475 -30.60024999999999 Q33.750125 -37.99924999999999 33.750125 -47.88387499999999 Q33.750125 -58.77712499999999 41.428 -66.37849999999999 Q49.10575 -73.97987499999999 60.0 -73.97987499999999 Q70.89425 -73.97987499999999 78.572 -66.37849999999999 Q86.249875 -58.77712499999999 86.249875 -47.88387499999999 Q86.249875 -37.99924999999999 79.86525 -30.60024999999999 Q73.480625 -23.201249999999987 63.749875 -21.78774999999999 V-8.979874999999993 H73.749875 V-1.4801249999999868 H63.749875 V8.519875000000013 H56.250125 Z M60.00775 -28.979874999999993 Q67.778875 -28.979874999999993 73.2645 -34.47324999999999 Q78.750125 -39.96662499999999 78.750125 -47.73774999999999 Q78.750125 -55.50887499999999 73.25675 -60.99449999999999 Q67.763375 -66.48012499999999 59.99225 -66.48012499999999 Q52.221125 -66.48012499999999 46.7355 -60.98674999999999 Q41.249875 -55.49337499999999 41.249875 -47.72224999999999 Q41.249875 -39.95112499999999 46.74325 -34.46549999999999 Q52.236625 -28.979874999999993 60.00775 -28.979874999999993 Z"/></g><g id="Thin-M" transform="matrix(1 0 0 1 802.565 1126)"><path d="M57.5 7.27000000000001 V-2.7299999999999898 H47.5 V-7.72999999999999 H57.5 V-22.84537499999999 Q47.9135 -23.92224999999999 41.45675 -31.03287499999999 Q35.0 -38.14349999999999 35.0 -47.78774999999999 Q35.0 -58.19937499999999 42.29325 -65.46474999999998 Q49.5865 -72.72999999999999 60.0 -72.72999999999999 Q70.4135 -72.72999999999999 77.70675 -65.46474999999998 Q85.0 -58.19937499999999 85.0 -47.78774999999999 Q85.0 -38.14349999999999 78.54325 -31.03287499999999 Q72.0865 -23.92224999999999 62.5 -22.84537499999999 V-7.72999999999999 H72.5 V-2.7299999999999898 H62.5 V7.27000000000001 H57.5 Z M60.0155 -27.72999999999999 Q68.307625 -27.72999999999999 74.153875 -33.59174999999999 Q80.0 -39.453374999999994 80.0 -47.74549999999999 Q80.0 -56.03762499999999 74.13825 -61.88387499999999 Q68.276625 -67.72999999999999 59.9845 -67.72999999999999 Q51.692375 -67.72999999999999 45.846125 -61.86824999999999 Q40.0 -56.00662499999999 40.0 -47.71449999999999 Q40.0 -39.42237499999999 45.86175 -33.57612499999999 Q51.723375 -27.72999999999999 60.0155 -27.72999999999999 Z"/></g><g id="Ultralight-M" transform="matrix(1 0 0 1 506.415 1126)"><path d="M58.25 6.52000000000001 V-3.4799999999999898 H48.25 V-6.97999999999999 H58.25 V-23.47999999999999 Q48.75 -24.35499999999999 42.25 -31.29249999999999 Q35.75 -38.22999999999999 35.75 -47.72999999999999 Q35.75 -57.85274999999999 42.8125 -64.91637499999999 Q49.875 -71.97999999999999 60.0 -71.97999999999999 Q70.125 -71.97999999999999 77.1875 -64.91637499999999 Q84.25 -57.85274999999999 84.25 -47.72999999999999 Q84.25 -38.22999999999999 77.75 -31.29249999999999 Q71.25 -24.35499999999999 61.75 -23.47999999999999 V-6.97999999999999 H71.75 V-3.4799999999999898 H61.75 V6.52000000000001 H58.25 Z M60.02025 -26.97999999999999 Q68.625 -26.97999999999999 74.6875 -33.062749999999994 Q80.75 -39.14537499999999 80.75 -47.75024999999999 Q80.75 -56.35499999999999 74.66725 -62.41749999999999 Q68.584625 -68.47999999999999 59.97975 -68.47999999999999 Q51.375 -68.47999999999999 45.3125 -62.39724999999999 Q39.25 -56.31462499999999 39.25 -47.70974999999999 Q39.25 -39.10499999999999 45.33275 -33.04249999999999 Q51.415375 -26.97999999999999 60.02025 -26.97999999999999 Z"/></g><g id="Bold-S" transform="matrix(1 0 0 1 2294.23 696)"><path d="M41.521125000000005 1.5571250000000134 V-5.543875 H34.420125 V-16.293999999999997 H41.521125000000005 V-22.01424999999999 Q34.222875 -24.085375 29.587500000000002 -29.960860749999988 Q24.952125000000002 -35.836247875 24.952125000000002 -43.317249999999994 Q24.952125000000002 -52.74501099999999 31.485340875000002 -59.32369299999999 Q38.01855675 -65.90237499999999 47.34 -65.90237499999999 Q56.661443250000005 -65.90237499999999 63.194659125 -59.32369299999999 Q69.727875 -52.74501099999999 69.727875 -43.317249999999994 Q69.727875 -35.836247875 65.0925 -29.960860749999988 Q60.457125000000005 -24.085375 53.158875 -22.01424999999999 V-16.313231875 H60.259875 V-5.543875 H53.158875 V1.5571250000000134 H41.521125000000005 Z M47.36189475 -32.764374999999994 Q51.87675 -32.764374999999994 54.9834375 -35.892957249999995 Q58.090125 -39.02153949999999 58.090125 -43.53639474999999 Q58.090125 -48.051249999999996 54.96154275000001 -51.157937499999996 Q51.832960500000006 -54.264624999999995 47.31810525 -54.264624999999995 Q42.80325 -54.264624999999995 39.6965625 -51.136042749999994 Q36.589875 -48.00746049999999 36.589875 -43.49260525 Q36.589875 -38.97774999999999 39.71845725 -35.871062499999994 Q42.8470395 -32.764374999999994 47.36189475 -32.764374999999994 Z"/></g><g id="Semibold-S" transform="matrix(1 0 0 1 1998.1 696)"><path d="M42.507276375000004 -0.02935674999999094 V-7.13035674999999 H35.406276375000004 V-16.293999999999997 H42.507276375000004 V-22.78608924999999 Q35.251928250000006 -24.556999750000003 30.595151625 -30.282378249999987 Q25.938276375000004 -36.00775674999999 25.938276375000004 -43.40305375 Q25.938276375000004 -52.38325449999999 32.182422375 -58.64968974999999 Q38.42646975 -64.91622362499999 47.34 -64.91622362499999 Q56.253530250000004 -64.91622362499999 62.497577625 -58.64968974999999 Q68.741723625 -52.38325449999999 68.741723625 -43.40305375 Q68.741723625 -36.00775674999999 64.084848375 -30.282378249999987 Q59.42807175000001 -24.556999750000003 52.172723625 -22.78608924999999 V-16.313231875 H59.273723625 V-7.13035674999999 H52.172723625 V-0.02935674999999094 H42.507276375000004 Z M47.36189475 -31.77822362499999 Q52.262669625 -31.77822362499999 55.669473 -35.20692174999999 Q59.076276375000006 -38.635718499999996 59.076276375000006 -43.53639474999999 Q59.076276375000006 -48.437169624999996 55.64757825000001 -51.843973 Q52.2187815 -55.250776375 47.31810525 -55.250776375 Q42.417330375 -55.250776375 39.010527 -51.82207824999999 Q35.603723625 -48.39328149999999 35.603723625 -43.49260525 Q35.603723625 -38.591830374999994 39.032421750000005 -35.18502699999999 Q42.4612185 -31.77822362499999 47.36189475 -31.77822362499999 Z"/></g><g id="Medium-S" transform="matrix(1 0 0 1 1701.85 696)"><path d="M43.2470625 -1.2193659999999937 V-8.320365999999993 H36.1460625 V-16.293999999999997 H43.2470625 V-23.365017999999992 Q36.023866125000005 -24.910866249999998 31.350915 -30.523614999999992 Q26.678062500000003 -36.136462375 26.678062500000003 -43.46735724999999 Q26.678062500000003 -52.111937125 32.705233500000006 -58.14423662499999 Q38.732503125 -64.17643749999999 47.34 -64.17643749999999 Q55.947496875 -64.17643749999999 61.97476650000001 -58.14423662499999 Q68.0019375 -52.111937125 68.0019375 -43.46735724999999 Q68.0019375 -36.136462375 63.329085000000006 -30.523614999999992 Q58.65613387500001 -24.910866249999998 51.4329375 -23.365017999999992 V-16.313231875 H58.5339375 V-8.320365999999993 H51.4329375 V-1.2193659999999937 H43.2470625 Z M47.36189475 -31.038437499999993 Q52.552133999999995 -31.038437499999993 56.18409825 -34.6922965 Q59.8160625 -38.346254124999994 59.8160625 -43.53639474999999 Q59.8160625 -48.726634 56.162203500000004 -52.35859824999999 Q52.50824587500001 -55.990562499999996 47.31810525 -55.990562499999996 Q42.127866 -55.990562499999996 38.49590175 -52.33670349999999 Q34.8639375 -48.682745874999995 34.8639375 -43.49260525 Q34.8639375 -38.302366 38.5177965 -34.670401749999996 Q42.171754125 -31.038437499999993 47.36189475 -31.038437499999993 Z"/></g><g id="Regular-S" transform="matrix(1 0 0 1 1405.73 696)"><path d="M43.789500000000004 -2.0919999999999987 V-9.192999999999998 H36.688500000000005 V-16.293999999999997 H43.789500000000004 V-23.78949999999999 Q36.589875 -25.170249999999996 31.9051875 -30.70054824999999 Q27.2205 -36.230747875 27.2205 -43.51449999999999 Q27.2205 -51.9130105 33.0886875 -57.77350524999999 Q38.956875000000004 -63.634 47.34 -63.634 Q55.723125 -63.634 61.5913125 -57.77350524999999 Q67.4595 -51.9130105 67.4595 -43.51449999999999 Q67.4595 -36.230747875 62.7748125 -30.70054824999999 Q58.090125 -25.170249999999996 50.8905 -23.78949999999999 V-16.313231875 H57.9915 V-9.192999999999998 H50.8905 V-2.0919999999999987 H43.789500000000004 Z M47.36189475 -30.495999999999995 Q52.764375 -30.495999999999995 56.561437500000004 -34.31495724999999 Q60.3585 -38.13391449999999 60.3585 -43.53639474999999 Q60.3585 -48.938874999999996 56.53954275 -52.73593749999999 Q52.720585500000006 -56.532999999999994 47.31810525 -56.532999999999994 Q41.915625 -56.532999999999994 38.1185625 -52.71404275 Q34.3215 -48.89508549999999 34.3215 -43.49260525 Q34.3215 -38.09012499999999 38.14045725 -34.29306249999999 Q41.9594145 -30.495999999999995 47.36189475 -30.495999999999995 Z"/></g><g id="Light-S" transform="matrix(1 0 0 1 1109.75 696)"><path d="M44.775848625 -3.0783486249999896 V-10.179348624999989 H37.674848625 V-15.307651374999992 H44.775848625 V-24.624064749999988 Q37.690036875 -25.739316249999987 32.94844275 -31.04188937499999 Q28.206848625 -36.344561125 28.206848625 -43.43865737499999 Q28.206848625 -51.457067124999995 33.771567 -57.052359249999995 Q39.33618675 -62.647651374999995 47.34 -62.647651374999995 Q55.343813250000004 -62.647651374999995 60.908433 -57.052359249999995 Q66.473151375 -51.457067124999995 66.473151375 -43.43865737499999 Q66.473151375 -36.344561125 61.73155725000001 -31.04188937499999 Q56.989963125 -25.739316249999987 49.904151375000005 -24.624064749999988 V-15.326883249999995 H57.005151375000004 V-10.179348624999989 H49.904151375000005 V-3.0783486249999896 H44.775848625 Z M47.3680095 -29.509651374999997 Q53.181657375 -29.509651374999997 57.263253 -33.61925649999999 Q61.344848625 -37.72896024999999 61.344848625 -43.542509499999994 Q61.344848625 -49.356157374999995 57.2352435 -53.437752999999994 Q53.12553975000001 -57.51934862499999 47.3119905 -57.51934862499999 Q41.498342625 -57.51934862499999 37.416747 -53.4097435 Q33.335151375 -49.30003974999999 33.335151375 -43.486490499999995 Q33.335151375 -37.672842624999994 37.444756500000004 -33.591246999999996 Q41.554460250000005 -29.509651374999997 47.3680095 -29.509651374999997 Z"/></g><g id="Thin-S" transform="matrix(1 0 0 1 814.015 696)"><path d="M45.762 -4.064499999999995 V-11.165499999999994 H38.661 V-14.3215 H45.762 V-25.458530874999994 Q38.7900015 -26.308185249999994 33.99150075 -31.38332912499999 Q29.193 -36.458374375 29.193 -43.36281474999999 Q29.193 -51.001222375 34.454249250000004 -56.3314105 Q39.7154985 -61.6615 47.34 -61.6615 Q54.964501500000004 -61.6615 60.22575075 -56.3314105 Q65.48700000000001 -51.001222375 65.48700000000001 -43.36281474999999 Q65.48700000000001 -36.458374375 60.68849925 -31.38332912499999 Q55.889998500000004 -26.308185249999994 48.918 -25.458530874999994 V-14.340731875000003 H56.019000000000005 V-11.165499999999994 H48.918 V-4.064499999999995 H45.762 Z M47.374222875 -28.52349999999999 Q53.59884112500001 -28.52349999999999 57.964969875 -32.92375299999999 Q62.331 -37.32400599999999 62.331 -43.548722874999996 Q62.331 -49.773341124999995 57.930747000000004 -54.139469874999996 Q53.530494000000004 -58.5055 47.305777125000006 -58.5055 Q41.081158875 -58.5055 36.715030125000006 -54.105247 Q32.349000000000004 -49.70499399999999 32.349000000000004 -43.48027712499999 Q32.349000000000004 -37.255658874999995 36.749253 -32.88953012499999 Q41.149506 -28.52349999999999 47.374222875 -28.52349999999999 Z"/></g><g id="Ultralight-S" transform="matrix(1 0 0 1 517.792 696)"><path d="M46.353750000000005 -4.656249999999986 V-11.757249999999999 H39.25275 V-13.729749999999996 H46.353750000000005 V-25.959249999999997 Q39.45 -26.649625 34.617375 -31.58817324999999 Q29.784750000000003 -36.526622875 29.784750000000003 -43.317249999999994 Q29.784750000000003 -50.727735249999995 34.8639375 -55.898742625 Q39.943125 -61.06975 47.34 -61.06975 Q54.736875000000005 -61.06975 59.8160625 -55.898742625 Q64.89525 -50.727735249999995 64.89525 -43.317249999999994 Q64.89525 -36.526622875 60.062625000000004 -31.58817324999999 Q55.230000000000004 -26.649625 48.32625 -25.959249999999997 V-13.748981874999998 H55.42725 V-11.757249999999999 H48.32625 V-4.656249999999986 H46.353750000000005 Z M47.377872 -27.931749999999994 Q53.849250000000005 -27.931749999999994 58.386 -32.506372 Q62.92275 -37.080994 62.92275 -43.552372 Q62.92275 -50.02374999999999 58.348128 -54.5605 Q53.773506 -59.097249999999995 47.302128 -59.097249999999995 Q40.83075 -59.097249999999995 36.294000000000004 -54.52262799999999 Q31.757250000000003 -49.948006 31.757250000000003 -43.47662799999999 Q31.757250000000003 -37.00525 36.331872000000004 -32.46849999999999 Q40.906494 -27.931749999999994 47.377872 -27.931749999999994 Z"/></g></g></svg>