<svg xmlns="http://www.w3.org/2000/svg" version="1.1" width="3300" height="2000"><g id="Notes"><style>
    text {
      font-family: monospace;
      text-anchor: middle;
    }
    text.emphasis {
      font-weight:bold;
    }
    text.lanchor {
      text-anchor: start;
    }
  </style><rect height="2200" id="artboard" fill="white" width="3300" x="0" y="0"/><line id="" style="fill:none;stroke:black;stroke-width:0.5;" x1="263" x2="3036" y1="292" y2="292"/><text class="lanchor emphasis" transform="matrix(1 0 0 1 263 322)">Weight/Scale Variations</text><text transform="matrix(1 0 0 1 559.711 322)">Ultralight</text><text transform="matrix(1 0 0 1 856.422 322)">Thin</text><text transform="matrix(1 0 0 1 1153.13 322)">Light</text><text transform="matrix(1 0 0 1 1449.84 322)">Regular</text><text transform="matrix(1 0 0 1 1746.56 322)">Medium</text><text transform="matrix(1 0 0 1 2043.27 322)">Semibold</text><text transform="matrix(1 0 0 1 2339.98 322)">Bold</text><text transform="matrix(1 0 0 1 2636.69 322)">Heavy</text><text transform="matrix(1 0 0 1 2933.4 322)">Black</text><text id="template-version" style="text-anchor: end;" transform="matrix(1 0 0 1 3036 1933)">Template v.1.0</text><text class="lanchor" transform="matrix(1 0 0 1 263 726)">Small</text><text class="lanchor" transform="matrix(1 0 0 1 263 1156)">Medium</text><text class="lanchor" transform="matrix(1 0 0 1 263 1586)">Large</text></g><g id="Guides"><g id="H-reference" style="fill:#27AAE1;stroke:none;" transform="matrix(1 0 0 1 339 696)"><path d="M 54.9316 0 L 57.666 0 L 30.5664 -70.459 L 28.0762 -70.459 L 0.976562 0 L 3.66211 0 L 12.9395 -24.4629 L 45.7031 -24.4629 Z M 29.1992 -67.0898 L 29.4434 -67.0898 L 44.8242 -26.709 L 13.8184 -26.709 Z"/></g><line id="Baseline-S" style="fill:none;stroke:#27AAE1;opacity:1;stroke-width:0.577;" x1="263" x2="3036" y1="696" y2="696"/><line id="Capline-S" style="fill:none;stroke:#27AAE1;opacity:1;stroke-width:0.577;" x1="263" x2="3036" y1="625.541" y2="625.541"/><g id="H-reference" style="fill:#27AAE1;stroke:none;" transform="matrix(1 0 0 1 339 1126)"><path d="M 54.9316 0 L 57.666 0 L 30.5664 -70.459 L 28.0762 -70.459 L 0.976562 0 L 3.66211 0 L 12.9395 -24.4629 L 45.7031 -24.4629 Z M 29.1992 -67.0898 L 29.4434 -67.0898 L 44.8242 -26.709 L 13.8184 -26.709 Z"/></g><line id="Baseline-M" style="fill:none;stroke:#27AAE1;opacity:1;stroke-width:0.577;" x1="263" x2="3036" y1="1126" y2="1126"/><line id="Capline-M" style="fill:none;stroke:#27AAE1;opacity:1;stroke-width:0.577;" x1="263" x2="3036" y1="1055.54" y2="1055.54"/><g id="H-reference" style="fill:#27AAE1;stroke:none;" transform="matrix(1 0 0 1 339 1556)"><path d="M 54.9316 0 L 57.666 0 L 30.5664 -70.459 L 28.0762 -70.459 L 0.976562 0 L 3.66211 0 L 12.9395 -24.4629 L 45.7031 -24.4629 Z M 29.1992 -67.0898 L 29.4434 -67.0898 L 44.8242 -26.709 L 13.8184 -26.709 Z"/></g><line id="Baseline-L" style="fill:none;stroke:#27AAE1;opacity:1;stroke-width:0.577;" x1="263" x2="3036" y1="1556" y2="1556"/><line id="Capline-L" style="fill:none;stroke:#27AAE1;opacity:1;stroke-width:0.577;" x1="263" x2="3036" y1="1485.54" y2="1485.54"/><rect height="119.336" id="left-margin" style="fill:darkred;stroke:none;opacity:0.4;" width="12.4512" x="1394.06" y="1030.79"/><rect height="119.336" id="right-margin" style="fill:darkgreen;stroke:none;opacity:0.4;" width="12.4512" x="1502.5112" y="1030.79"/><rect x="1406.5112" y="1045" width="96" height="96" fill="none" stroke="blue" stroke-dasharray="5"/><rect x="1394.06" y="1030.79" width="120.9024" height="119.336" fill="none" stroke="blue"/></g><g id="Symbols"><g id="Bold-L" transform="matrix(1 0 0 1 2266 1556)"><path d="M103.1706525 32.97875000000002 Q91.2675 32.97875000000002 84.89812500000001 28.705625000000026 Q78.52875 24.432500000000033 74.33625 20.078750000000014 Q71.8010775 17.43425000000002 69.60178875 15.531500000000023 Q67.4025 13.628750000000025 64.33875 13.628750000000025 Q56.61955125000001 13.628750000000025 47.005665 10.873793750000004 Q37.39177875 8.118676250000021 29.04160875 1.9831137500000295 Q20.6916 -4.1524487499999765 14.939328750000001 -14.065292499999984 Q9.187218750000001 -23.978136249999977 9.19125 -38.29374999999999 Q9.030000000000001 -66.51249999999999 23.64844125 -84.97562499999998 Q38.26704375 -103.43874999999998 64.33875 -103.43874999999998 Q76.08049125000001 -103.43874999999998 84.414375 -100.21374999999998 Q92.74825875 -96.98874999999998 98.69983500000001 -91.90937499999998 Q104.65125 -86.82999999999998 108.94936875 -80.67686124999999 Q113.24748749999999 -74.52372249999999 116.745 -68.82869499999998 Q118.68 -65.60579124999998 120.695625 -62.51172624999998 Q122.71125 -59.41749999999999 125.15176875 -57.13823124999999 Q135.45000000000002 -46.83999999999999 140.52937500000002 -39.26124999999999 Q145.60875000000001 -31.682499999999976 145.60875000000001 -15.73632624999999 Q145.60875000000001 5.291641250000026 132.37447875 19.135276250000032 Q119.14004625 32.97875000000002 103.1706525 32.97875000000002 Z M103.15597875 17.82125000000002 Q113.05947 17.82125000000002 121.75536000000001 8.25799625000002 Q130.45125000000002 -1.305418749999987 130.45125000000002 -15.666504999999987 Q130.45125000000002 -26.824843749999985 127.22625000000001 -31.995002499999984 Q124.00125 -37.16499999999998 114.4875 -46.517499999999984 Q111.2625 -49.90374999999999 108.601875 -53.69312499999998 Q105.94125 -57.48249999999999 103.2 -61.67499999999998 Q96.46926375000001 -72.34555749999998 88.88390249999999 -80.31340374999999 Q81.2987025 -88.28124999999999 64.36068 -88.28124999999999 Q43.215 -88.28124999999999 33.862500000000004 -73.20437499999998 Q24.51 -58.12749999999998 24.34875 -39.26124999999999 Q24.34875 -28.134999999999977 28.995330000000003 -20.85730374999997 Q33.64191 -13.579446249999975 40.12158 -9.32792874999997 Q46.60125 -5.0762499999999875 53.343112500000004 -3.3024999999999807 Q60.08481375000001 -1.528749999999988 64.33875 -1.528749999999988 Q72.11874 -1.528749999999988 76.956885 2.2445000000000164 Q81.79503 6.017750000000007 84.8175 9.275000000000006 Q88.36500000000001 13.14500000000001 91.93297874999999 15.48312500000003 Q95.50095750000001 17.82125000000002 103.15597875 17.82125000000002 Z M77.4325725 -15.879999999999981 Q85.4625 -15.879999999999981 91.10625 -21.55632249999998 Q96.75 -27.232644999999977 96.75 -35.262572499999976 Q96.75 -43.29249999999999 91.0736775 -48.93624999999999 Q85.397355 -54.579999999999984 77.3674275 -54.579999999999984 Q69.3375 -54.579999999999984 63.69375 -48.903677499999986 Q58.050000000000004 -43.22735499999999 58.050000000000004 -35.19742749999999 Q58.050000000000004 -27.167499999999976 63.7263225 -21.52374999999998 Q69.402645 -15.879999999999981 77.4325725 -15.879999999999981 Z"/></g><g id="Semibold-L" transform="matrix(1 0 0 1 1970.27 1556)"><path d="M103.18339125000001 31.366411250000027 Q91.75818375 31.366411250000027 85.73936625 27.373700000000014 Q79.72054875 23.38098875000003 75.668175 19.167365000000018 Q72.90322125 16.270508750000033 70.433355 14.143460000000033 Q67.9633275 12.016411250000004 64.33875 12.016411250000004 Q56.820791250000006 12.016411250000004 47.53085625 9.37255625000003 Q38.24092125 6.7285400000000095 30.12101625 0.7718037500000321 Q22.00111125 -5.184932499999974 16.4362125 -14.784144999999981 Q10.871475 -24.38319624999997 10.80358875 -38.29374999999999 Q10.57235625 -65.95167249999997 24.75913125 -83.88896125 Q38.94590625 -101.82641124999998 64.33875 -101.82641124999998 Q75.95310375 -101.82641124999998 84.09897 -98.56625874999997 Q92.24467499999999 -95.30626749999999 98.097405 -90.26188374999998 Q103.950135 -85.21766124999998 108.09732375 -79.11063999999999 Q112.24435125000001 -73.00377999999998 115.76347125000001 -67.33100499999999 Q117.69847125000001 -64.10713374999999 119.679105 -61.20156999999999 Q121.65973875000002 -58.295844999999986 124.0206 -56.02608999999998 Q134.04793125 -45.99875874999998 139.02217125 -38.56013499999999 Q143.99641125 -31.12167249999999 143.99641125 -15.728586249999992 Q143.99641125 4.569725000000034 131.292975 17.96814875000001 Q118.58953875 31.366411250000027 103.18339125000001 31.366411250000027 Z M103.14920624999999 18.592347500000017 Q113.32972500000001 18.592347500000017 122.27603625 8.805278750000014 Q131.2223475 -0.9817899999999753 131.2223475 -15.68359749999999 Q131.2223475 -27.043982499999984 127.96235625000001 -32.31476124999999 Q124.702365 -37.585701249999985 115.0483275 -47.078327499999986 Q111.82332749999999 -50.39443374999999 109.19769375000001 -54.14881749999999 Q106.57222125 -57.90320124999998 103.90111499999999 -62.095701249999976 Q97.08201375 -72.96427374999999 89.31911625000001 -81.00839124999999 Q81.55605750000001 -89.0523475 64.35116625 -89.0523475 Q42.8644425 -89.0523475 33.266681250000005 -73.80019374999998 Q23.66875875 -58.54820124999998 23.5776525 -39.26124999999999 Q23.5776525 -27.854586249999983 28.3422675 -20.410963749999993 Q33.1068825 -12.96734124999999 39.6787875 -8.601174999999984 Q46.25069250000001 -4.235008749999977 53.13268125 -2.496249999999975 Q60.01467 -0.7576524999999776 64.33875 -0.7576524999999776 Q71.90847000000001 -0.7576524999999776 76.57133625 2.945615000000032 Q81.23420250000001 6.648721250000023 84.18652875 9.835827500000022 Q87.87431625 13.846114999999998 91.53920624999999 16.219231250000036 Q95.20409625 18.592347500000017 103.14920624999999 18.592347500000017 Z M77.4325725 -15.879999999999981 Q85.4625 -15.879999999999981 91.10625 -21.55632249999998 Q96.75 -27.232644999999977 96.75 -35.262572499999976 Q96.75 -43.29249999999999 91.0736775 -48.93624999999999 Q85.397355 -54.579999999999984 77.3674275 -54.579999999999984 Q69.3375 -54.579999999999984 63.69375 -48.903677499999986 Q58.050000000000004 -43.22735499999999 58.050000000000004 -35.19742749999999 Q58.050000000000004 -27.167499999999976 63.7263225 -21.52374999999998 Q69.402645 -15.879999999999981 77.4325725 -15.879999999999981 Z"/></g><g id="Medium-L" transform="matrix(1 0 0 1 1674.31 1556)"><path d="M103.19290500000001 30.156875000000014 Q92.1263175 30.156875000000014 86.3703375 26.374595000000028 Q80.61451875 22.592153750000023 76.66728 18.48382625000002 Q73.72995 15.397662500000024 71.05707 13.102268750000007 Q68.38402875 10.80687500000002 64.33875 10.80687500000002 Q56.97172125 10.80687500000002 47.92479000000001 8.246386250000029 Q38.87785875 5.68589750000001 30.930652500000004 -0.1368399999999923 Q22.98344625 -5.95957749999998 17.5591575 -15.323364999999981 Q12.134868749999999 -24.687152499999996 12.013125 -38.29374999999999 Q11.729163750000001 -65.53097125 25.592148750000003 -83.07400374999997 Q39.455295 -100.616875 64.33875 -100.616875 Q75.8574825 -100.616875 83.862255 -97.33059999999999 Q91.86702749999999 -94.04416375 97.64574375 -89.02622499999998 Q103.42429874999999 -84.00812499999998 107.45812875000001 -77.93593374999999 Q111.4917975 -71.86358124999998 115.027365 -66.20757624999999 Q116.96236499999999 -62.98305999999998 118.91655375 -60.21875124999998 Q120.87090375 -57.454442499999985 123.1721025 -55.191782499999974 Q132.99625875 -45.36778749999998 137.89148624999999 -38.03429874999998 Q142.786875 -30.70097124999998 142.786875 -15.722942499999974 Q142.786875 4.02824750000002 130.48172625 17.092561250000017 Q118.17657750000001 30.156875000000014 103.19290500000001 30.156875000000014 Z M103.14404625 19.170912500000014 Q113.5325775 19.170912500000014 122.666745 9.215821250000033 Q131.8009125 -0.7392699999999905 131.8009125 -15.696497499999978 Q131.8009125 -27.20829624999999 128.51447625 -32.55470124999998 Q125.22820125000001 -37.90110625 115.46902875 -47.49902874999998 Q112.24402875 -50.76256749999999 109.64467875 -54.49066749999999 Q107.04549 -58.21860624999998 104.42695125 -62.41110624999999 Q97.5417375 -73.42835124999999 89.64548625 -81.52955125 Q81.749235 -89.6309125 64.34407125 -89.6309125 Q42.601605000000006 -89.6309125 32.81969625 -74.24717874999999 Q23.0377875 -58.86360624999999 22.999087499999998 -39.26124999999999 Q22.999087499999998 -27.644316249999974 27.852390000000003 -20.076047499999987 Q32.70553125 -12.507939999999977 39.3466125 -8.055988749999983 Q45.987855 -3.6040374999999756 52.97497875 -1.8915624999999778 Q59.9621025 -0.17908749999998008 64.33875 -0.17908749999998008 Q71.75076750000001 -0.17908749999998008 76.28205375 3.4714512500000296 Q80.81350125 7.121990000000011 83.71326 10.25652875000003 Q87.5061825 14.371951250000023 91.24395750000001 16.771351250000038 Q94.98157125 19.170912500000014 103.14404625 19.170912500000014 Z M77.4325725 -15.879999999999981 Q85.4625 -15.879999999999981 91.10625 -21.55632249999998 Q96.75 -27.232644999999977 96.75 -35.262572499999976 Q96.75 -43.29249999999999 91.0736775 -48.93624999999999 Q85.397355 -54.579999999999984 77.3674275 -54.579999999999984 Q69.3375 -54.579999999999984 63.69375 -48.903677499999986 Q58.050000000000004 -43.22735499999999 58.050000000000004 -35.19742749999999 Q58.050000000000004 -27.167499999999976 63.7263225 -21.52374999999998 Q69.402645 -15.879999999999981 77.4325725 -15.879999999999981 Z"/></g><g id="Regular-L" transform="matrix(1 0 0 1 1378.56 1556)"><path d="M103.2 29.27000000000001 Q92.39625000000001 29.27000000000001 86.833125 25.641875000000027 Q81.27 22.013750000000016 77.4 17.982500000000016 Q74.33625 14.757500000000022 71.514375 12.338750000000005 Q68.6925 9.920000000000016 64.33875 9.920000000000016 Q57.0825 9.920000000000016 48.213750000000005 7.42062500000003 Q39.345 4.921250000000015 31.524375 -0.8031249999999801 Q23.70375 -6.527499999999975 18.3825 -15.718749999999986 Q13.061250000000001 -24.909999999999982 12.9 -38.29374999999999 Q12.5775 -65.22249999999998 26.203125 -82.47625 Q39.82875 -99.72999999999999 64.33875 -99.72999999999999 Q75.78750000000001 -99.72999999999999 83.68875 -96.42437499999998 Q91.59 -93.11874999999998 97.314375 -88.11999999999998 Q103.03875000000001 -83.12124999999997 106.98937500000001 -77.07437499999997 Q110.94 -71.02749999999997 114.4875 -65.38374999999999 Q116.4225 -62.15874999999998 118.3575 -59.49812499999999 Q120.2925 -56.83749999999998 122.55 -54.579999999999984 Q132.225 -44.90499999999999 137.0625 -37.64874999999998 Q141.9 -30.392499999999984 141.9 -15.718749999999986 Q141.9 3.6312500000000227 129.886875 16.45062500000003 Q117.87375 29.27000000000001 103.2 29.27000000000001 Z M103.14017625000001 19.595000000000027 Q113.68125 19.595000000000027 122.953125 9.516875000000027 Q132.225 -0.5612499999999869 132.225 -15.706011249999989 Q132.225 -27.328749999999985 128.919375 -32.73062499999999 Q125.61375000000001 -38.13249999999998 115.7775 -47.807499999999976 Q112.55250000000001 -51.032499999999985 109.9725 -54.74124999999998 Q107.3925 -58.44999999999999 104.8125 -62.642499999999984 Q97.87875 -73.76874999999998 89.88478124999999 -81.91187499999998 Q81.89081250000001 -90.05499999999998 64.33875 -90.05499999999998 Q42.40875 -90.05499999999998 32.491875 -74.57499999999999 Q22.575 -59.094999999999985 22.575 -39.26124999999999 Q22.575 -27.48999999999998 27.493125 -19.830624999999984 Q32.41125 -12.171249999999986 39.103125 -7.656249999999986 Q45.795 -3.141249999999985 52.8593625 -1.4481249999999761 Q59.92356375000001 0.24500000000000455 64.33875 0.24500000000000455 Q71.63499 0.24500000000000455 76.07001000000001 3.8570000000000277 Q80.50502999999999 7.4690000000000225 83.36625000000001 10.565000000000026 Q87.23625 14.757500000000022 91.0272375 17.17625000000001 Q94.81838624999999 19.595000000000027 103.14017625000001 19.595000000000027 Z M77.4325725 -15.879999999999981 Q85.4625 -15.879999999999981 91.10625 -21.55632249999998 Q96.75 -27.232644999999977 96.75 -35.262572499999976 Q96.75 -43.29249999999999 91.0736775 -48.93624999999999 Q85.397355 -54.579999999999984 77.3674275 -54.579999999999984 Q69.3375 -54.579999999999984 63.69375 -48.903677499999986 Q58.050000000000004 -43.22735499999999 58.050000000000004 -35.19742749999999 Q58.050000000000004 -27.167499999999976 63.7263225 -21.52374999999998 Q69.402645 -15.879999999999981 77.4325725 -15.879999999999981 Z"/></g><g id="Light-L" transform="matrix(1 0 0 1 1082.77 1556)"><path d="M103.2 26.044838750000025 Q93.2025 26.044838750000025 88.07362125 22.60263500000002 Q82.94458125 19.160592500000035 79.38482625 15.439587500000016 Q76.0729125 11.904342500000013 72.84791249999999 9.299510000000026 Q69.6229125 6.694838750000031 64.33875 6.694838750000031 Q57.578666250000005 6.694838750000031 49.23720375 4.3194650000000365 Q40.89558 1.9440912500000138 33.571121250000004 -3.4081187499999714 Q26.246662500000003 -8.760328749999985 21.2356575 -17.331411249999974 Q16.22449125 -25.902332499999986 16.12516125 -38.29374999999999 Q15.92682375 -63.48583749999999 28.7150775 -79.99525749999998 Q41.50333125 -96.50483874999998 64.33875 -96.50483874999998 Q74.8570875 -96.50483874999998 82.23121125 -93.47817624999999 Q89.60517375 -90.451675 94.95754500000001 -85.79413 Q100.30975500000001 -81.13642374999998 104.10525750000001 -75.49283499999999 Q107.90076 -69.84908499999999 111.2002575 -64.57749999999999 Q113.38326 -60.98033499999998 115.53546375 -57.91658499999998 Q117.68750625000001 -54.85267374999998 120.25509000000001 -52.28508999999998 Q129.496005 -43.044336249999986 134.08534125 -36.22217124999999 Q138.67483875000002 -29.40016749999998 138.67483875000002 -15.718749999999986 Q138.67483875000002 2.2046712500000183 127.65404625000001 14.124755000000022 Q116.63325375000001 26.044838750000025 103.2 26.044838750000025 Z M103.14017625000001 18.726668750000016 Q113.3719725 18.726668750000016 122.36424 8.927667500000013 Q131.35666875 -0.8713337499999767 131.35666875 -15.692143749999985 Q131.35666875 -27.066234999999978 128.113125 -32.351203749999996 Q124.86942 -37.63633374999998 115.15733250000001 -47.18733249999998 Q111.9323325 -50.41233249999998 109.29025125 -54.183002499999986 Q106.64817000000001 -57.95383374999999 104.06817000000001 -62.14633374999998 Q97.2585825 -73.08650124999998 89.41231875 -81.13658499999998 Q81.56621625 -89.18666875 64.33875 -89.18666875 Q42.71883375 -89.18666875 33.0501225 -73.86179124999998 Q23.38125 -58.53675249999999 23.46397125 -39.05581749999999 Q23.505412500000002 -27.48999999999998 28.299375 -20.04766749999999 Q33.09349875 -12.605496249999973 39.648472500000004 -8.249166249999988 Q46.203446250000006 -3.892997499999993 53.125586250000005 -2.258083749999983 Q60.047565 -0.6233312499999784 64.33875 -0.6233312499999784 Q71.89669875 -0.6233312499999784 76.49071125 3.075421250000005 Q81.0845625 6.774335000000008 84.04849875000001 9.944832500000018 Q87.77950125000001 14.023167500000028 91.44116625000001 16.374837500000012 Q95.10267 18.726668750000016 103.14017625000001 18.726668750000016 Z M77.44127999999999 -18.236829999999983 Q84.4701675 -18.236829999999983 89.43166875 -23.239772499999987 Q94.39317000000001 -28.242553749999985 94.39317000000001 -35.271279999999976 Q94.39317000000001 -42.300167499999986 89.3902275 -47.261668749999984 Q84.38744625 -52.22316999999998 77.35872 -52.22316999999998 Q70.3298325 -52.22316999999998 65.36833125 -47.22022749999998 Q60.40683 -42.21744624999998 60.40683 -35.18871999999999 Q60.40683 -28.15983249999998 65.4097725 -23.19833124999998 Q70.41255375 -18.236829999999983 77.44127999999999 -18.236829999999983 Z"/></g><g id="Thin-L" transform="matrix(1 0 0 1 787.282 1556)"><path d="M103.2 22.82000000000002 Q94.00875 22.82000000000002 89.31395625 19.564040000000006 Q84.61900125 16.308080000000018 81.36916875 12.896997500000026 Q77.8092525 9.051830000000024 74.1811275 6.260915000000011 Q70.5530025 3.4700000000000273 64.33875 3.4700000000000273 Q58.0748325 3.4700000000000273 50.260335000000005 1.2187887500000159 Q42.44599875 -1.0325837499999864 35.617545 -6.01262874999999 Q28.789252500000003 -10.992834999999985 24.088169999999998 -18.94374999999998 Q19.38724875 -26.894664999999975 19.35 -38.29374999999999 Q19.2755025 -61.749497499999976 31.2267075 -77.51474874999998 Q43.17775125 -93.27999999999999 64.33875 -93.27999999999999 Q73.9269975 -93.27999999999999 80.77383375000001 -90.53262249999997 Q87.62083125 -87.78508374999998 92.60087625 -83.46858249999998 Q97.58108250000001 -79.15208124999998 101.22162375 -73.91145624999999 Q104.862165 -68.67083124999999 107.91349875 -63.77124999999998 Q110.344665 -59.802081249999986 112.71375 -56.335206249999985 Q115.08299625 -52.86833124999998 117.96066375 -49.99066374999998 Q126.76733250000001 -41.18383374999998 131.10866625 -34.79591499999998 Q135.45000000000002 -28.407834999999977 135.45000000000002 -15.718749999999986 Q135.45000000000002 0.7784150000000238 125.42154000000001 11.799207500000023 Q115.39291875 22.82000000000002 103.2 22.82000000000002 Z M103.14017625000001 17.858498750000024 Q113.062695 17.858498750000024 121.77551625000001 8.338460000000026 Q130.48849875 -1.1814174999999807 130.48849875 -15.678276249999982 Q130.48849875 -26.803558749999993 127.306875 -31.97194374999998 Q124.12525125 -37.14016749999999 114.537165 -46.56716499999999 Q111.31216500000001 -49.79216499999998 108.60816375 -53.624916249999984 Q105.90400125000001 -57.457667499999985 103.32400125000001 -61.65016749999998 Q96.638415 -72.40441374999997 88.94001750000001 -80.36145624999997 Q81.24162 -88.31849874999997 64.33875 -88.31849874999997 Q43.0289175 -88.31849874999997 33.60820875 -73.14858249999997 Q24.1875 -57.97866624999999 24.3529425 -38.850223749999984 Q24.435502500000002 -27.48999999999998 29.105625 -20.26470999999998 Q33.77558625 -13.039581249999983 40.19382 -8.84208249999999 Q46.611892499999996 -4.644583749999981 53.39181000000001 -3.06804249999999 Q60.1717275 -1.4915012499999847 64.33875 -1.4915012499999847 Q72.15824625 -1.4915012499999847 76.91125125 2.294165000000021 Q81.66425625000001 6.079831250000012 84.73058625 9.32466500000001 Q88.3227525 13.288835000000034 91.85477250000001 15.573747500000025 Q95.38695375 17.858498750000024 103.14017625000001 17.858498750000024 Z M77.45014875 -20.59349874999998 Q83.477835 -20.59349874999998 87.75724875 -24.922899999999984 Q92.03650125 -29.252301249999974 92.03650125 -35.280148749999995 Q92.03650125 -41.30783499999998 87.7071 -45.587248749999986 Q83.37769875000001 -49.866501249999985 77.34985125 -49.866501249999985 Q71.322165 -49.866501249999985 67.04275125000001 -45.53709999999998 Q62.763498750000004 -41.20769874999999 62.763498750000004 -35.17985124999997 Q62.763498750000004 -29.152164999999982 67.0929 -24.87275124999998 Q71.42230125 -20.59349874999998 77.45014875 -20.59349874999998 Z"/></g><g id="Ultralight-L" transform="matrix(1 0 0 1 491.205 1556)"><path d="M103.2 20.88500000000002 Q94.4925 20.88500000000002 90.058125 17.740625000000023 Q85.62375 14.596250000000026 82.56 11.371250000000032 Q78.85125000000001 7.340000000000032 74.98125 4.437500000000028 Q71.11125 1.535000000000025 64.33875 1.535000000000025 Q58.3725 1.535000000000025 50.874375 -0.6418749999999847 Q43.37625 -2.81874999999998 36.845625 -7.575624999999988 Q30.315 -12.332499999999982 25.8 -19.91124999999998 Q21.285 -27.48999999999998 21.285 -38.29374999999999 Q21.285 -60.70749999999998 32.73375 -76.02624999999998 Q44.182500000000005 -91.34499999999998 64.33875 -91.34499999999998 Q73.36875 -91.34499999999998 79.899375 -88.76499999999999 Q86.43 -86.18499999999997 91.186875 -82.07312499999998 Q95.94375000000001 -77.96124999999998 99.49125000000001 -72.96249999999998 Q103.03875000000001 -67.96374999999998 105.94125 -63.28749999999998 Q108.52125000000001 -59.094999999999985 111.02062500000001 -55.38624999999999 Q113.52000000000001 -51.67749999999998 116.58375000000001 -48.61374999999998 Q125.13000000000001 -40.06749999999998 129.3225 -33.93999999999998 Q133.51500000000001 -27.812499999999986 133.51500000000001 -15.718749999999986 Q133.51500000000001 -0.07749999999998636 124.081875 10.40375000000003 Q114.64875 20.88500000000002 103.2 20.88500000000002 Z M103.14017625000001 17.337500000000006 Q112.87709625000001 17.337500000000006 121.4222175 7.985000000000014 Q129.9675 -1.3674999999999784 129.9675 -15.669891249999978 Q129.9675 -26.64601749999997 126.823125 -31.744258749999986 Q123.67875000000001 -36.84249999999999 114.165 -46.19499999999998 Q110.94 -49.41999999999999 108.19875 -53.28999999999998 Q105.4575 -57.15999999999998 102.8775 -61.35249999999998 Q96.26625 -71.99499999999998 88.65654 -79.89624999999998 Q81.04699125 -87.79749999999999 64.33875 -87.79749999999999 Q43.215 -87.79749999999999 33.943125 -72.72062499999998 Q24.67125 -57.64374999999998 24.88619625 -38.72702874999999 Q24.993750000000002 -27.48999999999998 29.589375 -20.394999999999982 Q34.185 -13.299999999999983 40.52099625 -9.197799999999972 Q46.856992500000004 -5.095438749999985 53.55160875 -3.5540499999999753 Q60.246063750000005 -2.0124999999999886 64.33875 -2.0124999999999886 Q72.31514250000001 -2.0124999999999886 77.1636075 1.8252500000000111 Q82.0120725 5.663000000000011 85.14 8.952500000000015 Q88.64863875 12.848300000000023 92.1030975 15.092900000000014 Q95.55739500000001 17.337500000000006 103.14017625000001 17.337500000000006 Z M77.45530875 -22.00749999999998 Q82.88250000000001 -22.00749999999998 86.7525 -25.932808749999978 Q90.6225 -29.858278749999982 90.6225 -35.28530874999997 Q90.6225 -40.71249999999998 86.69719125 -44.58249999999998 Q82.77172125 -48.452499999999986 77.34469125 -48.452499999999986 Q71.9175 -48.452499999999986 68.0475 -44.52719124999999 Q64.1775 -40.60172124999998 64.1775 -35.174691249999995 Q64.1775 -29.747499999999988 68.10280875000001 -25.877499999999984 Q72.02827875 -22.00749999999998 77.45530875 -22.00749999999998 Z"/></g><g id="Bold-M" transform="matrix(1 0 0 1 2281.8 1126)"><path d="M80.0 18.64500000000001 Q70.5 18.64500000000001 65.3125 15.20750000000001 Q60.125 11.77000000000001 56.75 8.14500000000001 Q55.03475 6.345000000000013 53.454875 4.9950000000000045 Q51.875 3.6450000000000102 49.875 3.6450000000000102 Q43.75 3.6450000000000102 36.125 1.4575000000000102 Q28.5 -0.7299999999999898 21.875 -5.60499999999999 Q15.25 -10.47999999999999 10.6875 -18.35499999999999 Q6.125 -26.22999999999999 6.125 -37.60499999999999 Q6.125 -59.85499999999999 17.6875 -74.47999999999999 Q29.25 -89.10499999999999 49.875 -89.10499999999999 Q59.125 -89.10499999999999 65.6875 -86.60499999999999 Q72.25 -84.10499999999999 76.9375 -80.16749999999999 Q81.625 -76.22999999999999 85.0 -71.41749999999999 Q88.375 -66.60499999999999 91.125 -62.15049999999999 Q92.625 -59.60499999999999 94.1875 -57.16749999999999 Q95.75 -54.72999999999999 97.641875 -52.83812499999999 Q105.75 -44.72999999999999 109.8125 -38.72999999999999 Q113.875 -32.72999999999999 113.875 -20.06112499999999 Q113.875 -3.3549999999999898 103.3125 7.64500000000001 Q92.75 18.64500000000001 80.0 18.64500000000001 Z M80.0 2.8950000000000102 Q86.457 2.8950000000000102 92.291 -3.635124999999988 Q98.125 -10.165249999999986 98.125 -20.10499999999999 Q98.125 -27.83937499999999 95.8125 -31.47224999999999 Q93.5 -35.10499999999999 86.625 -41.85499999999999 Q83.875 -44.60499999999999 81.75 -47.66749999999999 Q79.625 -50.72999999999999 77.5 -54.10499999999999 Q72.657375 -61.87674999999999 67.224125 -67.61587499999999 Q61.791 -73.35499999999999 49.861625 -73.35499999999999 Q34.625 -73.35499999999999 28.25 -62.29249999999999 Q21.875 -51.22999999999999 21.875 -37.72999999999999 Q21.875 -30.10499999999999 25.1645 -25.088374999999985 Q28.454 -20.071624999999983 32.977 -17.213374999999985 Q37.5 -14.35499999999999 42.25 -13.22999999999999 Q47.0 -12.10499999999999 49.875 -12.10499999999999 Q57.0 -12.10499999999999 61.1875 -8.91749999999999 Q65.375 -5.72999999999999 68.0 -2.8549999999999898 Q70.5 -0.35499999999998977 72.7645 1.2700000000000102 Q75.029125 2.8950000000000102 80.0 2.8950000000000102 Z M60.0 -17.72999999999999 Q67.25 -17.72999999999999 72.375 -22.85499999999999 Q77.5 -27.97999999999999 77.5 -35.22999999999999 Q77.5 -42.47999999999999 72.375 -47.60499999999999 Q67.25 -52.72999999999999 60.0 -52.72999999999999 Q52.75 -52.72999999999999 47.625 -47.60499999999999 Q42.5 -42.47999999999999 42.5 -35.22999999999999 Q42.5 -27.97999999999999 47.625 -22.85499999999999 Q52.75 -17.72999999999999 60.0 -17.72999999999999 Z"/></g><g id="Semibold-M" transform="matrix(1 0 0 1 1985.97 1126)"><path d="M80.0 16.960375000000013 Q70.989125 16.960375000000013 66.182 13.794500000000014 Q61.374875 10.62875000000001 58.163 7.221125000000015 Q56.160875 5.116875000000007 54.316875 3.5386250000000103 Q52.47275 1.9603750000000133 49.875 1.9603750000000133 Q43.967375 1.9603750000000133 36.6685 -0.11849999999998317 Q29.3695 -2.197249999999997 22.989 -6.882124999999988 Q16.608625 -11.566874999999996 12.236375 -19.11587499999999 Q7.864 -26.664749999999984 7.809625 -37.60499999999999 Q7.701 -59.25724999999999 18.82875 -73.33874999999999 Q29.9565 -87.42037499999999 49.875 -87.42037499999999 Q58.962 -87.42037499999999 65.33425 -84.893125 Q71.7065 -82.36599999999999 76.285375 -78.455625 Q80.864125 -74.54537499999999 84.103375 -69.78712499999999 Q87.3425 -65.029 90.0925 -60.60899999999999 Q91.5925 -58.08337499999999 93.12775 -55.808874999999986 Q94.663125 -53.53437499999999 96.493375 -51.70424999999999 Q104.337 -43.86049999999999 108.263625 -38.023499999999984 Q112.190375 -32.186499999999995 112.190375 -20.080249999999992 Q112.190375 -4.115874999999988 102.17125 6.422250000000005 Q92.15225 16.960375000000013 80.0 16.960375000000013 Z M80.0 3.710125000000005 Q86.747375 3.710125000000005 92.84375 -3.051374999999993 Q98.940125 -9.812999999999988 98.940125 -20.10499999999999 Q98.940125 -28.06349999999999 96.573375 -31.801624999999987 Q94.2065 -35.539749999999984 87.22275 -42.452749999999995 Q84.527125 -45.09412499999999 82.42925 -48.15662499999999 Q80.3315 -51.21912499999999 78.2065 -54.53974999999999 Q73.241125 -62.465124999999986 67.670125 -68.31762499999999 Q62.09925 -74.17012499999998 49.867375 -74.17012499999998 Q34.244625 -74.17012499999998 27.597875 -62.89024999999999 Q20.951125 -51.61037499999999 21.059875 -37.72999999999999 Q21.114125 -29.778874999999985 24.495125 -24.606499999999983 Q27.876125 -19.433999999999983 32.525 -16.486874999999984 Q37.173875 -13.539874999999995 42.032625 -12.414874999999995 Q46.89125 -11.289874999999995 49.875 -11.289874999999995 Q56.673875 -11.289874999999995 60.725625 -8.156624999999991 Q64.77725 -5.023499999999984 67.347875 -2.257249999999985 Q69.9565 0.40587500000000887 72.350625 2.058000000000007 Q74.74475 3.710125000000005 80.0 3.710125000000005 Z M60.0 -17.72999999999999 Q67.25 -17.72999999999999 72.375 -22.85499999999999 Q77.5 -27.97999999999999 77.5 -35.22999999999999 Q77.5 -42.47999999999999 72.375 -47.60499999999999 Q67.25 -52.72999999999999 60.0 -52.72999999999999 Q52.75 -52.72999999999999 47.625 -47.60499999999999 Q42.5 -42.47999999999999 42.5 -35.22999999999999 Q42.5 -27.97999999999999 47.625 -22.85499999999999 Q52.75 -17.72999999999999 60.0 -17.72999999999999 Z"/></g><g id="Medium-M" transform="matrix(1 0 0 1 1689.91 1126)"><path d="M80.0 15.696625000000012 Q71.356 15.696625000000012 66.83425 12.734750000000005 Q62.3125 9.772750000000016 59.22275 6.528125000000017 Q57.005625 4.19550000000001 54.963375 2.446125000000009 Q52.92125 0.6966250000000116 49.875 0.6966250000000116 Q44.130375 0.6966250000000116 37.076125 -1.3006249999999966 Q30.02175 -3.2978749999999906 23.82475 -7.839999999999989 Q17.62775 -12.382124999999988 13.398125 -19.686499999999995 Q9.1685 -26.99087499999999 9.073375 -37.60499999999999 Q8.883125 -58.80874999999999 19.68475 -72.48274999999998 Q30.486375 -86.15662499999999 49.875 -86.15662499999999 Q58.839625 -86.15662499999999 65.06925 -83.60912499999999 Q71.298875 -81.0615 75.79625 -77.17162499999999 Q80.2935 -73.28162499999999 83.43075 -68.56424999999999 Q86.568 -63.84687499999999 89.318 -59.45287499999999 Q90.818 -56.94199999999999 92.332875 -54.78974999999999 Q93.847875 -52.63762499999999 95.63175 -50.85374999999999 Q103.27725 -43.20824999999999 107.101875 -37.493624999999994 Q110.926625 -31.778874999999985 110.926625 -20.094499999999996 Q110.926625 -4.686499999999995 101.31525 5.505125000000007 Q91.70375 15.696625000000012 80.0 15.696625000000012 Z M80.0 4.321625000000012 Q86.96525 4.321625000000012 93.2585 -2.6136249999999848 Q99.551625 -9.548749999999984 99.551625 -20.10499999999999 Q99.551625 -28.23174999999999 97.144 -32.048749999999984 Q94.736375 -35.86587499999999 87.67125 -42.90124999999999 Q85.01625 -45.46099999999999 82.938875 -48.52349999999999 Q80.861375 -51.58599999999999 78.736375 -54.86587499999999 Q73.678875 -62.90637499999999 68.00475 -68.844 Q62.3305 -74.78162499999999 49.87175 -74.78162499999999 Q33.95925 -74.78162499999999 27.10875 -63.33874999999999 Q20.258125 -51.89574999999999 20.448375 -37.72999999999999 Q20.5435 -29.534374999999983 23.993125 -24.24499999999999 Q27.44275 -18.955749999999995 32.186125 -15.941999999999993 Q36.929375 -12.928374999999988 41.869625 -11.803374999999988 Q46.80975 -10.678374999999988 49.875 -10.678374999999988 Q56.429375 -10.678374999999988 60.379125 -7.585999999999984 Q64.32875 -4.493624999999994 66.85875 -1.8087499999999892 Q69.548875 0.9765000000000157 72.040125 2.649125000000012 Q74.531375 4.321625000000012 80.0 4.321625000000012 Z M60.0 -17.72999999999999 Q67.25 -17.72999999999999 72.375 -22.85499999999999 Q77.5 -27.97999999999999 77.5 -35.22999999999999 Q77.5 -42.47999999999999 72.375 -47.60499999999999 Q67.25 -52.72999999999999 60.0 -52.72999999999999 Q52.75 -52.72999999999999 47.625 -47.60499999999999 Q42.5 -42.47999999999999 42.5 -35.22999999999999 Q42.5 -27.97999999999999 47.625 -22.85499999999999 Q52.75 -17.72999999999999 60.0 -17.72999999999999 Z"/></g><g id="Regular-M" transform="matrix(1 0 0 1 1394.06 1126)"><path d="M80.0 14.77000000000001 Q71.625 14.77000000000001 67.3125 11.95750000000001 Q63.0 9.14500000000001 60.0 6.02000000000001 Q57.625 3.5200000000000102 55.4375 1.6450000000000102 Q53.25 -0.22999999999998977 49.875 -0.22999999999998977 Q44.25 -0.22999999999998977 37.375 -2.1674999999999898 Q30.5 -4.10499999999999 24.4375 -8.54249999999999 Q18.375 -12.97999999999999 14.25 -20.10499999999999 Q10.125 -27.22999999999999 10.0 -37.60499999999999 Q9.75 -58.47999999999999 20.3125 -71.85499999999999 Q30.875 -85.22999999999999 49.875 -85.22999999999999 Q58.75 -85.22999999999999 64.875 -82.66749999999999 Q71.0 -80.10499999999999 75.4375 -76.22999999999999 Q79.875 -72.35499999999999 82.9375 -67.66749999999999 Q86.0 -62.97999999999999 88.75 -58.60499999999999 Q90.25 -56.10499999999999 91.75 -54.04249999999999 Q93.25 -51.97999999999999 95.0 -50.22999999999999 Q102.5 -42.72999999999999 106.25 -37.10499999999999 Q110.0 -31.47999999999999 110.0 -20.10499999999999 Q110.0 -5.10499999999999 100.6875 4.83250000000001 Q91.375 14.77000000000001 80.0 14.77000000000001 Z M80.0 4.77000000000001 Q87.125 4.77000000000001 93.5625 -2.2924999999999898 Q100.0 -9.35499999999999 100.0 -20.10499999999999 Q100.0 -28.35499999999999 97.5625 -32.22999999999999 Q95.125 -36.10499999999999 88.0 -43.22999999999999 Q85.375 -45.72999999999999 83.3125 -48.79249999999999 Q81.25 -51.85499999999999 79.125 -55.10499999999999 Q74.0 -63.22999999999999 68.25 -69.22999999999999 Q62.5 -75.22999999999999 49.875 -75.22999999999999 Q33.75 -75.22999999999999 26.75 -63.66749999999999 Q19.75 -52.10499999999999 20.0 -37.72999999999999 Q20.125 -29.35499999999999 23.625 -23.97999999999999 Q27.125 -18.60499999999999 31.9375 -15.54249999999999 Q36.75 -12.47999999999999 41.75 -11.35499999999999 Q46.75 -10.22999999999999 49.875 -10.22999999999999 Q56.25 -10.22999999999999 60.125 -7.16749999999999 Q64.0 -4.10499999999999 66.5 -1.4799999999999898 Q69.25 1.3950000000000102 71.8125 3.0825000000000102 Q74.375 4.77000000000001 80.0 4.77000000000001 Z M60.0 -17.72999999999999 Q67.25 -17.72999999999999 72.375 -22.85499999999999 Q77.5 -27.97999999999999 77.5 -35.22999999999999 Q77.5 -42.47999999999999 72.375 -47.60499999999999 Q67.25 -52.72999999999999 60.0 -52.72999999999999 Q52.75 -52.72999999999999 47.625 -47.60499999999999 Q42.5 -42.47999999999999 42.5 -35.22999999999999 Q42.5 -27.97999999999999 47.625 -22.85499999999999 Q52.75 -17.72999999999999 60.0 -17.72999999999999 Z"/></g><g id="Light-M" transform="matrix(1 0 0 1 1098.18 1126)"><path d="M80.0 12.269875000000013 Q72.25 12.269875000000013 68.274125 9.601500000000016 Q64.298125 6.933250000000015 61.538625 4.0487500000000125 Q58.97125 1.3082500000000152 56.47125 -0.7109999999999843 Q53.97125 -2.730124999999987 49.875 -2.730124999999987 Q44.634625 -2.730124999999987 38.168375 -4.571499999999986 Q31.702 -6.4128749999999854 26.024125 -10.561874999999986 Q20.34625 -14.710874999999987 16.46175 -21.355124999999987 Q12.577125 -27.99924999999999 12.500125 -37.60499999999999 Q12.346375 -57.13374999999999 22.25975 -69.93175 Q32.173125 -82.72987499999999 49.875 -82.72987499999999 Q58.02875 -82.72987499999999 63.745125 -80.383625 Q69.461375 -78.0375 73.6105 -74.42699999999999 Q77.7595 -70.816375 80.70175 -66.44149999999999 Q83.644 -62.06649999999999 86.20175 -57.97999999999999 Q87.894 -55.19149999999999 89.562375 -52.81649999999999 Q91.230625 -50.44137499999999 93.221 -48.450999999999986 Q100.3845 -41.28762499999999 103.942125 -35.99912499999999 Q107.499875 -30.71074999999999 107.499875 -20.10499999999999 Q107.499875 -6.210874999999987 98.956625 3.029500000000013 Q90.413375 12.269875000000013 80.0 12.269875000000013 Z M80.0 4.77000000000001 Q87.125 4.77000000000001 93.5625 -2.2924999999999898 Q100.0 -9.35499999999999 100.0 -20.10499999999999 Q100.0 -28.35499999999999 97.5625 -32.22999999999999 Q95.125 -36.10499999999999 88.0 -43.22999999999999 Q85.375 -45.72999999999999 83.3125 -48.79249999999999 Q81.25 -51.85499999999999 79.125 -55.10499999999999 Q74.0 -63.22999999999999 68.25 -69.22999999999999 Q62.5 -75.22999999999999 49.875 -75.22999999999999 Q33.75 -75.22999999999999 26.75 -63.66749999999999 Q19.75 -52.10499999999999 20.0 -37.72999999999999 Q20.125 -29.35499999999999 23.625 -23.97999999999999 Q27.125 -18.60499999999999 31.9375 -15.54249999999999 Q36.75 -12.47999999999999 41.75 -11.35499999999999 Q46.75 -10.22999999999999 49.875 -10.22999999999999 Q56.25 -10.22999999999999 60.125 -7.16749999999999 Q64.0 -4.10499999999999 66.5 -1.4799999999999898 Q69.25 1.3950000000000102 71.8125 3.0825000000000102 Q74.375 4.77000000000001 80.0 4.77000000000001 Z M60.0 -20.230124999999987 Q66.19225 -20.230124999999987 70.596 -24.633999999999986 Q74.999875 -29.03774999999999 74.999875 -35.22999999999999 Q74.999875 -41.42224999999999 70.596 -45.825999999999986 Q66.19225 -50.22987499999999 60.0 -50.22987499999999 Q53.80775 -50.22987499999999 49.404 -45.825999999999986 Q45.000125 -41.42224999999999 45.000125 -35.22999999999999 Q45.000125 -29.03774999999999 49.404 -24.633999999999986 Q53.80775 -20.230124999999987 60.0 -20.230124999999987 Z"/></g><g id="Thin-M" transform="matrix(1 0 0 1 802.565 1126)"><path d="M80.0 9.77000000000001 Q72.875 9.77000000000001 69.235625 7.246000000000009 Q65.596125 4.722000000000008 63.076875 2.077750000000009 Q60.31725 -0.9029999999999916 57.50475 -3.0664999999999907 Q54.69225 -5.22999999999999 49.875 -5.22999999999999 Q45.01925 -5.22999999999999 38.9615 -6.975124999999991 Q32.903875 -8.72037499999999 27.6105 -12.580874999999992 Q22.31725 -16.44149999999999 18.673 -22.60499999999999 Q15.028875 -28.76849999999999 15.0 -37.60499999999999 Q14.94225 -55.78774999999999 24.20675 -68.00887499999999 Q33.471125 -80.22999999999999 49.875 -80.22999999999999 Q57.30775 -80.22999999999999 62.615375 -78.10024999999999 Q67.923125 -75.97037499999999 71.783625 -72.62424999999999 Q75.64425 -69.27812499999999 78.466375 -65.21562499999999 Q81.2885 -61.15312499999999 83.653875 -57.35499999999999 Q85.5385 -54.27812499999999 87.375 -51.59062499999999 Q89.211625 -48.90312499999999 91.442375 -46.67237499999999 Q98.26925 -39.84537499999999 101.634625 -34.89349999999999 Q105.0 -29.94149999999999 105.0 -20.10499999999999 Q105.0 -7.316499999999991 97.226 1.2267500000000098 Q89.451875 9.77000000000001 80.0 9.77000000000001 Z M80.0 4.77000000000001 Q87.125 4.77000000000001 93.5625 -2.2924999999999898 Q100.0 -9.35499999999999 100.0 -20.10499999999999 Q100.0 -28.35499999999999 97.5625 -32.22999999999999 Q95.125 -36.10499999999999 88.0 -43.22999999999999 Q85.375 -45.72999999999999 83.3125 -48.79249999999999 Q81.25 -51.85499999999999 79.125 -55.10499999999999 Q74.0 -63.22999999999999 68.25 -69.22999999999999 Q62.5 -75.22999999999999 49.875 -75.22999999999999 Q33.75 -75.22999999999999 26.75 -63.66749999999999 Q19.75 -52.10499999999999 20.0 -37.72999999999999 Q20.125 -29.35499999999999 23.625 -23.97999999999999 Q27.125 -18.60499999999999 31.9375 -15.54249999999999 Q36.75 -12.47999999999999 41.75 -11.35499999999999 Q46.75 -10.22999999999999 49.875 -10.22999999999999 Q56.25 -10.22999999999999 60.125 -7.16749999999999 Q64.0 -4.10499999999999 66.5 -1.4799999999999898 Q69.25 1.3950000000000102 71.8125 3.0825000000000102 Q74.375 4.77000000000001 80.0 4.77000000000001 Z M60.0 -22.72999999999999 Q65.134625 -22.72999999999999 68.817375 -26.41262499999999 Q72.5 -30.09537499999999 72.5 -35.22999999999999 Q72.5 -40.36462499999999 68.817375 -44.04737499999999 Q65.134625 -47.72999999999999 60.0 -47.72999999999999 Q54.865375 -47.72999999999999 51.182625 -44.04737499999999 Q47.5 -40.36462499999999 47.5 -35.22999999999999 Q47.5 -30.09537499999999 51.182625 -26.41262499999999 Q54.865375 -22.72999999999999 60.0 -22.72999999999999 Z"/></g><g id="Ultralight-M" transform="matrix(1 0 0 1 506.415 1126)"><path d="M80.0 8.27000000000001 Q73.25 8.27000000000001 69.8125 5.83250000000001 Q66.375 3.3950000000000102 64.0 0.8950000000000102 Q61.125 -2.2299999999999898 58.125 -4.47999999999999 Q55.125 -6.72999999999999 49.875 -6.72999999999999 Q45.25 -6.72999999999999 39.4375 -8.41749999999999 Q33.625 -10.10499999999999 28.5625 -13.79249999999999 Q23.5 -17.47999999999999 20.0 -23.35499999999999 Q16.5 -29.22999999999999 16.5 -37.60499999999999 Q16.5 -54.97999999999999 25.375 -66.85499999999999 Q34.25 -78.72999999999999 49.875 -78.72999999999999 Q56.875 -78.72999999999999 61.9375 -76.72999999999999 Q67.0 -74.72999999999999 70.6875 -71.54249999999999 Q74.375 -68.35499999999999 77.125 -64.47999999999999 Q79.875 -60.60499999999999 82.125 -56.97999999999999 Q84.125 -53.72999999999999 86.0625 -50.85499999999999 Q88.0 -47.97999999999999 90.375 -45.60499999999999 Q97.0 -38.97999999999999 100.25 -34.22999999999999 Q103.5 -29.47999999999999 103.5 -20.10499999999999 Q103.5 -7.97999999999999 96.1875 0.14500000000001023 Q88.875 8.27000000000001 80.0 8.27000000000001 Z M80.0 4.77000000000001 Q87.125 4.77000000000001 93.5625 -2.2924999999999898 Q100.0 -9.35499999999999 100.0 -20.10499999999999 Q100.0 -28.35499999999999 97.5625 -32.22999999999999 Q95.125 -36.10499999999999 88.0 -43.22999999999999 Q85.375 -45.72999999999999 83.3125 -48.79249999999999 Q81.25 -51.85499999999999 79.125 -55.10499999999999 Q74.0 -63.22999999999999 68.25 -69.22999999999999 Q62.5 -75.22999999999999 49.875 -75.22999999999999 Q33.75 -75.22999999999999 26.75 -63.66749999999999 Q19.75 -52.10499999999999 20.0 -37.72999999999999 Q20.125 -29.35499999999999 23.625 -23.97999999999999 Q27.125 -18.60499999999999 31.9375 -15.54249999999999 Q36.75 -12.47999999999999 41.75 -11.35499999999999 Q46.75 -10.22999999999999 49.875 -10.22999999999999 Q56.25 -10.22999999999999 60.125 -7.16749999999999 Q64.0 -4.10499999999999 66.5 -1.4799999999999898 Q69.25 1.3950000000000102 71.8125 3.0825000000000102 Q74.375 4.77000000000001 80.0 4.77000000000001 Z M60.0 -24.22999999999999 Q64.5 -24.22999999999999 67.75 -27.47999999999999 Q71.0 -30.72999999999999 71.0 -35.22999999999999 Q71.0 -39.72999999999999 67.75 -42.97999999999999 Q64.5 -46.22999999999999 60.0 -46.22999999999999 Q55.5 -46.22999999999999 52.25 -42.97999999999999 Q49.0 -39.72999999999999 49.0 -35.22999999999999 Q49.0 -30.72999999999999 52.25 -27.47999999999999 Q55.5 -24.22999999999999 60.0 -24.22999999999999 Z"/></g><g id="Bold-S" transform="matrix(1 0 0 1 2294.23 696)"><path d="M62.626875000000005 5.699375000000003 Q57.597 5.699375000000003 52.8136875 3.6775625000000076 Q48.030375 1.6557500000000118 44.282625 -1.5988749999999925 Q42.14029275 -3.2163249999999977 41.337583875 -3.492474999999999 Q40.534875 -3.768624999999986 40.239000000000004 -3.768624999999986 Q33.5325 -3.768624999999986 27.319125 -6.4315 Q21.10575 -9.094375 16.470375 -13.631124999999997 Q11.835 -18.167874999999995 9.073500000000001 -24.331937499999995 Q6.312 -30.495999999999995 6.4106250000000005 -37.596999999999994 Q6.7065 -55.152249999999995 15.434812500000001 -65.6558125 Q24.163125 -76.159375 39.0555 -76.159375 Q43.888125 -76.159375 48.2769375 -75.1238125 Q52.66575 -74.08824999999999 56.4135 -71.819875 Q60.16125 -69.5515 63.514500000000005 -66.099625 Q66.86775 -62.647749999999995 69.530625 -58.14689949999999 Q71.20725 -55.25087499999999 72.58800000000001 -52.883874999999996 Q73.96875 -50.51687499999999 75.954564375 -48.62968562499999 Q82.943625 -41.541999999999994 85.6065 -36.36418749999999 Q88.26937500000001 -31.18637499999999 88.26937500000001 -23.261757624999987 Q88.26937500000001 -10.869625 80.773875 -2.585124999999991 Q73.278375 5.699375000000003 62.626875000000005 5.699375000000003 Z M62.626875000000005 -5.9383749999999935 Q68.707698 -5.9383749999999935 72.6696615 -10.893393624999987 Q76.631625 -15.848412249999996 76.631625 -23.296374999999998 Q76.631625 -30.286421874999995 74.0180625 -33.64588524999999 Q71.4045 -37.00525 67.854 -40.457125 Q65.58562500000001 -42.7255 63.909000000000006 -44.993874999999996 Q62.232375000000005 -47.262249999999995 59.964000000000006 -51.40449999999999 Q56.241793875000006 -58.029535749999994 50.968709625 -61.27558037499999 Q45.695724 -64.521625 39.044947125 -64.521625 Q28.7985 -64.521625 23.374125 -57.46993749999999 Q17.94975 -50.41824999999999 17.94975 -37.596999999999994 Q17.851125 -33.35612499999999 19.6575405 -29.34869537499999 Q21.463956000000003 -25.341167124999984 24.4901655 -22.247695374999992 Q27.516375 -19.154124999999993 31.6093125 -17.280249999999995 Q35.70225 -15.406374999999997 40.239000000000004 -15.406374999999997 Q43.690875000000005 -15.406374999999997 46.6003125 -13.976312499999992 Q49.509750000000004 -12.546249999999986 52.961625000000005 -9.488874999999993 Q54.8355 -7.812249999999992 57.411190500000004 -6.875312499999993 Q59.986979625 -5.9383749999999935 62.626875000000005 -5.9383749999999935 Z M47.34 -23.394999999999996 Q52.27125 -23.394999999999996 55.723125 -26.797562499999998 Q59.175000000000004 -30.200124999999993 59.175000000000004 -35.23 Q59.175000000000004 -40.161249999999995 55.723125 -43.613125 Q52.27125 -47.065 47.34 -47.065 Q42.310125 -47.065 38.907562500000004 -43.613125 Q35.505 -40.161249999999995 35.505 -35.23 Q35.505 -30.200124999999993 38.907562500000004 -26.797562499999998 Q42.310125 -23.394999999999996 47.34 -23.394999999999996 Z"/></g><g id="Semibold-S" transform="matrix(1 0 0 1 1998.1 696)"><path d="M62.626875000000005 4.370205875000011 Q57.982919625 4.370205875000011 53.499723 2.562705500000007 Q49.016526375000005 0.7553037500000102 45.397482 -2.3278123749999935 Q43.028805375 -4.185315625000001 42.01770187500001 -4.641554874999997 Q41.00649975 -5.097794124999993 40.239000000000004 -5.097794124999993 Q33.704008875 -5.097794124999993 27.7479465 -7.674963999999989 Q21.7917855 -10.252035249999992 17.349321 -14.638776624999991 Q12.906955125000001 -19.025419375 10.29546375 -24.932267874999994 Q7.684071000000001 -30.83901774999999 7.739794125 -37.596999999999994 Q7.9499640000000005 -54.68062525 16.33525875 -64.75536625 Q24.7205535 -74.83020587499999 39.0555 -74.83020587499999 Q43.75951800000001 -74.83020587499999 47.99822325 -73.77314312499999 Q52.236928500000005 -72.716179 55.898973375000004 -70.469205625 Q59.560919625000004 -68.222330875 62.807062875 -64.813259125 Q66.05310750000001 -61.404286 68.71598250000001 -56.93065599999999 Q70.3926075 -54.050312874999996 71.75185725000001 -51.811919874999994 Q73.111205625 -49.57352687499999 75.048397875 -47.735058249999994 Q81.82876800000001 -40.85596449999999 84.384437625 -35.80675899999999 Q86.940205875 -30.7575535 86.940205875 -23.27684724999999 Q86.940205875 -11.469955374999998 79.87342875 -3.5498747500000007 Q72.80675025 4.370205875000011 62.626875000000005 4.370205875000011 Z M62.626875000000005 -5.295241375000003 Q68.93680387500001 -5.295241375000003 73.10578125 -10.432814874999991 Q77.274758625 -15.570486999999986 77.274758625 -23.296374999999998 Q77.274758625 -30.463256499999993 74.618392875 -33.905762124999995 Q71.96192850000001 -37.34826774999999 68.32562475 -40.92874975 Q66.100151625 -43.111419624999996 64.44492825 -45.379794624999995 Q62.789803500000005 -47.648169624999994 60.521428500000006 -51.74751774999999 Q56.702372625 -58.49376362499999 51.320603625000004 -61.829261125 Q45.93893325 -65.16475862499999 39.04948387500001 -65.16475862499999 Q28.498384125 -65.16475862499999 22.859598375 -57.94156225 Q17.220812625 -50.718365874999996 17.306616375 -37.596999999999994 Q17.250794625 -33.09881237499999 19.129403625000002 -28.968495999999988 Q21.008012625 -24.83808099999999 24.1335375 -21.674486874999985 Q27.259062375000003 -18.510991375000003 31.437803625000004 -16.63711637499999 Q35.61644625 -14.763241374999993 40.239000000000004 -14.763241374999993 Q43.433562375 -14.763241374999993 46.235893125000004 -13.375982124999993 Q49.03812525000001 -11.988821499999986 52.447098375 -9.01725024999999 Q54.406678500000005 -7.211919624999993 57.084643125 -6.253580499999998 Q59.76260775 -5.295241375000003 62.626875000000005 -5.295241375000003 Z M47.34 -23.394999999999996 Q52.27125 -23.394999999999996 55.723125 -26.797562499999998 Q59.175000000000004 -30.200124999999993 59.175000000000004 -35.23 Q59.175000000000004 -40.161249999999995 55.723125 -43.613125 Q52.27125 -47.065 47.34 -47.065 Q42.310125 -47.065 38.907562500000004 -43.613125 Q35.505 -40.161249999999995 35.505 -35.23 Q35.505 -30.200124999999993 38.907562500000004 -26.797562499999998 Q42.310125 -23.394999999999996 47.34 -23.394999999999996 Z"/></g><g id="Medium-S" transform="matrix(1 0 0 1 1701.85 696)"><path d="M62.626875000000005 3.373107125000004 Q58.272383999999995 3.373107125000004 54.01434825 1.7265627499999994 Q49.7563125 0.07991975000001617 46.23362475 -2.874589374999985 Q43.695313125000006 -4.912280499999994 42.527790375 -5.503537374999993 Q41.360366250000006 -6.094892874999985 40.239000000000004 -6.094892874999985 Q33.832615875 -6.094892874999985 28.069562625 -8.607660624999994 Q22.30641075 -11.120428374999989 18.008727750000002 -15.394539999999992 Q13.71104475 -19.668651624999995 11.212183125000001 -25.382491 Q8.713321500000001 -31.096330374999994 8.736892875 -37.596999999999994 Q8.882660625 -54.326758749999996 17.010642750000002 -64.07998225 Q25.138624875 -73.833107125 39.0555 -73.833107125 Q43.662964125 -73.833107125 47.78913825 -72.76006712499999 Q51.915312375 -71.6869285 55.513053750000005 -69.45612962499999 Q59.110696499999996 -67.22523212499999 62.27636175000001 -63.84841074999999 Q65.442027 -60.47158937499999 68.104902 -56.018473375 Q69.781527 -53.149767999999995 71.124700875 -51.00783025 Q72.467973375 -48.865991124999994 74.36857575 -47.064013749999994 Q80.99262525 -40.34133925 83.46781687500001 -35.388687624999996 Q85.94310712500001 -30.435937374999988 85.94310712500001 -23.288090499999996 Q85.94310712500001 -11.920178499999992 79.19804475000001 -4.27348637499999 Q72.45288375 3.373107125000004 62.626875000000005 3.373107125000004 Z M62.626875000000005 -4.812767874999992 Q69.10870725 -4.812767874999992 73.433019 -10.087430124999983 Q77.757232125 -15.361993749999982 77.757232125 -23.296374999999998 Q77.757232125 -30.596005749999996 75.068616 -34.10074374999999 Q72.379999875 -37.605580374999995 68.67949125 -41.28261625 Q66.48607125000001 -43.400884 64.847022375 -45.669259 Q63.207874875 -47.937633999999996 60.939499874999996 -52.004830375 Q57.047757375 -58.841909875 51.58462275 -62.24457099999999 Q46.1213895 -65.64723212499999 39.05293575 -65.64723212499999 Q28.273223249999997 -65.64723212499999 22.47367875 -58.29542874999999 Q16.674035625000002 -50.94352675 16.824142875 -37.596999999999994 Q16.800571500000004 -32.90590187499999 18.733325625 -28.683272499999994 Q20.66607975 -24.460741749999997 23.866165125000002 -21.244580499999998 Q27.066151875000003 -18.02851787499999 31.309196625000002 -16.154642874999993 Q35.55214275 -14.280767874999995 40.239000000000004 -14.280767874999995 Q43.240651875000005 -14.280767874999995 45.962504625 -12.925758999999985 Q48.684258750000005 -11.570750125000004 52.06117875 -8.663383749999994 Q54.085062375 -6.761696499999985 56.839658625000006 -5.787182874999985 Q59.594254875 -4.812767874999992 62.626875000000005 -4.812767874999992 Z M47.34 -23.394999999999996 Q52.27125 -23.394999999999996 55.723125 -26.797562499999998 Q59.175000000000004 -30.200124999999993 59.175000000000004 -35.23 Q59.175000000000004 -40.161249999999995 55.723125 -43.613125 Q52.27125 -47.065 47.34 -47.065 Q42.310125 -47.065 38.907562500000004 -43.613125 Q35.505 -40.161249999999995 35.505 -35.23 Q35.505 -30.200124999999993 38.907562500000004 -26.797562499999998 Q42.310125 -23.394999999999996 47.34 -23.394999999999996 Z"/></g><g id="Regular-S" transform="matrix(1 0 0 1 1405.73 696)"><path d="M62.626875000000005 2.64200000000001 Q58.484625 2.64200000000001 54.3916875 1.1133125000000064 Q50.298750000000005 -0.4153749999999974 46.846875000000004 -3.275499999999994 Q44.184000000000005 -5.445249999999987 42.901875000000004 -6.13562499999999 Q41.61975 -6.825999999999993 40.239000000000004 -6.825999999999993 Q33.927 -6.825999999999993 28.305375 -9.291624999999996 Q22.68375 -11.757249999999999 18.4921875 -15.948812499999988 Q14.300625 -20.14037499999999 11.8843125 -25.712687499999987 Q9.468 -31.284999999999997 9.468 -37.596999999999994 Q9.566625 -54.067375 17.5059375 -63.584687499999994 Q25.44525 -73.102 39.0555 -73.102 Q43.59225 -73.102 47.635875 -72.017125 Q51.679500000000004 -70.93225 55.230000000000004 -68.7131875 Q58.7805 -66.494125 61.8871875 -63.140874999999994 Q64.993875 -59.787625 67.65675 -55.34949999999999 Q69.333375 -52.489374999999995 70.6648125 -50.41824999999999 Q71.99625 -48.34712499999999 73.870125 -46.57187499999999 Q80.37937500000001 -39.96399999999999 82.7956875 -35.08206249999999 Q85.212 -30.200124999999993 85.212 -23.296374999999998 Q85.212 -12.250374999999991 78.70275000000001 -4.804187499999998 Q72.1935 2.64200000000001 62.626875000000005 2.64200000000001 Z M62.626875000000005 -4.458999999999989 Q69.23475 -4.458999999999989 73.672875 -9.834062499999987 Q78.111 -15.209125 78.111 -23.296374999999998 Q78.111 -30.693249999999992 75.3988125 -34.24374999999999 Q72.686625 -37.79424999999999 68.93887500000001 -41.541999999999994 Q66.769125 -43.613125 65.1418125 -45.881499999999996 Q63.514500000000005 -48.149874999999994 61.246125 -52.19349999999999 Q57.301125 -59.097249999999995 51.778125 -62.549125 Q46.255125 -66.00099999999999 39.0555 -66.00099999999999 Q28.108125 -66.00099999999999 22.190625 -58.5548125 Q16.273125 -51.108624999999996 16.470375 -37.596999999999994 Q16.470375 -32.764374999999994 18.442875 -28.474187499999992 Q20.415375 -24.183999999999997 23.67 -20.929374999999993 Q26.924625000000002 -17.67474999999999 31.2148125 -15.80087499999999 Q35.505 -13.926999999999992 40.239000000000004 -13.926999999999992 Q43.099125 -13.926999999999992 45.762 -12.5955625 Q48.424875 -11.264124999999993 51.778125 -8.403999999999996 Q53.849250000000005 -6.4315 56.6600625 -5.445249999999987 Q59.470875 -4.458999999999989 62.626875000000005 -4.458999999999989 Z M47.34 -23.394999999999996 Q52.27125 -23.394999999999996 55.723125 -26.797562499999998 Q59.175000000000004 -30.200124999999993 59.175000000000004 -35.23 Q59.175000000000004 -40.161249999999995 55.723125 -43.613125 Q52.27125 -47.065 47.34 -47.065 Q42.310125 -47.065 38.907562500000004 -43.613125 Q35.505 -40.161249999999995 35.505 -35.23 Q35.505 -30.200124999999993 38.907562500000004 -26.797562499999998 Q42.310125 -23.394999999999996 47.34 -23.394999999999996 Z"/></g><g id="Light-S" transform="matrix(1 0 0 1 1109.75 696)"><path d="M62.626875000000005 0.6694013750000067 Q58.97775 0.6694013750000067 55.150409625 -0.7455714999999827 Q51.322970625 -2.160445749999994 48.060850125 -4.830816249999998 Q45.24619125 -7.190320749999984 43.71750375 -7.994508999999994 Q42.18881625 -8.798598624999997 40.239000000000004 -8.798598624999997 Q34.230469125 -8.798598624999997 28.931347875 -11.188380999999993 Q23.632128 -13.578163374999988 19.744034625 -17.542099374999992 Q15.855941250000003 -21.506035374999996 13.62938325 -26.699036124999992 Q11.402726625000001 -31.891938249999995 11.440598625000002 -37.596999999999994 Q11.615164875000001 -53.00518374999999 19.042317750000002 -62.06724324999999 Q26.469470625 -71.129401375 39.0555 -71.129401375 Q43.02318375 -71.129401375 46.744403625000004 -70.215147625 Q50.465524875 -69.30099249999999 53.78849700000001 -67.29062049999999 Q57.11137050000001 -65.28014987499999 60.12318075 -62.17356099999999 Q63.13499100000001 -59.06687349999999 65.64618075 -54.85637499999999 Q67.474491 -51.7686235 68.938776375 -49.450936 Q70.402963125 -47.133149874999994 72.46649400000001 -45.168243999999994 Q78.7102455 -38.825966124999994 80.97477412500001 -34.209527124999994 Q83.239401375 -29.593186749999994 83.239401375 -23.296374999999998 Q83.239401375 -13.12291037499999 77.337089625 -6.226754499999984 Q71.43477787500001 0.6694013750000067 62.626875000000005 0.6694013750000067 Z M62.626875000000005 -4.458999999999989 Q69.23475 -4.458999999999989 73.672875 -9.834062499999987 Q78.111 -15.209125 78.111 -23.296374999999998 Q78.111 -30.693249999999992 75.3988125 -34.24374999999999 Q72.686625 -37.79424999999999 68.93887500000001 -41.541999999999994 Q66.769125 -43.613125 65.1418125 -45.881499999999996 Q63.514500000000005 -48.149874999999994 61.246125 -52.19349999999999 Q57.301125 -59.097249999999995 51.778125 -62.549125 Q46.255125 -66.00099999999999 39.0555 -66.00099999999999 Q28.108125 -66.00099999999999 22.190625 -58.5548125 Q16.273125 -51.108624999999996 16.470375 -37.596999999999994 Q16.470375 -32.764374999999994 18.442875 -28.474187499999992 Q20.415375 -24.183999999999997 23.67 -20.929374999999993 Q26.924625000000002 -17.67474999999999 31.2148125 -15.80087499999999 Q35.505 -13.926999999999992 40.239000000000004 -13.926999999999992 Q43.099125 -13.926999999999992 45.762 -12.5955625 Q48.424875 -11.264124999999993 51.778125 -8.403999999999996 Q53.849250000000005 -6.4315 56.6600625 -5.445249999999987 Q59.470875 -4.458999999999989 62.626875000000005 -4.458999999999989 Z M47.34 -25.367598624999985 Q51.436685250000004 -25.367598624999985 54.319494000000006 -28.201193499999988 Q57.20240137500001 -31.03468974999999 57.20240137500001 -35.23 Q57.20240137500001 -39.32668525 54.319494000000006 -42.20949399999999 Q51.436685250000004 -45.092401374999994 47.34 -45.092401374999994 Q43.14468975 -45.092401374999994 40.3111935 -42.20949399999999 Q37.477598625 -39.32668525 37.477598625 -35.23 Q37.477598625 -31.03468974999999 40.3111935 -28.201193499999988 Q43.14468975 -25.367598624999985 47.34 -25.367598624999985 Z"/></g><g id="Thin-S" transform="matrix(1 0 0 1 814.015 696)"><path d="M62.626875000000005 -1.3029999999999973 Q59.470875 -1.3029999999999973 55.909033125 -2.6040609999999873 Q52.347092625 -3.9051219999999915 49.274529375 -6.385935249999989 Q46.30818525 -8.934996999999996 44.53293525 -9.852998499999998 Q42.75768525 -10.770999999999987 40.239000000000004 -10.770999999999987 Q34.53393825 -10.770999999999987 29.557123500000003 -13.084841124999997 Q24.580407375 -15.398780875 20.9956845 -19.13509037499999 Q17.411060250000002 -22.8714985 15.3740595 -27.685187499999998 Q13.337157375 -32.498876499999994 13.413 -37.596999999999994 Q13.663310250000002 -51.943189749999995 20.57850075 -60.550094875 Q27.493592625 -69.157 39.0555 -69.157 Q42.45431475 -69.157 45.853030875 -68.41356474999999 Q49.251845625 -67.670030875 52.347092625 -65.86825074999999 Q55.44243825 -64.066470625 58.359469875 -61.206345625 Q61.2765015 -58.346220624999994 63.635907375 -54.363249999999994 Q65.6160015 -51.04797062499999 67.21293750000001 -48.483720625 Q68.809972125 -45.919470624999995 71.063158875 -43.764908874999996 Q77.04131325 -37.688030874999995 79.154156625 -33.337188999999995 Q81.26700000000001 -28.986248499999995 81.26700000000001 -23.296374999999998 Q81.26700000000001 -13.995248499999988 75.9716265 -7.64912425 Q70.67615437500001 -1.3029999999999973 62.626875000000005 -1.3029999999999973 Z M62.626875000000005 -4.458999999999989 Q69.23475 -4.458999999999989 73.672875 -9.834062499999987 Q78.111 -15.209125 78.111 -23.296374999999998 Q78.111 -30.693249999999992 75.3988125 -34.24374999999999 Q72.686625 -37.79424999999999 68.93887500000001 -41.541999999999994 Q66.769125 -43.613125 65.1418125 -45.881499999999996 Q63.514500000000005 -48.149874999999994 61.246125 -52.19349999999999 Q57.301125 -59.097249999999995 51.778125 -62.549125 Q46.255125 -66.00099999999999 39.0555 -66.00099999999999 Q28.108125 -66.00099999999999 22.190625 -58.5548125 Q16.273125 -51.108624999999996 16.470375 -37.596999999999994 Q16.470375 -32.764374999999994 18.442875 -28.474187499999992 Q20.415375 -24.183999999999997 23.67 -20.929374999999993 Q26.924625000000002 -17.67474999999999 31.2148125 -15.80087499999999 Q35.505 -13.926999999999992 40.239000000000004 -13.926999999999992 Q43.099125 -13.926999999999992 45.762 -12.5955625 Q48.424875 -11.264124999999993 51.778125 -8.403999999999996 Q53.849250000000005 -6.4315 56.6600625 -5.445249999999987 Q59.470875 -4.458999999999989 62.626875000000005 -4.458999999999989 Z M47.34 -27.33999999999999 Q50.602219125000005 -27.33999999999999 52.916158875 -29.604528624999993 Q55.230000000000004 -31.869155874999997 55.230000000000004 -35.23 Q55.230000000000004 -38.49221912499999 52.916158875 -40.806158874999994 Q50.602219125000005 -43.12 47.34 -43.12 Q43.979155875000004 -43.12 41.714528625 -40.806158874999994 Q39.45 -38.49221912499999 39.45 -35.23 Q39.45 -31.869155874999997 41.714528625 -29.604528624999993 Q43.979155875000004 -27.33999999999999 47.34 -27.33999999999999 Z"/></g><g id="Ultralight-S" transform="matrix(1 0 0 1 517.792 696)"><path d="M62.626875000000005 -2.4864999999999924 Q59.76675 -2.4864999999999924 56.3641875 -3.7193124999999867 Q52.961625000000005 -4.952124999999995 50.002875 -7.319125 Q46.9455 -9.982 45.022312500000005 -10.968249999999998 Q43.099125 -11.954499999999996 40.239000000000004 -11.954499999999996 Q34.716 -11.954499999999996 29.9326875 -14.222874999999988 Q25.149375000000003 -16.491249999999994 21.7468125 -20.091062499999992 Q18.344250000000002 -23.69087499999999 16.4210625 -28.276937499999995 Q14.497875 -32.86299999999999 14.5965 -37.596999999999994 Q14.892375000000001 -51.30587499999999 21.50025 -59.639687499999994 Q28.108125 -67.9735 39.0555 -67.9735 Q42.112875 -67.9735 45.3181875 -67.3324375 Q48.523500000000006 -66.691375 51.48225 -65.01474999999999 Q54.441 -63.33812499999999 57.301125 -60.62593749999999 Q60.16125 -57.91374999999999 62.429625 -54.067375 Q64.50075 -50.6155 66.177375 -47.90331249999999 Q67.854 -45.19112499999999 70.221 -42.92274999999999 Q76.03987500000001 -37.00525 78.0616875 -32.81368749999999 Q80.0835 -28.622124999999997 80.0835 -23.296374999999998 Q80.0835 -14.518749999999997 75.15225000000001 -8.502624999999995 Q70.221 -2.4864999999999924 62.626875000000005 -2.4864999999999924 Z M62.626875000000005 -4.458999999999989 Q69.23475 -4.458999999999989 73.672875 -9.834062499999987 Q78.111 -15.209125 78.111 -23.296374999999998 Q78.111 -30.693249999999992 75.3988125 -34.24374999999999 Q72.686625 -37.79424999999999 68.93887500000001 -41.541999999999994 Q66.769125 -43.613125 65.1418125 -45.881499999999996 Q63.514500000000005 -48.149874999999994 61.246125 -52.19349999999999 Q57.301125 -59.097249999999995 51.778125 -62.549125 Q46.255125 -66.00099999999999 39.0555 -66.00099999999999 Q28.108125 -66.00099999999999 22.190625 -58.5548125 Q16.273125 -51.108624999999996 16.470375 -37.596999999999994 Q16.470375 -32.764374999999994 18.442875 -28.474187499999992 Q20.415375 -24.183999999999997 23.67 -20.929374999999993 Q26.924625000000002 -17.67474999999999 31.2148125 -15.80087499999999 Q35.505 -13.926999999999992 40.239000000000004 -13.926999999999992 Q43.099125 -13.926999999999992 45.762 -12.5955625 Q48.424875 -11.264124999999993 51.778125 -8.403999999999996 Q53.849250000000005 -6.4315 56.6600625 -5.445249999999987 Q59.470875 -4.458999999999989 62.626875000000005 -4.458999999999989 Z M47.34 -28.52349999999999 Q50.1015 -28.52349999999999 52.074000000000005 -30.446687499999996 Q54.0465 -32.36987499999999 54.0465 -35.23 Q54.0465 -37.991499999999995 52.074000000000005 -39.96399999999999 Q50.1015 -41.936499999999995 47.34 -41.936499999999995 Q44.479875 -41.936499999999995 42.5566875 -39.96399999999999 Q40.633500000000005 -37.991499999999995 40.633500000000005 -35.23 Q40.633500000000005 -32.36987499999999 42.5566875 -30.446687499999996 Q44.479875 -28.52349999999999 47.34 -28.52349999999999 Z"/></g></g></svg>