<svg xmlns="http://www.w3.org/2000/svg" version="1.1" width="3300" height="2000"><g id="Notes"><style>
    text {
      font-family: monospace;
      text-anchor: middle;
    }
    text.emphasis {
      font-weight:bold;
    }
    text.lanchor {
      text-anchor: start;
    }
  </style><rect height="2200" id="artboard" fill="white" width="3300" x="0" y="0"/><line id="" style="fill:none;stroke:black;stroke-width:0.5;" x1="263" x2="3036" y1="292" y2="292"/><text class="lanchor emphasis" transform="matrix(1 0 0 1 263 322)">Weight/Scale Variations</text><text transform="matrix(1 0 0 1 559.711 322)">Ultralight</text><text transform="matrix(1 0 0 1 856.422 322)">Thin</text><text transform="matrix(1 0 0 1 1153.13 322)">Light</text><text transform="matrix(1 0 0 1 1449.84 322)">Regular</text><text transform="matrix(1 0 0 1 1746.56 322)">Medium</text><text transform="matrix(1 0 0 1 2043.27 322)">Semibold</text><text transform="matrix(1 0 0 1 2339.98 322)">Bold</text><text transform="matrix(1 0 0 1 2636.69 322)">Heavy</text><text transform="matrix(1 0 0 1 2933.4 322)">Black</text><text id="template-version" style="text-anchor: end;" transform="matrix(1 0 0 1 3036 1933)">Template v.1.0</text><text class="lanchor" transform="matrix(1 0 0 1 263 726)">Small</text><text class="lanchor" transform="matrix(1 0 0 1 263 1156)">Medium</text><text class="lanchor" transform="matrix(1 0 0 1 263 1586)">Large</text></g><g id="Guides"><g id="H-reference" style="fill:#27AAE1;stroke:none;" transform="matrix(1 0 0 1 339 696)"><path d="M 54.9316 0 L 57.666 0 L 30.5664 -70.459 L 28.0762 -70.459 L 0.976562 0 L 3.66211 0 L 12.9395 -24.4629 L 45.7031 -24.4629 Z M 29.1992 -67.0898 L 29.4434 -67.0898 L 44.8242 -26.709 L 13.8184 -26.709 Z"/></g><line id="Baseline-S" style="fill:none;stroke:#27AAE1;opacity:1;stroke-width:0.577;" x1="263" x2="3036" y1="696" y2="696"/><line id="Capline-S" style="fill:none;stroke:#27AAE1;opacity:1;stroke-width:0.577;" x1="263" x2="3036" y1="625.541" y2="625.541"/><g id="H-reference" style="fill:#27AAE1;stroke:none;" transform="matrix(1 0 0 1 339 1126)"><path d="M 54.9316 0 L 57.666 0 L 30.5664 -70.459 L 28.0762 -70.459 L 0.976562 0 L 3.66211 0 L 12.9395 -24.4629 L 45.7031 -24.4629 Z M 29.1992 -67.0898 L 29.4434 -67.0898 L 44.8242 -26.709 L 13.8184 -26.709 Z"/></g><line id="Baseline-M" style="fill:none;stroke:#27AAE1;opacity:1;stroke-width:0.577;" x1="263" x2="3036" y1="1126" y2="1126"/><line id="Capline-M" style="fill:none;stroke:#27AAE1;opacity:1;stroke-width:0.577;" x1="263" x2="3036" y1="1055.54" y2="1055.54"/><g id="H-reference" style="fill:#27AAE1;stroke:none;" transform="matrix(1 0 0 1 339 1556)"><path d="M 54.9316 0 L 57.666 0 L 30.5664 -70.459 L 28.0762 -70.459 L 0.976562 0 L 3.66211 0 L 12.9395 -24.4629 L 45.7031 -24.4629 Z M 29.1992 -67.0898 L 29.4434 -67.0898 L 44.8242 -26.709 L 13.8184 -26.709 Z"/></g><line id="Baseline-L" style="fill:none;stroke:#27AAE1;opacity:1;stroke-width:0.577;" x1="263" x2="3036" y1="1556" y2="1556"/><line id="Capline-L" style="fill:none;stroke:#27AAE1;opacity:1;stroke-width:0.577;" x1="263" x2="3036" y1="1485.54" y2="1485.54"/><rect height="119.336" id="left-margin" style="fill:darkred;stroke:none;opacity:0.4;" width="12.4512" x="1394.06" y="1030.79"/><rect height="119.336" id="right-margin" style="fill:darkgreen;stroke:none;opacity:0.4;" width="12.4512" x="1502.5112" y="1030.79"/><rect x="1406.5112" y="1045" width="96" height="96" fill="none" stroke="blue" stroke-dasharray="5"/><rect x="1394.06" y="1030.79" width="120.9024" height="119.336" fill="none" stroke="blue"/></g><g id="Symbols"><g id="Bold-L" transform="matrix(1 0 0 1 2266 1556)"><path d="M68.37 33.140000000000015  0.0 -35.22999999999999  68.37 -103.59999999999998  81.27 -90.53875  25.96125 -35.22999999999999  81.27 20.078750000000014  68.37 33.140000000000015 Z"/></g><g id="Semibold-L" transform="matrix(1 0 0 1 1970.27 1556)"><path d="M66.6875175 31.457517500000023  0.0 -35.22999999999999  66.6875175 -101.91751749999999  77.905035 -90.53875  22.596285 -35.22999999999999  77.905035 20.078750000000014  66.6875175 31.457517500000023 Z"/></g><g id="Medium-L" transform="matrix(1 0 0 1 1674.31 1556)"><path d="M65.42541375 30.19541375000003  0.0 -35.22999999999999  65.42541375 -100.65541374999998  75.38098875 -90.53875  20.07223875 -35.22999999999999  75.38098875 20.078750000000014  65.42541375 30.19541375000003 Z"/></g><g id="Regular-L" transform="matrix(1 0 0 1 1378.56 1556)"><path d="M64.5 29.27000000000001  0.0 -35.22999999999999  64.5 -99.72999999999999  73.53 -90.53875  18.22125 -35.22999999999999  73.53 20.078750000000014  64.5 29.27000000000001 Z"/></g><g id="Light-L" transform="matrix(1 0 0 1 1082.77 1556)"><path d="M64.5 27.03717125000003  2.23282875 -35.22999999999999  64.5 -97.49717124999998  71.91733875 -89.98050249999999  17.104755 -35.22999999999999  71.91733875 19.52050250000002  64.5 27.03717125000003 Z"/></g><g id="Thin-L" transform="matrix(1 0 0 1 787.282 1556)"><path d="M64.5 24.80466500000003  4.4653350000000005 -35.22999999999999  64.5 -95.26466499999998  70.305 -89.42241624999998  15.9885825 -35.22999999999999  70.305 18.962416250000018  64.5 24.80466500000003 Z"/></g><g id="Ultralight-L" transform="matrix(1 0 0 1 491.205 1556)"><path d="M64.5 23.465000000000032  5.805 -35.22999999999999  64.5 -93.92499999999998  69.3375 -89.08749999999998  15.31875 -35.22999999999999  69.3375 18.627500000000026  64.5 23.465000000000032 Z"/></g><g id="Bold-M" transform="matrix(1 0 0 1 2281.8 1126)"><path d="M54.0 18.77000000000001  0.0 -35.22999999999999  54.0 -89.22999999999999  66.875 -76.35499999999999  25.75 -35.22999999999999  66.875 5.89500000000001  54.0 18.77000000000001 Z"/></g><g id="Semibold-M" transform="matrix(1 0 0 1 1985.97 1126)"><path d="M52.261 17.031000000000006  0.0 -35.22999999999999  52.261 -87.49099999999999  63.397 -76.35499999999999  22.272 -35.22999999999999  63.397 5.89500000000001  52.261 17.031000000000006 Z"/></g><g id="Medium-M" transform="matrix(1 0 0 1 1689.91 1126)"><path d="M50.9565 15.726500000000016  0.0 -35.22999999999999  50.9565 -86.1865  60.788125 -76.35499999999999  19.663125 -35.22999999999999  60.788125 5.89500000000001  50.9565 15.726500000000016 Z"/></g><g id="Regular-M" transform="matrix(1 0 0 1 1394.06 1126)"><path d="M50.0 14.77000000000001  0.0 -35.22999999999999  50.0 -85.22999999999999  58.875 -76.35499999999999  17.75 -35.22999999999999  58.875 5.89500000000001  50.0 14.77000000000001 Z"/></g><g id="Light-M" transform="matrix(1 0 0 1 1098.18 1126)"><path d="M50.0 13.039125000000013  1.730875 -35.22999999999999  50.0 -83.49912499999999  57.096 -76.40312499999999  15.923 -35.22999999999999  57.096 5.943125000000009  50.0 13.039125000000013 Z"/></g><g id="Thin-M" transform="matrix(1 0 0 1 802.565 1126)"><path d="M50.0 11.30850000000001  3.4615 -35.22999999999999  50.0 -81.76849999999999  55.317375 -76.45112499999999  14.096125 -35.22999999999999  55.317375 5.991125000000011  50.0 11.30850000000001 Z"/></g><g id="Ultralight-M" transform="matrix(1 0 0 1 506.415 1126)"><path d="M50.0 10.27000000000001  4.5 -35.22999999999999  50.0 -80.72999999999999  54.25 -76.47999999999999  13.0 -35.22999999999999  54.25 6.02000000000001  50.0 10.27000000000001 Z"/></g><g id="Bold-S" transform="matrix(1 0 0 1 2294.23 696)"><path d="M41.028 5.798000000000002  0.0 -35.23  41.028 -76.258  50.8905 -66.3955  19.725 -35.23  50.8905 -4.064499999999995  41.028 5.798000000000002 Z"/></g><g id="Semibold-S" transform="matrix(1 0 0 1 1998.1 696)"><path d="M39.655929 4.425929000000011  0.0 -35.23  39.655929 -74.88592899999999  48.146358 -66.3955  16.980857999999998 -35.23  48.146358 -4.064499999999995  39.655929 4.425929000000011 Z"/></g><g id="Medium-S" transform="matrix(1 0 0 1 1701.85 696)"><path d="M38.6266785 3.3966785000000073  0.0 -35.23  38.6266785 -73.85667849999999  46.087955625 -66.3955  14.922455625000001 -35.23  46.087955625 -4.064499999999995  38.6266785 3.3966785000000073 Z"/></g><g id="Regular-S" transform="matrix(1 0 0 1 1405.73 696)"><path d="M37.872 2.64200000000001  0.0 -35.23  37.872 -73.102  44.578500000000005 -66.3955  13.413 -35.23  44.578500000000005 -4.064499999999995  37.872 2.64200000000001 Z"/></g><g id="Light-S" transform="matrix(1 0 0 1 1109.75 696)"><path d="M37.872 1.2763396250000056  1.365660375 -35.23  37.872 -71.736339625  43.174869 -66.433470625  11.971497000000001 -35.23  43.174869 -4.0265293749999955  37.872 1.2763396250000056 Z"/></g><g id="Thin-S" transform="matrix(1 0 0 1 814.015 696)"><path d="M37.872 -0.08912349999999947  2.7311235000000003 -35.23  37.872 -70.3708765  41.771533875 -66.47134262499999  10.530092625000002 -35.23  41.771533875 -3.9886573749999883  37.872 -0.08912349999999947 Z"/></g><g id="Ultralight-S" transform="matrix(1 0 0 1 517.792 696)"><path d="M37.872 -0.9084999999999894  3.5505 -35.23  37.872 -69.5515  40.929375 -66.494125  9.66525 -35.23  40.929375 -3.965874999999997  37.872 -0.9084999999999894 Z"/></g></g></svg>