<svg xmlns="http://www.w3.org/2000/svg" version="1.1" width="3300" height="2000"><g id="Notes"><style>
    text {
      font-family: monospace;
      text-anchor: middle;
    }
    text.emphasis {
      font-weight:bold;
    }
    text.lanchor {
      text-anchor: start;
    }
  </style><rect height="2200" id="artboard" fill="white" width="3300" x="0" y="0"/><line id="" style="fill:none;stroke:black;stroke-width:0.5;" x1="263" x2="3036" y1="292" y2="292"/><text class="lanchor emphasis" transform="matrix(1 0 0 1 263 322)">Weight/Scale Variations</text><text transform="matrix(1 0 0 1 559.711 322)">Ultralight</text><text transform="matrix(1 0 0 1 856.422 322)">Thin</text><text transform="matrix(1 0 0 1 1153.13 322)">Light</text><text transform="matrix(1 0 0 1 1449.84 322)">Regular</text><text transform="matrix(1 0 0 1 1746.56 322)">Medium</text><text transform="matrix(1 0 0 1 2043.27 322)">Semibold</text><text transform="matrix(1 0 0 1 2339.98 322)">Bold</text><text transform="matrix(1 0 0 1 2636.69 322)">Heavy</text><text transform="matrix(1 0 0 1 2933.4 322)">Black</text><text id="template-version" style="text-anchor: end;" transform="matrix(1 0 0 1 3036 1933)">Template v.1.0</text><text class="lanchor" transform="matrix(1 0 0 1 263 726)">Small</text><text class="lanchor" transform="matrix(1 0 0 1 263 1156)">Medium</text><text class="lanchor" transform="matrix(1 0 0 1 263 1586)">Large</text></g><g id="Guides"><g id="H-reference" style="fill:#27AAE1;stroke:none;" transform="matrix(1 0 0 1 339 696)"><path d="M 54.9316 0 L 57.666 0 L 30.5664 -70.459 L 28.0762 -70.459 L 0.976562 0 L 3.66211 0 L 12.9395 -24.4629 L 45.7031 -24.4629 Z M 29.1992 -67.0898 L 29.4434 -67.0898 L 44.8242 -26.709 L 13.8184 -26.709 Z"/></g><line id="Baseline-S" style="fill:none;stroke:#27AAE1;opacity:1;stroke-width:0.577;" x1="263" x2="3036" y1="696" y2="696"/><line id="Capline-S" style="fill:none;stroke:#27AAE1;opacity:1;stroke-width:0.577;" x1="263" x2="3036" y1="625.541" y2="625.541"/><g id="H-reference" style="fill:#27AAE1;stroke:none;" transform="matrix(1 0 0 1 339 1126)"><path d="M 54.9316 0 L 57.666 0 L 30.5664 -70.459 L 28.0762 -70.459 L 0.976562 0 L 3.66211 0 L 12.9395 -24.4629 L 45.7031 -24.4629 Z M 29.1992 -67.0898 L 29.4434 -67.0898 L 44.8242 -26.709 L 13.8184 -26.709 Z"/></g><line id="Baseline-M" style="fill:none;stroke:#27AAE1;opacity:1;stroke-width:0.577;" x1="263" x2="3036" y1="1126" y2="1126"/><line id="Capline-M" style="fill:none;stroke:#27AAE1;opacity:1;stroke-width:0.577;" x1="263" x2="3036" y1="1055.54" y2="1055.54"/><g id="H-reference" style="fill:#27AAE1;stroke:none;" transform="matrix(1 0 0 1 339 1556)"><path d="M 54.9316 0 L 57.666 0 L 30.5664 -70.459 L 28.0762 -70.459 L 0.976562 0 L 3.66211 0 L 12.9395 -24.4629 L 45.7031 -24.4629 Z M 29.1992 -67.0898 L 29.4434 -67.0898 L 44.8242 -26.709 L 13.8184 -26.709 Z"/></g><line id="Baseline-L" style="fill:none;stroke:#27AAE1;opacity:1;stroke-width:0.577;" x1="263" x2="3036" y1="1556" y2="1556"/><line id="Capline-L" style="fill:none;stroke:#27AAE1;opacity:1;stroke-width:0.577;" x1="263" x2="3036" y1="1485.54" y2="1485.54"/><rect height="119.336" id="left-margin" style="fill:darkred;stroke:none;opacity:0.4;" width="12.4512" x="1394.06" y="1030.79"/><rect height="119.336" id="right-margin" style="fill:darkgreen;stroke:none;opacity:0.4;" width="12.4512" x="1502.5112" y="1030.79"/><rect x="1406.5112" y="1045" width="96" height="96" fill="none" stroke="blue" stroke-dasharray="5"/><rect x="1394.06" y="1030.79" width="120.9024" height="119.336" fill="none" stroke="blue"/></g><g id="Symbols"><g id="Bold-L" transform="matrix(1 0 0 1 2266 1556)"><path d="M132.70875 -91.50625 V-50.38749999999999 H117.55125000000001 V-65.38374999999999 L92.39625000000001 -40.389999999999986 Q95.46000000000001 -35.55249999999998 96.99187500000001 -30.150624999999977 Q98.52375 -24.748749999999987 98.52375 -19.104999999999976 Q98.52375 -3.141249999999985 87.39750000000001 7.985000000000014 Q76.27125000000001 19.111250000000013 60.307500000000005 19.111250000000013 Q44.34375 19.111250000000013 33.2175 7.985000000000014 Q22.091250000000002 -3.141249999999985 22.091250000000002 -19.104999999999976 Q22.091250000000002 -35.06874999999998 33.2175 -46.19499999999998 Q44.34375 -57.32124999999998 60.307500000000005 -57.32124999999998 Q66.1125 -57.32124999999998 71.353125 -55.70874999999998 Q76.59375 -54.09624999999998 81.43125 -51.032499999999985 L106.58625 -76.18749999999999 H91.75125 V-91.50625 H132.70875 Z M60.3400725 -42.16374999999998 Q50.6325 -42.16374999999998 43.940625000000004 -35.50444749999998 Q37.24875 -28.845144999999988 37.24875 -19.137572499999976 Q37.24875 -9.429999999999978 43.908052500000004 -2.7381249999999824 Q50.567355 3.9537500000000136 60.274927500000004 3.9537500000000136 Q69.9825 3.9537500000000136 76.674375 -2.705552499999982 Q83.36625000000001 -9.364854999999977 83.36625000000001 -19.07242749999999 Q83.36625000000001 -28.779999999999987 76.7069475 -35.47187499999998 Q70.047645 -42.16374999999998 60.3400725 -42.16374999999998 Z"/></g><g id="Semibold-L" transform="matrix(1 0 0 1 1970.27 1556)"><path d="M131.09641125 -89.47320999999998 V-50.80820124999998 H118.3223475 V-67.48693374999999 L91.20445125 -40.530287499999986 Q94.40848875 -35.762769999999975 96.08049 -30.29091249999999 Q97.7526525 -24.818893749999972 97.7526525 -19.104999999999976 Q97.7526525 -3.6319337499999875 86.97679875 7.143758750000018 Q76.20110625 17.919451250000037 60.72820125 17.919451250000037 Q45.255134999999996 17.919451250000037 34.4794425 7.143758750000018 Q23.70358875 -3.6319337499999875 23.70358875 -19.104999999999976 Q23.70358875 -34.57806624999998 34.4794425 -45.35375874999998 Q45.255134999999996 -56.129451249999974 60.72820125 -56.129451249999974 Q66.53320125 -56.129451249999974 71.87896125 -54.41181624999999 Q77.22472125 -52.694181249999986 81.99207750000001 -49.49014374999999 L109.10997375 -76.60820124999998 H92.52234750000001 V-89.47320999999998 H131.09641125 Z M60.76077375 -43.35554874999998 Q50.6325 -43.35554874999998 43.55507625 -36.31069749999999 Q36.4776525 -29.26584624999998 36.4776525 -19.137572499999976 Q36.4776525 -9.00929874999997 43.52250375 -1.9318749999999767 Q50.567355 5.145548750000017 60.6954675 5.145548750000017 Q70.82374125 5.145548750000017 77.901165 -1.8993024999999761 Q84.97858875 -8.94415374999997 84.97858875 -19.07242749999999 Q84.97858875 -29.200701249999995 77.9337375 -36.27812499999999 Q70.88888625 -43.35554874999998 60.76077375 -43.35554874999998 Z"/></g><g id="Medium-L" transform="matrix(1 0 0 1 1674.31 1556)"><path d="M129.886875 -87.94826874999998 V-51.12360624999998 H118.9009125 V-69.06444249999998 L90.31048125000001 -40.63542249999999 Q93.61965375 -35.92063374999998 95.39695125000001 -30.396047499999995 Q97.1740875 -24.87146124999998 97.1740875 -19.104999999999976 Q97.1740875 -4.000067499999986 86.66139374999999 6.51278750000003 Q76.14853875 17.02548125000004 61.04360625 17.02548125000004 Q45.93867375000001 17.02548125000004 35.42598 6.51278750000003 Q24.913125 -4.000067499999986 24.913125 -19.104999999999976 Q24.913125 -34.20993249999998 35.42598 -44.72278749999998 Q45.93867375000001 -55.23548124999998 61.04360625 -55.23548124999998 Q66.84860625 -55.23548124999998 72.2732175 -53.43899499999998 Q77.69799 -51.64250874999999 82.41277875 -48.33333624999999 L111.00304874999999 -76.92360624999998 H93.1009125 V-87.94826874999998 H129.886875 Z M61.076178750000004 -44.24951874999998 Q50.6325 -44.24951874999998 43.26579375 -36.915384999999986 Q35.8990875 -29.581251249999994 35.8990875 -19.137572499999976 Q35.8990875 -8.693893749999972 43.23322125 -1.3271874999999795 Q50.567355 6.039518750000013 61.01103375 6.039518750000013 Q71.4547125 6.039518750000013 78.82141875 -1.294614999999979 Q86.188125 -8.628748749999971 86.188125 -19.07242749999999 Q86.188125 -29.516106249999993 78.85399125 -36.882812499999986 Q71.5198575 -44.24951874999998 61.076178750000004 -44.24951874999998 Z"/></g><g id="Regular-L" transform="matrix(1 0 0 1 1378.56 1556)"><path d="M129.0 -86.82999999999998 V-51.35499999999999 H119.325 V-70.22124999999998 L89.655 -40.71249999999998 Q93.04125 -36.03624999999998 94.89562500000001 -30.473124999999982 Q96.75 -24.909999999999982 96.75 -19.104999999999976 Q96.75 -4.269999999999982 86.43 6.050000000000011 Q76.11 16.370000000000033 61.275 16.370000000000033 Q46.44 16.370000000000033 36.120000000000005 6.050000000000011 Q25.8 -4.269999999999982 25.8 -19.104999999999976 Q25.8 -33.93999999999998 36.120000000000005 -44.25999999999998 Q46.44 -54.579999999999984 61.275 -54.579999999999984 Q67.08 -54.579999999999984 72.5625 -52.72562499999998 Q78.045 -50.87124999999999 82.72125 -47.484999999999985 L112.39125 -77.15499999999999 H93.525 V-86.82999999999998 H129.0 Z M61.3075725 -44.90499999999999 Q50.6325 -44.90499999999999 43.05375 -37.35882249999999 Q35.475 -29.812644999999975 35.475 -19.137572499999976 Q35.475 -8.462499999999977 43.0211775 -0.8837499999999778 Q50.567355 6.695000000000022 61.242427500000005 6.695000000000022 Q71.9175 6.695000000000022 79.49625 -0.8511774999999773 Q87.075 -8.397354999999976 87.075 -19.07242749999999 Q87.075 -29.747499999999988 79.5288225 -37.32624999999999 Q71.982645 -44.90499999999999 61.3075725 -44.90499999999999 Z"/></g><g id="Light-L" transform="matrix(1 0 0 1 1082.77 1556)"><path d="M127.38733875000001 -85.21733874999998 V-52.09932999999998 H120.06933000000001 V-72.57807999999997 L87.79433625 -40.52641749999998 Q91.18058625 -35.85016749999998 93.1589625 -30.370892499999982 Q95.13733875000001 -24.891456249999976 95.13733875000001 -19.104999999999976 Q95.13733875000001 -4.944347499999978 85.28818875 4.906576250000029 Q75.4388775 14.75733875000003 61.28064375 14.75733875000003 Q47.12224875 14.75733875000003 37.267455000000005 4.908188750000022 Q27.412661250000003 -4.941122499999992 27.412661250000003 -19.099356249999985 Q27.412661250000003 -33.257751249999984 37.26342375 -43.11254499999998 Q47.1143475 -52.96733874999998 61.275 -52.96733874999998 Q67.08 -52.96733874999998 72.43849875000001 -50.95800249999998 Q77.79683625 -48.94850499999998 82.5351675 -45.624336249999985 L114.81016125 -77.89932999999999 H94.26933 V-85.21733874999998 H127.38733875000001 Z M61.297575 -45.64932999999998 Q50.260335000000005 -45.64932999999998 42.4955025 -37.907072499999984 Q34.730669999999996 -30.164814999999976 34.730669999999996 -19.12757499999998 Q34.730669999999996 -8.090334999999982 42.472927500000004 -0.3255024999999847 Q50.215185 7.439330000000012 61.252425 7.439330000000012 Q72.289665 7.439330000000012 80.0544975 -0.30292749999998136 Q87.81933 -8.04518499999999 87.81933 -19.082424999999986 Q87.81933 -30.119664999999983 80.0770725 -37.88449749999998 Q72.334815 -45.64932999999998 61.297575 -45.64932999999998 Z"/></g><g id="Thin-L" transform="matrix(1 0 0 1 787.282 1556)"><path d="M125.775 -83.60499999999999 V-52.84349874999998 H120.81349875000001 V-74.93474874999998 L85.93383375 -40.34033499999998 Q89.32008375000001 -35.664084999999986 91.4226225 -30.268498749999978 Q93.525 -24.872912499999984 93.525 -19.104999999999976 Q93.525 -5.618694999999988 84.1463775 3.763152500000018 Q74.76791625 13.14500000000001 61.28612625 13.14500000000001 Q47.804336250000006 13.14500000000001 38.41474875 3.7663775000000044 Q29.025000000000002 -5.612083749999982 29.025000000000002 -19.093873749999986 Q29.025000000000002 -32.575663749999975 38.4068475 -41.96525124999998 Q47.788695 -51.35499999999999 61.275 -51.35499999999999 Q67.08 -51.35499999999999 72.3144975 -49.19054124999998 Q77.54883375 -47.02608249999999 82.349085 -43.76383374999999 L117.22875 -78.64349874999999 H95.01349875 V-83.60499999999999 H125.775 Z M61.2875775 -46.39349874999998 Q49.88833125 -46.39349874999998 41.93741625 -38.455161249999975 Q33.98650125 -30.516823749999972 33.98650125 -19.11757749999998 Q33.98650125 -7.718331249999977 41.924838750000006 0.23258375000003184 Q49.86317625 8.183498750000012 61.26242250000001 8.183498750000012 Q72.66166875 8.183498750000012 80.61258375 0.24516125000002376 Q88.56349875000001 -7.693176249999993 88.56349875000001 -19.092422499999984 Q88.56349875000001 -30.491668749999988 80.62516125 -38.44258374999998 Q72.68682375 -46.39349874999998 61.2875775 -46.39349874999998 Z"/></g><g id="Ultralight-L" transform="matrix(1 0 0 1 491.205 1556)"><path d="M124.8075 -82.63749999999999 V-53.28999999999998 H121.26 V-76.34874999999998 L84.8175 -40.22874999999998 Q88.20375 -35.55249999999998 90.38062500000001 -30.207223749999983 Q92.5575 -24.86178624999998 92.5575 -19.104999999999976 Q92.5575 -6.023271249999993 83.4613875 3.0771950000000174 Q74.36511374999999 12.177500000000009 61.2895125 12.177500000000009 Q48.213750000000005 12.177500000000009 39.103125 3.0813875000000337 Q29.9925 -6.014886249999989 29.9925 -19.09048749999998 Q29.9925 -32.16624999999998 39.092805000000006 -41.27687499999999 Q48.19327125 -50.38749999999999 61.275 -50.38749999999999 Q67.08 -50.38749999999999 72.24000000000001 -48.12999999999998 Q77.4 -45.87249999999999 82.2375 -42.64749999999998 L118.68 -79.08999999999997 H95.46000000000001 V-82.63749999999999 H124.8075 Z M61.28145000000001 -46.83999999999999 Q49.665 -46.83999999999999 41.6025 -38.783949999999976 Q33.54 -30.728061249999982 33.54 -19.111449999999977 Q33.54 -7.494999999999976 41.59605 0.5675000000000239 Q49.65193875 8.630000000000024 61.26855 8.630000000000024 Q72.885 8.630000000000024 80.9475 0.5739500000000248 Q89.01 -7.481938749999983 89.01 -19.09854999999999 Q89.01 -30.71499999999999 80.95395 -38.77749999999999 Q72.89806125 -46.83999999999999 61.28145000000001 -46.83999999999999 Z"/></g><g id="Bold-M" transform="matrix(1 0 0 1 2281.8 1126)"><path d="M103.875 -79.97999999999999 V-44.22999999999999 H88.125 V-53.10499999999999 L72.875 -37.97999999999999 Q75.0 -34.47999999999999 75.9375 -30.60499999999999 Q76.875 -26.72999999999999 76.875 -22.72999999999999 Q76.875 -10.10499999999999 68.0 -1.2299999999999898 Q59.125 7.64500000000001 46.5 7.64500000000001 Q33.875 7.64500000000001 25.0 -1.2299999999999898 Q16.125 -10.10499999999999 16.125 -22.72999999999999 Q16.125 -35.35499999999999 25.0 -44.22999999999999 Q33.875 -53.10499999999999 46.5 -53.10499999999999 Q50.5 -53.10499999999999 54.375 -52.10499999999999 Q58.25 -51.10499999999999 61.625 -48.97999999999999 L76.875 -64.22999999999999 H68.125 V-79.97999999999999 H103.875 Z M46.5 -37.35499999999999 Q40.375 -37.35499999999999 36.125 -33.10499999999999 Q31.875 -28.85499999999999 31.875 -22.72999999999999 Q31.875 -16.60499999999999 36.125 -12.35499999999999 Q40.375 -8.10499999999999 46.5 -8.10499999999999 Q52.625 -8.10499999999999 56.875 -12.35499999999999 Q61.125 -16.60499999999999 61.125 -22.72999999999999 Q61.125 -28.85499999999999 56.875 -33.10499999999999 Q52.625 -37.35499999999999 46.5 -37.35499999999999 Z"/></g><g id="Semibold-M" transform="matrix(1 0 0 1 1985.97 1126)"><path d="M102.190375 -77.914875 V-44.66474999999999 H88.940125 V-55.27874999999999 L71.679375 -38.14299999999999 Q73.913125 -34.64299999999999 74.9865 -30.74087499999999 Q76.059875 -26.83874999999999 76.059875 -22.72999999999999 Q76.059875 -10.594124999999991 67.56525 -2.099499999999992 Q59.070625 6.395125000000007 46.93475 6.395125000000007 Q34.798875 6.395125000000007 26.30425 -2.099499999999992 Q17.809625 -10.594124999999991 17.809625 -22.72999999999999 Q17.809625 -34.86587499999999 26.30425 -43.36049999999999 Q34.798875 -51.85512499999999 46.93475 -51.85512499999999 Q50.989125 -51.85512499999999 54.9185 -50.77362499999999 Q58.84775 -49.69199999999999 62.22275 -47.40399999999999 L79.4835 -64.66475 H68.940125 V-77.914875 H102.190375 Z M46.93475 -38.60487499999999 Q40.320625 -38.60487499999999 35.69025 -33.97449999999999 Q31.059875 -29.34412499999999 31.059875 -22.72999999999999 Q31.059875 -16.11587499999999 35.69025 -11.485499999999988 Q40.320625 -6.855124999999987 46.93475 -6.855124999999987 Q53.548875 -6.855124999999987 58.17925 -11.485499999999988 Q62.809625 -16.11587499999999 62.809625 -22.72999999999999 Q62.809625 -29.34412499999999 58.17925 -33.97449999999999 Q53.548875 -38.60487499999999 46.93475 -38.60487499999999 Z"/></g><g id="Medium-M" transform="matrix(1 0 0 1 1689.91 1126)"><path d="M100.926625 -76.36587499999999 V-44.99087499999999 H89.551625 V-56.90937499999999 L70.782625 -38.26537499999999 Q73.097875 -34.76537499999999 74.273125 -30.842749999999995 Q75.448375 -26.920249999999996 75.448375 -22.72999999999999 Q75.448375 -10.960999999999984 67.239125 -2.751749999999987 Q59.029875 5.45750000000001 47.260875 5.45750000000001 Q35.491875 5.45750000000001 27.282625 -2.751749999999987 Q19.073375 -10.960999999999984 19.073375 -22.72999999999999 Q19.073375 -34.498999999999995 27.282625 -42.70824999999999 Q35.491875 -50.91749999999999 47.260875 -50.91749999999999 Q51.356 -50.91749999999999 55.326125 -49.77487499999999 Q59.29625 -48.63224999999999 62.67125 -46.22187499999999 L81.440125 -64.99087499999999 H69.551625 V-76.36587499999999 H100.926625 Z M47.260875 -39.54249999999999 Q40.279875 -39.54249999999999 35.364125 -34.62674999999999 Q30.448375 -29.710999999999984 30.448375 -22.72999999999999 Q30.448375 -15.748999999999995 35.364125 -10.833249999999992 Q40.279875 -5.91749999999999 47.260875 -5.91749999999999 Q54.241875 -5.91749999999999 59.157625 -10.833249999999992 Q64.073375 -15.748999999999995 64.073375 -22.72999999999999 Q64.073375 -29.710999999999984 59.157625 -34.62674999999999 Q54.241875 -39.54249999999999 47.260875 -39.54249999999999 Z"/></g><g id="Regular-M" transform="matrix(1 0 0 1 1394.06 1126)"><path d="M100.0 -75.22999999999999 V-45.22999999999999 H90.0 V-58.10499999999999 L70.125 -38.35499999999999 Q72.5 -34.85499999999999 73.75 -30.91749999999999 Q75.0 -26.97999999999999 75.0 -22.72999999999999 Q75.0 -11.22999999999999 67.0 -3.2299999999999898 Q59.0 4.77000000000001 47.5 4.77000000000001 Q36.0 4.77000000000001 28.0 -3.2299999999999898 Q20.0 -11.22999999999999 20.0 -22.72999999999999 Q20.0 -34.22999999999999 28.0 -42.22999999999999 Q36.0 -50.22999999999999 47.5 -50.22999999999999 Q51.625 -50.22999999999999 55.625 -49.04249999999999 Q59.625 -47.85499999999999 63.0 -45.35499999999999 L82.875 -65.22999999999999 H70.0 V-75.22999999999999 H100.0 Z M47.5 -40.22999999999999 Q40.25 -40.22999999999999 35.125 -35.10499999999999 Q30.0 -29.97999999999999 30.0 -22.72999999999999 Q30.0 -15.47999999999999 35.125 -10.35499999999999 Q40.25 -5.22999999999999 47.5 -5.22999999999999 Q54.75 -5.22999999999999 59.875 -10.35499999999999 Q65.0 -15.47999999999999 65.0 -22.72999999999999 Q65.0 -29.97999999999999 59.875 -35.10499999999999 Q54.75 -40.22999999999999 47.5 -40.22999999999999 Z"/></g><g id="Light-M" transform="matrix(1 0 0 1 1098.18 1126)"><path d="M98.749875 -73.97987499999999 V-46.48012499999999 H91.250125 V-61.08599999999999 L68.49025 -38.49924999999999 Q70.913375 -34.95112499999999 72.331625 -30.98237499999999 Q73.749875 -27.013749999999987 73.749875 -22.72999999999999 Q73.749875 -11.752749999999992 66.114875 -4.116374999999991 Q58.47975 3.519875000000013 47.504375 3.519875000000013 Q36.528875 3.519875000000013 28.8895 -4.115124999999992 Q21.250125 -11.750249999999994 21.250125 -22.725624999999994 Q21.250125 -33.70112499999999 28.886375 -41.34049999999999 Q36.52275 -48.97987499999999 47.5 -48.97987499999999 Q51.721125 -48.97987499999999 55.697125 -47.60012499999999 Q59.673125 -46.22024999999999 63.14425 -43.72024999999999 L85.904125 -66.48012499999999 H71.250125 V-73.97987499999999 H98.749875 Z M47.49225 -41.48012499999999 Q39.721125 -41.48012499999999 34.2355 -35.98674999999999 Q28.749875 -30.493374999999986 28.749875 -22.72224999999999 Q28.749875 -14.95112499999999 34.24325 -9.465499999999992 Q39.736625 -3.9798749999999927 47.50775 -3.9798749999999927 Q55.278875 -3.9798749999999927 60.7645 -9.473249999999993 Q66.250125 -14.966624999999993 66.250125 -22.73774999999999 Q66.250125 -30.50887499999999 60.75675 -35.99449999999999 Q55.263375 -41.48012499999999 47.49225 -41.48012499999999 Z"/></g><g id="Thin-M" transform="matrix(1 0 0 1 802.565 1126)"><path d="M97.5 -72.72999999999999 V-47.72999999999999 H92.5 V-64.06649999999999 L66.85575 -38.64349999999999 Q69.327 -35.04724999999999 70.9135 -31.047374999999988 Q72.5 -27.047374999999988 72.5 -22.72999999999999 Q72.5 -12.275499999999994 65.22975 -5.002749999999992 Q57.959625 2.2700000000000102 47.508625 2.2700000000000102 Q37.057625 2.2700000000000102 29.778875 -5.000249999999994 Q22.5 -12.270374999999987 22.5 -22.721374999999995 Q22.5 -33.17237499999999 29.77275 -40.45112499999999 Q37.0455 -47.72999999999999 47.5 -47.72999999999999 Q51.81725 -47.72999999999999 55.76925 -46.15787499999999 Q59.721125 -44.58574999999999 63.2885 -42.08574999999999 L88.932625 -67.72999999999999 H72.5 V-72.72999999999999 H97.5 Z M47.4845 -42.72999999999999 Q39.192375 -42.72999999999999 33.346125 -36.86824999999999 Q27.5 -31.006624999999985 27.5 -22.714499999999987 Q27.5 -14.422374999999988 33.36175 -8.57612499999999 Q39.223375 -2.7299999999999898 47.5155 -2.7299999999999898 Q55.807625 -2.7299999999999898 61.653875 -8.59174999999999 Q67.5 -14.453374999999994 67.5 -22.745499999999993 Q67.5 -31.03762499999999 61.63825 -36.88387499999999 Q55.776625 -42.72999999999999 47.4845 -42.72999999999999 Z"/></g><g id="Ultralight-M" transform="matrix(1 0 0 1 506.415 1126)"><path d="M96.75 -71.97999999999999 V-48.47999999999999 H93.25 V-65.85499999999999 L65.875 -38.72999999999999 Q68.375 -35.10499999999999 70.0625 -31.08637499999999 Q71.75 -27.067624999999992 71.75 -22.72999999999999 Q71.75 -12.589124999999996 64.69875 -5.534499999999994 Q57.647375 1.5200000000000102 47.51125 1.5200000000000102 Q37.375 1.5200000000000102 30.3125 -5.531249999999986 Q23.25 -12.582624999999993 23.25 -22.718749999999986 Q23.25 -32.85499999999999 30.3045 -39.91749999999999 Q37.359125 -46.97999999999999 47.5 -46.97999999999999 Q51.875 -46.97999999999999 55.8125 -45.29249999999999 Q59.75 -43.60499999999999 63.375 -41.10499999999999 L90.75 -68.47999999999999 H73.25 V-71.97999999999999 H96.75 Z M47.47975 -43.47999999999999 Q38.875 -43.47999999999999 32.8125 -37.397249999999985 Q26.75 -31.314624999999992 26.75 -22.709749999999985 Q26.75 -14.10499999999999 32.83275 -8.04249999999999 Q38.915375 -1.9799999999999898 47.52025 -1.9799999999999898 Q56.125 -1.9799999999999898 62.1875 -8.062749999999994 Q68.25 -14.145374999999987 68.25 -22.750249999999994 Q68.25 -31.35499999999999 62.16725 -37.41749999999999 Q56.084625 -43.47999999999999 47.47975 -43.47999999999999 Z"/></g><g id="Bold-S" transform="matrix(1 0 0 1 2294.23 696)"><path d="M78.80137500000001 -67.38175 V-41.541999999999994 H67.163625 V-47.558125 L57.794250000000005 -38.18874999999999 Q59.326685250000004 -35.609311749999996 59.99053012500001 -32.756780875 Q60.654375 -29.90424999999999 60.654375 -26.985837624999988 Q60.654375 -17.66774762499999 54.117312749999996 -11.112735625 Q47.5802505 -4.557624999999987 38.28800025 -4.557624999999987 Q28.99575 -4.557624999999987 22.4371875 -11.094687249999993 Q15.878625000000001 -17.631749499999984 15.878625000000001 -26.923999749999993 Q15.878625000000001 -36.216249999999995 22.421900625 -42.774812499999996 Q28.965274875 -49.333375 38.2665 -49.333375 Q41.323875 -49.333375 44.134687500000005 -48.642999999999994 Q46.9455 -47.952625 49.509750000000004 -46.374624999999995 L58.879125 -55.74399999999999 H52.961625000000005 V-67.38175 H78.80137500000001 Z M38.244605250000006 -37.69562499999999 Q33.72975 -37.69562499999999 30.6230625 -34.56704275 Q27.516375 -31.438460499999998 27.516375 -26.923605249999994 Q27.516375 -22.408749999999998 30.64495725 -19.30206249999999 Q33.773539500000005 -16.195375 38.28839475 -16.195375 Q42.80325 -16.195375 45.909937500000005 -19.323957249999992 Q49.016625000000005 -22.452539499999986 49.016625000000005 -26.967394749999997 Q49.016625000000005 -31.482249999999993 45.888042750000004 -34.58893749999999 Q42.7594605 -37.69562499999999 38.244605250000006 -37.69562499999999 Z"/></g><g id="Semibold-S" transform="matrix(1 0 0 1 1998.1 696)"><path d="M77.472205875 -65.752366375 V-41.885017749999996 H67.806758625 V-49.27321375 L56.850901875 -38.317356999999994 Q58.469140875 -35.73791874999999 59.240191124999996 -32.863986249999996 Q60.011241375000004 -29.990053749999994 60.011241375000004 -26.985837624999988 Q60.011241375000004 -18.05366724999999 53.774295 -11.798771125000002 Q47.537348625 -5.543776374999993 38.631018000000005 -5.543776374999993 Q29.724687375000002 -5.543776374999993 23.46624075 -11.780722749999995 Q17.207794125 -18.017669124999998 17.207794125 -26.923999749999993 Q17.207794125 -35.830330374999996 23.4510525 -42.08877699999999 Q29.69421225 -48.34722362499999 38.60951775 -48.34722362499999 Q41.709794625 -48.34722362499999 44.563509 -47.592545124999994 Q47.41712475 -46.837768 49.98137475 -45.13116099999999 L60.93723150000001 -56.087017749999994 H53.604758624999995 V-65.752366375 H77.472205875 Z M38.587623 -38.681776375 Q33.686848125000004 -38.681776375 30.280044750000002 -35.253078249999994 Q26.873241375 -31.82428149999999 26.873241375 -26.923605249999994 Q26.873241375 -22.022830374999998 30.301939500000003 -18.61602699999999 Q33.73073625 -15.209223624999993 38.6314125 -15.209223624999993 Q43.53218737500001 -15.209223624999993 46.93899075 -18.63792174999999 Q50.345794125 -22.066718499999993 50.345794125 -26.967394749999997 Q50.345794125 -31.868169624999993 46.917096 -35.274972999999996 Q43.488299250000004 -38.681776375 38.587623 -38.681776375 Z"/></g><g id="Medium-S" transform="matrix(1 0 0 1 1701.85 696)"><path d="M76.47510712500001 -64.530205375 V-42.14233037499999 H68.289232125 V-50.559776875 L56.143366125 -38.413910875 Q57.825908625000004 -35.834472625 58.67733825 -32.944365624999996 Q59.528767875 -30.054357249999995 59.528767875 -26.985837624999988 Q59.528767875 -18.343131624999998 53.516982375 -12.31329774999999 Q47.505196875 -6.283562499999988 38.888330625 -6.283562499999988 Q30.271464375 -6.283562499999988 24.238178625 -12.29534799999999 Q18.204892875 -18.307133499999992 18.204892875 -26.923999749999993 Q18.204892875 -35.540866 24.222891750000002 -41.57415175 Q30.24098925 -47.607437499999996 38.866830375 -47.607437499999996 Q41.999259 -47.607437499999996 44.885125125 -46.804531374999996 Q47.77099125 -46.00162525 50.33524125 -44.19846437499999 L62.481008625 -56.34433037499999 H54.08723212500001 V-64.530205375 H76.47510712500001 Z M38.844935625000005 -39.42156249999999 Q33.654696375 -39.42156249999999 30.022732125 -35.767703499999996 Q26.390767875 -32.113745875 26.390767875 -26.923605249999994 Q26.390767875 -21.733366000000004 30.044626875 -18.101401749999994 Q33.6985845 -14.469437499999998 38.88872512500001 -14.469437499999998 Q44.078964375000005 -14.469437499999998 47.710928625 -18.123296499999995 Q51.342892875000004 -21.777254124999985 51.342892875000004 -26.967394749999997 Q51.342892875000004 -32.15763399999999 47.689033875 -35.78959824999999 Q44.03507625 -39.42156249999999 38.844935625000005 -39.42156249999999 Z"/></g><g id="Regular-S" transform="matrix(1 0 0 1 1405.73 696)"><path d="M75.744 -63.634 V-42.330999999999996 H68.643 V-51.503125 L55.624500000000005 -38.484624999999994 Q57.35418525 -35.90518674999999 58.264592625000006 -33.00334337499999 Q59.175000000000004 -30.101499999999994 59.175000000000004 -26.985837624999988 Q59.175000000000004 -18.55537262499999 53.328312749999995 -12.690735625000002 Q47.4816255 -6.825999999999993 39.077000250000005 -6.825999999999993 Q30.672375000000002 -6.825999999999993 24.8041875 -12.672687249999996 Q18.936 -18.519374499999984 18.936 -26.923999749999993 Q18.936 -35.328624999999995 24.788900625 -41.19681249999999 Q30.641899875 -47.065 39.0555 -47.065 Q42.2115 -47.065 45.120937500000004 -46.2266875 Q48.030375 -45.388374999999996 50.594625 -43.51449999999999 L63.613125000000004 -56.532999999999994 H54.441 V-63.634 H75.744 Z M39.03360525 -39.96399999999999 Q33.631125000000004 -39.96399999999999 29.8340625 -36.145042749999995 Q26.037000000000003 -32.3260855 26.037000000000003 -26.923605249999994 Q26.037000000000003 -21.521124999999998 29.85595725 -17.724062499999988 Q33.6749145 -13.926999999999992 39.077394749999996 -13.926999999999992 Q44.479875 -13.926999999999992 48.2769375 -17.74595724999999 Q52.074000000000005 -21.564914499999986 52.074000000000005 -26.967394749999997 Q52.074000000000005 -32.36987499999999 48.25504275 -36.166937499999996 Q44.4360855 -39.96399999999999 39.03360525 -39.96399999999999 Z"/></g><g id="Light-S" transform="matrix(1 0 0 1 1109.75 696)"><path d="M74.75765137500001 -62.647651374999995 V-43.317348624999994 H69.629348625 V-53.855134 L54.33468225000001 -38.598438249999994 Q56.102338125 -35.981029375 57.145494750000005 -33.05462837499999 Q58.188651375000006 -30.128128749999995 58.188651375000006 -26.985837624999988 Q58.188651375000006 -18.967822374999997 52.629949124999996 -13.390085499999998 Q47.07114825 -7.812348624999984 39.0803535 -7.812348624999984 Q31.089657375 -7.812348624999984 25.506003 -13.371050874999995 Q19.922348625 -18.929851749999997 19.922348625 -26.920646500000004 Q19.922348625 -34.911342624999996 25.488349125000003 -40.494997 Q31.054349625 -46.078651375 39.0555 -46.078651375 Q42.287342625 -46.078651375 45.177844125 -45.088653625 Q48.068345625 -44.09855725 50.70843825 -42.224682249999994 L66.00310462499999 -57.51934862499999 H55.427348625 V-62.647651374999995 H74.75765137500001 Z M39.0274905 -40.95034862499999 Q33.213842625000005 -40.95034862499999 29.132247000000003 -36.840743499999995 Q25.050651375 -32.73103975 25.050651375 -26.9174905 Q25.050651375 -21.103842625 29.160256500000003 -17.022246999999993 Q33.269960250000004 -12.940651375000002 39.0835095 -12.940651375000002 Q44.897157375 -12.940651375000002 48.978753 -17.05025649999999 Q53.060348625 -21.159960249999983 53.060348625 -26.97350949999999 Q53.060348625 -32.78715737499999 48.9507435 -36.86875299999999 Q44.84103975 -40.95034862499999 39.0274905 -40.95034862499999 Z"/></g><g id="Thin-S" transform="matrix(1 0 0 1 814.015 696)"><path d="M73.7715 -61.6615 V-44.30349999999999 H70.6155 V-56.206748499999996 L53.04506175 -38.712251499999994 Q54.850688250000005 -36.05697062499999 56.026594125 -33.10581474999999 Q57.2025 -30.154658874999996 57.2025 -26.985837624999988 Q57.2025 -19.38027212499999 51.931585500000004 -14.089336749999987 Q46.66067100000001 -8.79849999999999 39.083805375 -8.79849999999999 Q31.506841125 -8.79849999999999 26.207719875000002 -14.069414499999993 Q20.9085 -19.340328999999997 20.9085 -26.917194624999993 Q20.9085 -34.49415887499999 26.187600375 -39.793280124999995 Q31.466799375 -45.092499999999994 39.0555 -45.092499999999994 Q42.36318525 -45.092499999999994 45.23475075 -43.950718374999994 Q48.106217625 -42.808936749999994 50.8222515 -40.935061749999996 L68.39259112500001 -58.5055 H56.4135 V-61.6615 H73.7715 Z M39.021277125000005 -41.936499999999995 Q32.796658875 -41.936499999999995 28.430530125 -37.536246999999996 Q24.064500000000002 -33.135994 24.064500000000002 -26.911277124999998 Q24.064500000000002 -20.686658874999992 28.464752999999998 -16.32053012499999 Q32.865006 -11.954499999999996 39.089722875 -11.954499999999996 Q45.314341125000006 -11.954499999999996 49.680469875 -16.354752999999988 Q54.0465 -20.755005999999995 54.0465 -26.979722874999993 Q54.0465 -33.20434112499999 49.646247 -37.57046987499999 Q45.245993999999996 -41.936499999999995 39.021277125000005 -41.936499999999995 Z"/></g><g id="Ultralight-S" transform="matrix(1 0 0 1 517.792 696)"><path d="M73.17975 -61.06975 V-44.89525 H71.20725 V-57.617875 L52.27125 -38.780499999999996 Q54.09956025 -36.102436749999995 55.355155125 -33.136585749999995 Q56.61075 -30.170636124999994 56.61075 -26.985837624999988 Q56.61075 -19.62772224999999 51.5126265 -14.508986124999993 Q46.414404375000004 -9.390249999999995 39.0858765 -9.390249999999995 Q31.757250000000003 -9.390249999999995 26.62875 -14.488373499999994 Q21.50025 -19.586595624999987 21.50025 -26.915123499999993 Q21.50025 -34.24374999999999 26.60724975 -39.372249999999994 Q31.714249500000005 -44.50075 39.0555 -44.50075 Q42.408750000000005 -44.50075 45.268875 -43.267937499999995 Q48.129000000000005 -42.035124999999994 50.8905 -40.161249999999995 L69.82650000000001 -59.097249999999995 H57.005250000000004 V-61.06975 H73.17975 Z M39.017628 -42.52824999999999 Q32.54625 -42.52824999999999 28.009500000000003 -37.953627999999995 Q23.47275 -33.37900599999999 23.47275 -26.90762799999999 Q23.47275 -20.436249999999987 28.047372000000003 -15.899499999999989 Q32.621994 -11.362749999999991 39.093372 -11.362749999999991 Q45.564750000000004 -11.362749999999991 50.1015 -15.937371999999996 Q54.63825 -20.511994 54.63825 -26.98337199999999 Q54.63825 -33.45475 50.063628 -37.991499999999995 Q45.489006 -42.52824999999999 39.017628 -42.52824999999999 Z"/></g></g></svg>